<?xml version="1.0" encoding="UTF-8" standalone="no"?>
<svg
   xmlns:dc="http://purl.org/dc/elements/1.1/"
   xmlns:cc="http://creativecommons.org/ns#"
   xmlns:rdf="http://www.w3.org/1999/02/22-rdf-syntax-ns#"
   xmlns:svg="http://www.w3.org/2000/svg"
   xmlns="http://www.w3.org/2000/svg"
   xmlns:sodipodi="http://sodipodi.sourceforge.net/DTD/sodipodi-0.dtd"
   xmlns:inkscape="http://www.inkscape.org/namespaces/inkscape"
   sodipodi:docname="CombFilter.svg"
   inkscape:version="1.0 (1881450511, 2020-05-07)"
   id="svg821"
   version="1.1"
   viewBox="0 0 50.799999 128.5"
   height="128.5mm"
   width="50.799999mm">
  <defs
     id="defs815" />
  <sodipodi:namedview
     inkscape:document-rotation="0"
     inkscape:snap-bbox-edge-midpoints="true"
     inkscape:snap-bbox-midpoints="true"
     inkscape:bbox-paths="true"
     inkscape:showpageshadow="false"
     inkscape:snap-global="true"
     inkscape:window-maximized="1"
     inkscape:window-y="27"
     inkscape:window-x="0"
     inkscape:window-height="948"
     inkscape:window-width="1920"
     inkscape:snap-nodes="true"
     inkscape:snap-others="false"
     inkscape:bbox-nodes="true"
     inkscape:snap-bbox="true"
     fit-margin-bottom="0"
     fit-margin-right="0"
     fit-margin-left="0"
     fit-margin-top="0"
     showgrid="true"
     inkscape:current-layer="layer1"
     inkscape:document-units="mm"
     inkscape:cy="231.33478"
     inkscape:cx="58.694004"
     inkscape:zoom="1.4142136"
     inkscape:pageshadow="2"
     inkscape:pageopacity="0.0"
     borderopacity="1.0"
     bordercolor="#666666"
     pagecolor="#ffffff"
     id="base">
    <inkscape:grid
       enabled="false"
       dotted="true"
       units="mm"
       id="grid1366"
       type="xygrid" />
  </sodipodi:namedview>
  <metadata
     id="metadata818">
    <rdf:RDF>
      <cc:Work
         rdf:about="">
        <dc:format>image/svg+xml</dc:format>
        <dc:type
           rdf:resource="http://purl.org/dc/dcmitype/StillImage" />
        <dc:title />
      </cc:Work>
    </rdf:RDF>
  </metadata>
  <g
     style="display:inline"
     transform="translate(0,-168.5)"
     id="layer1"
     inkscape:groupmode="layer"
     inkscape:label="Layer 1">
    <rect
       y="168.50136"
       x="-0.010335271"
       height="128.50943"
       width="50.810242"
       id="rect1368"
       style="opacity:1;fill:#f0f0f0;fill-opacity:1;stroke-width:2.86;stroke-miterlimit:4;stroke-dasharray:none" />
    <rect
       y="295.74066"
       x="0.046642244"
       height="1.2593384"
       width="50.793404"
       id="rect1370"
       style="opacity:1;fill:#cdde87;fill-opacity:1;stroke-width:0.274963" />
    <text
       id="text861"
       y="195.13542"
       x="11.90625"
       style="font-style:normal;font-variant:normal;font-weight:bold;font-stretch:normal;font-size:3.52778px;line-height:1.25;font-family:sans-serif;-inkscape-font-specification:'sans-serif Bold';letter-spacing:0px;word-spacing:0px;fill:#000000;fill-opacity:1;stroke:none;stroke-width:0.264583"
       xml:space="preserve" />
    <path
       style="display:inline;fill:none;stroke:#000000;stroke-width:0.285922;stroke-linecap:round;stroke-linejoin:round;stroke-miterlimit:10;stroke-opacity:1"
       d="M 11.189108,216.18124 H 39.532227"
       id="path25991"
       inkscape:connector-curvature="0" />
    <path
       style="display:inline;fill:none;stroke:#000000;stroke-width:0.285922;stroke-linecap:round;stroke-linejoin:round;stroke-miterlimit:10;stroke-opacity:1"
       d="M 11.189108,238.78673 H 39.532227"
       id="path25999"
       inkscape:connector-curvature="0" />
    <rect
       y="275.82028"
       x="35.71875"
       height="10.596378"
       width="10.583333"
       id="rect5287"
       style="display:inline;opacity:1;fill:#cdde87;fill-opacity:1;stroke-width:0.322035" />
    <g
       id="text5967"
       style="font-style:normal;font-variant:normal;font-weight:bold;font-stretch:normal;font-size:12.7807px;line-height:1.25;font-family:sans-serif;-inkscape-font-specification:'sans-serif Bold';letter-spacing:0px;word-spacing:0px;display:inline;fill:#000000;fill-opacity:1;stroke:none;stroke-width:0.844236"
       aria-label="V/oct"
       transform="matrix(0.43423599,0,0,0.35444393,428.92846,116.01205)">
      <path
         id="path6107"
         style="font-style:normal;font-variant:normal;font-weight:normal;font-stretch:normal;font-size:7.66842px;font-family:sans-serif;-inkscape-font-specification:sans-serif;stroke-width:0.844236"
         d="m -970.59916,188.5811 -2.02944,5.57533 h -0.98851 l -2.02943,-5.57533 h 0.7938 l 1.74861,4.9051 1.74861,-4.9051 z"
         inkscape:connector-curvature="0" />
      <path
         id="path6109"
         style="font-style:normal;font-variant:normal;font-weight:normal;font-stretch:normal;font-size:7.66842px;font-family:sans-serif;-inkscape-font-specification:sans-serif;stroke-width:0.844236"
         d="m -967.28167,188.33023 -2.6847,6.96448 h -0.64777 l 2.67346,-6.96448 z"
         inkscape:connector-curvature="0" />
      <path
         id="path6111"
         style="font-style:normal;font-variant:normal;font-weight:normal;font-stretch:normal;font-size:7.66842px;font-family:sans-serif;-inkscape-font-specification:sans-serif;stroke-width:0.844236"
         d="m -962.75476,192.06709 q 0,1.0222 -0.52421,1.61381 -0.52421,0.59161 -1.40413,0.59161 -0.88741,0 -1.41162,-0.59161 -0.52046,-0.59161 -0.52046,-1.61381 0,-1.02221 0.52046,-1.61382 0.52421,-0.59535 1.41162,-0.59535 0.87992,0 1.40413,0.59535 0.52421,0.59161 0.52421,1.61382 z m -0.7264,0 q 0,-0.81253 -0.31827,-1.20568 -0.31827,-0.3969 -0.88367,-0.3969 -0.57288,0 -0.89115,0.3969 -0.31453,0.39315 -0.31453,1.20568 0,0.78631 0.31827,1.19444 0.31827,0.40439 0.88741,0.40439 0.56165,0 0.87992,-0.40064 0.32202,-0.40439 0.32202,-1.19819 z"
         inkscape:connector-curvature="0" />
      <path
         id="path6113"
         style="font-style:normal;font-variant:normal;font-weight:normal;font-stretch:normal;font-size:7.66842px;font-family:sans-serif;-inkscape-font-specification:sans-serif;stroke-width:0.844236"
         d="m -958.56858,193.89433 q -0.35197,0.16849 -0.67024,0.2621 -0.31452,0.0936 -0.67024,0.0936 -0.45306,0 -0.83124,-0.13105 -0.37818,-0.1348 -0.64777,-0.40439 -0.27334,-0.26959 -0.42311,-0.68147 -0.14978,-0.41188 -0.14978,-0.9623 0,-1.02595 0.56165,-1.61007 0.5654,-0.58411 1.49025,-0.58411 0.35946,0 0.70394,0.10109 0.34822,0.1011 0.63654,0.24713 v 0.78257 h -0.0374 q -0.32202,-0.25087 -0.6665,-0.38567 -0.34073,-0.1348 -0.66649,-0.1348 -0.5991,0 -0.94732,0.40439 -0.34448,0.40065 -0.34448,1.17947 0,0.75636 0.33699,1.16449 0.34074,0.40439 0.95481,0.40439 0.21343,0 0.43434,-0.0562 0.22092,-0.0562 0.3969,-0.14603 0.15352,-0.0786 0.28832,-0.16475 0.13479,-0.0899 0.21343,-0.15352 h 0.0374 z"
         inkscape:connector-curvature="0" />
      <path
         id="path6115"
         style="font-style:normal;font-variant:normal;font-weight:normal;font-stretch:normal;font-size:7.66842px;font-family:sans-serif;-inkscape-font-specification:sans-serif;stroke-width:0.844236"
         d="m -955.49073,194.11899 q -0.19845,0.0524 -0.43434,0.0861 -0.23215,0.0337 -0.41562,0.0337 -0.64029,0 -0.97353,-0.34448 -0.33325,-0.34448 -0.33325,-1.10458 v -2.22415 h -0.47553 v -0.5916 h 0.47553 v -1.20194 h 0.70394 v 1.20194 h 1.4528 v 0.5916 h -1.4528 v 1.90588 q 0,0.3295 0.015,0.51672 0.015,0.18347 0.10485,0.34448 0.0824,0.14977 0.22466,0.22091 0.14603,0.0674 0.44183,0.0674 0.17224,0 0.35946,-0.0487 0.18721,-0.0524 0.26959,-0.0861 h 0.0374 z"
         inkscape:connector-curvature="0" />
    </g>
    <g
       id="text5967-7"
       style="font-style:normal;font-variant:normal;font-weight:bold;font-stretch:normal;font-size:12.7807px;line-height:1.25;font-family:sans-serif;-inkscape-font-specification:'sans-serif Bold';letter-spacing:0px;word-spacing:0px;display:inline;fill:#000000;fill-opacity:1;stroke:none;stroke-width:0.844236"
       aria-label="cv"
       transform="matrix(0.43423599,0,0,0.35444393,429.50149,118.75383)">
      <path
         id="path6135"
         style="font-style:normal;font-variant:normal;font-weight:normal;font-stretch:normal;font-size:7.66842px;font-family:sans-serif;-inkscape-font-specification:sans-serif;stroke-width:0.844236"
         d="m -967.97441,256.28636 q -0.35197,0.16849 -0.67024,0.2621 -0.31453,0.0936 -0.67024,0.0936 -0.45307,0 -0.83125,-0.13105 -0.37817,-0.1348 -0.64777,-0.40439 -0.27333,-0.26959 -0.42311,-0.68147 -0.14977,-0.41188 -0.14977,-0.9623 0,-1.02595 0.56165,-1.61007 0.5654,-0.58412 1.49025,-0.58412 0.35946,0 0.70394,0.1011 0.34822,0.1011 0.63654,0.24713 v 0.78257 h -0.0374 q -0.32201,-0.25087 -0.66649,-0.38567 -0.34074,-0.1348 -0.6665,-0.1348 -0.59909,0 -0.94731,0.40439 -0.34448,0.40065 -0.34448,1.17947 0,0.75636 0.33699,1.16449 0.34073,0.40439 0.9548,0.40439 0.21343,0 0.43435,-0.0562 0.22092,-0.0562 0.3969,-0.14603 0.15352,-0.0786 0.28831,-0.16475 0.1348,-0.0899 0.21343,-0.15352 h 0.0374 z"
         inkscape:connector-curvature="0" />
      <path
         id="path6137"
         style="font-style:normal;font-variant:normal;font-weight:normal;font-stretch:normal;font-size:7.66842px;font-family:sans-serif;-inkscape-font-specification:sans-serif;stroke-width:0.844236"
         d="m -963.45124,252.36603 -1.69245,4.18243 h -0.70768 l -1.68121,-4.18243 h 0.76384 l 1.29555,3.32872 1.28431,-3.32872 z"
         inkscape:connector-curvature="0" />
    </g>
    <g
       id="text5967-7-6"
       style="font-style:normal;font-variant:normal;font-weight:bold;font-stretch:normal;font-size:12.7807px;line-height:1.25;font-family:sans-serif;-inkscape-font-specification:'sans-serif Bold';letter-spacing:0px;word-spacing:0px;display:inline;fill:#000000;fill-opacity:1;stroke:none;stroke-width:0.844236"
       aria-label="cv"
       transform="matrix(0.43423599,0,0,0.35444393,429.50149,118.75383)">
      <path
         id="path6153"
         style="font-style:normal;font-variant:normal;font-weight:normal;font-stretch:normal;font-size:7.66842px;font-family:sans-serif;-inkscape-font-specification:sans-serif;stroke-width:0.844236"
         d="m -968.93297,319.55085 q -0.35197,0.1685 -0.67024,0.26211 -0.31452,0.0936 -0.67024,0.0936 -0.45306,0 -0.83124,-0.13106 -0.37818,-0.13479 -0.64777,-0.40439 -0.27334,-0.26959 -0.42312,-0.68147 -0.14977,-0.41187 -0.14977,-0.96229 0,-1.02595 0.56165,-1.61007 0.5654,-0.58412 1.49025,-0.58412 0.35946,0 0.70394,0.1011 0.34822,0.10109 0.63654,0.24712 v 0.78257 h -0.0375 q -0.32201,-0.25087 -0.66649,-0.38567 -0.34073,-0.13479 -0.66649,-0.13479 -0.5991,0 -0.94732,0.40439 -0.34448,0.40064 -0.34448,1.17947 0,0.75635 0.33699,1.16449 0.34073,0.40439 0.95481,0.40439 0.21343,0 0.43434,-0.0562 0.22092,-0.0562 0.3969,-0.14603 0.15352,-0.0786 0.28832,-0.16475 0.13479,-0.0899 0.21342,-0.15352 h 0.0375 z"
         inkscape:connector-curvature="0" />
      <path
         id="path6155"
         style="font-style:normal;font-variant:normal;font-weight:normal;font-stretch:normal;font-size:7.66842px;font-family:sans-serif;-inkscape-font-specification:sans-serif;stroke-width:0.844236"
         d="m -964.4098,315.63052 -1.69245,4.18244 h -0.70768 l -1.68121,-4.18244 h 0.76385 l 1.29554,3.32873 1.28431,-3.32873 z"
         inkscape:connector-curvature="0" />
    </g>
    <g
       id="text5967-7-1"
       style="font-style:normal;font-variant:normal;font-weight:bold;font-stretch:normal;font-size:12.7807px;line-height:1.25;font-family:sans-serif;-inkscape-font-specification:'sans-serif Bold';letter-spacing:0px;word-spacing:0px;display:inline;fill:#000000;fill-opacity:1;stroke:none;stroke-width:0.844236"
       aria-label="in"
       transform="matrix(0.43423599,0,0,0.35444393,429.50149,118.75383)">
      <path
         id="path6210"
         style="font-style:normal;font-variant:normal;font-weight:normal;font-stretch:normal;font-size:7.66842px;font-family:sans-serif;-inkscape-font-specification:sans-serif;stroke-width:0.844236"
         d="m -969.61441,435.80155 h -0.79381 v -0.73015 h 0.79381 z m -0.0449,4.88262 h -0.70393 v -4.18243 h 0.70393 z"
         inkscape:connector-curvature="0" />
      <path
         id="path6212"
         style="font-style:normal;font-variant:normal;font-weight:normal;font-stretch:normal;font-size:7.66842px;font-family:sans-serif;-inkscape-font-specification:sans-serif;stroke-width:0.844236"
         d="m -964.76174,440.68417 h -0.70394 v -2.3814 q 0,-0.28832 -0.0337,-0.53919 -0.0337,-0.25461 -0.12356,-0.3969 -0.0936,-0.15726 -0.26959,-0.23215 -0.17599,-0.0786 -0.45681,-0.0786 -0.28832,0 -0.60284,0.14229 -0.31453,0.14228 -0.60284,0.3632 v 3.12278 h -0.70394 v -4.18243 h 0.70394 v 0.4643 q 0.3295,-0.27334 0.68147,-0.42686 0.35197,-0.15352 0.72266,-0.15352 0.67772,0 1.03344,0.40814 0.35571,0.40813 0.35571,1.17572 z"
         inkscape:connector-curvature="0" />
    </g>
    <g
       id="text5967-7-9"
       style="font-style:normal;font-variant:normal;font-weight:bold;font-stretch:normal;font-size:12.7807px;line-height:1.25;font-family:sans-serif;-inkscape-font-specification:'sans-serif Bold';letter-spacing:0px;word-spacing:0px;display:inline;fill:#000000;fill-opacity:1;stroke:none;stroke-width:0.844236"
       aria-label="out"
       transform="matrix(0.43423599,0,0,0.35444393,436.84997,118.51324)">
      <path
         id="path6203"
         style="font-style:normal;font-variant:normal;font-weight:normal;font-stretch:normal;font-size:7.66842px;font-family:sans-serif;-inkscape-font-specification:sans-serif;stroke-width:0.844236"
         d="m -913.34436,438.47877 q 0,1.02221 -0.52421,1.61381 -0.52421,0.59161 -1.40413,0.59161 -0.88741,0 -1.41162,-0.59161 -0.52046,-0.5916 -0.52046,-1.61381 0,-1.02221 0.52046,-1.61381 0.52421,-0.59535 1.41162,-0.59535 0.87992,0 1.40413,0.59535 0.52421,0.5916 0.52421,1.61381 z m -0.72641,0 q 0,-0.81252 -0.31827,-1.20568 -0.31826,-0.3969 -0.88366,-0.3969 -0.57289,0 -0.89116,0.3969 -0.31452,0.39316 -0.31452,1.20568 0,0.78631 0.31827,1.19445 0.31827,0.40439 0.88741,0.40439 0.56165,0 0.87992,-0.40065 0.32201,-0.40439 0.32201,-1.19819 z"
         inkscape:connector-curvature="0" />
      <path
         id="path6205"
         style="font-style:normal;font-variant:normal;font-weight:normal;font-stretch:normal;font-size:7.66842px;font-family:sans-serif;-inkscape-font-specification:sans-serif;stroke-width:0.844236"
         d="m -908.78375,440.56812 h -0.70394 v -0.4643 q -0.35571,0.28082 -0.68147,0.4306 -0.32576,0.14977 -0.71891,0.14977 -0.65901,0 -1.02595,-0.40065 -0.36695,-0.40438 -0.36695,-1.18321 v -2.71465 h 0.70394 v 2.3814 q 0,0.31827 0.0299,0.54668 0.03,0.22466 0.12731,0.38567 0.1011,0.16475 0.26211,0.23964 0.161,0.0749 0.46804,0.0749 0.27334,0 0.59535,-0.14228 0.32576,-0.14229 0.60658,-0.3632 v -3.12279 h 0.70394 z"
         inkscape:connector-curvature="0" />
      <path
         id="path6207"
         style="font-style:normal;font-variant:normal;font-weight:normal;font-stretch:normal;font-size:7.66842px;font-family:sans-serif;-inkscape-font-specification:sans-serif;stroke-width:0.844236"
         d="m -905.22662,440.53067 q -0.19845,0.0524 -0.43434,0.0861 -0.23215,0.0337 -0.41563,0.0337 -0.64028,0 -0.97353,-0.34448 -0.33324,-0.34448 -0.33324,-1.10458 v -2.22414 h -0.47554 v -0.59161 h 0.47554 v -1.20193 h 0.70393 v 1.20193 h 1.45281 v 0.59161 h -1.45281 v 1.90587 q 0,0.3295 0.015,0.51672 0.015,0.18347 0.10484,0.34448 0.0824,0.14977 0.22466,0.22092 0.14603,0.0674 0.44184,0.0674 0.17224,0 0.35945,-0.0487 0.18722,-0.0524 0.2696,-0.0861 h 0.0374 z"
         inkscape:connector-curvature="0" />
    </g>
    <g
       id="text5965"
       style="font-style:normal;font-weight:normal;font-size:2.82222px;line-height:1.25;font-family:sans-serif;letter-spacing:0px;word-spacing:0px;display:inline;fill:#000000;fill-opacity:1;stroke:none;stroke-width:0.264583"
       aria-label="frequency">
      <path
         id="path6226"
         style="stroke-width:0.264583"
         d="m 34.590137,183.22917 v 0.21084 h -0.242535 q -0.136426,0 -0.190169,0.0551 -0.05237,0.0551 -0.05237,0.19844 V 183.83 h 0.417546 v 0.19705 h -0.417546 v 1.34635 H 33.85013 v -1.34635 H 33.607595 V 183.83 h 0.242535 v -0.10749 q 0,-0.2577 0.119889,-0.37483 0.11989,-0.11851 0.380339,-0.11851 z" />
      <path
         id="path6228"
         style="stroke-width:0.264583"
         d="m 35.695323,184.06702 q -0.04272,-0.0248 -0.09371,-0.0358 -0.04961,-0.0124 -0.110243,-0.0124 -0.214974,0 -0.33073,0.14056 -0.114377,0.13918 -0.114377,0.40101 v 0.81304 H 34.79133 V 183.83 h 0.254937 v 0.23977 q 0.07993,-0.14056 0.208084,-0.20808 0.128158,-0.0689 0.311437,-0.0689 0.02618,0 0.05788,0.004 0.03169,0.003 0.07028,0.01 z" />
      <path
         id="path6230"
         style="stroke-width:0.264583"
         d="m 37.223568,184.53831 v 0.12402 h -1.165821 q 0.01654,0.26183 0.157097,0.39963 0.141938,0.13643 0.394119,0.13643 0.146072,0 0.282497,-0.0358 0.137804,-0.0358 0.272852,-0.10749 v 0.23978 q -0.136426,0.0579 -0.279742,0.0882 -0.143316,0.0303 -0.290766,0.0303 -0.369314,0 -0.585666,-0.21497 -0.214974,-0.21498 -0.214974,-0.58154 0,-0.37896 0.20395,-0.60082 0.205327,-0.22324 0.552593,-0.22324 0.311437,0 0.49196,0.20119 0.181901,0.19982 0.181901,0.54433 z m -0.253559,-0.0744 q -0.0028,-0.20808 -0.117134,-0.3321 -0.112999,-0.12403 -0.300412,-0.12403 -0.212218,0 -0.340375,0.11989 -0.12678,0.11989 -0.146072,0.33762 z" />
      <path
         id="path6232"
         style="stroke-width:0.264583"
         d="m 37.791319,184.60307 q 0,0.27975 0.114378,0.4396 0.115755,0.15847 0.316948,0.15847 0.201194,0 0.316949,-0.15847 0.115755,-0.15985 0.115755,-0.4396 0,-0.27974 -0.115755,-0.43821 -0.115755,-0.15985 -0.316949,-0.15985 -0.201193,0 -0.316948,0.15985 -0.114378,0.15847 -0.114378,0.43821 z m 0.86403,0.53882 q -0.07993,0.1378 -0.202571,0.20533 -0.121268,0.0661 -0.292144,0.0661 -0.279742,0 -0.456131,-0.22324 -0.175011,-0.22324 -0.175011,-0.58705 0,-0.3638 0.175011,-0.58704 0.176389,-0.22324 0.456131,-0.22324 0.170876,0 0.292144,0.0675 0.122645,0.0661 0.202571,0.20395 V 183.83 h 0.253559 v 2.13044 h -0.253559 z" />
      <path
         id="path6234"
         style="stroke-width:0.264583"
         d="M 39.405002,184.7643 V 183.83 h 0.253559 v 0.92466 q 0,0.21911 0.08544,0.32935 0.08544,0.10886 0.256315,0.10886 0.205327,0 0.323839,-0.13091 0.119889,-0.13091 0.119889,-0.35691 V 183.83 h 0.253559 v 1.5434 h -0.253559 v -0.23702 q -0.09233,0.14056 -0.214974,0.20946 -0.121267,0.0675 -0.282498,0.0675 -0.265961,0 -0.403765,-0.16536 -0.137804,-0.16537 -0.137804,-0.4837 z m 0.638032,-0.97151 z" />
      <path
         id="path6236"
         style="stroke-width:0.264583"
         d="m 42.542795,184.53831 v 0.12402 h -1.16582 q 0.01654,0.26183 0.157096,0.39963 0.141938,0.13643 0.394119,0.13643 0.146072,0 0.282498,-0.0358 0.137804,-0.0358 0.272851,-0.10749 v 0.23978 q -0.136425,0.0579 -0.279741,0.0882 -0.143316,0.0303 -0.290766,0.0303 -0.369315,0 -0.585667,-0.21497 -0.214974,-0.21498 -0.214974,-0.58154 0,-0.37896 0.20395,-0.60082 0.205328,-0.22324 0.552593,-0.22324 0.311437,0 0.49196,0.20119 0.181901,0.19982 0.181901,0.54433 z m -0.253559,-0.0744 q -0.0028,-0.20808 -0.117133,-0.3321 -0.112999,-0.12403 -0.300412,-0.12403 -0.212218,0 -0.340376,0.11989 -0.126779,0.11989 -0.146072,0.33762 z" />
      <path
         id="path6238"
         style="stroke-width:0.264583"
         d="m 44.241916,184.44184 v 0.93156 h -0.253559 v -0.92329 q 0,-0.21911 -0.08544,-0.32797 -0.08544,-0.10887 -0.256315,-0.10887 -0.205327,0 -0.323839,0.13092 -0.118511,0.13091 -0.118511,0.35691 v 0.8723 H 42.949316 V 183.83 h 0.254937 v 0.23977 q 0.09095,-0.13918 0.213596,-0.20808 0.124023,-0.0689 0.285254,-0.0689 0.265961,0 0.402387,0.16536 0.136426,0.16399 0.136426,0.48369 z" />
      <path
         id="path6240"
         style="stroke-width:0.264583"
         d="m 45.861111,183.88925 v 0.23702 q -0.107487,-0.0592 -0.216352,-0.0882 -0.107487,-0.0303 -0.21773,-0.0303 -0.246668,0 -0.383094,0.1571 -0.136426,0.15572 -0.136426,0.43821 0,0.2825 0.136426,0.4396 0.136426,0.15572 0.383094,0.15572 0.110243,0 0.21773,-0.0289 0.108865,-0.0303 0.216352,-0.0896 v 0.23426 q -0.106108,0.0496 -0.220486,0.0744 -0.112999,0.0248 -0.241156,0.0248 -0.348644,0 -0.553972,-0.21911 -0.205327,-0.21911 -0.205327,-0.59118 0,-0.37758 0.206705,-0.59393 0.208084,-0.21635 0.56913,-0.21635 0.117133,0 0.228754,0.0248 0.111622,0.0234 0.216352,0.0717 z" />
      <path
         id="path6242"
         style="stroke-width:0.264583"
         d="m 46.947006,185.51671 q -0.107487,0.27561 -0.209462,0.35967 -0.101975,0.0841 -0.272852,0.0841 h -0.202571 v -0.21222 h 0.148828 q 0.104731,0 0.162608,-0.0496 0.05788,-0.0496 0.128158,-0.23426 l 0.04548,-0.11576 -0.624251,-1.51859 h 0.268717 l 0.482314,1.20716 0.482313,-1.20716 H 47.625 Z" />
    </g>
    <g
       id="text5967-7-3"
       style="font-style:normal;font-variant:normal;font-weight:bold;font-stretch:normal;font-size:12.7807px;line-height:1.25;font-family:sans-serif;-inkscape-font-specification:'sans-serif Bold';letter-spacing:0px;word-spacing:0px;display:inline;fill:#000000;fill-opacity:1;stroke:none;stroke-width:0.844236"
       aria-label="cv"
       transform="matrix(0.43423599,0,0,0.35444393,429.40061,113.42028)">
      <path
         id="path6135-6"
         style="font-style:normal;font-variant:normal;font-weight:normal;font-stretch:normal;font-size:7.66842px;font-family:sans-serif;-inkscape-font-specification:sans-serif;stroke-width:0.844236"
         d="m -967.97441,256.28636 q -0.35197,0.16849 -0.67024,0.2621 -0.31453,0.0936 -0.67024,0.0936 -0.45307,0 -0.83125,-0.13105 -0.37817,-0.1348 -0.64777,-0.40439 -0.27333,-0.26959 -0.42311,-0.68147 -0.14977,-0.41188 -0.14977,-0.9623 0,-1.02595 0.56165,-1.61007 0.5654,-0.58412 1.49025,-0.58412 0.35946,0 0.70394,0.1011 0.34822,0.1011 0.63654,0.24713 v 0.78257 h -0.0374 q -0.32201,-0.25087 -0.66649,-0.38567 -0.34074,-0.1348 -0.6665,-0.1348 -0.59909,0 -0.94731,0.40439 -0.34448,0.40065 -0.34448,1.17947 0,0.75636 0.33699,1.16449 0.34073,0.40439 0.9548,0.40439 0.21343,0 0.43435,-0.0562 0.22092,-0.0562 0.3969,-0.14603 0.15352,-0.0786 0.28831,-0.16475 0.1348,-0.0899 0.21343,-0.15352 h 0.0374 z"
         inkscape:connector-curvature="0" />
      <path
         id="path6137-7"
         style="font-style:normal;font-variant:normal;font-weight:normal;font-stretch:normal;font-size:7.66842px;font-family:sans-serif;-inkscape-font-specification:sans-serif;stroke-width:0.844236"
         d="m -963.45124,252.36603 -1.69245,4.18243 h -0.70768 l -1.68121,-4.18243 h 0.76384 l 1.29555,3.32872 1.28431,-3.32872 z"
         inkscape:connector-curvature="0" />
    </g>
    <path
       style="display:inline;fill:none;stroke:#000000;stroke-width:0.239439;stroke-linecap:round;stroke-linejoin:round;stroke-miterlimit:10;stroke-opacity:1"
       d="M 10.583158,198.04583 H 30.459752"
       id="path25971-0"
       inkscape:connector-curvature="0" />
    <path
       style="display:inline;fill:none;stroke:#000000;stroke-width:0.239603;stroke-linecap:round;stroke-linejoin:round;stroke-miterlimit:10;stroke-opacity:1"
       d="M 10.539499,189.84375 H 30.443362"
       id="path25971-9"
       inkscape:connector-curvature="0" />
    <path
       inkscape:connector-curvature="0"
       id="path6181"
       d="m 31.75,189.84375 c 2.645833,3.70417 2.645833,3.70417 0,0 z"
       style="fill:#f0f0f0;fill-opacity:1;stroke:#ffffff;stroke-width:0.264583px;stroke-linecap:butt;stroke-linejoin:miter;stroke-opacity:1" />
    <path
       inkscape:connector-curvature="0"
       id="path6189"
       d="m 39.6875,193.8125 c -5.291667,0 -5.291667,0 -5.291667,0"
       style="fill:none;stroke:#000000;stroke-width:0.264583px;stroke-linecap:butt;stroke-linejoin:miter;stroke-opacity:1" />
    <path
       inkscape:connector-curvature="0"
       id="path6191"
       d="m 30.427083,189.84375 3.96875,3.96875"
       style="fill:none;stroke:#000000;stroke-width:0.264583px;stroke-linecap:butt;stroke-linejoin:miter;stroke-opacity:1" />
    <path
       inkscape:connector-curvature="0"
       id="path6204"
       d="m 34.395833,193.8125 -3.96875,4.23333"
       style="fill:none;stroke:#000000;stroke-width:0.264583px;stroke-linecap:butt;stroke-linejoin:miter;stroke-opacity:1" />
    <g
       id="text6208"
       style="font-style:normal;font-weight:normal;font-size:2.82222px;line-height:1.25;font-family:sans-serif;letter-spacing:0px;word-spacing:0px;fill:#000000;fill-opacity:1;stroke:none;stroke-width:0.264583"
       aria-label="Studio Six Plus One">
      <path
         id="path6294"
         style="stroke-width:0.264583"
         d="m 13.681163,291.43821 v 0.27148 q -0.158474,-0.0758 -0.299034,-0.113 -0.14056,-0.0372 -0.271473,-0.0372 -0.227377,0 -0.3514,0.0882 -0.122646,0.0882 -0.122646,0.2508 0,0.13642 0.08131,0.2067 0.08268,0.0689 0.311436,0.11163 l 0.168121,0.0344 q 0.311437,0.0593 0.458887,0.20946 0.148828,0.14883 0.148828,0.39963 0,0.29903 -0.201194,0.45337 -0.199815,0.15434 -0.587044,0.15434 -0.146072,0 -0.311437,-0.0331 -0.163986,-0.0331 -0.340375,-0.0978 v -0.28663 q 0.169499,0.0951 0.332107,0.14331 0.162609,0.0482 0.319705,0.0482 0.238401,0 0.367936,-0.0937 0.129536,-0.0937 0.129536,-0.26734 0,-0.15158 -0.09371,-0.23702 -0.09233,-0.0854 -0.304546,-0.12816 l -0.169499,-0.0331 q -0.311437,-0.062 -0.450618,-0.19431 -0.139182,-0.13229 -0.139182,-0.36793 0,-0.27285 0.191547,-0.42995 0.192925,-0.1571 0.530545,-0.1571 0.144694,0 0.2949,0.0262 0.150206,0.0262 0.307302,0.0785 z" />
      <path
         id="path6296"
         style="stroke-width:0.264583"
         d="m 14.479048,291.44648 v 0.43822 h 0.522276 v 0.19706 h -0.522276 v 0.83784 q 0,0.1888 0.05099,0.24254 0.05236,0.0537 0.21084,0.0537 h 0.260449 v 0.21222 h -0.260449 q -0.293522,0 -0.405143,-0.10886 -0.111621,-0.11025 -0.111621,-0.39964 v -0.83784 h -0.186036 v -0.19706 h 0.186036 v -0.43822 z" />
      <path
         id="path6298"
         style="stroke-width:0.264583"
         d="m 15.310005,292.81901 v -0.93431 h 0.253559 v 0.92466 q 0,0.21911 0.08544,0.32935 0.08544,0.10887 0.256315,0.10887 0.205328,0 0.323839,-0.13092 0.119889,-0.13091 0.119889,-0.35691 v -0.87505 h 0.253559 v 1.5434 h -0.253559 v -0.23702 q -0.09233,0.14056 -0.214974,0.20946 -0.121267,0.0675 -0.282497,0.0675 -0.265962,0 -0.403766,-0.16536 -0.137803,-0.16537 -0.137803,-0.48369 z m 0.638031,-0.97152 z" />
      <path
         id="path6300"
         style="stroke-width:0.264583"
         d="m 18.143251,292.11896 v -0.83509 h 0.253559 v 2.14423 h -0.253559 v -0.23151 q -0.07993,0.1378 -0.202571,0.20533 -0.121268,0.0661 -0.292144,0.0661 -0.279742,0 -0.456131,-0.22324 -0.175011,-0.22324 -0.175011,-0.58704 0,-0.3638 0.175011,-0.58705 0.176389,-0.22324 0.456131,-0.22324 0.170876,0 0.292144,0.0675 0.122645,0.0661 0.202571,0.20395 z m -0.86403,0.53882 q 0,0.27974 0.114377,0.43959 0.115756,0.15848 0.316949,0.15848 0.201194,0 0.316949,-0.15848 0.115755,-0.15985 0.115755,-0.43959 0,-0.27974 -0.115755,-0.43822 -0.115755,-0.15985 -0.316949,-0.15985 -0.201193,0 -0.316949,0.15985 -0.114377,0.15848 -0.114377,0.43822 z" />
      <path
         id="path6302"
         style="stroke-width:0.264583"
         d="m 18.919087,291.8847 h 0.253559 v 1.5434 h -0.253559 z m 0,-0.60083 h 0.253559 v 0.32109 h -0.253559 z" />
      <path
         id="path6304"
         style="stroke-width:0.264583"
         d="m 20.299881,292.06246 q -0.20395,0 -0.322461,0.15986 -0.118511,0.15847 -0.118511,0.43546 0,0.27698 0.117133,0.43684 0.118511,0.15847 0.323839,0.15847 0.202572,0 0.321083,-0.15985 0.118511,-0.15986 0.118511,-0.43546 0,-0.27423 -0.118511,-0.43408 -0.118511,-0.16124 -0.321083,-0.16124 z m 0,-0.21497 q 0.330729,0 0.51952,0.21497 0.188792,0.21498 0.188792,0.59532 0,0.37896 -0.188792,0.59531 -0.188791,0.21497 -0.51952,0.21497 -0.332107,0 -0.520898,-0.21497 -0.187414,-0.21635 -0.187414,-0.59531 0,-0.38034 0.187414,-0.59532 0.188791,-0.21497 0.520898,-0.21497 z" />
      <path
         id="path6306"
         style="stroke-width:0.264583"
         d="m 23.569965,291.43821 v 0.27148 q -0.158474,-0.0758 -0.299034,-0.113 -0.14056,-0.0372 -0.271474,-0.0372 -0.227376,0 -0.3514,0.0882 -0.122645,0.0882 -0.122645,0.2508 0,0.13642 0.0813,0.2067 0.08268,0.0689 0.311437,0.11163 l 0.168121,0.0344 q 0.311436,0.0593 0.458886,0.20946 0.148828,0.14883 0.148828,0.39963 0,0.29903 -0.201193,0.45337 -0.199816,0.15434 -0.587044,0.15434 -0.146072,0 -0.311437,-0.0331 -0.163987,-0.0331 -0.340375,-0.0978 v -0.28663 q 0.169498,0.0951 0.332107,0.14331 0.162608,0.0482 0.319705,0.0482 0.2384,0 0.367936,-0.0937 0.129535,-0.0937 0.129535,-0.26734 0,-0.15158 -0.09371,-0.23702 -0.09233,-0.0854 -0.304547,-0.12816 l -0.169498,-0.0331 q -0.311437,-0.062 -0.450619,-0.19431 -0.139182,-0.13229 -0.139182,-0.36793 0,-0.27285 0.191548,-0.42995 0.192925,-0.1571 0.530544,-0.1571 0.144694,0 0.294901,0.0262 0.150206,0.0262 0.307302,0.0785 z" />
      <path
         id="path6308"
         style="stroke-width:0.264583"
         d="m 24.117047,291.8847 h 0.253559 v 1.5434 h -0.253559 z m 0,-0.60083 h 0.253559 v 0.32109 h -0.253559 z" />
      <path
         id="path6310"
         style="stroke-width:0.264583"
         d="m 26.182726,291.8847 -0.558106,0.75103 0.587045,0.79237 H 25.91263 l -0.44924,-0.60634 -0.44924,0.60634 h -0.299035 l 0.599447,-0.80753 -0.548459,-0.73587 h 0.299034 l 0.409277,0.54984 0.409278,-0.54984 z" />
      <path
         id="path6312"
         style="stroke-width:0.264583"
         d="m 27.757824,291.59944 v 0.77308 h 0.350022 q 0.194303,0 0.300412,-0.10059 0.106109,-0.1006 0.106109,-0.28664 0,-0.18465 -0.106109,-0.28525 -0.106109,-0.1006 -0.300412,-0.1006 z m -0.278364,-0.22875 h 0.628386 q 0.345887,0 0.522276,0.1571 0.177767,0.15571 0.177767,0.4575 0,0.30455 -0.177767,0.46027 -0.176389,0.15572 -0.522276,0.15572 h -0.350022 v 0.82682 H 27.47946 Z" />
      <path
         id="path6314"
         style="stroke-width:0.264583"
         d="m 29.171691,291.28387 h 0.253559 v 2.14423 h -0.253559 z" />
      <path
         id="path6316"
         style="stroke-width:0.264583"
         d="m 29.928234,292.81901 v -0.93431 h 0.253559 v 0.92466 q 0,0.21911 0.08544,0.32935 0.08544,0.10887 0.256315,0.10887 0.205327,0 0.323839,-0.13092 0.119889,-0.13091 0.119889,-0.35691 v -0.87505 h 0.253559 v 1.5434 h -0.253559 v -0.23702 q -0.09233,0.14056 -0.214974,0.20946 -0.121267,0.0675 -0.282498,0.0675 -0.265961,0 -0.403765,-0.16536 -0.137804,-0.16537 -0.137804,-0.48369 z m 0.638032,-0.97152 z" />
      <path
         id="path6318"
         style="stroke-width:0.264583"
         d="m 32.729785,291.93017 v 0.23978 q -0.107487,-0.0551 -0.223242,-0.0827 -0.115756,-0.0276 -0.239779,-0.0276 -0.188791,0 -0.283876,0.0579 -0.09371,0.0579 -0.09371,0.17363 0,0.0882 0.06752,0.13918 0.06752,0.0496 0.271474,0.0951 l 0.08682,0.0193 q 0.270096,0.0579 0.383095,0.16398 0.114377,0.10474 0.114377,0.29353 0,0.21497 -0.170877,0.34037 -0.169498,0.1254 -0.467155,0.1254 -0.124023,0 -0.259071,-0.0248 -0.133669,-0.0234 -0.282498,-0.0717 v -0.26183 q 0.14056,0.073 0.276986,0.11025 0.136426,0.0358 0.270096,0.0358 0.179145,0 0.275607,-0.0606 0.09646,-0.062 0.09646,-0.17363 0,-0.10335 -0.07028,-0.15848 -0.0689,-0.0551 -0.304546,-0.1061 l -0.08819,-0.0207 q -0.235644,-0.0496 -0.340375,-0.15159 -0.104731,-0.10335 -0.104731,-0.2825 0,-0.21773 0.15434,-0.33624 0.15434,-0.11851 0.438216,-0.11851 0.14056,0 0.264583,0.0207 0.124024,0.0207 0.228755,0.062 z" />
      <path
         id="path6320"
         style="stroke-width:0.264583"
         d="m 34.962207,291.55948 q -0.303168,0 -0.482313,0.226 -0.177767,0.226 -0.177767,0.61598 0,0.38861 0.177767,0.61461 0.179145,0.226 0.482313,0.226 0.303168,0 0.479557,-0.226 0.177767,-0.226 0.177767,-0.61461 0,-0.38998 -0.177767,-0.61598 -0.176389,-0.226 -0.479557,-0.226 z m 0,-0.226 q 0.432704,0 0.691775,0.29077 0.259071,0.28939 0.259071,0.77721 0,0.48645 -0.259071,0.77722 -0.259071,0.28938 -0.691775,0.28938 -0.434082,0 -0.694531,-0.28938 -0.259072,-0.28939 -0.259072,-0.77722 0,-0.48782 0.259072,-0.77721 0.260449,-0.29077 0.694531,-0.29077 z" />
      <path
         id="path6322"
         style="stroke-width:0.264583"
         d="m 37.620442,292.49655 v 0.93155 h -0.253559 v -0.92329 q 0,-0.2191 -0.08544,-0.32797 -0.08544,-0.10886 -0.256315,-0.10886 -0.205328,0 -0.323839,0.13091 -0.118511,0.13091 -0.118511,0.35691 v 0.8723 h -0.254937 v -1.5434 h 0.254937 v 0.23978 q 0.09095,-0.13919 0.213596,-0.20809 0.124023,-0.0689 0.285253,-0.0689 0.265962,0 0.402388,0.16537 0.136425,0.16398 0.136425,0.48369 z" />
      <path
         id="path6324"
         style="stroke-width:0.264583"
         d="m 39.4491,292.59301 v 0.12402 h -1.16582 q 0.01654,0.26183 0.157096,0.39963 0.141938,0.13643 0.394119,0.13643 0.146072,0 0.282498,-0.0358 0.137804,-0.0358 0.272851,-0.10749 v 0.23978 q -0.136425,0.0579 -0.279741,0.0882 -0.143316,0.0303 -0.290767,0.0303 -0.369314,0 -0.585666,-0.21497 -0.214974,-0.21497 -0.214974,-0.58153 0,-0.37896 0.20395,-0.60083 0.205328,-0.22324 0.552593,-0.22324 0.311437,0 0.49196,0.20119 0.181901,0.19982 0.181901,0.54433 z m -0.253559,-0.0744 q -0.0028,-0.20809 -0.117133,-0.33211 -0.112999,-0.12403 -0.300413,-0.12403 -0.212218,0 -0.340375,0.11989 -0.12678,0.11989 -0.146072,0.33762 z" />
    </g>
    <g
       style="font-size:2.82223px;line-height:1.25;font-family:sans-serif;letter-spacing:0px;word-spacing:0px;stroke-width:0.264583"
       id="text1288"
       aria-label="comb">
      <path
         id="path1299"
         style="stroke-width:0.264583"
         d="m 38.283955,206.66676 v 0.23702 q -0.107487,-0.0593 -0.216352,-0.0882 -0.107487,-0.0303 -0.217731,-0.0303 -0.246669,0 -0.383096,0.1571 -0.136426,0.15572 -0.136426,0.43821 0,0.2825 0.136426,0.4396 0.136427,0.15572 0.383096,0.15572 0.110244,0 0.217731,-0.0289 0.108865,-0.0303 0.216352,-0.0896 v 0.23426 q -0.106109,0.0496 -0.220486,0.0744 -0.113,0.0248 -0.241158,0.0248 -0.348644,0 -0.553973,-0.21911 -0.205328,-0.2191 -0.205328,-0.59118 0,-0.37758 0.206706,-0.59393 0.208085,-0.21635 0.569132,-0.21635 0.117133,0 0.228755,0.0248 0.111621,0.0234 0.216352,0.0717 z" />
      <path
         id="path1301"
         style="stroke-width:0.264583"
         d="m 39.325755,206.78527 q -0.20395,0 -0.322462,0.15985 -0.118511,0.15848 -0.118511,0.43546 0,0.27699 0.117133,0.43684 0.118512,0.15848 0.32384,0.15848 0.202572,0 0.321084,-0.15985 0.118512,-0.15986 0.118512,-0.43547 0,-0.27423 -0.118512,-0.43408 -0.118512,-0.16123 -0.321084,-0.16123 z m 0,-0.21497 q 0.33073,0 0.519522,0.21497 0.188792,0.21497 0.188792,0.59531 0,0.37897 -0.188792,0.59532 -0.188792,0.21497 -0.519522,0.21497 -0.332108,0 -0.5209,-0.21497 -0.187413,-0.21635 -0.187413,-0.59532 0,-0.38034 0.187413,-0.59531 0.188792,-0.21497 0.5209,-0.21497 z" />
      <path
         id="path1303"
         style="stroke-width:0.264583"
         d="m 41.654646,206.90378 q 0.09508,-0.17088 0.227377,-0.25218 0.132292,-0.0813 0.311438,-0.0813 0.241157,0 0.372071,0.16949 0.130914,0.16813 0.130914,0.47956 v 0.93156 h -0.254938 v -0.92329 q 0,-0.22186 -0.07855,-0.32935 -0.07855,-0.10749 -0.239779,-0.10749 -0.19706,0 -0.311438,0.13092 -0.114377,0.13091 -0.114377,0.35691 v 0.8723 h -0.254938 v -0.92329 q 0,-0.22324 -0.07855,-0.32935 -0.07855,-0.10749 -0.242535,-0.10749 -0.194304,0 -0.308681,0.13229 -0.114378,0.13092 -0.114378,0.35554 v 0.8723 h -0.254938 v -1.54341 h 0.254938 v 0.23978 q 0.08682,-0.14194 0.208084,-0.20946 0.121268,-0.0675 0.288011,-0.0675 0.168121,0 0.285255,0.0854 0.118512,0.0854 0.175011,0.24805 z" />
      <path
         id="path1305"
         style="stroke-width:0.264583"
         d="m 44.311511,207.38058 q 0,-0.27974 -0.115755,-0.43821 -0.114378,-0.15986 -0.315572,-0.15986 -0.201194,0 -0.316949,0.15986 -0.114378,0.15847 -0.114378,0.43821 0,0.27975 0.114378,0.4396 0.115755,0.15847 0.316949,0.15847 0.201194,0 0.315572,-0.15847 0.115755,-0.15985 0.115755,-0.4396 z m -0.862654,-0.53881 q 0.07993,-0.1378 0.201194,-0.20395 0.122646,-0.0675 0.292145,-0.0675 0.281121,0 0.456132,0.22324 0.176389,0.22324 0.176389,0.58704 0,0.36381 -0.176389,0.58705 -0.175011,0.22324 -0.456132,0.22324 -0.169499,0 -0.292145,-0.0661 -0.121267,-0.0675 -0.201194,-0.20533 v 0.23151 h -0.254938 v -2.14423 h 0.254938 z" />
    </g>
    <g
       style="font-size:2.82223px;line-height:1.25;font-family:sans-serif;letter-spacing:0px;word-spacing:0px;display:inline;stroke-width:0.264583"
       id="text1310"
       aria-label="feedback">
      <path
         id="path1316"
         style="stroke-width:0.264583"
         d="m 34.975279,229.22466 v 0.21084 h -0.242535 q -0.136427,0 -0.19017,0.0551 -0.05237,0.0551 -0.05237,0.19843 v 0.13643 h 0.417547 v 0.19706 h -0.417547 v 1.34635 H 34.23527 v -1.34635 h -0.242535 v -0.19706 H 34.23527 V 229.718 q 0,-0.25769 0.11989,-0.37483 0.11989,-0.11851 0.38034,-0.11851 z" />
      <path
         id="path1318"
         style="stroke-width:0.264583"
         d="m 36.506284,230.5338 v 0.12403 H 35.34046 q 0.01654,0.26182 0.157097,0.39963 0.141938,0.13643 0.39412,0.13643 0.146072,0 0.282499,-0.0358 0.137804,-0.0358 0.272852,-0.10749 v 0.23978 q -0.136426,0.0579 -0.279743,0.0882 -0.143316,0.0303 -0.290767,0.0303 -0.369315,0 -0.585667,-0.21497 -0.214975,-0.21498 -0.214975,-0.58154 0,-0.37896 0.20395,-0.60082 0.205329,-0.22325 0.552595,-0.22325 0.311438,0 0.491961,0.2012 0.181902,0.19981 0.181902,0.54432 z m -0.25356,-0.0744 q -0.0028,-0.20809 -0.117134,-0.33211 -0.112999,-0.12402 -0.300413,-0.12402 -0.212218,0 -0.340376,0.11989 -0.12678,0.11989 -0.146073,0.33762 z" />
      <path
         id="path1320"
         style="stroke-width:0.264583"
         d="m 38.242617,230.5338 v 0.12403 h -1.165824 q 0.01654,0.26182 0.157097,0.39963 0.141938,0.13643 0.39412,0.13643 0.146072,0 0.282499,-0.0358 0.137804,-0.0358 0.272852,-0.10749 v 0.23978 q -0.136426,0.0579 -0.279743,0.0882 -0.143316,0.0303 -0.290766,0.0303 -0.369316,0 -0.585668,-0.21497 -0.214975,-0.21498 -0.214975,-0.58154 0,-0.37896 0.20395,-0.60082 0.205329,-0.22325 0.552595,-0.22325 0.311438,0 0.491961,0.2012 0.181902,0.19981 0.181902,0.54432 z m -0.25356,-0.0744 q -0.0028,-0.20809 -0.117134,-0.33211 -0.112999,-0.12402 -0.300413,-0.12402 -0.212218,0 -0.340376,0.11989 -0.12678,0.11989 -0.146073,0.33762 z" />
      <path
         id="path1322"
         style="stroke-width:0.264583"
         d="m 39.674402,230.05976 v -0.8351 h 0.25356 v 2.14424 h -0.25356 v -0.23151 q -0.07993,0.1378 -0.202572,0.20532 -0.121268,0.0661 -0.292145,0.0661 -0.279742,0 -0.456132,-0.22324 -0.175011,-0.22325 -0.175011,-0.58705 0,-0.3638 0.175011,-0.58704 0.17639,-0.22325 0.456132,-0.22325 0.170877,0 0.292145,0.0675 0.122646,0.0661 0.202572,0.20395 z m -0.864032,0.53881 q 0,0.27974 0.114377,0.4396 0.115756,0.15847 0.31695,0.15847 0.201194,0 0.31695,-0.15847 0.115755,-0.15986 0.115755,-0.4396 0,-0.27974 -0.115755,-0.43822 -0.115756,-0.15985 -0.31695,-0.15985 -0.201194,0 -0.31695,0.15985 -0.114377,0.15848 -0.114377,0.43822 z" />
      <path
         id="path1324"
         style="stroke-width:0.264583"
         d="m 41.558186,230.59857 q 0,-0.27974 -0.115756,-0.43822 -0.114377,-0.15985 -0.315571,-0.15985 -0.201194,0 -0.31695,0.15985 -0.114377,0.15848 -0.114377,0.43822 0,0.27974 0.114377,0.4396 0.115756,0.15847 0.31695,0.15847 0.201194,0 0.315571,-0.15847 0.115756,-0.15986 0.115756,-0.4396 z m -0.862654,-0.53881 q 0.07993,-0.13781 0.201194,-0.20395 0.122645,-0.0675 0.292145,-0.0675 0.28112,0 0.456132,0.22325 0.176389,0.22324 0.176389,0.58704 0,0.3638 -0.176389,0.58705 -0.175012,0.22324 -0.456132,0.22324 -0.1695,0 -0.292145,-0.0661 -0.121268,-0.0675 -0.201194,-0.20532 v 0.23151 h -0.254938 v -2.14424 h 0.254938 z" />
      <path
         id="path1326"
         style="stroke-width:0.264583"
         d="m 42.943118,230.59306 q -0.307303,0 -0.425815,0.0703 -0.118511,0.0703 -0.118511,0.23978 0,0.13505 0.08819,0.21497 0.08957,0.0786 0.242536,0.0786 0.21084,0 0.33762,-0.14883 0.128158,-0.1502 0.128158,-0.39825 v -0.0565 z m 0.505742,-0.10473 v 0.88057 H 43.1953 v -0.23427 q -0.08682,0.14056 -0.216353,0.20808 -0.129536,0.0661 -0.316949,0.0661 -0.237023,0 -0.377584,-0.13229 -0.139182,-0.13367 -0.139182,-0.35692 0,-0.26045 0.173633,-0.39274 0.175012,-0.13229 0.5209,-0.13229 H 43.1953 v -0.0248 q 0,-0.17502 -0.115756,-0.2701 -0.114377,-0.0965 -0.322461,-0.0965 -0.132292,0 -0.257694,0.0317 -0.125402,0.0317 -0.241158,0.0951 v -0.23427 q 0.139183,-0.0537 0.270097,-0.0799 0.130914,-0.0276 0.254937,-0.0276 0.334865,0 0.50023,0.17364 0.165365,0.17363 0.165365,0.52641 z" />
      <path
         id="path1328"
         style="stroke-width:0.264583"
         d="m 45.083217,229.88475 v 0.23702 q -0.107487,-0.0593 -0.216352,-0.0882 -0.107487,-0.0303 -0.217731,-0.0303 -0.246669,0 -0.383095,0.15709 -0.136427,0.15572 -0.136427,0.43822 0,0.2825 0.136427,0.4396 0.136426,0.15572 0.383095,0.15572 0.110244,0 0.217731,-0.0289 0.108865,-0.0303 0.216352,-0.0896 v 0.23427 q -0.106109,0.0496 -0.220486,0.0744 -0.113,0.0248 -0.241158,0.0248 -0.348644,0 -0.553973,-0.21911 -0.205328,-0.21911 -0.205328,-0.59118 0,-0.37758 0.206707,-0.59394 0.208084,-0.21635 0.569131,-0.21635 0.117133,0 0.228755,0.0248 0.111621,0.0234 0.216352,0.0717 z" />
      <path
         id="path1330"
         style="stroke-width:0.264583"
         d="m 45.5173,229.22466 h 0.254938 v 1.26642 l 0.756545,-0.66559 h 0.32384 l -0.818557,0.72209 0.853008,0.82132 h -0.33073 l -0.784106,-0.75379 v 0.75379 H 45.5173 Z" />
    </g>
    <g
       style="font-size:4.9389px;line-height:1.25;font-family:sans-serif;letter-spacing:0px;word-spacing:0px;display:inline;stroke-width:0.264583"
       id="text1371"
       aria-label="comb filter">
      <path
         id="path1377"
         style="stroke-width:0.264583"
         d="m 13.973799,173.94738 v 0.41479 q -0.188103,-0.10369 -0.378617,-0.15434 -0.188103,-0.0531 -0.381028,-0.0531 -0.431672,0 -0.670418,0.27492 -0.238745,0.27251 -0.238745,0.76688 0,0.49437 0.238745,0.76929 0.238746,0.27251 0.670418,0.27251 0.192925,0 0.381028,-0.0507 0.190514,-0.053 0.378617,-0.15675 v 0.40997 q -0.185691,0.0868 -0.385852,0.13022 -0.197749,0.0434 -0.422025,0.0434 -0.610128,0 -0.969452,-0.38344 -0.359324,-0.38344 -0.359324,-1.03456 0,-0.66077 0.361736,-1.03939 0.364147,-0.37862 0.995979,-0.37862 0.204984,0 0.400321,0.0434 0.195337,0.041 0.378617,0.1254 z" />
      <path
         id="path1379"
         style="stroke-width:0.264583"
         d="m 15.796947,174.15478 q -0.356912,0 -0.564307,0.27974 -0.207396,0.27733 -0.207396,0.76206 0,0.48472 0.204984,0.76447 0.207395,0.27733 0.566719,0.27733 0.354502,0 0.561897,-0.27974 0.207395,-0.27975 0.207395,-0.76206 0,-0.4799 -0.207395,-0.75965 -0.207395,-0.28215 -0.561897,-0.28215 z m 0,-0.37621 q 0.578778,0 0.909163,0.37621 0.330386,0.3762 0.330386,1.0418 0,0.66318 -0.330386,1.0418 -0.330385,0.3762 -0.909163,0.3762 -0.581189,0 -0.911574,-0.3762 -0.327974,-0.37862 -0.327974,-1.0418 0,-0.6656 0.327974,-1.0418 0.330385,-0.37621 0.911574,-0.37621 z" />
      <path
         id="path1381"
         style="stroke-width:0.264583"
         d="m 19.872505,174.36217 q 0.166398,-0.29903 0.397909,-0.44131 0.231511,-0.14229 0.545015,-0.14229 0.422026,0 0.651125,0.29663 0.229099,0.29421 0.229099,0.83922 v 1.63023 h -0.446141 v -1.61576 q 0,-0.38826 -0.137459,-0.57636 -0.13746,-0.1881 -0.419614,-0.1881 -0.344855,0 -0.545015,0.22909 -0.200161,0.2291 -0.200161,0.6246 v 1.52653 h -0.446141 v -1.61576 q 0,-0.39067 -0.137459,-0.57636 -0.13746,-0.1881 -0.424437,-0.1881 -0.340032,0 -0.540192,0.23151 -0.200161,0.2291 -0.200161,0.62218 v 1.52653 h -0.44614 v -2.70096 h 0.44614 v 0.41961 q 0.15193,-0.24839 0.364148,-0.36656 0.212218,-0.11817 0.504018,-0.11817 0.294212,0 0.499196,0.14952 0.207395,0.14952 0.30627,0.43408 z" />
      <path
         id="path1383"
         style="stroke-width:0.264583"
         d="m 24.522015,175.19658 q 0,-0.48955 -0.202572,-0.76688 -0.20016,-0.27974 -0.55225,-0.27974 -0.352089,0 -0.554662,0.27974 -0.20016,0.27733 -0.20016,0.76688 0,0.48955 0.20016,0.76929 0.202573,0.27733 0.554662,0.27733 0.35209,0 0.55225,-0.27733 0.202572,-0.27974 0.202572,-0.76929 z m -1.509644,-0.94293 q 0.139871,-0.24115 0.35209,-0.35691 0.214629,-0.11817 0.511253,-0.11817 0.491961,0 0.79823,0.39068 0.308682,0.39067 0.308682,1.02733 0,0.63665 -0.308682,1.02733 -0.306269,0.39067 -0.79823,0.39067 -0.296624,0 -0.511253,-0.11575 -0.212219,-0.11817 -0.35209,-0.35933 v 0.40515 H 22.56623 v -3.75241 h 0.446141 z" />
      <path
         id="path1385"
         style="stroke-width:0.264583"
         d="m 29.472974,173.84369 v 2.70096 h -0.446141 v -2.35611 h -1.217844 v 2.35611 h -0.446141 v -2.35611 h -0.424437 v -0.34485 h 0.424437 v -0.18811 q 0,-0.44131 0.207395,-0.65112 0.209807,-0.21222 0.641479,-0.21222 h 0.44614 v 0.36897 h -0.424436 q -0.238746,0 -0.332797,0.0965 -0.09164,0.0965 -0.09164,0.34727 v 0.23875 z m -0.446141,-1.04663 h 0.446141 v 0.5619 h -0.446141 z" />
      <path
         id="path1387"
         style="stroke-width:0.264583"
         d="m 30.406252,172.79224 h 0.44373 v 3.75241 h -0.44373 z" />
      <path
         id="path1390"
         style="stroke-width:0.264583"
         d="m 32.21493,173.07681 v 0.76688 h 0.913986 v 0.34485 H 32.21493 v 1.46624 q 0,0.33038 0.08923,0.42443 0.09164,0.0941 0.36897,0.0941 h 0.455787 v 0.37138 h -0.455787 q -0.513665,0 -0.709002,-0.19052 -0.195338,-0.19292 -0.195338,-0.69935 v -1.46624 h -0.325562 v -0.34485 h 0.325562 v -0.76688 z" />
      <path
         id="path1392"
         style="stroke-width:0.264583"
         d="m 36.025214,175.08323 v 0.21705 h -2.04019 q 0.02894,0.45819 0.274919,0.69935 0.248392,0.23875 0.68971,0.23875 0.255627,0 0.494372,-0.0627 0.241158,-0.0627 0.477492,-0.18811 v 0.41962 q -0.238746,0.10128 -0.48955,0.15434 -0.250803,0.053 -0.508841,0.053 -0.646302,0 -1.024919,-0.3762 -0.376205,-0.37621 -0.376205,-1.01769 0,-0.66318 0.356913,-1.05144 0.359324,-0.39068 0.96704,-0.39068 0.545016,0 0.860932,0.35209 0.318327,0.34968 0.318327,0.95257 z m -0.443729,-0.13022 q -0.0048,-0.36415 -0.204984,-0.58119 -0.197749,-0.21704 -0.525722,-0.21704 -0.371383,0 -0.595659,0.20981 -0.221864,0.2098 -0.255626,0.59083 z" />
      <path
         id="path1394"
         style="stroke-width:0.264583"
         d="m 38.31862,174.25848 q -0.07476,-0.0434 -0.163987,-0.0627 -0.08682,-0.0217 -0.192925,-0.0217 -0.376206,0 -0.578778,0.24598 -0.20016,0.24357 -0.20016,0.70177 v 1.42283 h -0.446141 v -2.70096 h 0.446141 v 0.41961 q 0.139871,-0.24598 0.364147,-0.36415 0.224276,-0.12058 0.545015,-0.12058 0.04582,0 0.101286,0.007 0.05547,0.005 0.122991,0.0169 z" />
    </g>
  </g>
  <g
     style="display:none"
     inkscape:label="temp"
     id="layer3"
     inkscape:groupmode="layer">
    <path
       style="display:inline;fill:none;stroke:#000000;stroke-width:0.245189;stroke-linecap:round;stroke-linejoin:round;stroke-miterlimit:10;stroke-opacity:1"
       d="M 11.150738,261.3936 H 31.993506"
       id="path26007"
       inkscape:connector-curvature="0"
       transform="translate(0,-168.5)" />
    <g
       id="text5967-7-2"
       style="font-style:normal;font-variant:normal;font-weight:bold;font-stretch:normal;font-size:12.7807px;line-height:1.25;font-family:sans-serif;-inkscape-font-specification:'sans-serif Bold';letter-spacing:0px;word-spacing:0px;display:inline;fill:#000000;fill-opacity:1;stroke:none;stroke-width:0.844236"
       aria-label="cv"
       transform="matrix(0.43423599,0,0,0.35444393,429.50149,-49.74617)">
      <path
         id="path6165"
         style="font-style:normal;font-variant:normal;font-weight:normal;font-stretch:normal;font-size:7.66842px;font-family:sans-serif;-inkscape-font-specification:sans-serif;stroke-width:0.844236"
         d="m -968.22155,383.77388 q -0.35196,0.16849 -0.67023,0.2621 -0.31453,0.0936 -0.67024,0.0936 -0.45307,0 -0.83125,-0.13105 -0.37818,-0.1348 -0.64777,-0.40439 -0.27334,-0.2696 -0.42311,-0.68147 -0.14977,-0.41188 -0.14977,-0.9623 0,-1.02595 0.56165,-1.61007 0.56539,-0.58412 1.49025,-0.58412 0.35946,0 0.70394,0.1011 0.34822,0.1011 0.63653,0.24713 v 0.78256 h -0.0374 q -0.32201,-0.25087 -0.66649,-0.38566 -0.34074,-0.1348 -0.6665,-0.1348 -0.59909,0 -0.94732,0.40439 -0.34448,0.40065 -0.34448,1.17947 0,0.75636 0.33699,1.16449 0.34074,0.40439 0.95481,0.40439 0.21343,0 0.43435,-0.0562 0.22091,-0.0562 0.3969,-0.14603 0.15352,-0.0786 0.28831,-0.16476 0.1348,-0.0899 0.21343,-0.15351 h 0.0374 z"
         inkscape:connector-curvature="0" />
      <path
         id="path6167"
         style="font-style:normal;font-variant:normal;font-weight:normal;font-stretch:normal;font-size:7.66842px;font-family:sans-serif;-inkscape-font-specification:sans-serif;stroke-width:0.844236"
         d="m -963.69838,379.85355 -1.69244,4.18243 h -0.70768 l -1.68121,-4.18243 h 0.76384 l 1.29555,3.32872 1.28431,-3.32872 z"
         inkscape:connector-curvature="0" />
    </g>
    <g
       id="text939"
       style="font-style:normal;font-weight:normal;font-size:2.11667px;line-height:1.25;font-family:sans-serif;letter-spacing:0px;word-spacing:0px;display:inline;fill:#000000;fill-opacity:1;stroke:none;stroke-width:0.264583"
       aria-label="lp12"
       transform="translate(0,-168.5)">
      <path
         id="path1036"
         style="font-size:2.11667px;stroke-width:0.264583"
         d="m 34.683281,265.01732 h 0.19017 v 1.60817 h -0.19017 z" />
      <path
         id="path1038"
         style="font-size:2.11667px;stroke-width:0.264583"
         d="m 35.454294,266.45186 v 0.61391 h -0.191203 v -1.59783 h 0.191203 v 0.1757 q 0.05994,-0.10336 0.150895,-0.15297 0.09198,-0.0506 0.219108,-0.0506 0.21084,0 0.342098,0.16743 0.132292,0.16743 0.132292,0.44029 0,0.27285 -0.132292,0.44028 -0.131258,0.16743 -0.342098,0.16743 -0.127124,0 -0.219108,-0.0496 -0.09095,-0.0506 -0.150895,-0.15399 z m 0.646989,-0.40411 q 0,-0.20981 -0.08682,-0.32867 -0.08578,-0.11989 -0.236678,-0.11989 -0.150895,0 -0.237711,0.11989 -0.08578,0.11886 -0.08578,0.32867 0,0.2098 0.08578,0.32969 0.08682,0.11886 0.237711,0.11886 0.150895,0 0.236678,-0.11886 0.08682,-0.11989 0.08682,-0.32969 z" />
      <path
         id="path1040"
         style="font-size:2.11667px;stroke-width:0.264583"
         d="m 36.676958,266.44979 h 0.341065 v -1.17719 l -0.371037,0.0744 v -0.19017 l 0.368969,-0.0744 h 0.208773 v 1.36736 h 0.341065 v 0.1757 h -0.888835 z" />
      <path
         id="path1042"
         style="font-size:2.11667px;stroke-width:0.264583"
         d="m 38.16834,266.44979 h 0.728638 v 0.1757 h -0.979786 v -0.1757 q 0.118856,-0.12299 0.323495,-0.3297 0.205672,-0.20774 0.258382,-0.26768 0.100252,-0.11266 0.139526,-0.19017 0.04031,-0.0786 0.04031,-0.154 0,-0.12299 -0.08682,-0.2005 -0.08578,-0.0775 -0.224276,-0.0775 -0.09819,0 -0.207739,0.0341 -0.108521,0.0341 -0.232544,0.10335 v -0.21084 q 0.12609,-0.0506 0.235644,-0.0765 0.109554,-0.0258 0.200505,-0.0258 0.239778,0 0.382405,0.11989 0.142627,0.11989 0.142627,0.3204 0,0.0951 -0.03617,0.18087 -0.03514,0.0847 -0.129191,0.2005 -0.02584,0.03 -0.164331,0.17363 -0.138493,0.14263 -0.390674,0.39998 z" />
    </g>
    <g
       id="text939-3"
       style="font-style:normal;font-weight:normal;font-size:2.11667px;line-height:1.25;font-family:sans-serif;letter-spacing:0px;word-spacing:0px;display:inline;fill:#000000;fill-opacity:1;stroke:none;stroke-width:0.264583"
       aria-label="lp24"
       transform="translate(0,-168.5)">
      <path
         id="path1027"
         style="font-size:2.11667px;stroke-width:0.264583"
         d="m 32.500828,260.39116 h 0.19017 v 1.60817 h -0.19017 z" />
      <path
         id="path1029"
         style="font-size:2.11667px;stroke-width:0.264583"
         d="m 33.271841,261.8257 v 0.61391 h -0.191203 v -1.59783 h 0.191203 v 0.1757 q 0.05994,-0.10336 0.150895,-0.15297 0.09198,-0.0506 0.219108,-0.0506 0.21084,0 0.342098,0.16743 0.132291,0.16743 0.132291,0.44029 0,0.27285 -0.132291,0.44028 -0.131258,0.16743 -0.342098,0.16743 -0.127124,0 -0.219108,-0.0496 -0.09095,-0.0506 -0.150895,-0.15399 z m 0.646989,-0.40411 q 0,-0.20981 -0.08682,-0.32867 -0.08578,-0.11989 -0.236678,-0.11989 -0.150895,0 -0.237712,0.11989 -0.08578,0.11886 -0.08578,0.32867 0,0.2098 0.08578,0.32969 0.08682,0.11886 0.237712,0.11886 0.150895,0 0.236678,-0.11886 0.08682,-0.11989 0.08682,-0.32969 z" />
      <path
         id="path1031"
         style="font-size:2.11667px;stroke-width:0.264583"
         d="m 34.638165,261.82363 h 0.728638 v 0.1757 h -0.979785 v -0.1757 q 0.118856,-0.12299 0.323494,-0.3297 0.205673,-0.20774 0.258383,-0.26768 0.100252,-0.11266 0.139526,-0.19017 0.04031,-0.0786 0.04031,-0.154 0,-0.12299 -0.08682,-0.2005 -0.08578,-0.0775 -0.224276,-0.0775 -0.09819,0 -0.207739,0.0341 -0.10852,0.0341 -0.232544,0.10335 v -0.21084 q 0.126091,-0.0506 0.235645,-0.0765 0.109554,-0.0258 0.200504,-0.0258 0.239779,0 0.382406,0.11988 0.142627,0.11989 0.142627,0.3204 0,0.0951 -0.03617,0.18087 -0.03514,0.0848 -0.129191,0.2005 -0.02584,0.03 -0.164331,0.17363 -0.138493,0.14263 -0.390674,0.39998 z" />
      <path
         id="path1033"
         style="font-size:2.11667px;stroke-width:0.264583"
         d="m 36.379661,260.63817 -0.527099,0.82372 h 0.527099 z m -0.05478,-0.1819 H 36.5874 v 1.00562 h 0.220142 v 0.17364 H 36.5874 v 0.3638 h -0.207739 v -0.3638 h -0.696598 v -0.20154 z" />
    </g>
    <g
       id="text939-7"
       style="font-style:normal;font-weight:normal;font-size:2.11667px;line-height:1.25;font-family:sans-serif;letter-spacing:0px;word-spacing:0px;display:inline;fill:#000000;fill-opacity:1;stroke:none;stroke-width:0.264583"
       aria-label="hp12"
       transform="translate(0,-168.5)">
      <path
         id="path1018"
         style="font-size:2.11667px;stroke-width:0.264583"
         d="m 35.112793,257.02793 v 0.69866 h -0.190169 v -0.69246 q 0,-0.16433 -0.06408,-0.24598 -0.06408,-0.0816 -0.192236,-0.0816 -0.153996,0 -0.242879,0.0982 -0.08888,0.0982 -0.08888,0.26768 v 0.65422 h -0.191203 v -1.60817 h 0.191203 v 0.63045 q 0.06821,-0.10438 0.160197,-0.15606 0.09302,-0.0517 0.21394,-0.0517 0.199472,0 0.301791,0.12402 0.102319,0.12299 0.102319,0.36277 z" />
      <path
         id="path1020"
         style="font-size:2.11667px;stroke-width:0.264583"
         d="m 35.678133,257.55296 v 0.61392 h -0.191202 v -1.59784 h 0.191202 v 0.1757 q 0.05994,-0.10335 0.150895,-0.15296 0.09199,-0.0506 0.219109,-0.0506 0.210839,0 0.342097,0.16743 0.132292,0.16743 0.132292,0.44028 0,0.27285 -0.132292,0.44028 -0.131258,0.16744 -0.342097,0.16744 -0.127124,0 -0.219109,-0.0496 -0.09095,-0.0506 -0.150895,-0.154 z m 0.646989,-0.40411 q 0,-0.20981 -0.08682,-0.32866 -0.08578,-0.11989 -0.236678,-0.11989 -0.150895,0 -0.237712,0.11989 -0.08578,0.11885 -0.08578,0.32866 0,0.20981 0.08578,0.3297 0.08682,0.11885 0.237712,0.11885 0.150895,0 0.236678,-0.11885 0.08682,-0.11989 0.08682,-0.3297 z" />
      <path
         id="path1022"
         style="font-size:2.11667px;stroke-width:0.264583"
         d="m 36.900798,257.55089 h 0.341064 v -1.17719 l -0.371037,0.0744 v -0.19017 l 0.36897,-0.0744 h 0.208773 v 1.36736 h 0.341064 v 0.1757 h -0.888834 z" />
      <path
         id="path1024"
         style="font-size:2.11667px;stroke-width:0.264583"
         d="m 38.39218,257.55089 h 0.728637 v 0.1757 h -0.979785 v -0.1757 q 0.118856,-0.12299 0.323495,-0.32969 0.205672,-0.20774 0.258382,-0.26769 0.100252,-0.11265 0.139526,-0.19017 0.04031,-0.0785 0.04031,-0.15399 0,-0.12299 -0.08682,-0.20051 -0.08578,-0.0775 -0.224275,-0.0775 -0.09819,0 -0.20774,0.0341 -0.10852,0.0341 -0.232544,0.10335 v -0.21084 q 0.126091,-0.0506 0.235645,-0.0765 0.109554,-0.0258 0.200505,-0.0258 0.239778,0 0.382405,0.11989 0.142627,0.11989 0.142627,0.32039 0,0.0951 -0.03617,0.18087 -0.03514,0.0848 -0.129191,0.2005 -0.02584,0.03 -0.164332,0.17364 -0.138492,0.14262 -0.390673,0.39997 z" />
    </g>
    <g
       id="text939-35"
       style="font-style:normal;font-weight:normal;font-size:2.11667px;line-height:1.25;font-family:sans-serif;letter-spacing:0px;word-spacing:0px;display:inline;fill:#000000;fill-opacity:1;stroke:none;stroke-width:0.264583"
       aria-label="hp24"
       transform="translate(0,-168.5)">
      <path
         id="path1009"
         style="font-size:2.11667px;stroke-width:0.264583"
         d="m 44.72144,256.98352 v 0.69867 h -0.19017 v -0.69246 q 0,-0.16434 -0.06408,-0.24598 -0.06408,-0.0816 -0.192237,-0.0816 -0.153996,0 -0.242879,0.0982 -0.08888,0.0982 -0.08888,0.26769 v 0.65422 H 43.75199 v -1.60817 h 0.191203 v 0.63045 q 0.06821,-0.10438 0.160196,-0.15606 0.09302,-0.0517 0.213941,-0.0517 0.199471,0 0.30179,0.12403 0.10232,0.12299 0.10232,0.36276 z" />
      <path
         id="path1011"
         style="font-size:2.11667px;stroke-width:0.264583"
         d="m 45.28678,257.50856 v 0.61391 h -0.191203 v -1.59783 h 0.191203 v 0.1757 q 0.05994,-0.10336 0.150895,-0.15296 0.09198,-0.0506 0.219108,-0.0506 0.21084,0 0.342098,0.16743 0.132292,0.16744 0.132292,0.44029 0,0.27285 -0.132292,0.44028 -0.131258,0.16743 -0.342098,0.16743 -0.127124,0 -0.219108,-0.0496 -0.09095,-0.0506 -0.150895,-0.15399 z m 0.646989,-0.40411 q 0,-0.20981 -0.08682,-0.32866 -0.08578,-0.11989 -0.236678,-0.11989 -0.150895,0 -0.237711,0.11989 -0.08578,0.11885 -0.08578,0.32866 0,0.2098 0.08578,0.32969 0.08682,0.11886 0.237711,0.11886 0.150895,0 0.236678,-0.11886 0.08682,-0.11989 0.08682,-0.32969 z" />
      <path
         id="path1013"
         style="font-size:2.11667px;stroke-width:0.264583"
         d="m 46.653104,257.50649 h 0.728638 v 0.1757 h -0.979785 v -0.1757 q 0.118856,-0.12299 0.323494,-0.3297 0.205673,-0.20773 0.258383,-0.26768 0.100252,-0.11265 0.139526,-0.19017 0.04031,-0.0785 0.04031,-0.15399 0,-0.12299 -0.08682,-0.20051 -0.08578,-0.0775 -0.224276,-0.0775 -0.09819,0 -0.207739,0.0341 -0.10852,0.0341 -0.232544,0.10336 v -0.21084 q 0.126091,-0.0507 0.235645,-0.0765 0.109554,-0.0258 0.200504,-0.0258 0.239779,0 0.382406,0.11989 0.142627,0.11989 0.142627,0.32039 0,0.0951 -0.03617,0.18087 -0.03514,0.0848 -0.129191,0.2005 -0.02584,0.03 -0.164331,0.17363 -0.138493,0.14263 -0.390674,0.39998 z" />
      <path
         id="path1015"
         style="font-size:2.11667px;stroke-width:0.264583"
         d="m 48.3946,256.32103 -0.527099,0.82373 H 48.3946 Z m -0.05478,-0.1819 h 0.262517 v 1.00563 h 0.220141 v 0.17363 H 48.60234 v 0.3638 H 48.3946 v -0.3638 h -0.696598 v -0.20154 z" />
    </g>
    <g
       id="text939-9"
       style="font-style:normal;font-weight:normal;font-size:2.11667px;line-height:1.25;font-family:sans-serif;letter-spacing:0px;word-spacing:0px;display:inline;fill:#000000;fill-opacity:1;stroke:none;stroke-width:0.264583"
       aria-label="bp12"
       transform="translate(0,-168.5)">
      <path
         id="path1000"
         style="font-size:2.11667px;stroke-width:0.264583"
         d="m 46.136011,261.33272 q 0,-0.20981 -0.08682,-0.32866 -0.08578,-0.11989 -0.236678,-0.11989 -0.150895,0 -0.237712,0.11989 -0.08578,0.11885 -0.08578,0.32866 0,0.20981 0.08578,0.32969 0.08682,0.11886 0.237712,0.11886 0.150895,0 0.236678,-0.11886 0.08682,-0.11988 0.08682,-0.32969 z m -0.646989,-0.40411 q 0.05994,-0.10335 0.150895,-0.15296 0.09199,-0.0506 0.219109,-0.0506 0.210839,0 0.342097,0.16744 0.132292,0.16743 0.132292,0.44028 0,0.27285 -0.132292,0.44028 -0.131258,0.16743 -0.342097,0.16743 -0.127124,0 -0.219109,-0.0496 -0.09095,-0.0506 -0.150895,-0.15399 v 0.17363 H 45.29782 v -1.60817 h 0.191202 z" />
      <path
         id="path1002"
         style="font-size:2.11667px;stroke-width:0.264583"
         d="m 46.832609,261.73683 v 0.61391 h -0.191202 v -1.59783 h 0.191202 v 0.1757 q 0.05994,-0.10335 0.150896,-0.15296 0.09198,-0.0506 0.219108,-0.0506 0.21084,0 0.342098,0.16744 0.132291,0.16743 0.132291,0.44028 0,0.27285 -0.132291,0.44028 -0.131258,0.16743 -0.342098,0.16743 -0.127124,0 -0.219108,-0.0496 -0.09095,-0.0506 -0.150896,-0.15399 z m 0.646989,-0.40411 q 0,-0.20981 -0.08682,-0.32866 -0.08578,-0.11989 -0.236678,-0.11989 -0.150895,0 -0.237712,0.11989 -0.08578,0.11885 -0.08578,0.32866 0,0.20981 0.08578,0.32969 0.08682,0.11886 0.237712,0.11886 0.150895,0 0.236678,-0.11886 0.08682,-0.11988 0.08682,-0.32969 z" />
      <path
         id="path1004"
         style="font-size:2.11667px;stroke-width:0.264583"
         d="m 48.055274,261.73476 h 0.341064 v -1.17719 l -0.371037,0.0744 v -0.19017 l 0.36897,-0.0744 h 0.208773 v 1.36736 h 0.341064 v 0.1757 h -0.888834 z" />
      <path
         id="path1006"
         style="font-size:2.11667px;stroke-width:0.264583"
         d="m 49.546656,261.73476 h 0.728637 v 0.1757 h -0.979785 v -0.1757 q 0.118856,-0.12299 0.323495,-0.32969 0.205672,-0.20774 0.258382,-0.26769 0.100252,-0.11265 0.139526,-0.19017 0.04031,-0.0786 0.04031,-0.15399 0,-0.12299 -0.08682,-0.20051 -0.08578,-0.0775 -0.224276,-0.0775 -0.09819,0 -0.207739,0.0341 -0.108521,0.0341 -0.232544,0.10336 v -0.21084 q 0.12609,-0.0507 0.235644,-0.0765 0.109554,-0.0258 0.200505,-0.0258 0.239778,0 0.382405,0.11989 0.142627,0.11989 0.142627,0.32039 0,0.0951 -0.03617,0.18087 -0.03514,0.0847 -0.129191,0.2005 -0.02584,0.03 -0.164331,0.17364 -0.138493,0.14262 -0.390674,0.39997 z" />
    </g>
    <g
       id="text939-2"
       style="font-style:normal;font-weight:normal;font-size:2.11667px;line-height:1.25;font-family:sans-serif;letter-spacing:0px;word-spacing:0px;display:inline;fill:#000000;fill-opacity:1;stroke:none;stroke-width:0.264583"
       aria-label="bp24"
       transform="translate(0,-168.5)">
      <path
         id="path991"
         style="font-size:2.11667px;stroke-width:0.264583"
         d="m 44.419142,266.03365 q 0,-0.20981 -0.08682,-0.32867 -0.08578,-0.11988 -0.236678,-0.11988 -0.150895,0 -0.237711,0.11988 -0.08578,0.11886 -0.08578,0.32867 0,0.2098 0.08578,0.32969 0.08682,0.11886 0.237711,0.11886 0.150896,0 0.236678,-0.11886 0.08682,-0.11989 0.08682,-0.32969 z m -0.646989,-0.40411 q 0.05994,-0.10336 0.150895,-0.15297 0.09198,-0.0506 0.219108,-0.0506 0.21084,0 0.342098,0.16743 0.132292,0.16744 0.132292,0.44029 0,0.27285 -0.132292,0.44028 -0.131258,0.16743 -0.342098,0.16743 -0.127124,0 -0.219108,-0.0496 -0.09095,-0.0506 -0.150895,-0.15399 v 0.17363 H 43.58095 v -1.60817 h 0.191203 z" />
      <path
         id="path993"
         style="font-size:2.11667px;stroke-width:0.264583"
         d="m 45.11574,266.43776 v 0.61391 h -0.191203 v -1.59783 h 0.191203 v 0.1757 q 0.05994,-0.10336 0.150895,-0.15297 0.09198,-0.0506 0.219108,-0.0506 0.21084,0 0.342098,0.16743 0.132292,0.16744 0.132292,0.44029 0,0.27285 -0.132292,0.44028 -0.131258,0.16743 -0.342098,0.16743 -0.127124,0 -0.219108,-0.0496 -0.09095,-0.0506 -0.150895,-0.15399 z m 0.646989,-0.40411 q 0,-0.20981 -0.08682,-0.32867 -0.08578,-0.11988 -0.236678,-0.11988 -0.150896,0 -0.237712,0.11988 -0.08578,0.11886 -0.08578,0.32867 0,0.2098 0.08578,0.32969 0.08682,0.11886 0.237712,0.11886 0.150895,0 0.236678,-0.11886 0.08682,-0.11989 0.08682,-0.32969 z" />
      <path
         id="path995"
         style="font-size:2.11667px;stroke-width:0.264583"
         d="m 46.482065,266.43569 h 0.728638 v 0.1757 h -0.979786 v -0.1757 q 0.118856,-0.12299 0.323495,-0.3297 0.205672,-0.20774 0.258382,-0.26768 0.100252,-0.11265 0.139526,-0.19017 0.04031,-0.0786 0.04031,-0.154 0,-0.12299 -0.08682,-0.2005 -0.08578,-0.0775 -0.224276,-0.0775 -0.09819,0 -0.207739,0.0341 -0.108521,0.0341 -0.232544,0.10335 v -0.21083 q 0.12609,-0.0506 0.235644,-0.0765 0.109554,-0.0258 0.200505,-0.0258 0.239778,0 0.382405,0.11989 0.142627,0.11988 0.142627,0.32039 0,0.0951 -0.03617,0.18087 -0.03514,0.0847 -0.129191,0.2005 -0.02584,0.03 -0.164331,0.17363 -0.138493,0.14263 -0.390674,0.39998 z" />
      <path
         id="path997"
         style="font-size:2.11667px;stroke-width:0.264583"
         d="m 48.223561,265.25023 -0.5271,0.82372 h 0.5271 z m -0.05478,-0.1819 H 48.4313 v 1.00562 h 0.220142 v 0.17364 H 48.4313 v 0.3638 h -0.207739 v -0.3638 h -0.696598 v -0.20154 z" />
    </g>
    <circle
       inkscape:label="MODE_CV"
       r="3.96875"
       cy="92.78125"
       cx="9.260417"
       id="path1587-8-0"
       style="display:inline;opacity:1;fill:#00ff00;fill-opacity:1;stroke-width:0.264583" />
    <circle
       inkscape:label="MODE"
       r="3.96875"
       cy="261.28125"
       cx="41.010418"
       id="path1587-8-0-3"
       style="display:inline;opacity:1;fill:#ff0000;fill-opacity:1;stroke-width:0.264583"
       transform="translate(0,-168.5)" />
  </g>
  <g
     style="display:none"
     inkscape:label="components"
     id="layer2"
     inkscape:groupmode="layer">
    <circle
       inkscape:label="FEEDBACK_CV"
       r="3.96875"
       cy="70.291664"
       cx="9.260417"
       id="path1587-8-3"
       style="display:inline;opacity:1;fill:#00ff00;fill-opacity:1;stroke-width:0.264583" />
    <circle
       inkscape:label="MAIN"
       r="3.96875"
       cy="112.625"
       cx="9.260417"
       id="path1587-8-2"
       style="display:inline;opacity:1;fill:#00ff00;fill-opacity:1;stroke-width:0.264583" />
    <circle
       inkscape:label="MAIN"
       r="3.96875"
       cy="112.625"
       cx="41.010418"
       id="path1389"
       style="display:inline;opacity:1;fill:#0000ff;fill-opacity:1;stroke-width:0.264583" />
    <circle
       inkscape:label="VOCT"
       r="3.96875"
       cy="21.34375"
       cx="9.260417"
       id="path1389-8"
       style="display:inline;opacity:1;fill:#00ff00;fill-opacity:1;stroke-width:0.264583" />
    <circle
       inkscape:label="COMB_CV"
       r="3.96875"
       cy="47.802082"
       cx="9.260417"
       id="path1587-8"
       style="display:inline;opacity:1;fill:#00ff00;fill-opacity:1;stroke-width:0.264583" />
    <circle
       inkscape:label="FREQ_CV"
       r="3.96875"
       cy="29.545834"
       cx="9.260417"
       id="path1389-8-5"
       style="display:inline;opacity:1;fill:#00ff00;fill-opacity:1;stroke-width:0.264583" />
    <circle
       inkscape:label="FEEDBACK"
       r="3.96875"
       cy="70.291672"
       cx="41.010418"
       id="path1587-8-0-5"
       style="display:inline;opacity:1;fill:#ff0000;fill-opacity:1;stroke-width:0.264583" />
    <circle
       inkscape:label="COMB"
       r="3.96875"
       cy="47.802078"
       cx="41.010418"
       id="path1587-8-0-6"
       style="display:inline;opacity:1;fill:#ff0000;fill-opacity:1;stroke-width:0.264583" />
    <circle
       inkscape:label="FREQUENCY"
       r="3.96875"
       cy="25.3125"
       cx="41.010418"
       id="path1587-8-0-2"
       style="display:inline;opacity:1;fill:#ff0000;fill-opacity:1;stroke-width:0.264583" />
    <circle
       inkscape:label="FREQUENCY_CV_ATTENUVERTER"
       r="3.96875"
       cy="29.545834"
       cx="24.870832"
       id="path1587-8-0-2-9"
       style="display:inline;opacity:1;fill:#ff0000;fill-opacity:1;stroke-width:0.264583" />
    <circle
       inkscape:label="COMB_CV_ATTENUVERTER"
       r="3.96875"
       cy="47.802078"
       cx="25.135416"
       id="path1587-8-0-2-9-1"
       style="display:inline;opacity:1;fill:#ff0000;fill-opacity:1;stroke-width:0.264583" />
    <circle
       inkscape:label="FEEDBACK_CV_ATTENUVERTER"
       r="3.96875"
       cy="70.291672"
       cx="25.135416"
       id="path1587-8-0-2-9-2"
       style="display:inline;opacity:1;fill:#ff0000;fill-opacity:1;stroke-width:0.264583" />
  </g>
</svg>
