<?xml version="1.0" encoding="UTF-8" standalone="no"?>
<svg
   width="30.48mm"
   height="128.5mm"
   viewBox="0 0 30.479999 128.5"
   version="1.1"
   id="svg821"
   inkscape:version="1.2.2 (b0a84865, 2022-12-01)"
   sodipodi:docname="Duffy.svg"
   xml:space="preserve"
   xmlns:inkscape="http://www.inkscape.org/namespaces/inkscape"
   xmlns:sodipodi="http://sodipodi.sourceforge.net/DTD/sodipodi-0.dtd"
   xmlns:xlink="http://www.w3.org/1999/xlink"
   xmlns="http://www.w3.org/2000/svg"
   xmlns:svg="http://www.w3.org/2000/svg"
   xmlns:rdf="http://www.w3.org/1999/02/22-rdf-syntax-ns#"
   xmlns:cc="http://creativecommons.org/ns#"
   xmlns:dc="http://purl.org/dc/elements/1.1/"><defs
     id="defs815"><rect
       x="45.065063"
       y="101.17967"
       width="38.461498"
       height="19.339811"
       id="rect1046" /><linearGradient
       id="linearGradient1761"
       inkscape:swatch="solid"><stop
         id="stop1759"
         offset="0"
         style="stop-color:#ffff00;stop-opacity:1;" /></linearGradient><linearGradient
       id="linearGradient1755"
       inkscape:swatch="solid"><stop
         id="stop1753"
         offset="0"
         style="stop-color:#0000ff;stop-opacity:1;" /></linearGradient><linearGradient
       id="linearGradient1749"
       inkscape:swatch="solid"><stop
         id="stop1747"
         offset="0"
         style="stop-color:#00ff00;stop-opacity:1;" /></linearGradient><linearGradient
       id="linearGradient1743"
       inkscape:swatch="solid"><stop
         id="stop1741"
         offset="0"
         style="stop-color:#ff0000;stop-opacity:1;" /></linearGradient><linearGradient
       id="linearGradient1737"
       inkscape:swatch="solid"><stop
         id="stop1735"
         offset="0"
         style="stop-color:#ff00ff;stop-opacity:1;" /></linearGradient><linearGradient
       id="linearGradient1686"
       inkscape:swatch="solid"><stop
         id="stop1684"
         offset="0"
         style="stop-color:#000000;stop-opacity:1;" /></linearGradient><linearGradient
       id="linearGradient5500"
       inkscape:swatch="solid"><stop
         id="stop5498"
         offset="0"
         style="stop-color:#f0f0f0;stop-opacity:1;" /></linearGradient><linearGradient
       id="linearGradient5494"
       inkscape:swatch="solid"><stop
         id="stop5492"
         offset="0"
         style="stop-color:#cdde87;stop-opacity:1;" /></linearGradient></defs><sodipodi:namedview
     id="base"
     pagecolor="#ffffff"
     bordercolor="#666666"
     borderopacity="1.0"
     inkscape:pageopacity="0.0"
     inkscape:pageshadow="2"
     inkscape:zoom="1.8101934"
     inkscape:cx="-156.6131"
     inkscape:cy="196.66407"
     inkscape:document-units="mm"
     inkscape:current-layer="layer7"
     showgrid="true"
     fit-margin-top="0"
     fit-margin-left="0"
     fit-margin-right="0"
     fit-margin-bottom="0"
     inkscape:snap-bbox="true"
     inkscape:bbox-nodes="true"
     inkscape:snap-others="false"
     inkscape:snap-nodes="true"
     inkscape:window-width="1920"
     inkscape:window-height="942"
     inkscape:window-x="1440"
     inkscape:window-y="25"
     inkscape:window-maximized="0"
     inkscape:snap-global="true"
     inkscape:showpageshadow="false"
     inkscape:bbox-paths="true"
     inkscape:snap-bbox-midpoints="true"
     inkscape:snap-bbox-edge-midpoints="true"
     inkscape:document-rotation="0"
     inkscape:snap-page="true"
     inkscape:pagecheckerboard="0"
     inkscape:deskcolor="#d1d1d1"><inkscape:grid
       type="xygrid"
       id="grid1366"
       units="mm"
       dotted="true"
       enabled="false" /></sodipodi:namedview><metadata
     id="metadata818"><rdf:RDF><cc:Work
         rdf:about=""><dc:format>image/svg+xml</dc:format><dc:type
           rdf:resource="http://purl.org/dc/dcmitype/StillImage" /></cc:Work></rdf:RDF></metadata><g
     inkscape:label="Layer 1"
     inkscape:groupmode="layer"
     id="layer1"
     transform="translate(0,-168.5)"
     style="display:inline"><rect
       style="opacity:1;fill:#333333;fill-opacity:1;stroke:#333333;stroke-width:2.2155;stroke-miterlimit:4;stroke-dasharray:none;stroke-opacity:1"
       id="rect1368"
       width="30.490335"
       height="128.50943"
       x="-0.010335271"
       y="168.39801" /><text
       xml:space="preserve"
       style="font-style:normal;font-variant:normal;font-weight:bold;font-stretch:normal;font-size:3.52778px;line-height:1.25;font-family:sans-serif;-inkscape-font-specification:'sans-serif Bold';letter-spacing:0px;word-spacing:0px;fill:#000000;fill-opacity:1;stroke:none;stroke-width:0.264583"
       x="11.90625"
       y="195.13542"
       id="text861" /><g
       style="display:inline;fill:#f9f9f9"
       id="g2119"
       transform="translate(62.330664,168.5)"><path
         d="m -5.6275905,176.49599 c -0.0857,-0.24024 -0.37677,-0.16087 -0.35349,0.12347 0.0233,0.28469 0.43921,0.11677 0.35349,-0.12347 z m 1.56139,-14.0716 c -0.0536,0.0473 -0.0773,0.11218 -0.085,0.16757 -0.03,0.2166 -0.49318,0.34678 -0.23319,0.53163 0.22613,0.16052 0.30304,-0.27058 0.47414,-0.40957 0.0448,-0.0367 0.079,-0.0974 0.0804,-0.1711 0.002,-0.1076 -0.15699,-0.18874 -0.23636,-0.11853 z m -1.3395,16.00588 c 0.037,-0.0776 0.0487,-0.16828 0.0462,-0.26388 -0.004,-0.11783 -0.11183,-0.28928 -0.17392,-0.248 -0.1591,0.10513 -0.43709,0.13053 -0.44626,0.36159 -0.004,0.10478 0.0483,0.17851 0.127,0.23178 0.127,0.0857 0.38276,0.0533 0.44697,-0.0815 z m -3.45263,-21.03861 c 0.2159,-0.15805 0.42862,-0.32138 0.68297,-0.41099 0.6403,-0.22542 1.21709,-0.57573 1.81575,-0.88547 0.29951,-0.15487 0.65229,-0.21484 0.98743,-0.28928 0.21696,-0.0483 0.34925,0.0783 0.40005,0.29422 0.10336,0.43815 0.34149,0.81703 0.53869,1.21426 0.13582,0.27376 0.27305,0.55069 0.17004,0.87171 -0.0878,0.27552 -0.0109,0.45862 0.28681,0.51859 0.30444,0.061 0.34537,-0.15099 0.38593,-0.36971 0.009,-0.0494 0.012,-0.10619 0.0469,-0.14746 0.0561,-0.0663 0.24554,0.008 0.30445,0.13723 0.0339,0.0748 0.0554,0.1598 0.072,0.24659 0.0663,0.34501 0.12524,0.68968 0.127,1.04493 0.007,1.35325 0.009,2.70439 -0.3182,4.03225 -0.0896,0.36336 -0.20709,0.74824 0.34219,0.89358 0.15275,0.0406 0.11359,0.2353 0.10724,0.37254 -0.018,0.39616 -0.0282,0.79304 -0.0649,1.1878 -0.008,0.0875 -2.6e-4,0.16651 0.0198,0.2413 0.0349,0.12982 0.0882,0.38029 0.0765,0.57503 -0.0113,0.19473 -0.0907,0.47307 -0.16051,0.6297 -0.0409,0.0914 -0.0709,0.18803 -0.072,0.29916 -0.003,0.36301 -0.0257,0.72637 -0.0229,1.08867 0.005,0.56833 0.1023,1.08656 0.127,1.1617 0.0247,0.0748 0.004,0.46743 -0.0353,0.89958 -0.0392,0.4318 0.11359,0.98602 0.16475,1.25907 0.03,0.15839 0.0402,0.32279 0.0342,0.50059 -0.008,0.24024 -0.013,0.4886 0.018,0.73307 0.0512,0.40217 0.20179,0.7486 0.22754,0.80645 0.0261,0.0579 0.0688,0.10372 0.0794,0.13194 0.0106,0.0279 0.0198,0.0974 0.0519,0.15557 0.0318,0.0579 0.17427,0.53729 0.43568,1.04211 0.16969,0.32808 0.40569,0.61489 0.76906,0.82303 0.18803,0.1076 0.20249,0.31221 0.23671,0.4893 0.12417997,0.64347 0.22824997,1.29082 0.34642997,1.93499 0.0356,0.19403 -0.0208,0.34008 -0.10831,0.5207 -0.22753997,0.47061 -0.65756997,0.78317 -0.89604997,1.24107 -0.0744,0.14288 -0.266,0.26247 -0.41769,0.12947 -0.32843,-0.28786 -0.56303,-0.0268 -0.81597,0.10337 -0.14323,0.0737 -0.26212,0.19544 -0.39088,0.29668 -0.24307,0.19086 -0.35137,0.27623 -0.44309,0.21555 -0.23918,-0.1584 -0.38735,-0.35348 -0.46814,-0.1778 -0.0462,0.10054 -0.0614,0.21167 -0.0378,0.34149 0.0169,0.0924 0.0413,0.18415 0.0483,0.27728 0.018,0.23566 0.0339,0.49636 -0.19932,0.62724 -0.25752,0.14499 -0.43003,-0.0691 -0.60219,-0.22613 -0.0395,-0.0363 -0.0808,-0.0706 -0.13299,-0.11289 -0.0748,-0.061 -0.1898,0.3295 -0.57962,0.59796 -0.22013,0.15205 -0.50059,0.21378 -0.81633,0.21661 -0.19861,0.002 -0.31855,0.11324 -0.43744,0.23389 -0.19861,0.20073 -0.69286,-0.005 -1.00542,-0.39053 -0.18027,-0.22225 -0.32702,-0.47484 -0.3556,-0.80962 -0.0138,-0.16228 -0.18133,-0.25541 -0.29351,-0.3743 -0.22613,-0.24059 -0.61983,-0.34749 -0.62159,-0.79093 0,-0.0977 -0.21484,-0.2092 -0.34608,-0.28963 -0.29175,-0.17815 -0.5030605,-0.0755 -0.5252905,0.26882 -0.0113,0.17815 -0.012,0.35701 -0.0102,0.54751 0.003,0.30304 -0.20143,0.3182 -0.31185,-0.0356 -0.110421,-0.35419 -0.135821,-0.91687 -0.320325,-1.2132 -0.111125,-0.17922 -0.24765,-0.35455 -0.218017,-0.5775 0.02928,-0.21978 0.03669,-0.44239 0.03775,-0.66569 0.0021,-0.3683 0.09631,-1.06398 0.100542,-1.56316 0.0024,-0.30127 -0.01341,-0.60325 -0.01058,-0.90417 0.01093,-1.14759 0.0032,-2.29553 0.0028,-3.44347 0.0032,-0.0476 0.006,-0.0956 0.0092,-0.14322 0.0049,-0.079 0.125238,-0.23883 0.121708,-0.39688 -0.0035,-0.1584 -0.06173,-0.34572 -0.04022,-0.43427 0.02117,-0.0889 0.204965,-0.51646 0.293862,-0.98672 0.0892,-0.4699 0.0529,-0.89993 0.0568,-0.9465 0.004,-0.0462 0.15205,-0.47378 0.18945,-0.97966 0.0226,-0.30516 0.0286,-0.61278 0.0836,-0.91335 0.003,-0.0265 0.006,-0.0526 0.01,-0.0787 0.005,-0.0437 0.10195,-0.25047 0.12241,-0.4833 0.0204,-0.23248 -0.002,-0.51929 0.003,-0.63888 0.005,-0.11995 0.1626305,-0.52388 0.1855605,-0.93522 0.0229,-0.41169 -0.17569,-0.5782 -0.4702505,-0.48718 -0.18662,0.0575 -0.369715,0.0804 -0.546456,0.11606 -0.11148,0.0222 -0.203907,0.06 -0.287867,0.1083 -0.147815,0.085 -0.345371,0.16228 -0.466373,0.16651 -0.12065,0.004 -0.492125,0.0716 -0.759531,0.26247 -0.267759,0.1905 -0.465315,0.43745 -0.515761,0.48225 -0.05045,0.0452 -0.170746,0.0949 -0.266348,0.1658 -0.09525,0.0705 -0.153458,0.16687 -0.184856,0.18768 -0.0314,0.0208 -0.232834,0.0769 -0.400402,0.22684 -0.167569,0.14993 -0.327025,0.34501 -0.432152,0.36971 -0.105481,0.0243 -0.672748,-0.0536 -1.047398,0.3055 -0.225073,0.2159 -0.408517,0.49954 -0.670983,0.653 -0.2159,0.12594 0.07056,0.38276 -0.183092,0.44414 -0.07691,0.0162 -0.137583,-0.008 -0.194382,-0.0423 -0.09666,-0.0586 -0.168978,-0.30233 -0.228245,-0.53728 -0.04339,-0.17251 -0.08572,-0.3302 -0.02611,-0.42827 0.260702,-0.42792 0.121708,-0.99836 0.571852,-1.35643 0.08996,-0.0716 0.186621,-0.1651 0.264937,-0.27622 0.121709,-0.17357 0.247296,-0.41487 0.346075,-0.51824 0.09878,-0.10336 0.176388,-0.23953 0.226484,-0.26564 0.0314,-0.0162 0.06103,-0.0342 0.08361,-0.0586 0.344662,-0.37112 0.798687,-0.71649 0.286808,-1.29046 -0.02506,-0.0282 -0.0085,-0.0938 0.01553,-0.16616 0.02999,-0.0907 0.152049,-0.23248 0.236009,-0.34995 0.08396,-0.11748 0.310446,-0.64453 0.643821,-1.10526 0.543983,-0.75141 1.176867,-1.42945 1.863373,-2.06304 0.07549,-0.0698 0.1651,-0.12912 0.239887,-0.20108 0.12418,-0.11959 0.28293,-0.35913 0.42263,-0.50059 0.139345,-0.14147 0.313266,-0.31327 0.378177,-0.40923 0.06526,-0.096 0.08608,-0.20602 0.105481,-0.23601 0.01939,-0.0303 0.168627,-0.15945 0.320321,-0.3242 0.151341,-0.16475 0.382061,-0.48754 0.5813815,-0.69673 0.19932,-0.2092 0.69709,-0.50271 1.05339,-0.76377"
         style="display:inline;fill:#f9f9f9;fill-opacity:1;fill-rule:nonzero;stroke:none;stroke-width:0.0352777"
         id="path2110"
         transform="matrix(0.22774839,0,0,0.24565989,-37.726138,80.539021)" /><path
         d="m -60.846457,175.09898 c 0.0014,-0.0914 0.0194,-0.18592 0,-0.27235 -0.02858,-0.12806 -0.131234,-0.19261 -0.259998,-0.18909 -0.11818,0.003 -0.290689,0.0409 -0.262114,0.16581 0.05927,0.25964 -0.09807,0.4325 -0.167922,0.64241 -0.03775,0.11359 0.0028,0.25012 0.104422,0.31397 0.103717,0.0656 0.22472,0.0109 0.327731,-0.0512 0.23742,-0.14288 0.257528,-0.36759 0.257881,-0.6096 z m -19.259551,3.05858 c -0.01588,-0.14111 -0.03457,-0.28011 -0.06491,-0.41628 -0.07091,-0.31961 -0.175331,-0.63218 -0.277636,-0.94368 -0.04339,-0.13158 -0.115006,-0.28928 -0.282575,-0.25894 -0.236008,0.0423 -0.174272,0.25294 -0.143228,0.39617 0.118886,0.55069 0.307622,1.0795 0.560917,1.58327 0.01905,0.0378 0.05186,0.0688 0.112889,0.0755 0.07796,0.008 0.120297,-0.20461 0.09454,-0.43603 z m 2.970742,0.63006 c -0.317148,-0.54963 -0.626534,-1.0855 -0.938037,-1.6196 -0.06103,-0.10478 -0.106186,-0.20179 -0.0822,-0.32667 0.09596,-0.49707 -0.275872,-0.74966 -0.555624,-1.04846 -0.105834,-0.11324 -0.241653,-0.14287 -0.383117,-0.0868 -0.17145,0.0674 -0.151695,0.21696 -0.121708,0.35525 0.03951,0.18168 0.08325,0.36336 0.139347,0.5401 0.265289,0.83608 0.794455,1.518 1.259769,2.24473 0.150636,0.2353 0.314325,0.41486 0.50553,0.54962 0.33902,0.23919 0.460023,-0.11571 0.176037,-0.60819 z m 6.217003,-4.10563 c -0.04304,-0.13299 -0.02293,-0.28398 0.123119,-0.47766 0.141111,-0.18768 0.04233,-0.53446 -0.293864,-0.58032 -0.196497,-0.0268 -0.350308,-0.12206 -0.525639,-0.17921 -0.106539,-0.0346 -0.197908,-0.031 -0.274108,0.006 -0.1397,0.0684 -0.271639,0.1651 -0.384528,0.18239 -0.06809,0.0102 -0.135467,0.031 -0.203905,0.0346 -0.455437,0.0233 -0.926042,0.043 -1.333148,-0.20497 -0.370064,-0.22577 -0.616302,-0.10759 -0.789164,0.32315 -0.162277,0.40463 -0.06773,0.81245 -0.123825,1.21461 -0.0095,0.0674 -0.01411,0.15029 0.01587,0.20602 0.29457,0.54963 0.623712,1.08268 0.745067,1.70921 0.01093,0.055 0.08961,0.10266 0.144992,0.14253 0.680861,0.49071 1.467555,0.77858 2.215797,1.13911 0.142522,0.0688 0.318911,0.0903 0.480483,0.0931 0.539045,0.009 1.079148,0.0173 1.614311,-0.0635 0.65405,-0.0988 0.679803,-0.14146 0.742598,-0.79057 0.02152,-0.22296 0.06773,-0.41628 -0.210961,-0.51223 -0.10795,-0.0367 -0.201437,-0.13406 -0.220839,-0.25718 -0.0695,-0.44027 -0.299156,-0.73448 -0.586317,-0.97578 -0.435323,-0.36583 -1.049156,-0.73871 -1.135939,-1.00929 z m 6.9977,-4.64749 c 0.107597,0.115 -0.200731,0.28398 -0.40887,0.21731 -0.207786,-0.0667 -0.236008,0.0935 -0.0049,0.18838 0.230716,0.0949 0.427919,-0.26599 0.51823,-0.24624 0.0501,0.0113 0.09807,0.0603 0.136172,0.0931 0.112184,0.0956 0.221192,0.19474 0.329495,0.29493 0.179211,0.16651 0.358775,0.3496 0.403225,0.4071 0.03457,0.0445 0.06209,0.0868 0.05186,0.11642 -0.08749,0.25682 -0.05221,0.44132 0.05115,0.58702 0.195792,0.27658 0.492478,0.36195 0.503414,0.35348 0.01058,-0.009 0.01164,-0.007 0.0025,0.002 -0.0095,0.0102 0.212372,0.36936 0.548569,0.76165 0.201436,0.2353 0.403931,0.47167 0.56515,0.74366 0.105481,0.17744 0.227895,0.37394 0.392642,0.52705 0.2667,0.248 0.84455,0.58631 0.885472,1.06539 0.02434,0.28751 0.0053,0.58384 0.0441,0.86854 0.0042,0.0286 0.05327,0.0459 0,0.0878 -0.506236,0.4011 -0.60325,1.08055 -1.078794,1.5314 -0.319264,0.30304 -0.524228,0.75565 -0.829028,1.10949 -0.123119,0.14288 -0.218369,0.31785 -0.401108,0.38065 -0.227542,0.0787 -0.314678,0.2413 -0.398286,0.45014 -0.145345,0.36231 -0.379942,0.60396 -0.819856,0.6664 -0.436386,0.0617 -0.875595,0.20637 -0.972961,0.76235 -0.04092,0.23354 -0.264936,0.32738 -0.462139,0.39652 -0.264936,0.0928 -0.539397,0.17075 -0.815975,0.21696 -0.822678,0.13794 -1.604786,0.49213 -2.464153,0.4445 -0.178506,-0.01 -0.379942,0.0494 -0.541161,0.13335 -1.013531,0.52917 -2.119489,0.73167 -3.225095,0.93592 -0.109008,0.0201 -0.234244,2.7e-4 -0.343253,-0.0314 -0.529166,-0.15275 -1.058686,-0.10265 -1.601611,-0.09 -0.923925,0.0212 -1.857728,-0.0473 -2.707217,-0.50553 -0.22613,-0.12206 -0.463197,-0.25541 -0.710494,-0.30092 -0.765881,-0.14111 -1.265061,-0.67169 -1.787172,-1.16628 -1.655233,-1.56845 -2.310695,-3.58034 -2.538236,-5.77921 -0.02434,-0.23636 -0.02081,-0.46778 0.01905,-0.70202 0.345061,-2.02529 1.019925,-3.92887 1.923389,-5.77919 0.379589,-0.77753 0.810331,-1.49966 1.452739,-1.99884 0.6223,-0.48331 1.175103,-1.04952 1.780469,-1.55081 0.43815,-0.36266 1.034345,-0.48719 1.271412,-0.5708 0.136172,-0.048 0.261408,-0.14287 0.386644,-0.23636 0.238831,-0.17851 0.500239,-0.32456 0.750006,-0.47837 0.340783,-0.2099 0.703086,-0.39405 1.043164,-0.61066 0.479425,-0.3055 1.220964,-0.81668 1.762477,-0.98989 0.55492,-0.1778 1.113014,-0.34713 1.656645,-0.56444 0.686153,-0.27447 1.465086,-0.36407 2.191103,-0.32562 0.788458,0.042 1.588911,-0.12065 2.365375,0.0893 0.91052,0.24589 1.754364,0.58244 2.305403,1.29575 0.347486,0.45015 0.08925,1.23014 -0.421217,1.10843 -0.510469,-0.12206 -1.005769,-0.16757 -0.996244,-0.0607 0.006,0.066 0.05503,0.11818 0.09102,0.16934 0.131234,0.18379 0.07338,0.30515 -0.118533,0.37958 -0.123119,0.0476 -0.293864,0.007 -0.337255,0.19156 -0.05962,0.25224 -0.255764,0.21273 -0.381001,0.12206 -0.3429,-0.24765 -0.724605,-0.27587 -1.119716,-0.26564 -0.196145,0.005 -0.525992,-0.18697 -0.442384,0.27552 0.0028,0.0148 -0.01164,0.0385 -0.02505,0.0494 -0.450144,0.36266 -0.450144,0.36266 0.0035,0.77576 0.0088,0.008 0.01588,0.0173 0.02328,0.0279 0.01129,0.0162 -0.05609,0.1584 -0.210608,0.17533 -0.08714,0.01 -0.1778,-0.0215 -0.262114,-0.0829 -0.372533,-0.26987 -0.778581,-0.3937 -1.234722,-0.35666 -0.153459,0.0123 -0.263173,-0.0857 -0.389114,-0.14322 -0.173214,-0.0794 -0.379589,-0.1778 -0.540103,-0.1076 -0.411692,0.17956 -0.820208,0.0261 -1.200856,-0.024 -0.337961,-0.0445 -0.609247,0.0145 -0.849136,0.1651 -0.472722,0.29739 -1.0033,0.47942 -1.469672,0.78105 -0.756708,0.4893 -1.446742,1.03717 -1.692275,1.97414 -0.0762,0.29069 -0.282575,0.53587 -0.339372,0.84103 -0.01199,0.0635 -0.01728,0.11994 -0.0046,0.16933 0.02363,0.0914 0.109361,0.17251 0.136878,0.2166 0.01446,0.0233 0.0381,0.036 0.08325,0.0222 0.0092,-0.003 0.01129,-0.0293 0.01235,-0.0596 0.0011,-0.0346 0.09102,-0.115 0.199672,-0.17921 0.109009,-0.0642 0.320322,-0.0942 0.475545,-0.0847 0.09172,0.006 0.181328,0.0215 0.259997,0.0914 0.07973,0.0709 0.04516,0.17216 0.03457,0.27058 -0.01728,0.15734 0.479778,0.0286 0.932745,-0.1972 0.272344,-0.13582 0.552097,-0.25964 0.843844,-0.35595 0.115006,-0.0377 0.215195,-0.0759 0.285045,-0.1838 0.140052,-0.21731 0.336197,-0.32526 0.599369,-0.26282 0.256822,0.0607 0.170745,0.29528 0.231422,0.45897 0.106186,0.28751 0.450498,0.46002 0.591962,0.26917 0.280105,-0.37712 0.733072,-0.25718 1.06433,-0.47343 0.200731,-0.13124 0.492125,-0.13194 0.745772,-0.16722 0.08008,-0.0109 0.179564,0.042 0.215195,0.14711 0.03704,0.10936 -0.01905,0.19826 -0.09737,0.23918 -0.07338,0.0388 -0.150989,0.0699 -0.229658,0.0988 -0.12947,0.0476 0.119944,0.17216 0.567619,0.20214 0.249414,0.0169 0.481189,-0.0487 0.6604,-0.37641 0.0254,-0.0466 0.100189,-0.0656 0.18415,-0.0797 0.112889,-0.0187 0.283281,-0.012 0.381,0.0173 0.09772,0.0293 0.201084,0.14252 0.230364,0.25294 0.01764,0.0667 0.03422,0.1337 0.04763,0.20144 0.09666,0.49106 0.140053,0.53446 0.594784,0.54892 0.161925,0.005 0.324555,0.006 0.475191,-0.0699 0.23495,-0.11818 0.444853,-0.0928 0.625475,0.10689 0.04939,0.0543 0.10407,0.0963 0.165453,0.12383 0.104422,0.0469 0.262114,0.14252 0.369711,0.25717"
         style="display:inline;fill:#f9f9f9;fill-opacity:1;fill-rule:nonzero;stroke:none;stroke-width:0.0352777"
         id="path2112"
         transform="matrix(0.22774839,0,0,0.24565989,-37.726138,80.539021)" /><path
         d="m -36.293898,165.16119 c -0.02574,-0.0247 -0.05927,-0.0212 -0.07444,0.008 -0.01024,0.0198 -0.01799,0.0392 -0.01447,0.0561 0.0063,0.0321 0.05045,0.0776 0.08043,0.0797 0.02787,0.002 0.04621,-0.0109 0.05503,-0.0317 0.0141,-0.0349 -0.02045,-0.0871 -0.04657,-0.11183 z m -0.103365,-2.44757 c -0.01693,0.0247 -0.02469,0.0571 -0.02928,0.0907 -0.01376,0.0991 0.01447,0.1838 0.123473,0.19685 0.07973,0.01 0.112183,-0.0639 0.10936,-0.12911 -0.0019,-0.0441 -0.0049,-0.0903 -0.02294,-0.12842 -0.03034,-0.066 -0.150638,-0.0744 -0.180624,-0.03 z m 0.229307,4.01461 c -0.02328,-0.25153 -0.118182,-0.26599 -0.179565,-0.0286 -0.06103,0.23778 0.202493,0.28046 0.179565,0.0286 z m -0.328084,-2.48002 c 0.04515,0.27622 0.23636,0.2667 0.201084,-0.01 -0.03528,-0.27658 -0.24624,-0.2667 -0.201084,0.01 z m -7.127171,13.33958 c -0.127704,0.5521 0.207433,1.03893 0.193675,1.59385 -0.02434,0.99625 0.234246,1.97485 0.363363,2.96263 0.01693,0.12947 0.08078,0.2353 0.211667,0.23742 0.13335,0.002 0.198966,-0.10901 0.216251,-0.23424 0.01588,-0.11607 0.03775,-0.23495 0.02681,-0.34996 -0.04198,-0.44344 -0.0063,-0.89182 -0.109712,-1.33209 -0.119947,-0.50976 -0.120299,-1.03822 -2.65e-4,-1.53599 0.128058,-0.5334 0.438504,-1.028 0.2032,-1.60938 -0.02469,-0.061 0.05398,-0.17215 0.09913,-0.25223 0.09454,-0.16828 0.138642,-0.34749 0.148167,-0.53799 0.04163,-0.83926 -0.1397,-1.66511 -0.145698,-2.50155 -0.0011,-0.11959 -0.04551,-0.29703 -0.148519,-0.28963 -0.271285,0.0187 -0.543631,0.0833 -0.805391,0.16263 -0.199319,0.0607 -0.144992,0.26318 -0.171802,0.41981 -0.123121,0.72073 0.139345,1.4672 -0.137232,2.17452 -0.147814,0.37818 0.1524,0.7239 0.05644,1.0922 z m 7.955492,-13.68742 c 0.01376,0.23671 -0.07902,0.45614 -0.204962,0.50306 -0.07161,0.0265 -0.125238,0.073 -0.1143,0.18979 0.0099,0.10301 0.04833,0.18839 0.112183,0.25153 0.110418,0.10901 0.22507,0.17039 0.20461,0.24342 -0.02082,0.0727 0.04339,0.12171 0.04974,0.121 0.0063,-0.001 -0.07867,-0.0603 -0.149225,0.002 -0.0702,0.0624 -0.194027,0.19332 -0.174977,0.29528 0.0092,0.0483 0.06526,0.0882 0.138993,0.11536 0.05221,0.0194 0.100894,0.0381 0.142875,0.0646 0.07303,0.0462 0.02222,0.36336 0.1016,0.66004 0.04798,0.17886 0.117827,0.35631 0.127352,0.53975 0.0067,0.133 0.331613,0.35172 0.485423,0.56727 0.112536,0.15734 0.352777,0.0469 0.536575,0.0455 0.632532,-0.003 1.264709,-0.0166 1.89724,-0.0127 0.280459,0.002 0.518584,0.10795 0.775052,0.24694 0.15734,0.0854 0.474133,-0.21378 0.772935,-0.16898 0.21943,0.0328 0.439563,0.06 0.660048,0.085 0.36548,0.042 0.730957,0.26988 0.900997,0.44662 0.113241,0.11818 0.247295,0.19791 0.38382,0.20073 0.40993,0.008 0.750007,0.23671 1.147588,0.2353 0.456142,-0.002 0.88406,0.2219 1.37442,0.0614 0.407813,-0.1337 0.8382,0.14605 1.307397,0.0416 0.2794,-0.0624 0.570087,-0.067 0.862541,-0.0741 0.479071,-0.0113 0.923571,-0.0826 1.000477,-0.0794 0.07691,0.004 0.25541,0.0635 0.282927,0.19191 0.0113,0.0536 -0.02117,0.10795 -0.145343,0.16404 -0.0822,0.037 -0.118534,0.0896 -0.127707,0.14994 -0.01693,0.11253 0.03598,0.29421 0.03528,0.40957 -7.94e-4,0.11536 -0.143582,0.24483 -0.213432,0.38206 -0.03563,0.0706 -0.03493,0.15769 0.01693,0.26917 0.03916,0.0836 0.06597,0.20637 -0.05292,0.23142 -0.545042,0.11501 -0.750358,0.62371 -1.119717,0.94086 0,0 -0.0046,0.005 -0.0092,0.009 -0.0053,0.005 -0.188736,0.12171 -0.301977,0.33972 -0.113242,0.21802 -0.120298,0.46108 -0.204613,0.49707 -0.08431,0.0356 -0.164746,0.0586 -0.179917,0.0508 -0.01482,-0.008 -0.03492,-0.002 -0.04445,0.0123 -0.0098,0.0141 -0.0568,0.0459 -0.104775,0.0709 -0.04798,0.0247 -0.119943,0.0145 -0.152752,0.0349 -0.03281,0.0201 -0.06632,0.0804 -0.116416,0.10195 -0.05045,0.0219 -0.135115,-0.012 -0.188736,0.0116 -0.05362,0.0233 -0.137583,0.13018 -0.135821,0.22013 0.0013,0.09 0.0889,0.29951 -0.05503,0.38912 -0.144285,0.09 -0.272696,0.20002 -0.323496,0.20884 -0.03034,0.005 -0.06103,0.0106 -0.09137,0.0159 -0.540454,0.0437 -1.093962,0.0226 -1.56351,0.37536 -0.107244,0.0804 -0.251177,0.1531 -0.379942,0.15628 -0.383116,0.01 -0.759883,0.0797 -1.137708,0.13793 -0.561975,0.0864 -1.174046,0.0138 -1.36878,0.003 -0.194378,-0.0109 -0.459668,-0.0476 -0.581376,-0.004 -0.05468,0.0198 -0.08855,0.0762 -0.08361,0.20109 0.0021,0.0497 -0.01058,0.0917 -0.0314,0.12911 -0.03634,0.0649 -0.145695,0.11219 -0.220837,0.12242 -0.0755,0.0102 -0.322792,-0.002 -0.538692,-0.0794 -0.114654,-0.0413 -0.202848,-0.12277 -0.210608,-0.32385 -0.0013,-0.0314 -0.111125,-0.0847 -0.16863,-0.0818 -0.09102,0.004 -0.166158,0.0441 -0.154516,0.17321 0.04163,0.45897 -0.220134,0.60431 -0.63006,0.59408 -0.05468,-10e-4 -0.09349,0.0201 -0.122767,0.0533 -0.05115,0.0572 -0.07056,0.12418 -0.07408,0.12841 -0.0035,0.004 -0.157692,0.0875 -0.345369,0.18415 -0.113596,0.0582 -0.2286,0.11395 -0.347133,0.16016 -0.140407,0.055 -0.275522,0.0956 -0.261057,0.26882 0.03704,0.44203 -0.45861,0.84878 -0.08537,1.31621 0.02434,0.0303 -0.02611,0.12101 -0.04233,0.1838 -0.144992,0.56021 -0.145344,0.56197 0.407813,0.64452 0.09772,0.0145 0.189087,0.0286 0.212018,0.13865 0.02998,0.14393 -0.04057,0.21484 -0.183798,0.22436 -0.46002,0.03 -0.610658,0.33585 -0.684387,0.7366 -0.06985,0.37959 -0.176742,0.81809 0.05997,1.10032 0.203907,0.24306 0.13194,0.31785 7.94e-4,0.49777 -0.131233,0.17991 -0.05574,0.60677 -0.294923,0.5722 -0.480483,-0.0691 -0.293158,0.31539 -0.424037,0.47272 -0.09278,0.11184 -0.179565,0.22508 -0.22578,0.34996 -0.08043,0.21661 -0.024,0.39617 -0.05609,0.41804 -0.01765,0.0116 -0.02787,0.0318 -0.02998,0.0607 -7.94e-4,0.007 0.04233,0.0293 0.05927,0.0247 0.0321,-0.009 0.04974,-0.024 0.05327,-0.0427 0.0074,-0.0392 0.222604,0.0494 0.357365,-0.13723 0.06703,-0.0931 0.0702,-0.24341 0.05539,-0.40569 -0.01304,-0.14041 0.02963,-0.2346 0.15875,-0.26035 0.09878,-0.0198 0.187325,0.0501 0.21449,0.14428 0.04516,0.15558 0.159808,0.25718 0.287866,0.37783 0.193675,0.18203 0.105127,0.23742 -0.06103,0.3743 -0.106892,0.0882 -0.144285,0.25117 -0.25541,0.28786 -0.231775,0.0765 -0.511175,0.006 -0.745774,0.14323 -0.03951,0.0233 -0.102303,0.0459 -0.110066,0.0794 -0.06032,0.25647 -0.200729,0.38241 -0.454377,0.50447 -0.165452,0.0794 -0.149225,0.45615 -0.274815,0.68333 -0.05574,0.1009 -0.0896,0.21449 -0.138287,0.31892 -0.08114,0.17427 -0.274815,0.0808 -0.451205,0.0617 -0.176387,-0.0194 -0.332668,-0.0589 -0.398285,-0.17357 -0.03845,-0.067 -0.09666,-0.10795 -0.204258,-0.0737 -0.08961,0.0282 -0.130175,0.0956 -0.142875,0.1771 -0.02082,0.13158 -0.05644,0.34819 -0.158398,0.4766 -0.102304,0.12841 -0.137935,0.23354 -0.172509,0.21907 -0.03457,-0.0148 -0.08643,-0.11324 -0.19332,-0.17074 -0.106892,-0.0575 -0.126296,-0.22402 -0.100542,-0.33197 0.01516,-0.0624 0.01093,-0.12382 -0.05433,-0.18168 -0.03916,-0.0349 -0.172154,-0.0406 -0.186971,-0.0152 -0.170391,0.28928 -0.490008,0.38135 -0.727429,0.57856 -0.05468,0.0455 -0.09066,0.10901 -0.09983,0.17921 -0.01516,0.11536 0.04621,0.26106 0.04516,0.33549 -0.0011,0.0748 -0.10019,0.30762 -0.1778,0.53763 -0.07726,0.23037 -0.06879,0.20285 -0.08714,-0.0759 -0.01871,-0.27869 -0.112887,-0.58278 -0.179562,-0.6805 -0.06703,-0.0977 -0.16369,-0.14782 -0.175331,-0.16651 -0.01164,-0.019 -0.04163,-0.22084 -0.103011,-0.45332 -0.06138,-0.23284 -0.208846,-0.0857 -0.369713,0.23142 -0.102658,0.20249 -0.212725,0.37924 -0.20602,0.6029 -0.0024,0.049 -0.0049,0.0981 -0.0074,0.1471 -0.0039,0.0815 -0.08149,0.17392 -0.115007,0.25083 -0.03316,0.0769 0.04904,0.0198 0.03739,-0.12877 -0.0113,-0.14851 -0.04339,-0.38487 -0.02506,-0.53657 0.01093,-0.0921 0.02011,-0.18415 0.02117,-0.27623 0.0024,-0.19014 -0.04833,-0.37429 -0.210256,-0.49671 -0.158044,-0.11924 -0.24271,0.0702 -0.365477,0.10266 -0.32879,0.0875 -0.540808,-0.0374 -0.64629,-0.35313 -0.04445,-0.13264 -0.08678,-0.26634 -0.116064,-0.40287 -0.07338,-0.34184 -0.362654,-0.27552 -0.558094,-0.24024 -0.235302,0.0427 -0.115358,0.24165 -0.06738,0.39405 0.02117,0.066 0.03563,0.1337 0.04833,0.20214 0.02117,0.11289 -0.203906,0.0896 -0.367948,-0.17215 -0.09807,-0.15664 -0.150635,-0.33691 -0.153104,-0.53023 -0.0085,-0.67627 -0.14464,-1.33703 -0.2413,-2.00166 -0.0822,-0.56233 0.06667,-1.05657 0.06103,-1.20685 -0.0032,-0.0878 -0.03034,-0.18945 0.02363,-0.26565 0.163687,-0.23036 0.193675,-0.43956 0.106185,-0.60924 -0.164748,-0.31997 -0.524581,-0.39053 -0.522464,-0.43639 0.0024,-0.0455 0.134408,0.0321 0.328789,0.0526 0.110773,0.0116 0.143934,-0.072 0.155223,-0.2674 0.0067,-0.11325 -0.0056,-0.22896 -0.02257,-0.34149 -0.0381,-0.25118 -0.07197,-0.35666 -0.182738,-0.33444 -0.230716,0.0466 -0.368654,0.0572 -0.377473,-0.14428 -0.0088,-0.20144 -0.05574,-0.20214 0.06844,-0.1517 0.05891,0.024 0.140758,-0.009 0.221544,-0.0727 0.225777,-0.1785 0.234243,-0.43638 0.179916,-0.69956 -0.03034,-0.14781 -0.06032,-0.29527 -0.09031,-0.44308 -0.04939,-0.24483 0.08502,-0.52952 0.0949,-0.72143 0.0099,-0.19192 -0.04692,-0.42757 -0.05856,-0.54646 -0.01198,-0.11853 0.04763,-0.40358 0.03387,-0.67204 -0.0085,-0.16051 -0.04304,-0.32244 -0.05362,-0.48366 -0.0081,-0.12911 -0.0508,-0.2607 -0.170037,-0.27269 -0.331965,-0.0339 -0.667809,-0.11748 -1.00048,-0.13618 -0.556683,-0.031 -1.052335,0.25012 -1.165929,0.26176 -0.06844,0.007 -0.136879,0.0141 -0.205671,0.0212 -0.378883,0.031 -0.748945,0.0847 -1.108427,-0.14851 -0.131939,-0.0857 -0.379941,-0.0727 -0.542925,-0.0145 -0.479779,0.1718 -1.088321,-0.0554 -1.458383,0.48612 -0.06597,0.097 -0.288925,0.13723 -0.456848,0.0857 -0.172508,-0.0526 -0.262115,-0.018 -0.313619,0.0564 -0.10795,0.15593 -0.09031,0.32526 -0.08714,0.32174 0.0028,-0.004 -0.06985,0.0346 -0.170391,0.03 -0.100542,-0.005 -0.176035,-0.12171 -0.170037,-0.2413 0.0056,-0.1196 0.04904,-0.24307 0.0956,-0.27588 0.02858,-0.0198 0.05609,-0.0406 0.08114,-0.0639 0.122412,-0.11571 0.235654,-0.25823 0.135819,-0.42368 -0.09031,-0.14993 -0.249767,-0.0466 -0.378532,-0.0282 -0.409926,0.0596 -0.817033,0.14428 -1.23331,0.0261 -0.106891,-0.0307 -0.171802,7.1e-4 -0.219075,0.0568 -0.08573,0.1023 -0.144991,0.22437 -0.180623,0.24059 -0.03563,0.0162 -0.365125,0.0487 -0.703437,-0.085 -0.338315,-0.13335 -0.446265,-0.28081 -0.338667,-0.50941 0.05821,-0.12418 0.02646,-0.24059 -0.185563,-0.36195 -0.08537,-0.0487 -0.0762,-0.16968 -0.01622,-0.25012 0.137232,-0.18415 0.213784,-0.40675 0.416984,-0.54962 0.222602,-0.15699 0.324908,-0.23249 0.301625,-0.31257 -0.06914,-0.24094 -0.267052,-0.37641 -0.114652,-0.39969 0.09278,-0.0145 0.183443,-0.0321 0.221543,-0.14076 0.0067,-0.0194 0.0046,-0.0462 -0.0035,-0.0656 -0.0071,-0.0173 -0.02574,-0.0363 -0.04304,-0.0409 -0.01376,-0.004 -0.04868,0.0173 -0.04798,0.0198 0.05821,0.20073 0.214842,0.14852 0.342545,0.11465 0.32738,-0.0868 0.418042,-0.35666 0.148873,-0.55069 -0.171098,-0.12347 -0.270933,-0.27022 -0.335843,-0.43038 -0.114655,-0.28328 0.06491,-0.63112 0.226129,-0.49918 0.09172,0.0751 0.157339,0.19579 0.231071,0.29633 0.09384,0.127 0.112183,0.30762 0.26811,0.39299 0.07973,0.0437 0.164748,0.0931 0.253648,0.0265 0.101246,-0.0762 0.05574,-0.19155 7.94e-4,-0.24024 -0.10301,-0.091 -0.181679,-0.18873 -0.228952,-0.29845 -0.08255,-0.19226 -0.0056,-0.3743 0.02893,-0.39088 0.03422,-0.0166 0.111479,-0.004 0.152048,-0.0409 0.04092,-0.0378 0.0949,-0.26246 0.19826,-0.46672 0.06386,-0.1263 0.134057,-0.24659 0.227896,-0.34467 0.306563,-0.32032 0.729544,-0.47695 1.166636,-0.50165 0.303035,-0.0169 0.589843,-0.0709 0.877358,-0.14957 0.02117,-0.008 0.04233,-0.0159 0.0635,-0.0236 0.03493,-0.013 0.158044,-0.0233 0.274815,-0.0226 0.116768,7.1e-4 0.3429,0.18909 0.526695,0.11747 0.183446,-0.072 0.281871,-0.25576 0.322792,-0.26388 0.04092,-0.008 0.06032,0.14782 0.11924,0.33267 0.03739,0.11713 0.111831,0.19297 0.269523,0.13864 0.42686,-0.1471 0.879827,-0.11571 1.283758,-0.2741 0.26811,-0.10513 0.483307,-0.35948 0.600427,0.13194 0.02469,0.10371 0.148167,0.085 0.242358,0.0568 0.581025,-0.17534 1.167342,-0.0893 1.738138,0.0219 0.507646,0.0988 0.42051,-0.75424 0.959909,-0.54646 0.01588,0.006 0.09031,-0.0949 0.110066,-0.15522 0.02082,-0.0642 0.006,-0.1397 0.01236,-0.20955 0.0074,-0.0804 0.01553,-0.16122 0.024,-0.24165 0.01447,-0.13335 0.07796,-0.42545 0.07726,-0.65793 -2.64e-4,-0.23248 0.0141,-0.74578 0.0695,-1.14441 0.03281,-0.23883 0.08396,-0.47449 0.192263,-0.69992 0.04868,-0.10124 0.09313,-0.24447 0.05891,-0.33937 -0.210608,-0.58526 0.101952,-1.22096 -0.187325,-1.79775 -0.05468,-0.10866 0.01693,-0.28081 0.134761,-0.26953 0.236362,0.0229 0.552098,0.0667 0.613481,0.31221 0.08678,0.34608 0.281517,0.6731 0.185208,1.07351 -0.03775,0.15663 -0.04868,0.32279 -0.01482,0.47977 0.0568,0.26141 0.292452,0.16016 0.237773,-0.14358 -0.03246,-0.18097 -0.09455,-0.35595 -0.175332,-0.52881 -0.182033,-0.39017 0.105482,-0.75459 0.08573,-1.14759 -0.0127,-0.25541 0.334786,-0.18979 0.514702,-0.25717 0.215196,-0.0808 0.292455,-0.19015 0.297746,-0.40605 0.0067,-0.27234 -0.171804,-0.38559 -0.382058,-0.42474 -0.300567,-0.0565 -0.611365,-0.0138 -0.898879,0.0822 -0.116063,0.0392 -0.227188,0.0705 -0.337254,0.0765 -0.191207,0.0102 -0.275167,-0.17075 -0.206375,-0.28399 0.04339,-0.0709 0.08043,-0.14287 0.09384,-0.21907 0.05539,-0.31786 0.2032,-0.49284 0.39864,-0.59585 0.364066,-0.19191 0.872418,-0.0801 1.059391,-0.14111 0.108302,-0.0353 0.22084,-0.0815 0.346427,-0.0462 0.49389,0.13829 0.861838,-0.14464 1.178632,-0.52669 0.138641,-0.16722 0.207081,-0.34925 0.303035,-0.52811 0.04198,-0.078 0.112538,-0.17251 0.265642,-0.0476 0.377121,0.30727 0.489304,0.28151 0.612775,-0.16934 0.02963,-0.10795 0.06668,-0.16615 0.1143,-0.19438 0.109714,-0.0653 0.435681,0.25153 0.559506,0.62795 0.07303,0.22119 0.104423,0.45579 0.08326,0.70802 -0.0032,0.0402 -0.0035,0.0981 0.02469,0.13723 0.04657,0.0635 0.212725,-0.0677 0.186973,-0.21343 -0.01516,-0.0871 -0.05327,-0.17356 -0.07303,-0.25823 -0.03457,-0.14817 -0.03352,-0.32138 0.0071,-0.51365 0.05856,-0.2801 0.234598,-0.45578 0.314325,-0.41627 0.07973,0.0395 0.254354,0.35877 0.442031,0.68827 0.187325,0.32984 0.198615,0.73307 0.204258,0.85266 0.0056,0.11924 -0.0049,0.26635 -0.0074,0.34996 -0.0024,0.0836 0.05539,0.58667 0.24624,1.09184 0.115004,0.30516 0.250118,0.60537 0.315383,0.92463 0.02328,0.11395 0.05785,0.22578 0.08678,0.33902 0.04798,0.18698 0.01588,0.41134 0.05503,0.47449 0.03916,0.0631 0.117475,0.27129 0.131585,0.50765"
         style="display:inline;fill:#f9f9f9;fill-opacity:1;fill-rule:nonzero;stroke:none;stroke-width:0.0352777"
         id="path2114"
         transform="matrix(0.22774839,0,0,0.24565989,-37.726138,80.539021)" /></g><rect
       style="display:inline;fill:#4d4d4d;stroke-width:0.264583"
       id="rect1292"
       width="28.163654"
       height="10.43864"
       x="1.0852051"
       y="52.709961"
       ry="0.55231303"
       transform="translate(0,168.5)" /><rect
       style="display:inline;fill:#4d4d4d;stroke-width:0.264583"
       id="rect1348"
       width="28.163654"
       height="10.43864"
       x="1.0852051"
       y="69.36927"
       ry="0.55231303"
       transform="translate(0,168.5)" /><rect
       style="display:inline;fill:#4d4d4d;stroke-width:0.264583"
       id="rect1350"
       width="28.163654"
       height="10.43864"
       x="1.0852051"
       y="86.038033"
       ry="0.55231303"
       transform="translate(0,168.5)" /><rect
       style="display:inline;fill:#4d4d4d;stroke-width:0.264583"
       id="rect1352"
       width="28.163654"
       height="10.43864"
       x="1.0852051"
       y="102.70679"
       ry="0.55231303"
       transform="translate(0,168.5)" /><rect
       style="fill:#1a1a1a;stroke-width:0.264583"
       id="rect1383"
       width="12.092285"
       height="12.454021"
       x="18.120697"
       y="201.77962"
       ry="1.0852051" /></g><g
     inkscape:groupmode="layer"
     id="layer4"
     inkscape:label="channels"><rect
       style="display:inline;fill:none;fill-opacity:1;stroke:#f9f9f9;stroke-width:0.317423"
       id="rect4554"
       width="10.277886"
       height="10.60099"
       x="19.027897"
       y="52.619335" /><rect
       style="display:inline;fill:none;fill-opacity:1;stroke:#f9f9f9;stroke-width:0.317423"
       id="rect4604"
       width="10.277886"
       height="10.60099"
       x="19.027897"
       y="69.288094" /><rect
       style="display:inline;fill:none;fill-opacity:1;stroke:#f9f9f9;stroke-width:0.317423"
       id="rect4654"
       width="10.277886"
       height="10.60099"
       x="19.027897"
       y="85.956856" /><rect
       style="display:inline;fill:none;fill-opacity:1;stroke:#f9f9f9;stroke-width:0.317423"
       id="rect4704"
       width="10.277886"
       height="10.60099"
       x="19.027897"
       y="102.62562" /></g><g
     inkscape:groupmode="layer"
     id="layer3"
     inkscape:label="temp"
     style="display:none"><image
       preserveAspectRatio="none"
       inkscape:svg-dpi="96"
       width="12.7"
       height="12.7"
       xlink:href="SspoLargeKnob.svg"
       id="image970"
       x="1.3792768"
       y="33.08987" /><image
       preserveAspectRatio="none"
       inkscape:svg-dpi="96"
       width="8.3556213"
       height="8.3556213"
       xlink:href="SspoPort.svg"
       id="image4318"
       x="3.551466"
       y="103.7483" /><image
       preserveAspectRatio="none"
       inkscape:svg-dpi="96"
       width="8.3556213"
       height="8.3556213"
       xlink:href="SspoPort.svg"
       id="image4558"
       x="19.989029"
       y="53.742023" /><image
       preserveAspectRatio="none"
       inkscape:svg-dpi="96"
       width="8.3556213"
       height="8.3556213"
       xlink:href="SspoPort.svg"
       id="image4608"
       x="19.989029"
       y="70.410782" /><image
       preserveAspectRatio="none"
       inkscape:svg-dpi="96"
       width="8.3556213"
       height="8.3556213"
       xlink:href="SspoPort.svg"
       id="image4658"
       x="19.989029"
       y="87.079544" /><image
       preserveAspectRatio="none"
       inkscape:svg-dpi="96"
       width="8.3556213"
       height="8.3556213"
       xlink:href="SspoPort.svg"
       id="image4708"
       x="19.989029"
       y="103.7483" /><image
       preserveAspectRatio="none"
       inkscape:svg-dpi="96"
       width="8.3556213"
       height="8.3556213"
       xlink:href="SspoPort.svg"
       id="image3621"
       x="3.551466"
       y="16.782095"
       style="display:inline" /><image
       preserveAspectRatio="none"
       inkscape:svg-dpi="96"
       width="8.3556213"
       height="8.3556213"
       xlink:href="SspoPort.svg"
       id="image957"
       x="19.054396"
       y="16.9888"
       style="display:inline" /><image
       preserveAspectRatio="none"
       inkscape:svg-dpi="96"
       width="8.3556213"
       height="8.3556213"
       xlink:href="SspoPort.svg"
       id="image993"
       x="3.551466"
       y="87.079544" /><image
       preserveAspectRatio="none"
       inkscape:svg-dpi="96"
       width="8.3556213"
       height="8.3556213"
       xlink:href="SspoPort.svg"
       id="image1029"
       x="3.551466"
       y="70.410782" /><image
       preserveAspectRatio="none"
       inkscape:svg-dpi="96"
       width="8.3556213"
       height="8.3556213"
       xlink:href="SspoPort.svg"
       id="image1065"
       x="3.551466"
       y="53.742023" /><path
       style="fill:#f9f9f9;stroke-width:0.264583"
       d="m 13.022461,58.032633 h 5.94279 z"
       id="path1163" /><path
       style="fill:#f9f9f9;stroke-width:0.264583"
       d="m 13.435872,57.929279 3.61735,0.103354"
       id="path1165" /><path
       style="fill:#f9f9f9;stroke-width:0.264583"
       d="m 13.125814,57.929279 5.012614,0.103354 v 0 0 0"
       id="path1167" /></g><g
     inkscape:groupmode="layer"
     id="layer2"
     inkscape:label="components"
     style="display:none"><circle
       style="display:inline;opacity:1;fill:#00ff00;fill-opacity:1;stroke-width:0.264583"
       id="path1587-8-3"
       cx="7.7292767"
       cy="20.959906"
       r="3.96875"
       inkscape:label="DOWN" /><circle
       style="display:inline;opacity:1;fill:#ff0000;fill-opacity:1;stroke-width:0.264583"
       id="path1587-8-0-2"
       cx="7.7292767"
       cy="39.439869"
       r="3.96875"
       inkscape:label="SHIFT" /><circle
       style="display:inline;opacity:1;fill:#0000ff;fill-opacity:1;stroke-width:0.264583"
       id="path1389"
       cx="24.16684"
       cy="107.92611"
       r="3.96875"
       inkscape:label="FOUR" /><circle
       style="display:inline;opacity:1;fill:#0000ff;fill-opacity:1;stroke-width:0.264583"
       id="circle7782"
       cx="24.16684"
       cy="91.257355"
       r="3.96875"
       inkscape:label="THREE" /><circle
       style="display:inline;opacity:1;fill:#0000ff;fill-opacity:1;stroke-width:0.264583"
       id="circle7784"
       cx="24.16684"
       cy="74.588593"
       r="3.96875"
       inkscape:label="TWO" /><circle
       style="display:inline;opacity:1;fill:#0000ff;fill-opacity:1;stroke-width:0.264583"
       id="circle7786"
       cx="24.16684"
       cy="57.919834"
       r="3.96875"
       inkscape:label="ONE" /><circle
       style="display:inline;opacity:1;fill:#00ff00;fill-opacity:1;stroke-width:0.264583"
       id="circle3250"
       cx="23.232206"
       cy="21.166611"
       r="3.96875"
       inkscape:label="UP" /><circle
       style="display:inline;opacity:1;fill:#00ff00;fill-opacity:1;stroke-width:0.264583"
       id="circle3252"
       cx="7.7292767"
       cy="57.919834"
       r="3.96875"
       inkscape:label="ONE" /><circle
       style="display:inline;opacity:1;fill:#00ff00;fill-opacity:1;stroke-width:0.264583"
       id="circle3254"
       cx="7.7292767"
       cy="74.588593"
       r="3.96875"
       inkscape:label="TWO" /><circle
       style="display:inline;opacity:1;fill:#00ff00;fill-opacity:1;stroke-width:0.264583"
       id="circle3256"
       cx="7.7292767"
       cy="91.257355"
       r="3.96875"
       inkscape:label="THREE" /><circle
       style="display:inline;opacity:1;fill:#00ff00;fill-opacity:1;stroke-width:0.264583"
       id="circle3258"
       cx="7.7292767"
       cy="107.92611"
       inkscape:label="FOUR"
       r="3.96875"
       inkscape:transform-center-x="-2.8938802"
       inkscape:transform-center-y="-15.50293" /><rect
       style="display:inline;fill:#ffff00;stroke-width:0.264583"
       id="rect3260"
       width="9.866004"
       height="8.6966991"
       x="19.233837"
       y="35.158279"
       ry="0"
       inkscape:label="OFFSET" /></g><g
     inkscape:groupmode="layer"
     id="layer6"
     inkscape:label="text"
     style="display:none"><text
       xml:space="preserve"
       style="font-size:8.46667px;line-height:1;font-family:sans-serif;-inkscape-font-specification:sans-serif;text-align:center;text-decoration:none;text-decoration-line:none;text-decoration-color:#000000;letter-spacing:0px;word-spacing:0px;text-anchor:middle;fill:#000000;stroke-width:0.264583;stop-color:#000000"
       x="15.090895"
       y="9.5510807"
       id="text2190"><tspan
         sodipodi:role="line"
         id="tspan2188"
         x="15.090895"
         y="9.5510807"
         style="font-style:normal;font-variant:normal;font-weight:normal;font-stretch:normal;font-size:8.46667px;font-family:Kirsty;-inkscape-font-specification:Kirsty;stroke-width:0.264583">duffy</tspan></text><text
       xml:space="preserve"
       id="text1044"
       style="font-size:2.82222px;line-height:1;font-family:sans-serif;-inkscape-font-specification:sans-serif;text-align:center;text-decoration:none;text-decoration-line:none;text-decoration-color:#000000;letter-spacing:0px;word-spacing:0px;white-space:pre;shape-inside:url(#rect1046);display:inline;fill:#000000;stroke-width:0.264583;stop-color:#000000" /><text
       xml:space="preserve"
       style="font-size:2.82223px;line-height:1;font-family:sans-serif;-inkscape-font-specification:sans-serif;text-align:center;text-decoration:none;text-decoration-line:none;text-decoration-color:#000000;letter-spacing:0px;word-spacing:0px;text-anchor:middle;fill:#000000;stroke-width:0.264583;stop-color:#000000"
       x="7.7265205"
       y="15.371269"
       id="text4022"><tspan
         sodipodi:role="line"
         id="tspan4020"
         x="7.7265205"
         y="15.371269"
         style="stroke-width:0.264583">DOWN</tspan></text><text
       xml:space="preserve"
       style="font-size:2.82223px;line-height:1;font-family:sans-serif;-inkscape-font-specification:sans-serif;text-align:center;text-decoration:none;text-decoration-line:none;text-decoration-color:#000000;letter-spacing:0px;word-spacing:0px;text-anchor:middle;fill:#000000;stroke-width:0.264583;stop-color:#000000"
       x="7.6369481"
       y="31.812656"
       id="text4264"><tspan
         sodipodi:role="line"
         id="tspan4262"
         x="7.6369481"
         y="31.812656"
         style="stroke-width:0.264583">SHIFT</tspan></text><text
       xml:space="preserve"
       style="font-size:2.82223px;line-height:1;font-family:sans-serif;-inkscape-font-specification:sans-serif;text-align:center;text-decoration:none;text-decoration-line:none;text-decoration-color:#000000;letter-spacing:0px;word-spacing:0px;text-anchor:middle;fill:#000000;stroke-width:0.264583;stop-color:#000000"
       x="24.087603"
       y="51.863113"
       id="text4312"><tspan
         sodipodi:role="line"
         id="tspan4310"
         x="24.087603"
         y="51.863113"
         style="stroke-width:0.264583">OUTPUT</tspan></text><g
       id="g5222"
       style="display:inline" /><text
       xml:space="preserve"
       style="font-size:2.82223px;line-height:1;font-family:sans-serif;-inkscape-font-specification:sans-serif;text-align:center;text-decoration:none;text-decoration-line:none;text-decoration-color:#000000;letter-spacing:0px;word-spacing:0px;text-anchor:middle;fill:#000000;stroke-width:0.264583;stop-color:#000000"
       x="23.15159"
       y="15.34991"
       id="text1103"><tspan
         sodipodi:role="line"
         id="tspan1101"
         x="23.15159"
         y="15.34991"
         style="stroke-width:0.264583">UP</tspan></text><text
       xml:space="preserve"
       style="font-size:2.82223px;line-height:1;font-family:sans-serif;-inkscape-font-specification:sans-serif;text-align:center;text-decoration:none;text-decoration-line:none;text-decoration-color:#000000;letter-spacing:0px;word-spacing:0px;text-anchor:middle;fill:#000000;stroke-width:0.264583;stop-color:#000000"
       x="7.7403011"
       y="51.699814"
       id="text1107"><tspan
         sodipodi:role="line"
         id="tspan1105"
         x="7.7403011"
         y="51.699814"
         style="stroke-width:0.264583">V/Oct</tspan></text><text
       xml:space="preserve"
       style="font-size:2.82223px;line-height:1;font-family:sans-serif;-inkscape-font-specification:sans-serif;text-align:center;text-decoration:none;text-decoration-line:none;text-decoration-color:#000000;letter-spacing:0px;word-spacing:0px;text-anchor:middle;fill:#000000;stroke-width:0.264583;stop-color:#000000"
       x="24.087603"
       y="31.812656"
       id="text1439"><tspan
         sodipodi:role="line"
         id="tspan1437"
         x="24.087603"
         y="31.812656"
         style="stroke-width:0.264583">OFFSET</tspan></text></g><g
     inkscape:groupmode="layer"
     id="layer7"
     inkscape:label="text path"
     style="display:inline"><g
       aria-label="duffy"
       id="text912"
       style="font-size:8.46667px;line-height:1;-inkscape-font-specification:sans-serif;text-align:center;letter-spacing:0px;word-spacing:0px;text-anchor:middle;display:inline;stroke-width:0.264583;stop-color:#000000;fill:#f2f2f2"><path
         d="M 8.2286739,5.7749459 8.1186072,5.5548124 h -1.024467 l 0.093133,0.1862668 V 8.645147 l -0.0762,0.1608667 h 1.0244671 l 0.093133,-0.1778 z M 5.7564063,9.5510807 6.1120064,8.8483471 V 5.5209458 L 5.7564063,4.8097455 H 8.9483409 L 9.303941,5.5124791 v 3.335868 L 8.9483409,9.5510807 Z"
         style="font-family:Kirsty;-inkscape-font-specification:Kirsty;fill:#f2f2f2"
         id="path916" /><path
         d="m 12.301127,5.5209458 -0.3556,-0.7112003 h 1.591734 L 13.18166,5.5124791 v 3.335868 l -0.3556,0.7027336 h -2.286001 l -0.3556,-0.7027336 V 5.5209458 L 9.8288591,4.8097455 h 1.7864669 l -0.3556,0.7112003 v 3.1072679 l 0.09313,0.1778 h 0.8636 l 0.08467,-0.1778 z"
         style="font-family:Kirsty;-inkscape-font-specification:Kirsty;fill:#f2f2f2"
         id="path918" /><path
         d="M 17.093255,4.8097455 V 5.9188793 L 16.398988,5.5548124 h -1.024467 l 0.0762,0.1608668 v 1.0075337 h 0.287867 l -0.01693,0.00847 0.7112,-0.3556002 V 7.82388 L 15.738588,7.4682799 h -0.287867 v 1.3716005 l 0.347134,0.7112003 h -1.778001 l 0.3556,-0.7112003 V 5.5209458 l -0.3556,-0.7112003 z"
         style="font-family:Kirsty;-inkscape-font-specification:Kirsty;fill:#f2f2f2"
         id="path920" /><path
         d="M 20.539187,4.8097455 V 5.9188793 L 19.84492,5.5548124 h -1.024467 l 0.0762,0.1608668 v 1.0075337 h 0.287867 l -0.01693,0.00847 0.711201,-0.3556002 V 7.82388 L 19.18452,7.4682799 h -0.287867 v 1.3716005 l 0.347133,0.7112003 h -1.778 l 0.3556,-0.7112003 V 5.5209458 l -0.3556,-0.7112003 z"
         style="font-family:Kirsty;-inkscape-font-specification:Kirsty;fill:#f2f2f2"
         id="path922" /><path
         d="m 22.596583,4.8097455 -0.143933,0.7027336 0.245533,0.5588002 0.08467,0.2116668 0.0762,-0.2370668 0.2286,-0.5334002 -0.135467,-0.7027336 h 1.600201 l -0.592667,0.7281336 0.0085,-0.00847 -0.745067,1.5832673 v 1.7272007 l 0.347133,0.7112003 h -1.778 l 0.3556,-0.7112003 V 7.1126797 l -0.762,-1.5832673 v 0.00847 L 20.793183,4.8097455 Z"
         style="font-family:Kirsty;-inkscape-font-specification:Kirsty;fill:#f2f2f2"
         id="path924" /></g><g
       aria-label="DOWN"
       id="text1549"
       style="font-size:2.82223px;line-height:1;-inkscape-font-specification:sans-serif;text-align:center;letter-spacing:0px;word-spacing:0px;text-anchor:middle;display:inline;fill:#f2f2f2;stroke-width:0.264583;stop-color:#000000"><path
         d="m 5.086881,14.347384 q 0,0.279743 -0.1226457,0.507119 -0.1212677,0.227377 -0.3238399,0.352779 -0.1405603,0.08682 -0.3141936,0.125402 -0.1722553,0.03858 -0.4547539,0.03858 H 3.3533041 V 13.31936 h 0.5126317 q 0.3004131,0 0.4768025,0.0441 0.1777674,0.04272 0.3004132,0.118512 0.2094624,0.130914 0.3265959,0.348644 0.1171336,0.217731 0.1171336,0.516766 z m -0.2852547,-0.0041 q 0,-0.241157 -0.084061,-0.406523 -0.08406,-0.165365 -0.2508036,-0.260449 -0.1212677,-0.0689 -0.2576939,-0.09508 -0.1364261,-0.02756 -0.3265959,-0.02756 H 3.6261564 v 1.58337 h 0.2563159 q 0.19706,0 0.3431324,-0.02894 0.1474505,-0.02894 0.2700963,-0.107487 0.1529626,-0.09784 0.228755,-0.257694 0.07717,-0.159853 0.07717,-0.399632 z"
         id="path1638"
         style="fill:#f2f2f2" /><path
         d="m 7.0574811,13.55501 q 0.1254018,0.137804 0.1915478,0.33762 0.067524,0.199816 0.067524,0.453376 0,0.25356 -0.068902,0.454754 -0.067524,0.199816 -0.1901698,0.333486 -0.1267799,0.139182 -0.3004132,0.209462 -0.1722552,0.07028 -0.39412,0.07028 -0.2163526,0 -0.39412,-0.07166 -0.1763894,-0.07166 -0.3004132,-0.208084 -0.1240238,-0.136426 -0.1915478,-0.334864 -0.066146,-0.198438 -0.066146,-0.453376 0,-0.250804 0.066146,-0.449242 0.066146,-0.199816 0.1929258,-0.341754 0.1212677,-0.135048 0.3004132,-0.206706 0.1805235,-0.07166 0.392742,-0.07166 0.2204867,0 0.3954981,0.07304 0.1763893,0.07166 0.2990351,0.205328 z m -0.024805,0.790996 q 0,-0.399632 -0.1791454,-0.615985 -0.1791455,-0.21773 -0.489205,-0.21773 -0.3128155,0 -0.491961,0.21773 -0.1777674,0.216353 -0.1777674,0.615985 0,0.403766 0.1819016,0.618741 0.1819015,0.213596 0.4878268,0.213596 0.3059254,0 0.4864489,-0.213596 0.1819015,-0.214975 0.1819015,-0.618741 z"
         id="path1640"
         style="fill:#f2f2f2" /><path
         d="M 10.137405,13.319365 9.6041028,15.371269 H 9.2967995 l -0.4313272,-1.70326 -0.4216809,1.70326 H 8.1433783 L 7.6004297,13.319365 h 0.2797425 l 0.4313272,1.706016 0.424437,-1.706016 h 0.2769864 l 0.4285711,1.722552 0.4285711,-1.722552 z"
         id="path1642"
         style="fill:#f2f2f2" /><path
         d="m 12.105249,15.371269 h -0.33762 l -0.972898,-1.835552 v 1.835552 h -0.254938 v -2.051904 h 0.423059 l 0.887459,1.675699 v -1.675699 h 0.254938 z"
         id="path1644"
         style="fill:#f2f2f2" /></g><g
       aria-label="SHIFT"
       id="text1553"
       style="font-size:2.82223px;line-height:1;-inkscape-font-specification:sans-serif;text-align:center;letter-spacing:0px;word-spacing:0px;text-anchor:middle;display:inline;fill:#f2f2f2;stroke-width:0.264583;stop-color:#000000"><path
         d="m 5.0834362,31.226989 q 0,0.119889 -0.0565,0.237023 -0.055122,0.117133 -0.1557188,0.198438 -0.1102433,0.08819 -0.2576938,0.137804 -0.1460725,0.04961 -0.3527788,0.04961 -0.2218648,0 -0.3996322,-0.04134 -0.1763894,-0.04134 -0.359669,-0.122645 v -0.341755 h 0.019293 q 0.1557188,0.129536 0.359669,0.199816 0.2039502,0.07028 0.3830957,0.07028 0.2535597,0 0.39412,-0.09509 0.1419383,-0.09508 0.1419383,-0.253559 0,-0.136426 -0.067524,-0.201194 Q 4.6658896,30.999607 4.5294634,30.96378 4.4261103,30.93622 4.3048426,30.9183 4.1849529,30.90039 4.0499048,30.87283 3.7770525,30.81495 3.6447604,30.67577 q -0.130914,-0.140561 -0.130914,-0.365181 0,-0.257694 0.2177307,-0.421681 0.2177306,-0.165365 0.5525948,-0.165365 0.2163526,0 0.3968761,0.04134 0.1805235,0.04134 0.3197058,0.101975 V 30.18932 H 4.9814611 Q 4.8643275,30.090104 4.6727797,30.025336 4.4826099,29.95919 4.2827938,29.95919 q -0.2191087,0 -0.3527788,0.09095 -0.132292,0.09095 -0.132292,0.234267 0,0.128158 0.066146,0.201194 0.066146,0.07304 0.2328891,0.111621 0.088195,0.01929 0.2508037,0.04685 0.1626089,0.02756 0.2756084,0.0565 0.2287549,0.06063 0.3445105,0.18328 0.1157555,0.122646 0.1157555,0.343133 z"
         id="path1627"
         style="fill:#f2f2f2" /><path
         d="M 7.0912434,31.812656 H 6.8183911 V 30.808064 H 5.7945059 v 1.004592 H 5.5216535 v -2.051904 h 0.2728524 v 0.804776 h 1.0238852 v -0.804776 h 0.2728523 z"
         id="path1629"
         style="fill:#f2f2f2" /><path
         d="M 8.3659323,31.812656 H 7.5556436 v -0.209462 h 0.2687182 v -1.63298 H 7.5556436 v -0.209462 h 0.8102887 v 0.209462 H 8.0972141 v 1.63298 h 0.2687182 z"
         id="path1631"
         style="fill:#f2f2f2" /><path
         d="M 10.140851,30.003287 H 9.103185 v 0.578778 H 9.9947782 V 30.8246 H 9.103185 v 0.988056 H 8.8303326 v -2.051904 h 1.3105184 z"
         id="path1633"
         style="fill:#f2f2f2" /><path
         d="m 11.95711,30.003287 h -0.733119 v 1.809369 H 10.951139 V 30.003287 H 10.21802 v -0.242535 h 1.73909 z"
         id="path1635"
         style="fill:#f2f2f2" /></g><g
       aria-label="OUTPUT"
       id="text1557"
       style="font-size:2.82223px;line-height:1;-inkscape-font-specification:sans-serif;text-align:center;letter-spacing:0px;word-spacing:0px;text-anchor:middle;display:inline;fill:#f2f2f2;stroke-width:0.264583;stop-color:#000000"><path
         d="m 20.126421,50.046854 q 0.125402,0.137804 0.191548,0.33762 0.06752,0.199816 0.06752,0.453376 0,0.25356 -0.0689,0.454754 -0.06752,0.199816 -0.19017,0.333486 -0.12678,0.139182 -0.300413,0.209463 -0.172256,0.07028 -0.39412,0.07028 -0.216353,0 -0.39412,-0.07166 -0.17639,-0.07166 -0.300414,-0.208085 -0.124023,-0.136426 -0.191547,-0.334864 -0.06615,-0.198438 -0.06615,-0.453376 0,-0.250804 0.06615,-0.449242 0.06615,-0.199816 0.192925,-0.341754 0.121268,-0.135048 0.300414,-0.206706 0.180523,-0.07166 0.392742,-0.07166 0.220486,0 0.395498,0.07304 0.176389,0.07166 0.299035,0.205328 z m -0.02481,0.790996 q 0,-0.399632 -0.179145,-0.615985 -0.179146,-0.21773 -0.489205,-0.21773 -0.312816,0 -0.491961,0.21773 -0.177768,0.216353 -0.177768,0.615985 0,0.403766 0.181902,0.618741 0.181901,0.213597 0.487827,0.213597 0.305925,0 0.486448,-0.213597 0.181902,-0.214975 0.181902,-0.618741 z"
         id="path1614"
         style="fill:#f2f2f2" /><path
         d="m 22.362983,51.039044 q 0,0.223243 -0.04961,0.389986 -0.04823,0.165365 -0.159853,0.275609 -0.10611,0.104731 -0.248048,0.152962 -0.141938,0.04823 -0.33073,0.04823 -0.192926,0 -0.336242,-0.05099 -0.143317,-0.05099 -0.241158,-0.150206 -0.111621,-0.113 -0.161231,-0.272853 -0.04823,-0.159853 -0.04823,-0.392742 v -1.227835 h 0.272852 v 1.241616 q 0,0.166743 0.02205,0.263206 0.02343,0.09646 0.07717,0.175011 0.06063,0.08957 0.163987,0.135048 0.104732,0.04548 0.250804,0.04548 0.147451,0 0.250804,-0.0441 0.103353,-0.04548 0.165365,-0.136426 0.05374,-0.07855 0.07579,-0.179145 0.02343,-0.101976 0.02343,-0.252182 v -1.248506 h 0.272852 z"
         id="path1616"
         style="fill:#f2f2f2" /><path
         d="m 24.347364,50.053744 h -0.733119 v 1.809369 h -0.272852 v -1.809369 h -0.733118 v -0.242535 h 1.739089 z"
         id="path1618"
         style="fill:#f2f2f2" /><path
         d="m 25.965185,50.431328 q 0,0.136426 -0.04823,0.253559 -0.04685,0.115756 -0.132292,0.201195 -0.106109,0.106109 -0.250803,0.159852 -0.144695,0.05237 -0.365181,0.05237 h -0.272853 v 0.764813 h -0.272852 v -2.051904 h 0.556729 q 0.184658,0 0.312816,0.03169 0.128157,0.03032 0.227376,0.09646 0.117134,0.07855 0.180524,0.195682 0.06477,0.117133 0.06477,0.296279 z m -0.283877,0.0069 q 0,-0.106109 -0.03721,-0.184658 -0.03721,-0.07855 -0.112999,-0.128158 -0.06615,-0.04272 -0.151585,-0.06063 -0.08406,-0.01929 -0.213596,-0.01929 h -0.270097 v 0.819935 h 0.230133 q 0.165365,0 0.268719,-0.02894 0.103353,-0.03032 0.168121,-0.09508 0.06477,-0.06615 0.09095,-0.139182 0.02756,-0.07304 0.02756,-0.163987 z"
         id="path1620"
         style="fill:#f2f2f2" /><path
         d="m 27.869639,51.039044 q 0,0.223243 -0.04961,0.389986 -0.04823,0.165365 -0.159852,0.275609 -0.10611,0.104731 -0.248048,0.152962 -0.141938,0.04823 -0.33073,0.04823 -0.192926,0 -0.336242,-0.05099 -0.143317,-0.05099 -0.241158,-0.150206 -0.111621,-0.113 -0.161231,-0.272853 -0.04823,-0.159853 -0.04823,-0.392742 v -1.227835 h 0.272852 v 1.241616 q 0,0.166743 0.02205,0.263206 0.02343,0.09646 0.07717,0.175011 0.06063,0.08957 0.163987,0.135048 0.104731,0.04548 0.250804,0.04548 0.14745,0 0.250804,-0.0441 0.103353,-0.04548 0.165365,-0.136426 0.05374,-0.07855 0.07579,-0.179145 0.02343,-0.101976 0.02343,-0.252182 v -1.248506 h 0.272852 z"
         id="path1622"
         style="fill:#f2f2f2" /><path
         d="m 29.85402,50.053744 h -0.733119 v 1.809369 h -0.272852 v -1.809369 h -0.733118 v -0.242535 h 1.739089 z"
         id="path1624"
         style="fill:#f2f2f2" /></g><g
       aria-label="UP"
       id="text1561"
       style="font-size:2.82223px;line-height:1;-inkscape-font-specification:sans-serif;text-align:center;letter-spacing:0px;word-spacing:0px;text-anchor:middle;display:inline;fill:#f2f2f2;stroke-width:0.264583;stop-color:#000000"><path
         d="m 23.0882,14.525841 q 0,0.223242 -0.04961,0.389986 -0.04823,0.165365 -0.159853,0.275608 -0.106109,0.104731 -0.248048,0.152963 -0.141938,0.04823 -0.33073,0.04823 -0.192926,0 -0.336242,-0.05099 -0.143316,-0.05099 -0.241157,-0.150207 -0.111622,-0.112999 -0.161231,-0.272852 -0.04823,-0.159853 -0.04823,-0.392742 v -1.227836 h 0.272853 v 1.241616 q 0,0.166743 0.02205,0.263206 0.02343,0.09646 0.07717,0.175011 0.06063,0.08957 0.163987,0.135049 0.104731,0.04547 0.250803,0.04547 0.147451,0 0.250804,-0.0441 0.103353,-0.04548 0.165365,-0.136427 0.05374,-0.07855 0.07579,-0.179145 0.02343,-0.101975 0.02343,-0.252182 V 13.298005 H 23.0882 Z"
         id="path1609"
         style="fill:#f2f2f2" /><path
         d="m 24.951313,13.918124 q 0,0.136426 -0.04823,0.25356 -0.04685,0.115755 -0.132292,0.201194 -0.106109,0.106109 -0.250804,0.159853 -0.144694,0.05236 -0.365181,0.05236 H 23.881953 V 15.34991 H 23.6091 v -2.051905 h 0.556729 q 0.184658,0 0.312816,0.0317 0.128158,0.03032 0.227377,0.09646 0.117133,0.07855 0.180523,0.195682 0.06477,0.117134 0.06477,0.296279 z m -0.283876,0.0069 q 0,-0.106109 -0.03721,-0.184657 -0.03721,-0.07855 -0.112999,-0.128158 -0.06615,-0.04272 -0.151585,-0.06063 -0.08406,-0.01929 -0.213596,-0.01929 h -0.270096 v 0.819935 h 0.230133 q 0.165365,0 0.268718,-0.02894 0.103353,-0.03032 0.168121,-0.09508 0.06477,-0.06615 0.09095,-0.139183 0.02756,-0.07304 0.02756,-0.163987 z"
         id="path1611"
         style="fill:#f2f2f2" /></g><g
       aria-label="V/Oct"
       id="text1565"
       style="font-size:2.82223px;line-height:1;-inkscape-font-specification:sans-serif;text-align:center;letter-spacing:0px;word-spacing:0px;text-anchor:middle;display:inline;fill:#f2f2f2;stroke-width:0.264583;stop-color:#000000"><path
         d="M 5.6263846,49.647909 4.8794859,51.699814 H 4.5156828 L 3.768784,49.647909 h 0.2921449 l 0.6435456,1.805235 0.6435456,-1.805235 z"
         id="path1598"
         style="fill:#f2f2f2" /><path
         d="M 6.8473299,49.55558 5.8592737,52.118739 H 5.6208724 L 6.6047945,49.55558 Z"
         id="path1600"
         style="fill:#f2f2f2" /><path
         d="m 8.7490278,49.883554 q 0.1254018,0.137805 0.1915478,0.337621 0.067524,0.199816 0.067524,0.453376 0,0.253559 -0.068902,0.454753 -0.067524,0.199817 -0.1901698,0.333487 -0.1267799,0.139182 -0.3004132,0.209462 -0.1722552,0.07028 -0.39412,0.07028 -0.2163526,0 -0.39412,-0.07166 -0.1763894,-0.07166 -0.3004132,-0.208084 -0.1240238,-0.136427 -0.1915478,-0.334865 -0.066146,-0.198438 -0.066146,-0.453375 0,-0.250804 0.066146,-0.449242 0.066146,-0.199816 0.1929259,-0.341755 0.1212677,-0.135048 0.3004131,-0.206706 0.1805235,-0.07166 0.392742,-0.07166 0.2204867,0 0.3954981,0.07304 0.1763893,0.07166 0.2990351,0.205328 z m -0.024805,0.790997 q 0,-0.399633 -0.1791454,-0.615985 -0.1791455,-0.217731 -0.489205,-0.217731 -0.3128155,0 -0.491961,0.217731 -0.1777674,0.216352 -0.1777674,0.615985 0,0.403766 0.1819016,0.61874 0.1819015,0.213597 0.4878268,0.213597 0.3059254,0 0.4864489,-0.213597 0.1819015,-0.214974 0.1819015,-0.61874 z"
         id="path1602"
         style="fill:#f2f2f2" /><path
         d="m 10.558397,51.603351 q -0.129536,0.06201 -0.246669,0.09646 -0.115756,0.03445 -0.24667,0.03445 -0.1667428,0 -0.3059251,-0.04823 -0.1391822,-0.04961 -0.2384013,-0.148828 -0.100597,-0.09922 -0.1557187,-0.250804 -0.055122,-0.151584 -0.055122,-0.354157 0,-0.377583 0.2067063,-0.592558 0.2080844,-0.214974 0.5484608,-0.214974 0.132292,0 0.259072,0.03721 0.128158,0.03721 0.234267,0.09095 v 0.28801 h -0.01378 q -0.118512,-0.09233 -0.245292,-0.141938 -0.125401,-0.04961 -0.245291,-0.04961 -0.2204871,0 -0.348645,0.148828 -0.1267799,0.147451 -0.1267799,0.434083 0,0.278365 0.1240238,0.428572 0.1254018,0.148828 0.3514011,0.148828 0.07855,0 0.159853,-0.02067 0.0813,-0.02067 0.146072,-0.05374 0.0565,-0.02894 0.106109,-0.06063 0.04961,-0.03307 0.07855,-0.0565 h 0.01378 z"
         id="path1604"
         style="fill:#f2f2f2" /><path
         d="m 11.68977,51.686033 q -0.07304,0.01929 -0.159853,0.03169 -0.08544,0.0124 -0.152963,0.0124 -0.235645,0 -0.358291,-0.12678 -0.122645,-0.12678 -0.122645,-0.406523 v -0.818556 h -0.175012 v -0.217731 h 0.175012 v -0.442352 h 0.259071 v 0.442352 h 0.534681 v 0.217731 h -0.534681 v 0.701423 q 0,0.121268 0.0055,0.19017 0.0055,0.06752 0.03858,0.12678 0.03032,0.05512 0.08268,0.0813 0.05374,0.02481 0.162609,0.02481 0.06339,0 0.132292,-0.01792 0.0689,-0.01929 0.09922,-0.03169 h 0.01378 z"
         id="path1606"
         style="fill:#f2f2f2" /></g><g
       aria-label="OFFSET"
       id="text1569"
       style="font-size:2.82223px;line-height:1;-inkscape-font-specification:sans-serif;text-align:center;letter-spacing:0px;word-spacing:0px;text-anchor:middle;display:inline;fill:#f2f2f2;stroke-width:0.264583;stop-color:#000000"><path
         d="m 20.433724,29.996397 q 0.125402,0.137804 0.191548,0.33762 0.06752,0.199816 0.06752,0.453376 0,0.25356 -0.0689,0.454754 -0.06752,0.199816 -0.19017,0.333486 -0.12678,0.139182 -0.300413,0.209463 -0.172255,0.07028 -0.39412,0.07028 -0.216353,0 -0.39412,-0.07166 -0.176389,-0.07166 -0.300413,-0.208085 -0.124024,-0.136426 -0.191548,-0.334864 -0.06615,-0.198438 -0.06615,-0.453376 0,-0.250804 0.06615,-0.449242 0.06615,-0.199816 0.192926,-0.341754 0.121268,-0.135048 0.300413,-0.206706 0.180523,-0.07166 0.392742,-0.07166 0.220487,0 0.395498,0.07304 0.176389,0.07166 0.299035,0.205328 z m -0.02481,0.790996 q 0,-0.399632 -0.179145,-0.615985 -0.179146,-0.21773 -0.489205,-0.21773 -0.312816,0 -0.491961,0.21773 -0.177767,0.216353 -0.177767,0.615985 0,0.403766 0.181901,0.618741 0.181902,0.213597 0.487827,0.213597 0.305925,0 0.486449,-0.213597 0.181901,-0.214975 0.181901,-0.618741 z"
         id="path1585"
         style="fill:#f2f2f2" /><path
         d="m 22.436019,30.003287 h -1.037665 v 0.578778 h 0.891593 V 30.8246 h -0.891593 v 0.988056 h -0.272853 v -2.051904 h 1.310518 z"
         id="path1587"
         style="fill:#f2f2f2" /><path
         d="m 24.057975,30.003287 h -1.037666 v 0.578778 h 0.891593 V 30.8246 h -0.891593 v 0.988056 h -0.272852 v -2.051904 h 1.310518 z"
         id="path1589"
         style="fill:#f2f2f2" /><path
         d="m 25.860454,31.226989 q 0,0.119889 -0.0565,0.237023 -0.05512,0.117133 -0.155719,0.198438 -0.110243,0.08819 -0.257694,0.137804 -0.146072,0.04961 -0.352778,0.04961 -0.221865,0 -0.399632,-0.04134 -0.17639,-0.04134 -0.359669,-0.122645 v -0.341755 h 0.01929 q 0.155719,0.129536 0.359669,0.199816 0.20395,0.07028 0.383096,0.07028 0.25356,0 0.39412,-0.09509 0.141938,-0.09508 0.141938,-0.253559 0,-0.136426 -0.06752,-0.201194 -0.06615,-0.06477 -0.202572,-0.100597 -0.103353,-0.02756 -0.224621,-0.04548 -0.11989,-0.01791 -0.254938,-0.04547 -0.272852,-0.05788 -0.405144,-0.19706 -0.130914,-0.140561 -0.130914,-0.365181 0,-0.257694 0.217731,-0.421681 0.21773,-0.165365 0.552594,-0.165365 0.216353,0 0.396877,0.04134 0.180523,0.04134 0.319705,0.101975 v 0.322462 h -0.01929 q -0.117134,-0.09922 -0.308682,-0.163987 -0.190169,-0.06615 -0.389986,-0.06615 -0.219108,0 -0.352778,0.09095 -0.132292,0.09095 -0.132292,0.234267 0,0.128158 0.06615,0.201194 0.06615,0.07304 0.232889,0.111621 0.08819,0.01929 0.250803,0.04685 0.162609,0.02756 0.275609,0.0565 0.228755,0.06063 0.34451,0.18328 0.115756,0.122646 0.115756,0.343133 z"
         id="path1591"
         style="fill:#f2f2f2" /><path
         d="m 27.65053,31.812656 h -1.351859 v -2.051904 h 1.351859 v 0.242535 h -1.079007 v 0.562241 h 1.079007 v 0.242536 h -1.079007 v 0.762057 h 1.079007 z"
         id="path1593"
         style="fill:#f2f2f2" /><path
         d="m 29.546716,30.003287 h -0.733118 v 1.809369 h -0.272852 v -1.809369 h -0.733119 v -0.242535 h 1.739089 z"
         id="path1595"
         style="fill:#f2f2f2" /></g></g></svg>
