<?xml version="1.0" encoding="UTF-8" standalone="no"?>
<svg xmlns:dc="http://purl.org/dc/elements/1.1/" xmlns:cc="http://creativecommons.org/ns#"
     xmlns:rdf="http://www.w3.org/1999/02/22-rdf-syntax-ns#" xmlns:svg="http://www.w3.org/2000/svg"
     xmlns="http://www.w3.org/2000/svg" xmlns:sodipodi="http://sodipodi.sourceforge.net/DTD/sodipodi-0.dtd"
     xmlns:inkscape="http://www.inkscape.org/namespaces/inkscape" inkscape:version="1.0 (4035a4f, 2020-05-01)"
     sodipodi:docname="IversonJr.svg" id="svg4719" version="1.1" viewBox="0 0 595.19998 485.66928" height="128.5mm"
     width="157.48mm">
  <metadata id="metadata4725">
    <rdf:RDF>
      <cc:Work rdf:about="">
        <dc:format>image/svg+xml</dc:format>
        <dc:type rdf:resource="http://purl.org/dc/dcmitype/StillImage"/>
        <dc:title></dc:title>
      </cc:Work>
    </rdf:RDF>
  </metadata>
  <defs id="defs4723"/>
  <sodipodi:namedview inkscape:current-layer="svg4719" inkscape:window-maximized="0" inkscape:window-y="23"
                      inkscape:window-x="0" inkscape:cy="182.125" inkscape:cx="223.2" inkscape:zoom="1.4462011"
                      units="mm" inkscape:document-units="mm" showgrid="false" id="namedview4721"
                      inkscape:window-height="1144" inkscape:window-width="1698" inkscape:pageshadow="2"
                      inkscape:pageopacity="0" guidetolerance="10" gridtolerance="10" objecttolerance="10"
                      borderopacity="1" bordercolor="#666666" pagecolor="#ffffff"/>
  <g transform="scale(1.3333333)" data-name="Layer 2" id="Layer_2">
    <g data-name="Layer 3 copy" id="Layer_3_copy">
      <rect y="0" x="0" id="rect4475" style="fill:#f0f0f0" height="364.25" width="446.39999"/>
    </g>
    <g data-name="Layer 7" id="Layer_7">
      <rect id="rect4478" style="fill:#b8bfb8" rx="2.6600001" height="220.96001" width="57.259998" y="25.209999"
            x="379.04999"/>
    </g>
    <g data-name="Layer 10 copy" id="Layer_10_copy">
      <line id="line4481" style="fill:none;stroke:#b8bfb8;stroke-width:0.732775px;stroke-miterlimit:10" y2="287.06"
            x2="36.849998" y1="287.06" x1="42.52"/>
      <line id="line4483" style="fill:none;stroke:#b8bfb8;stroke-width:0.536959px;stroke-miterlimit:10" y2="326.73001"
            x2="36.849998" y1="326.73001" x1="42.52"/>
    </g>
    <g data-name="labels for light copy" id="labels_for_light_copy">
      <g id="g4494">
        <path id="path4486" style="fill:#3c3c3b"
              d="m 388.31,37.15 v -3.8 L 387,35.81 h -0.51 l -1.3,-2.46 v 3.8 h -0.82 v -5.07 h 1.06 l 1.33,2.59 1.34,-2.59 h 1 v 5.07 z"/>
        <path id="path4488" style="fill:#3c3c3b"
              d="m 390.11,37.15 1.71,-5.07 h 1.11 l 1.71,5.07 h -0.89 L 393.36,36 h -2 L 391,37.15 Z m 1.49,-1.93 h 1.51 l -0.75,-2.29 z"/>
        <path id="path4490" style="fill:#3c3c3b"
              d="m 397.64,37.15 h -2.26 v -0.69 h 0.7 v -3.69 h -0.7 v -0.69 h 2.26 v 0.69 h -0.71 v 3.69 h 0.71 z"/>
        <path id="path4492" style="fill:#3c3c3b"
              d="m 401.74,37.15 -2.06,-4 v 4 h -0.84 V 32.08 H 400 l 1.92,3.7 v -3.7 h 0.83 v 5.07 z"/>
      </g>
      <g id="g4510">
        <path id="path4496" style="fill:#3c3c3b"
              d="m 395.75,254.58 a 4.72,4.72 0 0 1 -0.12,1.11 2.35,2.35 0 0 1 -0.38,0.83 1.7,1.7 0 0 1 -0.66,0.52 2.68,2.68 0 0 1 -1.93,0 1.7,1.7 0 0 1 -0.66,-0.52 2.35,2.35 0 0 1 -0.38,-0.83 5.24,5.24 0 0 1 0,-2.23 2.27,2.27 0 0 1 0.38,-0.83 1.7,1.7 0 0 1 0.66,-0.52 2.53,2.53 0 0 1 1,-0.18 2.37,2.37 0 0 1 1,0.18 1.61,1.61 0 0 1 0.66,0.52 2.19,2.19 0 0 1 0.38,0.83 4.75,4.75 0 0 1 0.05,1.12 z m -0.89,0 a 5,5 0 0 0 -0.07,-0.83 1.77,1.77 0 0 0 -0.21,-0.59 1.06,1.06 0 0 0 -0.38,-0.35 1.28,1.28 0 0 0 -0.58,-0.12 1.26,1.26 0 0 0 -0.57,0.12 0.92,0.92 0 0 0 -0.38,0.35 1.77,1.77 0 0 0 -0.22,0.59 5,5 0 0 0 -0.06,0.83 4.91,4.91 0 0 0 0.06,0.82 1.77,1.77 0 0 0 0.22,0.59 0.91,0.91 0 0 0 0.38,0.35 1.26,1.26 0 0 0 0.57,0.12 1.28,1.28 0 0 0 0.58,-0.12 0.91,0.91 0 0 0 0.38,-0.35 1.71,1.71 0 0 0 0.21,-0.58 5,5 0 0 0 0.07,-0.83 z"/>
        <path id="path4498" style="fill:#3c3c3b"
              d="m 400.72,255 a 4.36,4.36 0 0 1 -0.11,1 1.51,1.51 0 0 1 -0.36,0.69 1.32,1.32 0 0 1 -0.61,0.38 3.55,3.55 0 0 1 -1.83,0 1.36,1.36 0 0 1 -0.62,-0.38 1.73,1.73 0 0 1 -0.35,-0.69 4.36,4.36 0 0 1 -0.11,-1 v -3 h 0.85 v 2.88 a 3.69,3.69 0 0 0 0.06,0.73 1.18,1.18 0 0 0 0.2,0.48 0.75,0.75 0 0 0 0.35,0.26 2,2 0 0 0 1.06,0 0.86,0.86 0 0 0 0.36,-0.26 1.19,1.19 0 0 0 0.19,-0.47 3.77,3.77 0 0 0 0.06,-0.73 V 252 h 0.86 z"/>
        <path id="path4500" style="fill:#3c3c3b"
              d="m 403.94,252.82 v 4.29 h -0.86 v -4.29 h -1.62 V 252 h 4.1 v 0.78 z"/>
        <path id="path4502" style="fill:#3c3c3b"
              d="m 409.81,253.7 a 2.6,2.6 0 0 1 -0.11,0.79 1.36,1.36 0 0 1 -0.32,0.55 1.44,1.44 0 0 1 -0.57,0.32 2.9,2.9 0 0 1 -0.83,0.1 h -0.82 v 1.65 h -0.85 V 252 H 408 a 3,3 0 0 1 0.77,0.09 1.42,1.42 0 0 1 0.56,0.29 1.26,1.26 0 0 1 0.35,0.51 2.18,2.18 0 0 1 0.13,0.81 z m -0.89,0 a 1.17,1.17 0 0 0 -0.08,-0.45 0.62,0.62 0 0 0 -0.22,-0.28 0.74,0.74 0 0 0 -0.35,-0.14 2.33,2.33 0 0 0 -0.48,0 h -0.63 v 1.91 h 0.53 a 4.5,4.5 0 0 0 0.56,0 0.86,0.86 0 0 0 0.38,-0.14 0.62,0.62 0 0 0 0.22,-0.3 1.84,1.84 0 0 0 0.07,-0.59 z"/>
        <path id="path4504" style="fill:#3c3c3b"
              d="m 414.73,255 a 3.86,3.86 0 0 1 -0.12,1 1.5,1.5 0 0 1 -0.35,0.69 1.32,1.32 0 0 1 -0.61,0.38 3.11,3.11 0 0 1 -0.92,0.12 3,3 0 0 1 -0.91,-0.12 1.36,1.36 0 0 1 -0.62,-0.38 1.61,1.61 0 0 1 -0.35,-0.69 4.36,4.36 0 0 1 -0.11,-1 v -3 h 0.85 v 2.88 a 3.69,3.69 0 0 0 0.06,0.73 1.18,1.18 0 0 0 0.2,0.48 0.71,0.71 0 0 0 0.35,0.26 1.62,1.62 0 0 0 0.53,0.07 1.66,1.66 0 0 0 0.53,-0.07 0.83,0.83 0 0 0 0.35,-0.26 1.06,1.06 0 0 0 0.2,-0.47 3.77,3.77 0 0 0 0.06,-0.73 V 252 h 0.86 z"/>
        <path id="path4506" style="fill:#3c3c3b"
              d="m 417.94,252.82 v 4.29 h -0.85 v -4.29 h -1.62 V 252 h 4.09 v 0.78 z"/>
        <path id="path4508" style="fill:#3c3c3b"
              d="m 423.76,255.68 a 1.54,1.54 0 0 1 -0.15,0.72 1.28,1.28 0 0 1 -0.41,0.48 1.87,1.87 0 0 1 -0.61,0.26 3.4,3.4 0 0 1 -0.73,0.08 3.11,3.11 0 0 1 -0.72,-0.08 2.17,2.17 0 0 1 -0.54,-0.21 1.72,1.72 0 0 1 -0.39,-0.31 2.4,2.4 0 0 1 -0.28,-0.37 l 0.67,-0.49 0.2,0.27 a 1.38,1.38 0 0 0 0.26,0.22 1.6,1.6 0 0 0 0.35,0.15 1.56,1.56 0 0 0 0.46,0.06 1.64,1.64 0 0 0 0.38,0 0.82,0.82 0 0 0 0.32,-0.12 0.61,0.61 0 0 0 0.23,-0.22 0.59,0.59 0 0 0 0.09,-0.34 0.66,0.66 0 0 0 -0.08,-0.32 0.78,0.78 0 0 0 -0.23,-0.21 1.35,1.35 0 0 0 -0.32,-0.15 l -0.4,-0.11 -0.72,-0.2 a 2.22,2.22 0 0 1 -0.58,-0.27 1.27,1.27 0 0 1 -0.39,-0.41 1.35,1.35 0 0 1 -0.14,-0.64 1.56,1.56 0 0 1 0.12,-0.62 1.32,1.32 0 0 1 0.34,-0.47 1.54,1.54 0 0 1 0.57,-0.3 2.62,2.62 0 0 1 0.78,-0.11 2.74,2.74 0 0 1 0.6,0.07 1.77,1.77 0 0 1 0.49,0.17 1.64,1.64 0 0 1 0.4,0.29 1.91,1.91 0 0 1 0.31,0.38 l -0.66,0.5 a 1.5,1.5 0 0 0 -0.48,-0.49 1.38,1.38 0 0 0 -0.67,-0.16 1.14,1.14 0 0 0 -0.68,0.18 0.57,0.57 0 0 0 -0.25,0.5 0.5,0.5 0 0 0 0.07,0.27 0.48,0.48 0 0 0 0.21,0.18 1.27,1.27 0 0 0 0.35,0.15 c 0.14,0 0.31,0.09 0.51,0.13 l 0.44,0.12 a 2.86,2.86 0 0 1 0.41,0.15 1.7,1.7 0 0 1 0.35,0.19 1,1 0 0 1 0.28,0.27 1.59,1.59 0 0 1 0.18,0.37 1.75,1.75 0 0 1 0.06,0.44 z"/>
      </g>
      <g id="g4534">
        <path id="path4512" style="fill:#3c3c3b"
              d="m 18.16,253.11 a 2.59,2.59 0 0 1 -0.1,0.78 1.21,1.21 0 0 1 -0.33,0.55 1.29,1.29 0 0 1 -0.56,0.32 3,3 0 0 1 -0.84,0.11 h -0.82 v 1.64 h -0.85 v -5.07 h 1.7 a 3,3 0 0 1 0.77,0.09 1.46,1.46 0 0 1 0.57,0.29 1.24,1.24 0 0 1 0.34,0.51 2.24,2.24 0 0 1 0.12,0.78 z m -0.89,0 a 1.18,1.18 0 0 0 -0.07,-0.45 0.62,0.62 0 0 0 -0.22,-0.28 0.78,0.78 0 0 0 -0.35,-0.14 2.37,2.37 0 0 0 -0.49,0 h -0.63 v 1.91 h 0.54 a 4.33,4.33 0 0 0 0.55,0 0.86,0.86 0 0 0 0.39,-0.14 0.61,0.61 0 0 0 0.21,-0.3 1.54,1.54 0 0 0 0.07,-0.6 z"/>
        <path id="path4514" style="fill:#3c3c3b"
              d="m 22.17,256.51 -1.29,-2 h -0.71 v 2 h -0.85 v -5.07 H 21 a 3.63,3.63 0 0 1 0.79,0.08 1.49,1.49 0 0 1 0.57,0.25 1,1 0 0 1 0.34,0.46 1.72,1.72 0 0 1 0.12,0.68 2.22,2.22 0 0 1 -0.08,0.62 1.4,1.4 0 0 1 -0.22,0.44 1,1 0 0 1 -0.34,0.28 1.92,1.92 0 0 1 -0.42,0.16 l 1.37,2.1 z M 22,253 a 1.35,1.35 0 0 0 0,-0.38 0.66,0.66 0 0 0 -0.17,-0.23 0.68,0.68 0 0 0 -0.3,-0.12 1.8,1.8 0 0 0 -0.43,0 h -0.85 v 1.57 H 21 a 2.25,2.25 0 0 0 0.49,0 0.64,0.64 0 0 0 0.3,-0.14 0.45,0.45 0 0 0 0.16,-0.24 A 1.09,1.09 0 0 0 22,253 Z"/>
        <path id="path4516" style="fill:#3c3c3b"
              d="m 28.17,254 a 4.72,4.72 0 0 1 -0.12,1.11 2.19,2.19 0 0 1 -0.38,0.83 1.7,1.7 0 0 1 -0.66,0.52 2.68,2.68 0 0 1 -1.93,0 1.7,1.7 0 0 1 -0.66,-0.52 2.35,2.35 0 0 1 -0.38,-0.83 5.24,5.24 0 0 1 0,-2.23 2.35,2.35 0 0 1 0.38,-0.83 1.68,1.68 0 0 1 0.66,-0.51 2.37,2.37 0 0 1 1,-0.18 2.53,2.53 0 0 1 1,0.17 1.61,1.61 0 0 1 0.66,0.52 2.12,2.12 0 0 1 0.38,0.83 4.75,4.75 0 0 1 0.05,1.12 z m -0.89,0 a 5,5 0 0 0 -0.07,-0.83 1.64,1.64 0 0 0 -0.21,-0.59 1.06,1.06 0 0 0 -0.38,-0.35 1.26,1.26 0 0 0 -0.57,-0.12 1.28,1.28 0 0 0 -0.58,0.12 0.92,0.92 0 0 0 -0.38,0.35 1.86,1.86 0 0 0 -0.22,0.59 5,5 0 0 0 -0.06,0.83 4.91,4.91 0 0 0 0.06,0.82 1.77,1.77 0 0 0 0.22,0.59 1,1 0 0 0 0.38,0.35 1.28,1.28 0 0 0 0.58,0.12 1.26,1.26 0 0 0 0.57,-0.12 0.91,0.91 0 0 0 0.38,-0.35 1.53,1.53 0 0 0 0.21,-0.58 5,5 0 0 0 0.07,-0.83 z"/>
        <path id="path4518" style="fill:#3c3c3b"
              d="m 33.11,255 a 1.53,1.53 0 0 1 -0.14,0.66 1.12,1.12 0 0 1 -0.38,0.46 1.61,1.61 0 0 1 -0.61,0.26 3.46,3.46 0 0 1 -0.83,0.09 H 29.38 V 251.4 H 31 a 4.86,4.86 0 0 1 0.83,0.07 1.47,1.47 0 0 1 0.55,0.22 0.77,0.77 0 0 1 0.31,0.36 1.38,1.38 0 0 1 0.09,0.52 1.63,1.63 0 0 1 -0.06,0.47 1.25,1.25 0 0 1 -0.19,0.34 1.13,1.13 0 0 1 -0.27,0.22 1.38,1.38 0 0 1 -0.34,0.12 3.37,3.37 0 0 1 0.48,0.12 1.13,1.13 0 0 1 0.36,0.24 1.07,1.07 0 0 1 0.24,0.38 1.45,1.45 0 0 1 0.11,0.54 z m -1.18,-2.24 a 0.63,0.63 0 0 0 -0.05,-0.29 0.42,0.42 0 0 0 -0.16,-0.19 1,1 0 0 0 -0.31,-0.1 3,3 0 0 0 -0.46,0 h -0.72 v 1.3 h 0.69 a 3.08,3.08 0 0 0 0.48,0 1,1 0 0 0 0.31,-0.13 0.46,0.46 0 0 0 0.17,-0.22 0.73,0.73 0 0 0 0.05,-0.33 z m 0.29,2.17 a 0.74,0.74 0 0 0 -0.07,-0.36 0.54,0.54 0 0 0 -0.22,-0.23 1.15,1.15 0 0 0 -0.38,-0.11 4.16,4.16 0 0 0 -0.54,0 h -0.78 v 1.51 h 0.61 a 5.15,5.15 0 0 0 0.59,0 1.3,1.3 0 0 0 0.43,-0.1 0.56,0.56 0 0 0 0.27,-0.23 0.82,0.82 0 0 0 0.09,-0.41 z"/>
        <path id="path4520" style="fill:#3c3c3b"
              d="m 33.84,256.51 1.7,-5.07 h 1.11 l 1.71,5.07 h -0.88 l -0.39,-1.17 h -2 l -0.39,1.17 z m 1.48,-1.93 h 1.51 l -0.75,-2.28 z"/>
        <path id="path4522" style="fill:#3c3c3b"
              d="m 43.07,255 a 1.53,1.53 0 0 1 -0.14,0.66 1.12,1.12 0 0 1 -0.38,0.46 1.61,1.61 0 0 1 -0.61,0.26 3.46,3.46 0 0 1 -0.83,0.09 H 39.34 V 251.4 H 41 a 4.86,4.86 0 0 1 0.83,0.07 1.47,1.47 0 0 1 0.55,0.22 0.77,0.77 0 0 1 0.31,0.36 1.38,1.38 0 0 1 0.09,0.52 1.63,1.63 0 0 1 -0.06,0.47 1.25,1.25 0 0 1 -0.19,0.34 1.13,1.13 0 0 1 -0.27,0.22 1.38,1.38 0 0 1 -0.34,0.12 2.93,2.93 0 0 1 0.47,0.12 1,1 0 0 1 0.61,0.62 1.45,1.45 0 0 1 0.07,0.54 z m -1.18,-2.24 a 0.63,0.63 0 0 0 0,-0.29 0.42,0.42 0 0 0 -0.16,-0.19 1,1 0 0 0 -0.31,-0.1 3,3 0 0 0 -0.46,0 h -0.72 v 1.3 h 0.69 a 3.08,3.08 0 0 0 0.48,0 1,1 0 0 0 0.31,-0.13 0.46,0.46 0 0 0 0.17,-0.22 0.73,0.73 0 0 0 0,-0.33 z m 0.29,2.17 a 0.74,0.74 0 0 0 -0.07,-0.36 0.54,0.54 0 0 0 -0.22,-0.23 1.15,1.15 0 0 0 -0.38,-0.11 4.16,4.16 0 0 0 -0.54,0 h -0.78 v 1.51 h 0.61 a 5.15,5.15 0 0 0 0.59,0 1.3,1.3 0 0 0 0.43,-0.1 0.56,0.56 0 0 0 0.27,-0.23 0.82,0.82 0 0 0 0.09,-0.41 z"/>
        <path id="path4524" style="fill:#3c3c3b"
              d="M 46.29,256.51 H 44 v -0.69 h 0.7 v -3.69 H 44 v -0.69 h 2.26 v 0.69 h -0.71 v 3.69 h 0.71 z"/>
        <path id="path4526" style="fill:#3c3c3b" d="m 47.5,256.51 v -5.07 h 0.85 v 4.29 h 2.22 v 0.78 z"/>
        <path id="path4528" style="fill:#3c3c3b"
              d="m 53.55,256.51 h -2.26 v -0.69 H 52 v -3.69 h -0.7 v -0.69 h 2.26 v 0.69 h -0.71 v 3.69 h 0.71 z"/>
        <path id="path4530" style="fill:#3c3c3b"
              d="m 56.76,252.22 v 4.29 H 55.9 v -4.29 h -1.62 v -0.78 h 4.1 v 0.78 z"/>
        <path id="path4532" style="fill:#3c3c3b"
              d="m 61.31,254.57 v 1.94 h -0.86 v -1.92 l -1.6,-3.15 h 0.94 l 1.1,2.3 1.11,-2.3 h 0.91 z"/>
      </g>
      <g id="g4548">
        <path id="path4536" style="fill:#3c3c3b"
              d="m 348.3,37.15 1.7,-5.07 h 1.11 l 1.71,5.07 h -0.89 L 351.55,36 h -2 l -0.38,1.17 z m 1.49,-1.93 h 1.5 l -0.75,-2.29 z"/>
        <path id="path4538" style="fill:#3c3c3b"
              d="m 357.75,36.29 a 2.08,2.08 0 0 1 -0.3,0.38 1.72,1.72 0 0 1 -0.39,0.31 2.26,2.26 0 0 1 -0.52,0.2 2.93,2.93 0 0 1 -0.7,0.08 2.15,2.15 0 0 1 -1.73,-0.66 3,3 0 0 1 -0.56,-2 3,3 0 0 1 0.57,-2 2.07,2.07 0 0 1 1.68,-0.6 2.76,2.76 0 0 1 0.68,0.08 2.07,2.07 0 0 1 0.53,0.19 1.68,1.68 0 0 1 0.39,0.3 2.11,2.11 0 0 1 0.28,0.37 l -0.68,0.49 -0.18,-0.25 a 1.21,1.21 0 0 0 -0.24,-0.21 1.35,1.35 0 0 0 -0.32,-0.15 1.46,1.46 0 0 0 -0.44,-0.06 1.18,1.18 0 0 0 -1.05,0.48 2.45,2.45 0 0 0 -0.33,1.41 3.51,3.51 0 0 0 0.08,0.85 1.61,1.61 0 0 0 0.27,0.59 1,1 0 0 0 0.44,0.33 1.55,1.55 0 0 0 0.59,0.11 1.53,1.53 0 0 0 0.45,-0.06 1,1 0 0 0 0.33,-0.15 1.09,1.09 0 0 0 0.26,-0.22 2.56,2.56 0 0 0 0.2,-0.26 z"/>
        <path id="path4540" style="fill:#3c3c3b"
              d="m 360.83,32.86 v 4.29 H 360 v -4.29 h -1.62 v -0.78 h 4.09 v 0.78 z"/>
        <path id="path4542" style="fill:#3c3c3b"
              d="m 365.45,37.15 h -2.26 v -0.69 h 0.7 v -3.69 h -0.7 v -0.69 h 2.26 v 0.69 h -0.7 v 3.69 h 0.7 z"/>
        <path id="path4544" style="fill:#3c3c3b"
              d="m 368.84,37.15 h -1.07 l -1.57,-5.07 h 0.87 l 1.25,4.1 1.25,-4.1 h 0.86 z"/>
        <path id="path4546" style="fill:#3c3c3b"
              d="m 371.4,37.15 v -5.07 h 3.19 v 0.76 h -2.34 v 1.29 h 2 v 0.76 h -2 v 1.48 h 2.34 v 0.78 z"/>
      </g>
      <g id="g4562">
        <path id="path4550" style="fill:#3c3c3b" d="m 347.82,305.69 v -5.07 h 0.85 v 4.29 h 2.22 v 0.78 z"/>
        <path id="path4552" style="fill:#3c3c3b"
              d="m 351.85,305.69 v -5.07 H 355 v 0.77 h -2.3 v 1.28 h 2 v 0.77 h -2 v 1.47 h 2.3 v 0.78 z"/>
        <path id="path4554" style="fill:#3c3c3b"
              d="m 359.18,305.69 -2.06,-4 v 4 h -0.83 v -5.07 h 1.16 l 1.91,3.71 v -3.71 h 0.84 v 5.07 z"/>
        <path id="path4556" style="fill:#3c3c3b"
              d="m 364.94,302 a 1.41,1.41 0 0 0 -0.47,-0.5 1.39,1.39 0 0 0 -0.75,-0.17 1.5,1.5 0 0 0 -0.58,0.1 0.94,0.94 0 0 0 -0.44,0.33 1.62,1.62 0 0 0 -0.28,0.59 3.75,3.75 0 0 0 -0.09,0.89 3.88,3.88 0 0 0 0.07,0.81 1.81,1.81 0 0 0 0.25,0.58 1,1 0 0 0 0.44,0.34 1.56,1.56 0 0 0 0.64,0.12 2.2,2.2 0 0 0 0.53,-0.06 3.69,3.69 0 0 0 0.5,-0.17 v -1 h -1.11 v -0.76 h 2 v 2.21 a 3.47,3.47 0 0 1 -0.85,0.39 3.24,3.24 0 0 1 -1,0.15 2.21,2.21 0 0 1 -1.75,-0.65 3,3 0 0 1 -0.56,-2 4.34,4.34 0 0 1 0.14,-1.14 2.07,2.07 0 0 1 0.41,-0.84 1.77,1.77 0 0 1 0.71,-0.52 2.87,2.87 0 0 1 1,-0.17 3,3 0 0 1 0.71,0.07 2,2 0 0 1 0.53,0.21 1.32,1.32 0 0 1 0.39,0.29 1.78,1.78 0 0 1 0.27,0.36 z"/>
        <path id="path4558" style="fill:#3c3c3b"
              d="m 368.93,301.41 v 4.28 h -0.86 v -4.28 h -1.62 v -0.79 h 4.1 v 0.79 z"/>
        <path id="path4560" style="fill:#3c3c3b"
              d="m 374.53,305.69 v -2.23 h -2.15 v 2.23 h -0.86 v -5.07 h 0.86 v 2.06 h 2.15 v -2.06 h 0.86 v 5.07 z"/>
      </g>
      <g id="g4582">
        <path id="path4564" style="fill:#3c3c3b"
              d="m 388.62,305.69 v -5.07 h 3.2 v 0.77 h -2.34 v 1.28 h 2 v 0.77 h -2 v 1.47 h 2.34 v 0.78 z"/>
        <path id="path4566" style="fill:#3c3c3b"
              d="m 397,303.58 a 3.91,3.91 0 0 1 -0.12,1 1.52,1.52 0 0 1 -0.35,0.68 1.34,1.34 0 0 1 -0.61,0.39 3.11,3.11 0 0 1 -0.92,0.12 3,3 0 0 1 -0.91,-0.12 1.37,1.37 0 0 1 -0.62,-0.39 1.5,1.5 0 0 1 -0.35,-0.69 4.33,4.33 0 0 1 -0.11,-1 v -3 h 0.85 v 2.88 a 3.8,3.8 0 0 0 0.06,0.74 1.19,1.19 0 0 0 0.2,0.47 0.71,0.71 0 0 0 0.35,0.26 1.6,1.6 0 0 0 0.53,0.08 1.64,1.64 0 0 0 0.53,-0.08 0.75,0.75 0 0 0 0.35,-0.26 1.06,1.06 0 0 0 0.2,-0.47 3.73,3.73 0 0 0 0.06,-0.72 v -2.9 H 397 Z"/>
        <path id="path4568" style="fill:#3c3c3b"
              d="m 402.35,304.83 a 2.79,2.79 0 0 1 -0.3,0.38 1.72,1.72 0 0 1 -0.39,0.31 2,2 0 0 1 -0.53,0.2 2.87,2.87 0 0 1 -0.7,0.08 2.13,2.13 0 0 1 -1.72,-0.66 3.8,3.8 0 0 1 0,-4 2.13,2.13 0 0 1 1.69,-0.65 2.84,2.84 0 0 1 0.68,0.07 2,2 0 0 1 0.52,0.2 1.65,1.65 0 0 1 0.39,0.29 2,2 0 0 1 0.28,0.37 l -0.68,0.49 a 1.88,1.88 0 0 0 -0.18,-0.24 1.21,1.21 0 0 0 -0.23,-0.22 1.26,1.26 0 0 0 -0.33,-0.15 1.84,1.84 0 0 0 -0.44,-0.05 1.18,1.18 0 0 0 -1.05,0.47 2.45,2.45 0 0 0 -0.33,1.41 3.6,3.6 0 0 0 0.09,0.86 1.73,1.73 0 0 0 0.26,0.58 1.22,1.22 0 0 0 0.44,0.34 1.57,1.57 0 0 0 0.6,0.1 1.9,1.9 0 0 0 0.44,-0.05 1.52,1.52 0 0 0 0.34,-0.15 1.31,1.31 0 0 0 0.25,-0.22 l 0.21,-0.27 z"/>
        <path id="path4570" style="fill:#3c3c3b" d="m 403.35,305.69 v -5.07 h 0.85 v 4.29 h 2.22 v 0.78 z"/>
        <path id="path4572" style="fill:#3c3c3b"
              d="m 409.33,305.69 h -2.26 V 305 h 0.7 v -3.69 h -0.7 v -0.69 h 2.26 v 0.69 h -0.71 V 305 h 0.71 z"/>
        <path id="path4574" style="fill:#3c3c3b"
              d="m 414.25,303.16 a 4,4 0 0 1 -0.16,1.24 1.69,1.69 0 0 1 -0.46,0.77 1.62,1.62 0 0 1 -0.75,0.41 4.64,4.64 0 0 1 -1.05,0.11 h -1.41 v -5.07 h 1.4 a 4.15,4.15 0 0 1 1.06,0.13 1.72,1.72 0 0 1 0.76,0.43 1.88,1.88 0 0 1 0.46,0.78 4.08,4.08 0 0 1 0.15,1.2 z m -0.9,0 a 3.45,3.45 0 0 0 -0.08,-0.85 1.07,1.07 0 0 0 -0.27,-0.53 0.92,0.92 0 0 0 -0.49,-0.28 2.81,2.81 0 0 0 -0.76,-0.08 h -0.48 v 3.5 h 0.48 a 3.31,3.31 0 0 0 0.77,-0.08 1.09,1.09 0 0 0 0.49,-0.29 1.25,1.25 0 0 0 0.27,-0.54 4.1,4.1 0 0 0 0.07,-0.86 z"/>
        <path id="path4576" style="fill:#3c3c3b"
              d="m 415.38,305.69 v -5.07 h 3.19 v 0.77 h -2.34 v 1.28 h 2 v 0.77 h -2 v 1.47 h 2.34 v 0.78 z"/>
        <path id="path4578" style="fill:#3c3c3b"
              d="m 419.26,305.69 1.7,-5.07 h 1.11 l 1.72,5.07 h -0.89 l -0.39,-1.16 h -2 l -0.38,1.16 z m 1.49,-1.93 h 1.5 l -0.75,-2.28 z"/>
        <path id="path4580" style="fill:#3c3c3b"
              d="m 427.58,305.69 -2.06,-4 v 4 h -0.83 v -5.07 h 1.16 l 1.91,3.71 v -3.71 h 0.83 v 5.07 z"/>
      </g>
      <g id="g4596">
        <path id="path4584" style="fill:#3c3c3b"
              d="m 351.15,345 -1.29,-2 h -0.7 v 2 h -0.86 v -5.07 h 1.7 a 3.18,3.18 0 0 1 0.8,0.08 1.36,1.36 0 0 1 0.57,0.25 1.17,1.17 0 0 1 0.34,0.45 1.78,1.78 0 0 1 0.11,0.69 1.84,1.84 0 0 1 -0.08,0.61 1.2,1.2 0 0 1 -0.21,0.44 1.17,1.17 0 0 1 -0.34,0.29 1.5,1.5 0 0 1 -0.42,0.15 l 1.36,2.11 z m -0.19,-3.56 a 1,1 0 0 0 -0.06,-0.37 0.4,0.4 0 0 0 -0.17,-0.23 0.71,0.71 0 0 0 -0.29,-0.13 2.63,2.63 0 0 0 -0.43,0 h -0.85 v 1.58 h 0.8 a 2.21,2.21 0 0 0 0.48,0 0.81,0.81 0 0 0 0.31,-0.14 0.54,0.54 0 0 0 0.16,-0.25 1.35,1.35 0 0 0 0.09,-0.51 z"/>
        <path id="path4586" style="fill:#3c3c3b"
              d="m 357.16,342.41 a 4.6,4.6 0 0 1 -0.12,1.11 2.19,2.19 0 0 1 -0.38,0.83 1.61,1.61 0 0 1 -0.66,0.52 2.37,2.37 0 0 1 -1,0.18 2.32,2.32 0 0 1 -1,-0.18 1.61,1.61 0 0 1 -0.66,-0.52 2.19,2.19 0 0 1 -0.38,-0.83 4.6,4.6 0 0 1 -0.12,-1.11 4.72,4.72 0 0 1 0.12,-1.11 2.27,2.27 0 0 1 0.38,-0.83 1.61,1.61 0 0 1 0.66,-0.52 2.32,2.32 0 0 1 1,-0.18 2.37,2.37 0 0 1 1,0.18 1.61,1.61 0 0 1 0.66,0.52 2.22,2.22 0 0 1 0.38,0.82 4.75,4.75 0 0 1 0.12,1.12 z m -0.9,0 a 4.91,4.91 0 0 0 -0.06,-0.82 1.69,1.69 0 0 0 -0.2,-0.59 0.8,0.8 0 0 0 -0.38,-0.35 1.41,1.41 0 0 0 -1.14,0 0.87,0.87 0 0 0 -0.39,0.35 1.52,1.52 0 0 0 -0.21,0.59 4.82,4.82 0 0 0 -0.07,0.82 5,5 0 0 0 0.07,0.83 1.86,1.86 0 0 0 0.21,0.59 1,1 0 0 0 0.39,0.35 1.41,1.41 0 0 0 0.57,0.11 1.21,1.21 0 0 0 0.57,-0.11 0.86,0.86 0 0 0 0.38,-0.35 1.77,1.77 0 0 0 0.22,-0.59 5,5 0 0 0 0.04,-0.83 z"/>
        <path id="path4588" style="fill:#3c3c3b"
              d="M 360.26,340.66 V 345 h -0.85 v -4.29 h -1.62 v -0.78 h 4.09 v 0.78 z"/>
        <path id="path4590" style="fill:#3c3c3b"
              d="m 362.1,345 1.7,-5.07 h 1.11 l 1.71,5.07 h -0.88 l -0.39,-1.17 h -2 L 363,345 Z m 1.48,-1.94 h 1.51 l -0.75,-2.28 z"/>
        <path id="path4592" style="fill:#3c3c3b"
              d="M 369.31,340.66 V 345 h -0.86 v -4.29 h -1.62 v -0.78 h 4.1 v 0.78 z"/>
        <path id="path4594" style="fill:#3c3c3b"
              d="m 371.9,345 v -5.07 h 3.2 v 0.76 h -2.34 v 1.28 h 2 v 0.77 h -2 v 1.48 h 2.34 V 345 Z"/>
      </g>
      <g id="g4608">
        <path id="path4598" style="fill:#3c3c3b"
              d="m 16.72,307.49 -1.29,-2 h -0.7 v 2 h -0.86 v -5.07 h 1.71 a 3.73,3.73 0 0 1 0.8,0.08 1.5,1.5 0 0 1 0.57,0.26 1,1 0 0 1 0.34,0.45 1.73,1.73 0 0 1 0.11,0.68 1.91,1.91 0 0 1 -0.08,0.62 1.14,1.14 0 0 1 -0.22,0.44 1,1 0 0 1 -0.33,0.29 1.5,1.5 0 0 1 -0.42,0.15 l 1.36,2.1 z m -0.19,-3.55 a 1,1 0 0 0 -0.06,-0.37 0.46,0.46 0 0 0 -0.17,-0.24 0.59,0.59 0 0 0 -0.29,-0.12 1.91,1.91 0 0 0 -0.43,0 h -0.85 v 1.58 h 0.8 a 3.08,3.08 0 0 0 0.48,0 0.81,0.81 0 0 0 0.31,-0.14 0.6,0.6 0 0 0 0.16,-0.25 1.35,1.35 0 0 0 0.05,-0.46 z"/>
        <path id="path4600" style="fill:#3c3c3b"
              d="m 18.71,307.49 v -5.07 h 3.19 v 0.77 h -2.34 v 1.28 h 2 v 0.77 h -2 v 1.47 h 2.34 v 0.78 z"/>
        <path id="path4602" style="fill:#3c3c3b"
              d="m 26.67,306.07 a 1.59,1.59 0 0 1 -0.15,0.72 1.33,1.33 0 0 1 -0.41,0.47 1.61,1.61 0 0 1 -0.61,0.26 3.4,3.4 0 0 1 -0.73,0.08 3.11,3.11 0 0 1 -0.72,-0.08 2.17,2.17 0 0 1 -0.54,-0.21 1.68,1.68 0 0 1 -0.39,-0.3 2.47,2.47 0 0 1 -0.28,-0.38 l 0.67,-0.49 a 1.89,1.89 0 0 0 0.2,0.27 1.09,1.09 0 0 0 0.26,0.22 1.25,1.25 0 0 0 0.35,0.16 2,2 0 0 0 0.46,0 1.64,1.64 0 0 0 0.38,0 0.82,0.82 0 0 0 0.32,-0.12 0.54,0.54 0 0 0 0.23,-0.22 0.58,0.58 0 0 0 0.09,-0.33 0.61,0.61 0 0 0 -0.08,-0.32 0.77,0.77 0 0 0 -0.22,-0.22 1.64,1.64 0 0 0 -0.33,-0.14 l -0.4,-0.12 c -0.26,-0.06 -0.5,-0.13 -0.72,-0.2 a 2.22,2.22 0 0 1 -0.58,-0.27 1.18,1.18 0 0 1 -0.39,-0.41 1.28,1.28 0 0 1 -0.14,-0.63 1.52,1.52 0 0 1 0.12,-0.62 1.27,1.27 0 0 1 0.34,-0.48 1.63,1.63 0 0 1 0.57,-0.3 2.68,2.68 0 0 1 0.78,-0.1 2.77,2.77 0 0 1 0.6,0.06 2.45,2.45 0 0 1 0.5,0.17 1.88,1.88 0 0 1 0.39,0.29 1.72,1.72 0 0 1 0.31,0.39 l -0.66,0.49 a 1.57,1.57 0 0 0 -0.48,-0.48 1.28,1.28 0 0 0 -0.67,-0.16 1.24,1.24 0 0 0 -0.68,0.17 0.58,0.58 0 0 0 -0.25,0.5 0.45,0.45 0 0 0 0.07,0.27 0.49,0.49 0 0 0 0.21,0.19 1.69,1.69 0 0 0 0.35,0.14 l 0.51,0.14 0.44,0.11 c 0.14,0 0.28,0.09 0.41,0.15 a 2,2 0 0 1 0.35,0.19 1.44,1.44 0 0 1 0.28,0.27 1.41,1.41 0 0 1 0.18,0.37 1.77,1.77 0 0 1 0.06,0.5 z"/>
        <path id="path4604" style="fill:#3c3c3b"
              d="m 27.87,307.49 v -5.07 h 3.19 v 0.77 h -2.34 v 1.28 h 2 v 0.77 h -2 v 1.47 h 2.34 v 0.78 z"/>
        <path id="path4606" style="fill:#3c3c3b"
              d="m 34.31,303.21 v 4.28 h -0.85 v -4.28 h -1.62 v -0.79 h 4.09 v 0.79 z"/>
      </g>
      <g id="g4628">
        <path id="path4610" style="fill:#3c3c3b"
              d="m 80.5,306 v -3.8 l -1.31,2.47 h -0.51 l -1.3,-2.47 v 3.8 h -0.81 v -5 h 1.05 L 79,303.56 80.29,301 h 1 v 5 z"/>
        <path id="path4612" style="fill:#3c3c3b"
              d="m 84.79,306 h -2.26 v -0.68 h 0.7 v -3.7 h -0.7 V 301 h 2.26 v 0.68 h -0.71 v 3.7 h 0.71 z"/>
        <path id="path4614" style="fill:#3c3c3b"
              d="m 89.78,303.51 a 4,4 0 0 1 -0.16,1.24 1.87,1.87 0 0 1 -0.45,0.78 1.79,1.79 0 0 1 -0.76,0.4 4.61,4.61 0 0 1 -1,0.11 H 86 V 301 h 1.4 a 4.26,4.26 0 0 1 1.07,0.12 1.74,1.74 0 0 1 0.75,0.43 1.78,1.78 0 0 1 0.46,0.78 4.08,4.08 0 0 1 0.1,1.18 z m -0.89,0 a 3.4,3.4 0 0 0 -0.09,-0.85 1.15,1.15 0 0 0 -0.26,-0.53 1,1 0 0 0 -0.5,-0.28 2.77,2.77 0 0 0 -0.76,-0.08 H 86.8 v 3.5 h 0.48 a 2.8,2.8 0 0 0 0.77,-0.08 1,1 0 0 0 0.49,-0.29 1.15,1.15 0 0 0 0.27,-0.54 4,4 0 0 0 0.08,-0.86 z"/>
        <path id="path4616" style="fill:#3c3c3b"
              d="m 93,306 h -2.25 v -0.68 h 0.71 v -3.7 H 90.75 V 301 H 93 v 0.68 h -0.7 v 3.7 H 93 Z"/>
        <path id="path4618" style="fill:#3c3c3b" d="m 73.56,315.24 v -5.06 h 0.85 v 4.28 h 2.22 v 0.78 z"/>
        <path id="path4620" style="fill:#3c3c3b"
              d="m 77.59,315.24 v -5.06 h 3.19 v 0.76 h -2.34 v 1.28 h 2 V 313 h -2 v 1.47 h 2.34 v 0.78 z"/>
        <path id="path4622" style="fill:#3c3c3b"
              d="m 81.54,315.24 1.71,-5.06 h 1.11 l 1.71,5.06 h -0.89 l -0.39,-1.16 h -2 l -0.38,1.16 z M 83,313.31 h 1.51 L 83.78,311 Z"/>
        <path id="path4624" style="fill:#3c3c3b"
              d="m 89.89,315.24 -1.29,-2 h -0.71 v 2 H 87 v -5.06 h 1.71 a 3.84,3.84 0 0 1 0.8,0.07 1.5,1.5 0 0 1 0.57,0.26 1,1 0 0 1 0.34,0.45 2,2 0 0 1 0.11,0.68 1.91,1.91 0 0 1 -0.08,0.62 1.14,1.14 0 0 1 -0.22,0.44 1,1 0 0 1 -0.33,0.29 1.5,1.5 0 0 1 -0.42,0.15 l 1.36,2.1 z m -0.19,-3.55 a 1,1 0 0 0 -0.06,-0.37 0.46,0.46 0 0 0 -0.17,-0.24 0.75,0.75 0 0 0 -0.3,-0.12 1.8,1.8 0 0 0 -0.43,0 h -0.85 v 1.58 h 0.81 a 3.08,3.08 0 0 0 0.48,0 0.81,0.81 0 0 0 0.31,-0.14 0.6,0.6 0 0 0 0.16,-0.25 1.35,1.35 0 0 0 0.05,-0.46 z"/>
        <path id="path4626" style="fill:#3c3c3b"
              d="m 94.77,315.24 -2.06,-4 v 4 h -0.83 v -5.06 H 93 l 1.92,3.7 v -3.7 h 0.83 v 5.06 z"/>
      </g>
      <g id="g4640">
        <path id="path4630" style="fill:#3c3c3b"
              d="m 17.05,346.08 a 2.28,2.28 0 0 1 -0.3,0.38 1.48,1.48 0 0 1 -0.39,0.31 1.89,1.89 0 0 1 -0.52,0.21 3,3 0 0 1 -0.7,0.07 2.15,2.15 0 0 1 -1.73,-0.66 3,3 0 0 1 -0.56,-2 2.94,2.94 0 0 1 0.57,-2 2.07,2.07 0 0 1 1.68,-0.66 2.79,2.79 0 0 1 0.68,0.07 2.54,2.54 0 0 1 0.53,0.2 1.41,1.41 0 0 1 0.38,0.29 2.48,2.48 0 0 1 0.29,0.37 l -0.69,0.5 a 2.2,2.2 0 0 0 -0.17,-0.25 1.21,1.21 0 0 0 -0.24,-0.21 0.86,0.86 0 0 0 -0.32,-0.15 1.49,1.49 0 0 0 -0.45,-0.06 1.19,1.19 0 0 0 -1,0.47 2.48,2.48 0 0 0 -0.34,1.41 3.55,3.55 0 0 0 0.09,0.86 1.49,1.49 0 0 0 0.27,0.58 1,1 0 0 0 0.44,0.34 1.55,1.55 0 0 0 0.59,0.1 1.44,1.44 0 0 0 0.44,-0.05 1.52,1.52 0 0 0 0.34,-0.15 0.88,0.88 0 0 0 0.25,-0.22 1.39,1.39 0 0 0 0.21,-0.27 z"/>
        <path id="path4632" style="fill:#3c3c3b" d="m 18.06,347 v -5.07 h 0.85 v 4.29 h 2.21 V 347 Z"/>
        <path id="path4634" style="fill:#3c3c3b"
              d="m 26,344.41 a 4.6,4.6 0 0 1 -0.12,1.11 2.19,2.19 0 0 1 -0.38,0.83 1.61,1.61 0 0 1 -0.66,0.52 2.68,2.68 0 0 1 -1.93,0 1.61,1.61 0 0 1 -0.66,-0.52 2.19,2.19 0 0 1 -0.38,-0.83 4.6,4.6 0 0 1 -0.12,-1.11 4.72,4.72 0 0 1 0.12,-1.11 2.27,2.27 0 0 1 0.38,-0.83 1.61,1.61 0 0 1 0.66,-0.52 2.68,2.68 0 0 1 1.93,0 1.61,1.61 0 0 1 0.66,0.52 2.22,2.22 0 0 1 0.38,0.82 4.75,4.75 0 0 1 0.12,1.12 z m -0.9,0 a 4.91,4.91 0 0 0 -0.06,-0.82 1.69,1.69 0 0 0 -0.22,-0.59 0.8,0.8 0 0 0 -0.38,-0.35 1.2,1.2 0 0 0 -0.57,-0.12 1.23,1.23 0 0 0 -0.57,0.12 0.87,0.87 0 0 0 -0.39,0.35 1.7,1.7 0 0 0 -0.21,0.59 4.91,4.91 0 0 0 -0.06,0.82 5,5 0 0 0 0.06,0.83 1.65,1.65 0 0 0 0.22,0.59 0.92,0.92 0 0 0 0.38,0.35 1.41,1.41 0 0 0 0.57,0.11 1.21,1.21 0 0 0 0.57,-0.11 0.86,0.86 0 0 0 0.38,-0.35 1.77,1.77 0 0 0 0.22,-0.59 5,5 0 0 0 0.01,-0.83 z"/>
        <path id="path4636" style="fill:#3c3c3b"
              d="m 31.09,346.08 a 2.28,2.28 0 0 1 -0.3,0.38 1.48,1.48 0 0 1 -0.39,0.31 2.09,2.09 0 0 1 -0.53,0.21 2.91,2.91 0 0 1 -0.7,0.07 2.13,2.13 0 0 1 -1.72,-0.66 3.78,3.78 0 0 1 0,-4 2.09,2.09 0 0 1 1.68,-0.66 2.73,2.73 0 0 1 0.68,0.07 2.34,2.34 0 0 1 0.53,0.2 1.65,1.65 0 0 1 0.39,0.29 2.4,2.4 0 0 1 0.28,0.37 l -0.68,0.5 -0.18,-0.25 a 0.93,0.93 0 0 0 -0.23,-0.21 0.91,0.91 0 0 0 -0.33,-0.15 1.42,1.42 0 0 0 -0.44,-0.06 1.2,1.2 0 0 0 -1,0.47 2.49,2.49 0 0 0 -0.33,1.41 3.55,3.55 0 0 0 0.09,0.86 1.64,1.64 0 0 0 0.26,0.58 1,1 0 0 0 0.44,0.34 1.57,1.57 0 0 0 0.6,0.1 1.52,1.52 0 0 0 0.44,-0.05 1.26,1.26 0 0 0 0.33,-0.15 1.09,1.09 0 0 0 0.26,-0.22 1.89,1.89 0 0 0 0.2,-0.27 z"/>
        <path id="path4638" style="fill:#3c3c3b"
              d="m 34.91,347 -1.58,-2.19 -0.39,0.45 V 347 h -0.85 v -5.07 h 0.85 v 2.23 l 1.9,-2.23 h 1 l -2,2.25 L 36,347 Z"/>
      </g>
      <g id="g4650">
        <path id="path4642" style="fill:#3c3c3b"
              d="m 48.31,345.52 a 1.54,1.54 0 0 1 -0.15,0.72 1.27,1.27 0 0 1 -0.42,0.47 1.63,1.63 0 0 1 -0.6,0.26 3,3 0 0 1 -0.74,0.08 3,3 0 0 1 -0.71,-0.07 2.77,2.77 0 0 1 -0.54,-0.21 1.58,1.58 0 0 1 -0.4,-0.31 2.07,2.07 0 0 1 -0.28,-0.38 l 0.67,-0.49 a 1.39,1.39 0 0 0 0.21,0.27 1.16,1.16 0 0 0 0.26,0.23 1.52,1.52 0 0 0 0.34,0.15 1.62,1.62 0 0 0 0.46,0.05 2.34,2.34 0 0 0 0.38,0 1.61,1.61 0 0 0 0.33,-0.12 0.8,0.8 0 0 0 0.23,-0.22 0.71,0.71 0 0 0 0.08,-0.34 0.55,0.55 0 0 0 -0.08,-0.32 0.73,0.73 0 0 0 -0.22,-0.21 1.26,1.26 0 0 0 -0.33,-0.15 l -0.4,-0.11 -0.72,-0.21 a 2.82,2.82 0 0 1 -0.58,-0.26 1.15,1.15 0 0 1 -0.52,-1.05 1.71,1.71 0 0 1 0.11,-0.62 1.26,1.26 0 0 1 0.35,-0.47 1.58,1.58 0 0 1 0.56,-0.3 2.67,2.67 0 0 1 0.78,-0.11 2.77,2.77 0 0 1 0.6,0.06 1.85,1.85 0 0 1 0.5,0.18 1.6,1.6 0 0 1 0.4,0.28 2.88,2.88 0 0 1 0.3,0.39 l -0.66,0.49 a 1.38,1.38 0 0 0 -0.48,-0.48 1.26,1.26 0 0 0 -0.67,-0.16 1.16,1.16 0 0 0 -0.68,0.18 0.57,0.57 0 0 0 -0.25,0.49 0.54,0.54 0 0 0 0.07,0.27 0.65,0.65 0 0 0 0.21,0.19 2.18,2.18 0 0 0 0.36,0.15 l 0.5,0.13 0.44,0.12 a 3.93,3.93 0 0 1 0.41,0.14 1.68,1.68 0 0 1 0.35,0.2 1,1 0 0 1 0.28,0.27 1,1 0 0 1 0.18,0.36 1.49,1.49 0 0 1 0.07,0.46 z"/>
        <path id="path4644" style="fill:#3c3c3b" d="M 51.36,342.66 V 347 H 50.5 v -4.29 h -1.62 v -0.78 H 53 v 0.78 z"/>
        <path id="path4646" style="fill:#3c3c3b"
              d="m 53.88,347 v -5.07 h 3.19 v 0.76 h -2.34 v 1.28 h 2 v 0.77 h -2 v 1.48 h 2.34 V 347 Z"/>
        <path id="path4648" style="fill:#3c3c3b"
              d="m 61.74,343.54 a 2.62,2.62 0 0 1 -0.1,0.79 1.27,1.27 0 0 1 -0.89,0.87 3,3 0 0 1 -0.83,0.1 H 59.1 v 1.7 h -0.86 v -5.07 H 60 a 2.93,2.93 0 0 1 0.76,0.09 1.45,1.45 0 0 1 0.57,0.28 1.35,1.35 0 0 1 0.34,0.52 2.18,2.18 0 0 1 0.07,0.72 z m -0.89,0 a 1.12,1.12 0 0 0 -0.07,-0.45 0.57,0.57 0 0 0 -0.22,-0.28 0.86,0.86 0 0 0 -0.35,-0.15 3.32,3.32 0 0 0 -0.48,0 H 59.1 v 1.92 h 0.53 a 3.06,3.06 0 0 0 0.56,0 0.86,0.86 0 0 0 0.38,-0.13 0.55,0.55 0 0 0 0.21,-0.3 1.58,1.58 0 0 0 0.07,-0.6 z"/>
      </g>
      <g id="g4658">
        <path id="path4652" style="fill:#3c3c3b"
              d="m 416.07,37.15 1.7,-5.07 h 1.11 l 1.71,5.07 h -0.88 L 419.32,36 h -2 l -0.39,1.17 z m 1.48,-1.93 h 1.51 l -0.75,-2.29 z"/>
        <path id="path4654" style="fill:#3c3c3b" d="m 421.57,37.15 v -5.07 h 0.85 v 4.29 h 2.22 v 0.78 z"/>
        <path id="path4656" style="fill:#3c3c3b"
              d="m 427.29,32.86 v 4.29 h -0.86 v -4.29 h -1.62 v -0.78 h 4.1 v 0.78 z"/>
      </g>
      <g id="g4668">
        <path id="path4660" style="fill:#3c3c3b"
              d="m 18.9,37.15 v -3.8 l -1.3,2.46 h -0.52 l -1.29,-2.46 v 3.8 H 15 v -5.07 h 1 l 1.33,2.59 1.35,-2.59 h 1 v 5.07 z"/>
        <path id="path4662" style="fill:#3c3c3b"
              d="m 20.7,37.15 1.7,-5.07 h 1.11 l 1.71,5.07 H 24.34 L 24,36 h -2 l -0.39,1.17 z m 1.48,-1.93 h 1.51 l -0.75,-2.29 z"/>
        <path id="path4664" style="fill:#3c3c3b"
              d="M 28.22,37.15 H 26 v -0.69 h 0.7 V 32.77 H 26 v -0.69 h 2.26 v 0.69 h -0.7 v 3.69 h 0.7 z"/>
        <path id="path4666" style="fill:#3c3c3b"
              d="m 32.32,37.15 -2.06,-4 v 4 h -0.83 v -5.07 h 1.16 l 1.92,3.7 v -3.7 h 0.83 v 5.07 z"/>
      </g>
      <g id="g4676">
        <path id="path4670" style="fill:#3c3c3b"
              d="m 46.66,37.15 1.7,-5.07 h 1.11 l 1.71,5.07 H 50.29 L 49.9,36 h -2 l -0.38,1.17 z m 1.48,-1.93 h 1.51 L 48.9,32.93 Z"/>
        <path id="path4672" style="fill:#3c3c3b" d="M 52.15,37.15 V 32.08 H 53 v 4.29 h 2.21 v 0.78 z"/>
        <path id="path4674" style="fill:#3c3c3b" d="m 57.87,32.86 v 4.29 H 57 v -4.29 h -1.6 v -0.78 h 4.09 v 0.78 z"/>
      </g>
      <g id="g4686">
        <path id="path4678" style="fill:#3c3c3b"
              d="m 79.27,33.74 a 2.6,2.6 0 0 1 -0.11,0.79 1.25,1.25 0 0 1 -0.32,0.55 1.44,1.44 0 0 1 -0.57,0.32 2.9,2.9 0 0 1 -0.83,0.1 h -0.82 v 1.65 h -0.85 v -5.07 h 1.7 a 3,3 0 0 1 0.77,0.09 1.42,1.42 0 0 1 0.56,0.29 1.26,1.26 0 0 1 0.35,0.51 2.18,2.18 0 0 1 0.12,0.77 z m -0.89,0 a 1.17,1.17 0 0 0 -0.08,-0.45 0.67,0.67 0 0 0 -0.21,-0.28 0.82,0.82 0 0 0 -0.36,-0.14 2.33,2.33 0 0 0 -0.48,0 h -0.63 v 1.91 h 0.54 a 4.33,4.33 0 0 0 0.55,0 0.82,0.82 0 0 0 0.38,-0.14 0.62,0.62 0 0 0 0.22,-0.3 1.84,1.84 0 0 0 0.07,-0.59 z"/>
        <path id="path4680" style="fill:#3c3c3b"
              d="m 79.77,37.15 1.71,-5.07 h 1.11 l 1.71,5.07 H 83.41 L 83,36 h -2 l -0.38,1.17 z m 1.49,-1.93 h 1.51 L 82,32.93 Z"/>
        <path id="path4682" style="fill:#3c3c3b"
              d="m 88.53,33.41 a 1.44,1.44 0 0 0 -0.48,-0.5 1.39,1.39 0 0 0 -0.75,-0.18 1.76,1.76 0 0 0 -0.58,0.1 1.09,1.09 0 0 0 -0.44,0.33 1.71,1.71 0 0 0 -0.28,0.59 3.81,3.81 0 0 0 -0.09,0.89 3.27,3.27 0 0 0 0.08,0.81 1.47,1.47 0 0 0 0.24,0.58 1.07,1.07 0 0 0 0.44,0.35 1.6,1.6 0 0 0 0.65,0.12 2.12,2.12 0 0 0 0.52,-0.06 2.51,2.51 0 0 0 0.5,-0.18 v -1 H 87.23 V 34.5 h 2 v 2.21 a 3.32,3.32 0 0 1 -0.85,0.4 3.2,3.2 0 0 1 -1,0.15 2.18,2.18 0 0 1 -1.74,-0.65 2.93,2.93 0 0 1 -0.57,-2 4.34,4.34 0 0 1 0.14,-1.14 2.23,2.23 0 0 1 0.41,-0.83 1.85,1.85 0 0 1 0.71,-0.52 2.66,2.66 0 0 1 1,-0.18 3,3 0 0 1 0.71,0.08 2.63,2.63 0 0 1 0.54,0.2 1.68,1.68 0 0 1 0.38,0.3 1.54,1.54 0 0 1 0.27,0.36 z"/>
        <path id="path4684" style="fill:#3c3c3b"
              d="m 90.58,37.15 v -5.07 h 3.19 v 0.76 h -2.33 v 1.29 h 2 v 0.76 h -2 v 1.48 h 2.33 v 0.78 z"/>
      </g>
    </g>
    <g data-name="Layer 2" id="Layer_2-2">
      <rect id="rect4689" style="fill:#1d1d1b" rx="2.8599999" height="73.699997" width="113.39" y="277.67999"
            x="106.98"/>
      <rect id="rect4691" style="fill:#1d1d1b" rx="2.8599999" height="73.699997" width="113.39" y="277.67999"
            x="226.03"/>
      <rect id="rect4693" style="fill:#1d1d1b" rx="2.6700001" height="22.68" width="232.44" y="248.60001" x="106.98"/>
    </g>
    <g id="branding">
      <g id="g4707">
        <g id="text2162">
          <path style="fill:#3c3c3b" d="m 182.26,13.25 -1,2 v 9.44 l 1,2 h -4.93 l 1,-2 v -9.42 l -1,-2 z"
                id="path2416"/>
          <path style="fill:#3c3c3b"
                d="m 190.47,15.27 -0.8,-2 H 194 l -1.23,2 -3.27,11.46 h -2.46 l -3,-11.43 -1.23,-2.05 H 188 l -0.85,2 1.47,5.49 0.2,1.13 0.21,-1.1 z"
                id="path2418"/>
          <path style="fill:#3c3c3b"
                d="m 203.47,13.25 v 3.15 l -2,-1 h -2.87 l 0.2,0.38 v 2.94 h 0.81 l 2,-1 v 4.12 l -2,-1 h -0.81 v 3.47 l -0.17,0.34 h 2.86 -0.05 l 2,-1 v 3.13 h -8.74 l 1,-2 v -9.51 l -1,-2 z"
                id="path2420"/>
          <path style="fill:#3c3c3b"
                d="m 209,19.17 h 2.7 l 0.29,-0.53 V 16 l -0.31,-0.63 h -2.92 L 209,15.9 Z m 3,2.63 -0.26,-0.51 H 209 v 5.44 h -4.06 l 1,-2 v -9.46 l -1,-2 H 214 l 1,2 v 3.13 l -0.53,1.13 -1.45,0.72 1.3,0.7 0.68,1.21 v 2.6 l 1,2 h -3 l -1,-2 z"
                id="path2422"/>
          <path style="fill:#3c3c3b"
                d="m 225.6,21.05 v 3.66 l -1,2 h -7.08 v -3.13 l 2,1 h 3.32 L 223.15,24 v -1.55 l -0.28,-0.51 -4.34,-1.51 -1,-2 v -3.16 l 1,-2 h 6.72 v 3.13 l -2,-1 h -3 L 220,16 v 1.1 l 0.24,0.51 4.39,1.52 z"
                id="path2424"/>
          <path style="fill:#3c3c3b"
                d="m 233.27,16 -0.29,-0.63 h -2.38 l -0.27,0.58 v 8.16 l 0.24,0.51 H 233 l 0.24,-0.51 z m -5,10.73 -1,-2 v -9.46 l 1,-2 h 7.05 l 1,2 v 9.49 l -1,2 z"
                id="path2426"/>
          <path style="fill:#3c3c3b"
                d="m 248.68,13.25 -1,2 v 11.48 h -2.27 l -4.23,-7.36 0.09,0.45 v 4.89 l 1,2 H 238 l 1,-2 v -9.44 l -1,-2 h 3.25 l 4.19,7.49 v -0.68 -4.81 l -1,-2 z"
                id="path2428"/>
        </g>
        <g id="text2721">
          <path style="fill:#3c3c3b"
                d="m 255.29,25.14 h 1.26 l 0.2,-0.37 v -6.65 l -0.76,-1.5 h 3.79 L 259,18.1 v 7.14 l -0.76,1.49 h -4.46 V 24.4 Z"
                id="path2725"/>
          <path style="fill:#3c3c3b"
                d="m 263.83,21.06 h 2 l 0.22,-0.39 v -2 l -0.23,-0.47 h -2.19 l 0.18,0.4 z m 2.24,2 -0.2,-0.38 h -2 v 4.08 h -3.05 l 0.76,-1.49 v -7.1 l -0.76,-1.52 h 6.83 l 0.75,1.5 v 2.35 l -0.39,0.85 -1.09,0.54 1,0.52 0.5,0.9 v 2 l 0.76,1.49 h -2.29 l -0.76,-1.48 z"
                id="path2727"/>
        </g>
      </g>
      <g id="g4715">
        <path id="path4709" style="fill:#3c3c3b"
              d="m 402.63,327 c 0.6,0 0.74,0.17 0.74,0.35 a 0.62,0.62 0 0 1 -0.11,0.32 l -0.38,0.1 c -4.9,0.88 -7.33,6.72 -7.33,11.13 0,2.32 1.31,5.94 4.05,5.94 1.94,0 2.89,-2.11 2.89,-4.22 0,-2.11 -1,-4.33 -3,-4.33 a 4,4 0 0 0 -1.83,0.46 4.73,4.73 0 0 0 -1.55,1.19 v -0.14 a 4,4 0 0 1 0.07,-0.77 1.16,1.16 0 0 1 0.6,-1 6.54,6.54 0 0 1 3.34,-1 c 3.52,0 5.11,2.32 5.11,4.86 a 6.09,6.09 0 0 1 -6,6.26 c -3.27,0 -6.72,-2.25 -6.72,-7.07 -0.02,-5.5 4.63,-12.08 10.12,-12.08 z"/>
        <path id="path4711" style="fill:#3c3c3b"
              d="m 412.48,337.21 a 37.7,37.7 0 0 0 4.26,-0.25 2,2 0 0 1 0.07,0.39 c 0,0.74 -2.5,1.06 -4.4,1.16 v 1 c 0,1.2 0.07,2.36 0.21,3.88 -0.8,0 -2.11,-0.53 -2.11,-1.34 0,-0.81 0,-2.18 0,-3.49 h -0.18 a 18.1,18.1 0 0 1 -2.32,-0.17 1.62,1.62 0 0 1 -1.41,-1.59 c 0,-0.35 0.14,-0.6 0.39,-0.6 a 6.84,6.84 0 0 0 3.59,0.95 c 0.17,-2.6 0.63,-5 1.76,-5 a 1.37,1.37 0 0 1 0.77,0.31 c -0.31,2 -0.52,3.48 -0.63,4.75 z"/>
        <path id="path4713" style="fill:#3c3c3b"
              d="m 421.49,326.23 c 0,-0.18 0.14,-0.32 0.29,-0.32 0.31,0 1.09,0.42 1.09,0.7 a 70.77,70.77 0 0 0 -0.64,9.16 58.1,58.1 0 0 0 0.64,8.66 3.63,3.63 0 0 1 -2.33,1.3 0.58,0.58 0 0 1 -0.6,-0.39 10.34,10.34 0 0 1 -0.38,-3.38 87.26,87.26 0 0 1 1.44,-13.34 c -0.85,1.13 -2.54,2.92 -4,2.92 -0.25,0 -0.32,-0.1 -0.32,-0.21 a 0.71,0.71 0 0 1 0.21,-0.39 c 1.75,-0.88 4.43,-3.94 4.6,-4.71 z"/>
      </g>
    </g>
  </g>
</svg>
