<?xml version="1.0" encoding="UTF-8" standalone="no"?>
<svg
   width="30.48mm"
   height="128.5mm"
   viewBox="0 0 30.48 128.50002"
   version="1.1"
   id="svg4541"
   sodipodi:docname="LalaStereo2.svg"
   inkscape:version="1.2.2 (732a01da63, 2022-12-09, custom)"
   inkscape:export-filename="/home/curlymorphic/dev/VCVModuleIdeas/res/bandsplit.png"
   inkscape:export-xdpi="100.296"
   inkscape:export-ydpi="100.296"
   xmlns:inkscape="http://www.inkscape.org/namespaces/inkscape"
   xmlns:sodipodi="http://sodipodi.sourceforge.net/DTD/sodipodi-0.dtd"
   xmlns="http://www.w3.org/2000/svg"
   xmlns:svg="http://www.w3.org/2000/svg"
   xmlns:rdf="http://www.w3.org/1999/02/22-rdf-syntax-ns#"
   xmlns:cc="http://creativecommons.org/ns#"
   xmlns:dc="http://purl.org/dc/elements/1.1/">
  <title
     id="title4354">SSPO 3HP template</title>
  <defs
     id="defs4535" />
  <sodipodi:namedview
     id="base"
     pagecolor="#ffffff"
     bordercolor="#666666"
     borderopacity="1.0"
     inkscape:pageopacity="0.0"
     inkscape:pageshadow="2"
     inkscape:zoom="1.8101934"
     inkscape:cx="97.227182"
     inkscape:cy="326.76067"
     inkscape:document-units="mm"
     inkscape:current-layer="layer1"
     showgrid="false"
     fit-margin-top="0"
     fit-margin-left="0"
     fit-margin-right="0"
     fit-margin-bottom="0"
     inkscape:window-width="1846"
     inkscape:window-height="1016"
     inkscape:window-x="74"
     inkscape:window-y="27"
     inkscape:window-maximized="1"
     units="mm"
     inkscape:snap-bbox="true"
     inkscape:bbox-paths="false"
     inkscape:bbox-nodes="false"
     inkscape:snap-global="true"
     showborder="true"
     inkscape:document-rotation="0"
     inkscape:snap-bbox-edge-midpoints="false"
     inkscape:snap-nodes="false"
     inkscape:snap-others="false"
     inkscape:snap-bbox-midpoints="true"
     inkscape:showpageshadow="2"
     inkscape:pagecheckerboard="0"
     inkscape:deskcolor="#d1d1d1">
    <inkscape:grid
       type="xygrid"
       id="grid5963"
       spacingx="0.50800005"
       units="mm"
       originx="0"
       originy="0" />
  </sodipodi:namedview>
  <metadata
     id="metadata4538">
    <rdf:RDF>
      <cc:Work
         rdf:about="">
        <dc:format>image/svg+xml</dc:format>
        <dc:type
           rdf:resource="http://purl.org/dc/dcmitype/StillImage" />
        <dc:title>SSPO 3HP template</dc:title>
        <dc:identifier>SSPO 3HP template</dc:identifier>
      </cc:Work>
    </rdf:RDF>
  </metadata>
  <g
     inkscape:label="Layer 1"
     inkscape:groupmode="layer"
     id="layer1"
     transform="translate(-6.6477068,-63.816955)"
     style="display:inline">
    <g
       transform="matrix(0.63396503,0,0,0.67817022,37.290343,103.58861)"
       id="g18149"
       style="fill:#f9f9f9">
      <path
         id="path18143"
         style="display:inline;fill:#f9f9f9;fill-opacity:1;fill-rule:nonzero;stroke:none;stroke-width:0.0083444"
         d="m -16.273696,123.89565 c -0.01952,-0.059 -0.08581,-0.0395 -0.08051,0.0303 0.0053,0.0699 0.10003,0.0287 0.08051,-0.0303 z m 0.355604,-3.45683 c -0.01221,0.0116 -0.01761,0.0276 -0.01936,0.0412 -0.0068,0.0532 -0.112321,0.0852 -0.05311,0.1306 0.0515,0.0394 0.06902,-0.0665 0.107983,-0.10061 0.0102,-0.009 0.01799,-0.0239 0.01831,-0.042 4.56e-4,-0.0264 -0.03575,-0.0464 -0.05383,-0.0291 z m -0.305069,3.932 c 0.0084,-0.0191 0.01109,-0.0413 0.01052,-0.0648 -9.11e-4,-0.029 -0.02547,-0.0711 -0.03961,-0.0609 -0.03623,0.0258 -0.09955,0.0321 -0.101635,0.0888 -9.11e-4,0.0257 0.011,0.0438 0.02892,0.0569 0.02892,0.0211 0.08717,0.0131 0.101797,-0.02 z m -0.786331,-5.16834 c 0.04917,-0.0388 0.09762,-0.079 0.155545,-0.10096 0.145828,-0.0554 0.277191,-0.14144 0.413535,-0.21753 0.06821,-0.038 0.148558,-0.0528 0.224885,-0.0711 0.04941,-0.0119 0.07954,0.0192 0.09111,0.0723 0.02354,0.10764 0.07777,0.20072 0.122686,0.2983 0.03093,0.0673 0.06219,0.13528 0.03873,0.21414 -0.02,0.0677 -0.0025,0.11267 0.06532,0.1274 0.06933,0.015 0.07866,-0.0371 0.08789,-0.0908 0.002,-0.0121 0.0027,-0.0261 0.01068,-0.0362 0.01278,-0.0163 0.05592,0.002 0.06934,0.0337 0.0077,0.0184 0.01262,0.0393 0.0164,0.0606 0.0151,0.0848 0.02852,0.16943 0.02892,0.2567 0.0016,0.33244 0.0021,0.66436 -0.07247,0.99056 -0.02041,0.0893 -0.04716,0.18381 0.07793,0.21952 0.03479,0.01 0.02587,0.0578 0.02442,0.0915 -0.0041,0.0973 -0.0064,0.19481 -0.01478,0.29179 -0.0018,0.0215 -5.9e-5,0.0409 0.0045,0.0593 0.0079,0.0319 0.02009,0.0934 0.01742,0.14126 -0.0026,0.0478 -0.02066,0.11621 -0.03656,0.15469 -0.0093,0.0225 -0.01615,0.0462 -0.0164,0.0735 -6.83e-4,0.0892 -0.0059,0.17844 -0.0052,0.26745 0.0011,0.13961 0.0233,0.26692 0.02892,0.28538 0.0056,0.0184 9.11e-4,0.11483 -0.008,0.22099 -0.0089,0.10608 0.02587,0.24223 0.03752,0.3093 0.0068,0.0389 0.0092,0.0793 0.0078,0.12298 -0.0018,0.059 -0.003,0.12003 0.0041,0.18008 0.01166,0.0988 0.04596,0.1839 0.05182,0.19812 0.0059,0.0142 0.01567,0.0255 0.01808,0.0324 0.0024,0.007 0.0045,0.0239 0.01182,0.0382 0.0072,0.0142 0.03969,0.13199 0.09923,0.256 0.03865,0.0806 0.09239,0.15105 0.175152,0.20219 0.04282,0.0264 0.04612,0.0767 0.05391,0.1202 0.02828,0.15807 0.05198,0.3171 0.0789,0.47535 0.0081,0.0477 -0.0047,0.0835 -0.02467,0.12791 -0.05182,0.11561 -0.149759,0.1924 -0.204072,0.30488 -0.01694,0.0351 -0.06058,0.0645 -0.09513,0.0318 -0.0748,-0.0707 -0.128229,-0.007 -0.185836,0.0254 -0.03262,0.0181 -0.0597,0.048 -0.08902,0.0729 -0.05536,0.0469 -0.08002,0.0679 -0.100913,0.053 -0.05447,-0.0389 -0.08822,-0.0868 -0.106618,-0.0437 -0.01052,0.0247 -0.01398,0.052 -0.0086,0.0839 0.0038,0.0227 0.0094,0.0452 0.011,0.0681 0.0041,0.0579 0.0077,0.12193 -0.04539,0.15408 -0.05865,0.0356 -0.09794,-0.017 -0.137148,-0.0555 -0.009,-0.009 -0.0184,-0.0173 -0.03029,-0.0277 -0.01703,-0.015 -0.04323,0.0809 -0.132007,0.14689 -0.05013,0.0374 -0.114009,0.0525 -0.185918,0.0532 -0.04523,4.9e-4 -0.07255,0.0278 -0.09963,0.0575 -0.04523,0.0493 -0.157798,-10e-4 -0.228983,-0.0959 -0.04106,-0.0546 -0.07448,-0.11665 -0.08099,-0.19889 -0.0031,-0.0399 -0.0413,-0.0628 -0.06685,-0.0919 -0.0515,-0.0591 -0.141166,-0.0854 -0.141567,-0.1943 0,-0.024 -0.04893,-0.0514 -0.07882,-0.0712 -0.06645,-0.0438 -0.114571,-0.0185 -0.119634,0.066 -0.0026,0.0438 -0.0027,0.0877 -0.0023,0.1345 6.83e-4,0.0744 -0.04587,0.0782 -0.07102,-0.009 -0.02515,-0.087 -0.03093,-0.22524 -0.07295,-0.29804 -0.02531,-0.044 -0.0564,-0.0871 -0.04965,-0.14186 0.0067,-0.054 0.0084,-0.10868 0.0086,-0.16354 4.78e-4,-0.0905 0.02193,-0.26137 0.0229,-0.384 5.46e-4,-0.074 -0.0031,-0.1482 -0.0024,-0.22212 0.0025,-0.28192 7.29e-4,-0.56392 6.38e-4,-0.84592 7.29e-4,-0.0117 0.0014,-0.0235 0.0021,-0.0352 0.0011,-0.0194 0.02852,-0.0587 0.02772,-0.0975 -7.97e-4,-0.0389 -0.01406,-0.0849 -0.0092,-0.10668 0.0048,-0.0218 0.04668,-0.12687 0.06693,-0.2424 0.02031,-0.11543 0.01205,-0.22107 0.01294,-0.23251 9.11e-4,-0.0113 0.03463,-0.11639 0.04315,-0.24067 0.0051,-0.075 0.0065,-0.15053 0.01904,-0.22437 6.84e-4,-0.007 0.0014,-0.0129 0.0023,-0.0193 0.0011,-0.0107 0.02322,-0.0615 0.02788,-0.11873 0.0046,-0.0571 -4.56e-4,-0.12757 6.83e-4,-0.15695 0.0011,-0.0295 0.03704,-0.12869 0.04226,-0.22974 0.0052,-0.10114 -0.04001,-0.14204 -0.107099,-0.11968 -0.0425,0.0141 -0.0842,0.0198 -0.124454,0.0285 -0.02539,0.005 -0.04644,0.0147 -0.06556,0.0266 -0.03366,0.0209 -0.07866,0.0399 -0.106215,0.0409 -0.02748,9.8e-4 -0.112081,0.0176 -0.172982,0.0645 -0.06098,0.0468 -0.105975,0.10746 -0.117464,0.11847 -0.01149,0.0111 -0.03889,0.0233 -0.06066,0.0407 -0.02169,0.0173 -0.03495,0.041 -0.0421,0.0461 -0.0072,0.005 -0.05303,0.0189 -0.09119,0.0557 -0.03816,0.0368 -0.07448,0.0847 -0.09842,0.0908 -0.02402,0.006 -0.153217,-0.0132 -0.238543,0.0751 -0.05126,0.053 -0.09304,0.12272 -0.152816,0.16041 -0.04917,0.0309 0.01607,0.094 -0.0417,0.10911 -0.01752,0.004 -0.03134,-0.002 -0.04427,-0.0104 -0.02201,-0.0144 -0.03848,-0.0743 -0.05198,-0.13199 -0.0099,-0.0424 -0.01952,-0.0811 -0.0059,-0.10521 0.05937,-0.10512 0.02772,-0.24525 0.130238,-0.33322 0.02049,-0.0176 0.0425,-0.0406 0.06034,-0.0678 0.02772,-0.0426 0.05632,-0.10192 0.07882,-0.12731 0.0225,-0.0254 0.04017,-0.0588 0.05158,-0.0653 0.0072,-0.004 0.0139,-0.008 0.01904,-0.0144 0.0785,-0.0912 0.1819,-0.17601 0.06532,-0.31701 -0.0057,-0.007 -0.0019,-0.023 0.0035,-0.0408 0.0068,-0.0223 0.03463,-0.0571 0.05375,-0.086 0.01912,-0.0289 0.0707,-0.15833 0.146629,-0.27152 0.123892,-0.18459 0.26803,-0.35115 0.424381,-0.5068 0.01719,-0.0172 0.0376,-0.0317 0.05463,-0.0494 0.02828,-0.0294 0.06444,-0.0882 0.09625,-0.12297 0.03173,-0.0348 0.07135,-0.077 0.08613,-0.10054 0.01486,-0.0236 0.0196,-0.0506 0.02402,-0.058 0.0044,-0.007 0.0384,-0.0392 0.07295,-0.0797 0.03447,-0.0405 0.08701,-0.11977 0.132408,-0.17116 0.04539,-0.0514 0.158761,-0.12349 0.239908,-0.18762" />
      <path
         id="path18145"
         style="display:inline;fill:#f9f9f9;fill-opacity:1;fill-rule:nonzero;stroke:none;stroke-width:0.0083444"
         d="m -28.849701,123.55246 c 3.19e-4,-0.0225 0.0044,-0.0457 0,-0.0669 -0.0065,-0.0315 -0.02989,-0.0473 -0.05921,-0.0464 -0.02692,7.4e-4 -0.0662,0.01 -0.0597,0.0407 0.0135,0.0638 -0.02233,0.10625 -0.03824,0.15782 -0.0086,0.0279 6.38e-4,0.0614 0.02378,0.0771 0.02362,0.0161 0.05118,0.003 0.07464,-0.0126 0.05407,-0.0351 0.05865,-0.0903 0.05873,-0.14976 z m -4.386329,0.75137 c -0.0036,-0.0347 -0.0079,-0.0688 -0.01478,-0.10227 -0.01615,-0.0785 -0.03993,-0.1553 -0.06323,-0.23182 -0.0099,-0.0323 -0.02619,-0.0711 -0.06436,-0.0636 -0.05375,0.0104 -0.03969,0.0621 -0.03262,0.0973 0.02708,0.13528 0.07006,0.26519 0.127748,0.38895 0.0043,0.009 0.01181,0.0169 0.02571,0.0186 0.01776,0.002 0.0274,-0.0503 0.02153,-0.10712 z m 0.676582,0.15478 c -0.07223,-0.13502 -0.142692,-0.26667 -0.213636,-0.39787 -0.0139,-0.0257 -0.02418,-0.0496 -0.01872,-0.0803 0.02185,-0.12211 -0.06283,-0.18416 -0.126543,-0.25757 -0.0241,-0.0278 -0.05504,-0.0351 -0.08725,-0.0213 -0.03905,0.0166 -0.03455,0.0533 -0.02772,0.0873 0.009,0.0446 0.01896,0.0893 0.03174,0.13268 0.06042,0.20539 0.180936,0.37291 0.28691,0.55144 0.03431,0.0578 0.07159,0.10192 0.115133,0.13502 0.07721,0.0588 0.10477,-0.0284 0.04009,-0.14941 z m 1.415911,-1.00859 c -0.0098,-0.0327 -0.0052,-0.0698 0.02804,-0.11734 0.03214,-0.0461 0.0096,-0.1313 -0.06693,-0.14256 -0.04475,-0.007 -0.07978,-0.03 -0.119714,-0.044 -0.02426,-0.009 -0.04507,-0.008 -0.06243,0.001 -0.03182,0.0168 -0.06187,0.0406 -0.08758,0.0448 -0.01551,0.003 -0.03085,0.008 -0.04644,0.008 -0.103725,0.006 -0.210905,0.0106 -0.303623,-0.0503 -0.08428,-0.0555 -0.140361,-0.0264 -0.17973,0.0794 -0.03696,0.0994 -0.01543,0.19959 -0.0282,0.29838 -0.0022,0.0166 -0.0032,0.0369 0.0036,0.0506 0.06709,0.13502 0.142049,0.26597 0.169688,0.41988 0.0025,0.0135 0.02041,0.0252 0.03302,0.035 0.155065,0.12055 0.334233,0.19127 0.504644,0.27984 0.03246,0.0169 0.07263,0.0222 0.109429,0.0229 0.122766,0.002 0.245774,0.004 0.367657,-0.0156 0.148959,-0.0243 0.154824,-0.0348 0.169124,-0.19421 0.0049,-0.0548 0.01543,-0.10227 -0.04805,-0.12584 -0.02459,-0.009 -0.04588,-0.0329 -0.0503,-0.0632 -0.01583,-0.10815 -0.06813,-0.18043 -0.133532,-0.23971 -0.09914,-0.0899 -0.238944,-0.18147 -0.258709,-0.24794 z m 1.593714,-1.1417 c 0.0245,0.0282 -0.04572,0.0698 -0.09312,0.0534 -0.04732,-0.0164 -0.05375,0.023 -0.0011,0.0463 0.05255,0.0233 0.09746,-0.0653 0.118025,-0.0605 0.01141,0.003 0.02233,0.0148 0.03101,0.0229 0.02555,0.0235 0.05038,0.0478 0.07504,0.0725 0.04081,0.0409 0.08171,0.0859 0.09183,0.10001 0.0079,0.0109 0.01414,0.0213 0.01181,0.0286 -0.01993,0.0631 -0.01189,0.10841 0.01165,0.14421 0.04459,0.0679 0.112161,0.0889 0.114652,0.0868 0.0024,-0.002 0.0027,-0.002 5.69e-4,4.9e-4 -0.0022,0.003 0.04837,0.0907 0.124936,0.18711 0.04588,0.0578 0.092,0.11587 0.128712,0.18269 0.02402,0.0436 0.0519,0.0919 0.08942,0.12947 0.06074,0.0609 0.192345,0.14404 0.201665,0.26173 0.0055,0.0706 0.0012,0.14342 0.01004,0.21336 9.57e-4,0.007 0.01213,0.0113 0,0.0216 -0.115294,0.0985 -0.137389,0.26545 -0.245694,0.3762 -0.07271,0.0744 -0.119392,0.18564 -0.188809,0.27256 -0.02804,0.0351 -0.04973,0.0781 -0.09135,0.0935 -0.05182,0.0193 -0.07167,0.0593 -0.09071,0.11058 -0.0331,0.089 -0.08653,0.14837 -0.186721,0.16371 -0.09939,0.0152 -0.199415,0.0507 -0.22159,0.18728 -0.0093,0.0574 -0.06034,0.0804 -0.105252,0.0974 -0.06034,0.0228 -0.122846,0.0419 -0.185837,0.0533 -0.187364,0.0339 -0.365488,0.12089 -0.561208,0.10919 -0.04065,-0.002 -0.08653,0.0121 -0.123248,0.0328 -0.23083,0.13 -0.48271,0.17974 -0.734509,0.22992 -0.02483,0.005 -0.05335,7e-5 -0.07818,-0.008 -0.120516,-0.0375 -0.241114,-0.0252 -0.364764,-0.0221 -0.210422,0.005 -0.423095,-0.0116 -0.616564,-0.12419 -0.0515,-0.03 -0.105493,-0.0627 -0.161814,-0.0739 -0.174428,-0.0347 -0.288115,-0.165 -0.407025,-0.2865 -0.376976,-0.38531 -0.526257,-0.87955 -0.578079,-1.41972 -0.0055,-0.0581 -0.0047,-0.11492 0.0043,-0.17246 0.07859,-0.49753 0.232286,-0.96517 0.438049,-1.41972 0.08645,-0.191 0.184551,-0.3684 0.330858,-0.49103 0.141727,-0.11873 0.267627,-0.25783 0.405498,-0.38097 0.09979,-0.0891 0.235571,-0.11969 0.289562,-0.14023 0.03101,-0.0118 0.05954,-0.0351 0.08806,-0.0581 0.05439,-0.0439 0.113929,-0.0797 0.170813,-0.11752 0.07761,-0.0516 0.160126,-0.0968 0.237579,-0.15001 0.109188,-0.075 0.278072,-0.20063 0.401401,-0.24318 0.126382,-0.0437 0.253487,-0.0853 0.377298,-0.13866 0.156269,-0.0674 0.33367,-0.0894 0.499019,-0.08 0.17957,0.0103 0.361873,-0.0296 0.538712,0.0219 0.207369,0.0604 0.399553,0.14308 0.525051,0.31831 0.07914,0.11059 0.02033,0.3022 -0.09593,0.2723 -0.116259,-0.03 -0.229062,-0.0412 -0.226893,-0.0149 0.0014,0.0162 0.01253,0.029 0.02073,0.0416 0.02989,0.0451 0.01671,0.075 -0.027,0.0932 -0.02804,0.0117 -0.06693,0.002 -0.07681,0.0471 -0.01358,0.062 -0.05825,0.0523 -0.08677,0.03 -0.07809,-0.0608 -0.165027,-0.0678 -0.255013,-0.0653 -0.04467,0.001 -0.119794,-0.0459 -0.100752,0.0677 6.37e-4,0.004 -0.0027,0.009 -0.0057,0.0121 -0.102519,0.0891 -0.102519,0.0891 7.98e-4,0.19057 0.002,0.002 0.0036,0.004 0.0053,0.007 0.0026,0.004 -0.01278,0.0389 -0.04797,0.0431 -0.01985,0.002 -0.04049,-0.005 -0.0597,-0.0204 -0.08484,-0.0663 -0.177321,-0.0967 -0.281206,-0.0876 -0.03495,0.003 -0.05994,-0.0211 -0.08862,-0.0352 -0.03945,-0.0195 -0.08645,-0.0437 -0.123008,-0.0264 -0.09376,0.0441 -0.186801,0.006 -0.273494,-0.006 -0.07697,-0.0109 -0.138755,0.004 -0.193388,0.0406 -0.107662,0.0731 -0.2285,0.11778 -0.334716,0.19188 -0.172339,0.1202 -0.329493,0.25479 -0.385412,0.48496 -0.01736,0.0714 -0.06436,0.13164 -0.07729,0.20661 -0.0027,0.0156 -0.0039,0.0295 -0.001,0.0416 0.0054,0.0225 0.02491,0.0424 0.03117,0.0532 0.0033,0.006 0.0087,0.009 0.01896,0.005 0.0021,-7.4e-4 0.0026,-0.007 0.0028,-0.0146 2.51e-4,-0.008 0.02073,-0.0282 0.04547,-0.044 0.02483,-0.0158 0.07295,-0.0232 0.108305,-0.0208 0.02089,0.001 0.0413,0.005 0.05921,0.0225 0.01816,0.0174 0.01029,0.0423 0.0079,0.0665 -0.0039,0.0387 0.109268,0.007 0.212431,-0.0484 0.06203,-0.0334 0.125739,-0.0638 0.192184,-0.0874 0.02619,-0.009 0.04901,-0.0186 0.06492,-0.0452 0.0319,-0.0534 0.07657,-0.0799 0.136505,-0.0646 0.05849,0.0149 0.03889,0.0725 0.05271,0.11275 0.02418,0.0706 0.1026,0.11301 0.134818,0.0661 0.06379,-0.0926 0.166956,-0.0632 0.2424,-0.1163 0.04572,-0.0322 0.11208,-0.0324 0.169848,-0.0411 0.01824,-0.003 0.0409,0.0103 0.04901,0.0361 0.0084,0.0269 -0.0043,0.0487 -0.02217,0.0588 -0.01671,0.01 -0.03439,0.0172 -0.05231,0.0243 -0.02949,0.0117 0.02732,0.0423 0.129275,0.0497 0.0568,0.004 0.10959,-0.012 0.150405,-0.0925 0.0058,-0.0114 0.02282,-0.0161 0.04194,-0.0196 0.02571,-0.005 0.06452,-0.003 0.08677,0.004 0.02226,0.007 0.0458,0.035 0.05247,0.0621 0.004,0.0164 0.0078,0.0328 0.01085,0.0495 0.02201,0.12064 0.0319,0.1313 0.135461,0.13485 0.03688,0.001 0.07392,0.001 0.108224,-0.0172 0.05351,-0.029 0.101315,-0.0228 0.142451,0.0263 0.01125,0.0133 0.0237,0.0237 0.03768,0.0304 0.02378,0.0115 0.0597,0.035 0.0842,0.0632" />
      <path
         id="path18147"
         style="display:inline;fill:#f9f9f9;fill-opacity:1;fill-rule:nonzero;stroke:none;stroke-width:0.0083444"
         d="m -23.257898,121.11114 c -0.0059,-0.006 -0.0135,-0.005 -0.01695,0.002 -0.0023,0.005 -0.0041,0.01 -0.0033,0.0138 0.0014,0.008 0.01149,0.0191 0.01832,0.0196 0.0063,4.9e-4 0.01052,-0.003 0.01253,-0.008 0.0032,-0.009 -0.0047,-0.0214 -0.01061,-0.0275 z m -0.02354,-0.60127 c -0.0039,0.006 -0.0056,0.014 -0.0067,0.0223 -0.0031,0.0243 0.0033,0.0451 0.02812,0.0484 0.01816,0.002 0.02555,-0.0157 0.02491,-0.0317 -4.32e-4,-0.0108 -0.0011,-0.0222 -0.0052,-0.0315 -0.0069,-0.0162 -0.03431,-0.0183 -0.04114,-0.007 z m 0.05222,0.98623 c -0.0053,-0.0618 -0.02692,-0.0653 -0.0409,-0.007 -0.0139,0.0584 0.04612,0.0689 0.0409,0.007 z m -0.07472,-0.60924 c 0.01028,0.0678 0.05383,0.0655 0.0458,-0.002 -0.008,-0.0679 -0.05608,-0.0655 -0.0458,0.002 z m -1.6232,3.277 c -0.02909,0.13563 0.04724,0.25522 0.04411,0.39154 -0.0055,0.24474 0.05335,0.48514 0.08275,0.7278 0.0039,0.0318 0.0184,0.0578 0.04821,0.0583 0.03037,4.9e-4 0.04531,-0.0268 0.04925,-0.0575 0.0036,-0.0285 0.0086,-0.0577 0.0061,-0.086 -0.0096,-0.10893 -0.0014,-0.21908 -0.02499,-0.32724 -0.02732,-0.12523 -0.0274,-0.25505 -6e-5,-0.37733 0.02917,-0.13103 0.09987,-0.25254 0.04628,-0.39536 -0.0056,-0.015 0.01229,-0.0423 0.02258,-0.062 0.02153,-0.0413 0.03157,-0.0854 0.03374,-0.13217 0.0095,-0.20617 -0.03182,-0.40905 -0.03318,-0.61453 -2.5e-4,-0.0294 -0.01037,-0.073 -0.03383,-0.0712 -0.06179,0.005 -0.123811,0.0205 -0.183425,0.04 -0.04539,0.0149 -0.03302,0.0647 -0.03913,0.10313 -0.02804,0.17705 0.03174,0.36043 -0.03125,0.53419 -0.03366,0.0929 0.03471,0.17783 0.01285,0.26831 z m 1.811849,-3.36245 c 0.0031,0.0581 -0.018,0.11205 -0.04668,0.12358 -0.01631,0.007 -0.02852,0.0179 -0.02603,0.0466 0.0023,0.0253 0.01101,0.0463 0.02555,0.0618 0.02515,0.0268 0.05126,0.0419 0.0466,0.0598 -0.0047,0.0179 0.0099,0.0299 0.01133,0.0297 0.0014,-2.5e-4 -0.01792,-0.0148 -0.03399,4.9e-4 -0.01599,0.0153 -0.04419,0.0475 -0.03985,0.0725 0.0021,0.0119 0.01486,0.0217 0.03166,0.0283 0.01189,0.005 0.02298,0.009 0.03254,0.0159 0.01663,0.0114 0.0051,0.0893 0.02314,0.16214 0.01093,0.0439 0.02683,0.0875 0.029,0.1326 0.0015,0.0327 0.07552,0.0864 0.110554,0.13935 0.02563,0.0387 0.08035,0.0115 0.122204,0.0112 0.144058,-7.4e-4 0.288036,-0.004 0.432094,-0.003 0.06387,4.9e-4 0.118106,0.0265 0.176517,0.0607 0.03583,0.021 0.107983,-0.0525 0.176034,-0.0415 0.04998,0.008 0.10011,0.0147 0.150325,0.0209 0.08324,0.0103 0.166474,0.0663 0.205201,0.10972 0.02579,0.029 0.05632,0.0486 0.08741,0.0493 0.09336,0.002 0.170813,0.0581 0.261361,0.0578 0.103887,-4.9e-4 0.201345,0.0545 0.313022,0.0151 0.09288,-0.0328 0.190899,0.0359 0.297758,0.0102 0.06363,-0.0153 0.129836,-0.0165 0.196442,-0.0182 0.109108,-0.003 0.210342,-0.0203 0.227857,-0.0195 0.01752,9.8e-4 0.05817,0.0156 0.06444,0.0471 0.0026,0.0132 -0.0048,0.0265 -0.0331,0.0403 -0.01872,0.009 -0.027,0.022 -0.02909,0.0368 -0.0039,0.0276 0.0082,0.0723 0.008,0.10061 -1.81e-4,0.0283 -0.0327,0.0601 -0.04861,0.0939 -0.0081,0.0173 -0.008,0.0387 0.0039,0.0661 0.0089,0.0205 0.01502,0.0507 -0.01205,0.0568 -0.124132,0.0283 -0.170893,0.15322 -0.255012,0.23113 0,0 -0.001,10e-4 -0.0021,0.002 -0.0012,0.001 -0.04298,0.0299 -0.06877,0.0835 -0.02579,0.0536 -0.0274,0.11327 -0.0466,0.12211 -0.0192,0.009 -0.03752,0.0144 -0.04098,0.0125 -0.0034,-0.002 -0.008,-4.9e-4 -0.01012,0.003 -0.0022,0.003 -0.01294,0.0113 -0.02386,0.0174 -0.01093,0.006 -0.02732,0.004 -0.03479,0.009 -0.0075,0.005 -0.0151,0.0197 -0.02651,0.025 -0.01149,0.005 -0.03077,-0.003 -0.04298,0.003 -0.01221,0.006 -0.03134,0.032 -0.03093,0.0541 2.96e-4,0.0221 0.02025,0.0736 -0.01253,0.0956 -0.03286,0.0221 -0.06211,0.0491 -0.07368,0.0513 -0.0069,10e-4 -0.0139,0.003 -0.02081,0.004 -0.123088,0.0107 -0.249148,0.006 -0.356087,0.0922 -0.02443,0.0197 -0.0572,0.0376 -0.08653,0.0384 -0.08725,0.002 -0.173063,0.0196 -0.259112,0.0339 -0.127988,0.0212 -0.267387,0.003 -0.311737,7.4e-4 -0.04427,-0.003 -0.104689,-0.0117 -0.132407,-9.8e-4 -0.01245,0.005 -0.02017,0.0187 -0.01904,0.0494 4.79e-4,0.0122 -0.0024,0.0225 -0.0072,0.0317 -0.0083,0.016 -0.03318,0.0276 -0.05029,0.0301 -0.0172,0.002 -0.07352,-5e-4 -0.122687,-0.0195 -0.02611,-0.0101 -0.0462,-0.0302 -0.04797,-0.0796 -2.96e-4,-0.008 -0.02531,-0.0208 -0.03841,-0.0201 -0.02073,9.8e-4 -0.03784,0.0108 -0.03519,0.0425 0.0095,0.11275 -0.05014,0.14845 -0.143495,0.14594 -0.01245,-2.4e-4 -0.02129,0.005 -0.02796,0.0131 -0.01165,0.0141 -0.01607,0.0305 -0.01687,0.0316 -7.97e-4,9.8e-4 -0.03591,0.0215 -0.07866,0.0452 -0.02587,0.0143 -0.05206,0.028 -0.07906,0.0393 -0.03198,0.0135 -0.06275,0.0235 -0.05945,0.066 0.0084,0.10859 -0.104448,0.20851 -0.01944,0.32334 0.0055,0.007 -0.0059,0.0297 -0.0096,0.0452 -0.03302,0.13762 -0.0331,0.13806 0.09288,0.15834 0.02226,0.004 0.04306,0.007 0.04829,0.0341 0.0068,0.0354 -0.0092,0.0528 -0.04186,0.0551 -0.104769,0.007 -0.139076,0.0825 -0.155868,0.18096 -0.01591,0.0933 -0.04025,0.20097 0.01366,0.2703 0.04644,0.0597 0.03005,0.0781 1.81e-4,0.12228 -0.02989,0.0442 -0.0127,0.14906 -0.06717,0.14057 -0.109429,-0.017 -0.06677,0.0775 -0.09657,0.11613 -0.02113,0.0275 -0.0409,0.0553 -0.05142,0.086 -0.01832,0.0532 -0.0055,0.0973 -0.01277,0.10269 -0.004,0.003 -0.0063,0.008 -0.0068,0.0149 -1.81e-4,0.002 0.0096,0.007 0.0135,0.006 0.0073,-0.002 0.01133,-0.006 0.01213,-0.0105 0.0017,-0.01 0.0507,0.0121 0.08139,-0.0337 0.01527,-0.0229 0.01599,-0.0598 0.01261,-0.0997 -0.003,-0.0345 0.0067,-0.0576 0.03616,-0.064 0.0225,-0.005 0.04266,0.0123 0.04885,0.0355 0.01028,0.0382 0.0364,0.0632 0.06556,0.0928 0.04411,0.0447 0.02394,0.0583 -0.0139,0.092 -0.02434,0.0217 -0.03286,0.0617 -0.05817,0.0707 -0.05279,0.0188 -0.116419,10e-4 -0.169849,0.0352 -0.009,0.006 -0.0233,0.0113 -0.02507,0.0195 -0.01374,0.063 -0.04572,0.0939 -0.103485,0.12393 -0.03768,0.0195 -0.03399,0.11206 -0.06259,0.16787 -0.01269,0.0248 -0.02041,0.0527 -0.03149,0.0783 -0.01848,0.0428 -0.06259,0.0199 -0.102761,0.0152 -0.04017,-0.005 -0.07576,-0.0145 -0.09071,-0.0426 -0.0088,-0.0165 -0.02201,-0.0265 -0.04652,-0.0181 -0.02041,0.007 -0.02965,0.0235 -0.03254,0.0435 -0.0047,0.0323 -0.01285,0.0855 -0.03608,0.11708 -0.0233,0.0315 -0.03141,0.0574 -0.03929,0.0538 -0.0079,-0.004 -0.01968,-0.0278 -0.04403,-0.0419 -0.02435,-0.0141 -0.02876,-0.055 -0.0229,-0.0816 0.0035,-0.0153 0.0025,-0.0304 -0.01237,-0.0446 -0.0089,-0.009 -0.03921,-0.01 -0.04258,-0.004 -0.03881,0.0711 -0.111599,0.0937 -0.165671,0.14213 -0.01245,0.0112 -0.02065,0.0268 -0.02274,0.044 -0.0035,0.0283 0.01052,0.0641 0.01028,0.0824 -2.51e-4,0.0184 -0.02282,0.0756 -0.04049,0.13207 -0.0176,0.0566 -0.01567,0.0498 -0.01985,-0.0186 -0.0043,-0.0685 -0.02571,-0.14317 -0.0409,-0.16717 -0.01527,-0.024 -0.03728,-0.0363 -0.03993,-0.0409 -0.0027,-0.005 -0.0095,-0.0542 -0.02346,-0.11136 -0.01398,-0.0572 -0.04756,-0.0211 -0.0842,0.0568 -0.02338,0.0497 -0.04845,0.0932 -0.04692,0.14811 -5.46e-4,0.012 -0.0011,0.0241 -0.0017,0.0361 -8.88e-4,0.02 -0.01856,0.0427 -0.02619,0.0616 -0.0076,0.0189 0.01117,0.005 0.0085,-0.0316 -0.0026,-0.0365 -0.0099,-0.0945 -0.0057,-0.13181 0.0025,-0.0226 0.0046,-0.0452 0.0048,-0.0679 5.46e-4,-0.0467 -0.01101,-0.0919 -0.04789,-0.12202 -0.03599,-0.0293 -0.05528,0.0172 -0.08324,0.0252 -0.07488,0.0215 -0.123168,-0.009 -0.147191,-0.0867 -0.01012,-0.0326 -0.01976,-0.0654 -0.02643,-0.099 -0.01671,-0.084 -0.08259,-0.0677 -0.127105,-0.059 -0.05359,0.0105 -0.02627,0.0594 -0.01535,0.0968 0.0048,0.0162 0.0081,0.0329 0.01101,0.0497 0.0048,0.0277 -0.04644,0.022 -0.0838,-0.0423 -0.02233,-0.0385 -0.03431,-0.0828 -0.03487,-0.13026 -0.0019,-0.16613 -0.03294,-0.32845 -0.05495,-0.49173 -0.01872,-0.13814 0.01518,-0.25955 0.0139,-0.29647 -7.29e-4,-0.0216 -0.0069,-0.0465 0.0054,-0.0653 0.03728,-0.0566 0.04411,-0.10798 0.02418,-0.14967 -0.03752,-0.0786 -0.119472,-0.0959 -0.11899,-0.1072 5.46e-4,-0.0112 0.03061,0.008 0.07488,0.0129 0.02523,0.003 0.03278,-0.0177 0.03535,-0.0657 0.0015,-0.0278 -0.0013,-0.0562 -0.0051,-0.0839 -0.0087,-0.0617 -0.01639,-0.0876 -0.04162,-0.0822 -0.05255,0.0114 -0.08396,0.0141 -0.08597,-0.0354 -0.002,-0.0495 -0.01269,-0.0497 0.01559,-0.0373 0.01342,0.006 0.03206,-0.002 0.05046,-0.0179 0.05142,-0.0439 0.05335,-0.1072 0.04097,-0.17185 -0.0069,-0.0363 -0.01374,-0.0725 -0.02057,-0.10885 -0.01125,-0.0601 0.01936,-0.13008 0.02161,-0.17722 0.0023,-0.0472 -0.01069,-0.10504 -0.01334,-0.13425 -0.0027,-0.0291 0.01085,-0.0991 0.0077,-0.16509 -0.0019,-0.0394 -0.0098,-0.0792 -0.01221,-0.11882 -0.0018,-0.0317 -0.01157,-0.064 -0.03873,-0.067 -0.0756,-0.008 -0.152092,-0.0289 -0.227858,-0.0335 -0.126783,-0.008 -0.239667,0.0614 -0.265538,0.0643 -0.01559,0.002 -0.03117,0.003 -0.04684,0.005 -0.08629,0.008 -0.170571,0.0208 -0.252443,-0.0365 -0.03005,-0.0211 -0.08653,-0.0179 -0.12365,-0.004 -0.109269,0.0422 -0.247863,-0.0136 -0.332144,0.11942 -0.01503,0.0238 -0.0658,0.0337 -0.104047,0.0211 -0.03929,-0.0129 -0.0597,-0.004 -0.07143,0.0139 -0.02459,0.0383 -0.02057,0.0799 -0.01985,0.079 6.38e-4,-9.9e-4 -0.01591,0.008 -0.03881,0.007 -0.0229,-0.001 -0.04009,-0.0299 -0.03873,-0.0593 0.0013,-0.0294 0.01117,-0.0597 0.02177,-0.0678 0.0065,-0.005 0.01277,-0.01 0.01848,-0.0157 0.02788,-0.0284 0.05367,-0.0634 0.03093,-0.10408 -0.02057,-0.0368 -0.05688,-0.0114 -0.08621,-0.007 -0.09336,0.0146 -0.186078,0.0354 -0.280885,0.006 -0.02434,-0.008 -0.03913,1.7e-4 -0.04989,0.0139 -0.01953,0.0251 -0.03302,0.0551 -0.04114,0.0591 -0.0081,0.004 -0.08316,0.012 -0.160207,-0.0209 -0.07705,-0.0328 -0.101636,-0.069 -0.07713,-0.12515 0.01326,-0.0305 0.006,-0.0591 -0.04226,-0.0889 -0.01944,-0.012 -0.01736,-0.0417 -0.0037,-0.0615 0.03125,-0.0452 0.04869,-0.0999 0.09497,-0.13502 0.0507,-0.0386 0.074,-0.0571 0.06869,-0.0768 -0.01575,-0.0592 -0.06082,-0.0925 -0.02611,-0.0982 0.02113,-0.004 0.04178,-0.008 0.05046,-0.0346 0.0015,-0.005 10e-4,-0.0114 -7.97e-4,-0.0161 -0.0016,-0.004 -0.0059,-0.009 -0.0098,-0.01 -0.0031,-9.8e-4 -0.01109,0.004 -0.01093,0.005 0.01326,0.0493 0.04893,0.0365 0.07801,0.0282 0.07456,-0.0213 0.09521,-0.0876 0.03391,-0.13529 -0.03897,-0.0303 -0.0617,-0.0664 -0.07649,-0.10572 -0.02611,-0.0696 0.01478,-0.15504 0.0515,-0.12263 0.02089,0.0185 0.03583,0.0481 0.05263,0.0728 0.02137,0.0312 0.02555,0.0756 0.06106,0.0965 0.01816,0.0107 0.03752,0.0229 0.05777,0.007 0.02306,-0.0187 0.01269,-0.0471 1.81e-4,-0.059 -0.02346,-0.0224 -0.04138,-0.0464 -0.05214,-0.0733 -0.0188,-0.0472 -0.0013,-0.092 0.0066,-0.096 0.0078,-0.004 0.02539,-9.8e-4 0.03463,-0.01 0.0093,-0.009 0.02161,-0.0645 0.04515,-0.11465 0.01454,-0.031 0.03053,-0.0606 0.0519,-0.0847 0.06982,-0.0787 0.166153,-0.11717 0.2657,-0.12324 0.06902,-0.004 0.134335,-0.0174 0.199816,-0.0367 0.0048,-0.002 0.0096,-0.004 0.01446,-0.006 0.008,-0.003 0.03599,-0.006 0.06259,-0.006 0.02659,1.7e-4 0.07809,0.0464 0.119954,0.0289 0.04178,-0.0177 0.0642,-0.0628 0.07352,-0.0648 0.0093,-0.002 0.01374,0.0363 0.02716,0.0817 0.0085,0.0288 0.02547,0.0474 0.06138,0.0341 0.09722,-0.0361 0.200379,-0.0284 0.292374,-0.0673 0.06106,-0.0258 0.110072,-0.0883 0.136746,0.0324 0.0056,0.0255 0.03374,0.0209 0.0552,0.0139 0.132328,-0.0431 0.265861,-0.0219 0.395859,0.005 0.115615,0.0243 0.09577,-0.18528 0.218617,-0.13424 0.0036,0.001 0.02057,-0.0233 0.02507,-0.0381 0.0047,-0.0158 0.0014,-0.0343 0.0028,-0.0515 0.0017,-0.0198 0.0035,-0.0396 0.0055,-0.0594 0.0033,-0.0328 0.01776,-0.10452 0.0176,-0.16163 -6e-5,-0.0571 0.0032,-0.18321 0.01583,-0.28114 0.0075,-0.0587 0.01912,-0.11656 0.04379,-0.17194 0.01109,-0.0249 0.02121,-0.0601 0.01342,-0.0834 -0.04797,-0.14377 0.02322,-0.29994 -0.04266,-0.44163 -0.01245,-0.0267 0.0039,-0.069 0.03069,-0.0662 0.05383,0.006 0.125739,0.0164 0.139719,0.0767 0.01976,0.085 0.06412,0.16536 0.04218,0.26372 -0.0086,0.0385 -0.01109,0.0793 -0.0034,0.11786 0.01294,0.0642 0.06661,0.0394 0.05415,-0.0353 -0.0074,-0.0445 -0.02153,-0.0874 -0.03993,-0.12991 -0.04146,-0.0958 0.02402,-0.18537 0.01952,-0.28192 -0.0029,-0.0627 0.07625,-0.0466 0.117223,-0.0632 0.04901,-0.0199 0.06661,-0.0467 0.06781,-0.0998 0.0015,-0.0669 -0.03913,-0.0947 -0.08701,-0.10434 -0.06845,-0.0139 -0.139237,-0.003 -0.204718,0.0202 -0.02643,0.01 -0.05174,0.0173 -0.07681,0.0188 -0.04355,0.003 -0.06267,-0.0419 -0.047,-0.0698 0.0099,-0.0174 0.01832,-0.0351 0.02137,-0.0538 0.01261,-0.0781 0.04628,-0.12107 0.09079,-0.14638 0.08291,-0.0471 0.198692,-0.0197 0.241274,-0.0347 0.02467,-0.009 0.0503,-0.02 0.0789,-0.0114 0.112482,0.034 0.196282,-0.0355 0.268431,-0.12939 0.03158,-0.0411 0.04716,-0.0858 0.06902,-0.12973 0.0096,-0.0192 0.02563,-0.0424 0.0605,-0.0117 0.08589,0.0755 0.111439,0.0692 0.139559,-0.0416 0.0067,-0.0265 0.01519,-0.0408 0.02603,-0.0477 0.02499,-0.016 0.09922,0.0618 0.127426,0.15427 0.01663,0.0543 0.02378,0.11196 0.01896,0.17393 -7.28e-4,0.01 -7.97e-4,0.0241 0.0056,0.0337 0.01061,0.0156 0.04845,-0.0166 0.04258,-0.0524 -0.0035,-0.0214 -0.01213,-0.0426 -0.01663,-0.0634 -0.0079,-0.0364 -0.0076,-0.0789 0.0016,-0.12618 0.01334,-0.0688 0.05343,-0.11197 0.07159,-0.10226 0.01816,0.01 0.05793,0.0881 0.100672,0.16908 0.04266,0.081 0.04523,0.18008 0.04652,0.20946 0.0013,0.0293 -0.0011,0.0654 -0.0017,0.086 -5.47e-4,0.0205 0.01262,0.14412 0.05608,0.26822 0.02619,0.075 0.05696,0.14872 0.07183,0.22715 0.0053,0.028 0.01318,0.0555 0.01976,0.0833 0.01093,0.0459 0.0036,0.10105 0.01253,0.11657 0.0089,0.0155 0.02675,0.0666 0.02997,0.1247" />
    </g>
    <path
       style="fill:#333333;fill-opacity:1;fill-rule:nonzero;stroke:#333333;stroke-width:0.257948"
       d="M 6.6852493,63.854498 H 37.006524 V 192.26813 H 6.6852493 Z m 0,0"
       id="path25061"
       inkscape:connector-curvature="0"
       inkscape:export-filename="/home/vortico/src/cpp/VCV/Rack/plugins/Fundamental/res/Delay.png"
       inkscape:export-xdpi="100.2962"
       inkscape:export-ydpi="100.2962" />
    <path
       style="fill:#f9f9f9;stroke:#f9f9f9;stroke-width:0.195269px;stroke-linecap:butt;stroke-linejoin:miter;stroke-opacity:1"
       d="m 21.888327,99.273194 -0.08488,12.961146"
       id="path11263" />
    <g
       transform="matrix(0.27602378,0,0,0.27602378,259.10471,28.38387)"
       aria-label="out"
       style="font-style:normal;font-weight:normal;font-size:10.2246px;line-height:1.25;font-family:sans-serif;letter-spacing:0px;word-spacing:0px;fill:#000000;fill-opacity:1;stroke:none;stroke-width:0.844236"
       id="text4973-0" />
    <rect
       style="display:inline;fill:#4d4d4d;stroke-width:0.264583"
       id="rect1741"
       width="12.402344"
       height="58.704418"
       x="8.0665359"
       y="123.76162"
       ry="1.8603516" />
    <rect
       style="display:inline;fill:#4d4d4d;stroke-width:0.264583"
       id="rect1852"
       width="12.402344"
       height="58.704418"
       x="23.412371"
       y="123.76162"
       ry="1.8603516" />
  </g>
  <g
     inkscape:groupmode="layer"
     id="layer3"
     inkscape:label="decals">
    <rect
       y="164.35863"
       x="8.9760437"
       height="10.535396"
       width="10.583327"
       id="rect5287"
       style="display:inline;fill:#333333;fill-opacity:1;stroke:#f9f9f9;stroke-width:0.321107"
       transform="translate(-6.6477068,-63.816955)" />
    <rect
       style="display:inline;fill:#333333;fill-opacity:1;stroke:#f9f9f9;stroke-width:0.321106"
       id="rect5287-6"
       width="10.583327"
       height="10.535396"
       x="8.9760437"
       y="145.83778"
       transform="translate(-6.6477068,-63.816955)" />
    <rect
       y="164.35863"
       x="24.321878"
       height="10.535396"
       width="10.583327"
       id="rect1268"
       style="display:inline;fill:#333333;fill-opacity:1;stroke:#f9f9f9;stroke-width:0.321107"
       transform="translate(-6.6477068,-63.816955)" />
    <rect
       style="display:inline;fill:#333333;fill-opacity:1;stroke:#f9f9f9;stroke-width:0.321106"
       id="rect1270"
       width="10.583327"
       height="10.535396"
       x="24.321878"
       y="145.83778"
       transform="translate(-6.6477068,-63.816955)" />
  </g>
  <g
     inkscape:groupmode="layer"
     id="layer7"
     inkscape:label="Text"
     style="display:none">
    <text
       transform="translate(-6.6477068,-63.816955)"
       id="text18157"
       y="84.483398"
       x="14.12181"
       style="font-size:2.82223px;line-height:1;font-family:sans-serif;-inkscape-font-specification:sans-serif;text-align:center;text-decoration:none;text-decoration-line:none;text-decoration-color:#000000;letter-spacing:0px;word-spacing:0px;text-anchor:middle;display:inline;fill:#000000;stroke-width:0.264583;stop-color:#000000"
       xml:space="preserve"><tspan
         style="stroke-width:0.264583"
         y="84.483398"
         x="14.12181"
         id="tspan18155"
         sodipodi:role="line">FREQ</tspan></text>
    <text
       transform="translate(-6.6477068,-63.816955)"
       id="text18161"
       y="128.00941"
       x="14.26237"
       style="font-size:2.82223px;line-height:1;font-family:sans-serif;-inkscape-font-specification:sans-serif;text-align:center;text-decoration:none;text-decoration-line:none;text-decoration-color:#000000;letter-spacing:0px;word-spacing:0px;text-anchor:middle;display:inline;fill:#000000;stroke-width:0.264583;stop-color:#000000"
       xml:space="preserve"><tspan
         style="stroke-width:0.264583"
         y="128.00941"
         x="14.26237"
         id="tspan18159"
         sodipodi:role="line">IN</tspan></text>
    <text
       transform="translate(-6.6477068,-63.816955)"
       id="text18165"
       y="145.20596"
       x="14.26237"
       style="font-size:2.82223px;line-height:1;font-family:sans-serif;-inkscape-font-specification:sans-serif;text-align:center;text-decoration:none;text-decoration-line:none;text-decoration-color:#000000;letter-spacing:0px;word-spacing:0px;text-anchor:middle;display:inline;fill:#000000;stroke-width:0.264583;stop-color:#000000"
       xml:space="preserve"><tspan
         style="stroke-width:0.264583"
         y="145.20596"
         x="14.26237"
         id="tspan18163"
         sodipodi:role="line">HIGH</tspan></text>
    <text
       transform="translate(-6.6477068,-63.816955)"
       id="text18169"
       y="163.80464"
       x="14.169353"
       style="font-size:2.82223px;line-height:1;font-family:sans-serif;-inkscape-font-specification:sans-serif;text-align:center;text-decoration:none;text-decoration-line:none;text-decoration-color:#000000;letter-spacing:0px;word-spacing:0px;text-anchor:middle;display:inline;fill:#000000;stroke-width:0.264583;stop-color:#000000"
       xml:space="preserve"><tspan
         style="stroke-width:0.264583"
         y="163.80464"
         x="14.169353"
         id="tspan18167"
         sodipodi:role="line">LOW</tspan></text>
    <text
       id="text1545"
       y="6.2797217"
       x="15.350579"
       style="font-size:8.46667px;line-height:1;font-family:sans-serif;-inkscape-font-specification:sans-serif;text-align:center;text-decoration:none;text-decoration-line:none;text-decoration-color:#000000;letter-spacing:0px;word-spacing:0px;text-anchor:middle;display:inline;fill:#000000;stroke-width:0.264583;stop-color:#000000"
       xml:space="preserve"><tspan
         style="font-style:normal;font-variant:normal;font-weight:normal;font-stretch:normal;font-size:8.46667px;font-family:Kirsty;-inkscape-font-specification:Kirsty;writing-mode:lr-tb;stroke-width:0.264583"
         y="6.2797217"
         x="15.350579"
         id="tspan1541"
         sodipodi:role="line"
         dx="0"
         dy="3.27">lala</tspan><tspan
         style="font-style:normal;font-variant:normal;font-weight:normal;font-stretch:normal;font-size:8.46667px;font-family:Kirsty;-inkscape-font-specification:Kirsty;writing-mode:lr-tb;stroke-width:0.264583"
         y="15.135884"
         x="15.350579"
         sodipodi:role="line"
         id="tspan1543"> stereo</tspan></text>
  </g>
  <g
     inkscape:groupmode="layer"
     id="layer8"
     inkscape:label="Text Path"
     style="display:inline">
    <g
       aria-label="FREQ"
       transform="translate(1.0171114,-63.816955)"
       id="text2189"
       style="font-size:2.82223px;line-height:1;font-family:sans-serif;-inkscape-font-specification:sans-serif;text-align:center;text-decoration:none;text-decoration-line:none;text-decoration-color:#000000;letter-spacing:0px;word-spacing:0px;text-anchor:middle;display:inline;fill:#f9f9f9;stroke-width:0.264583;stop-color:#000000">
      <path
         d="m 10.600913,82.425982 h 1.18236 v 0.234267 h -0.903996 v 0.606338 h 0.815801 v 0.234267 h -0.815801 v 0.982544 h -0.278364 z"
         style="fill:#f9f9f9;stroke-width:0.264583"
         id="path2222" />
      <path
         d="m 13.202656,83.518769 q 0.08957,0.03032 0.173633,0.129536 0.08544,0.09922 0.170877,0.272852 l 0.282499,0.562241 H 13.53063 l -0.263206,-0.52779 q -0.101975,-0.206706 -0.198438,-0.27423 -0.09509,-0.06752 -0.26045,-0.06752 h -0.303169 v 0.869544 h -0.278365 v -2.057416 h 0.628387 q 0.352779,0 0.526412,0.14745 0.173634,0.147451 0.173634,0.445108 0,0.194304 -0.09095,0.322462 -0.08957,0.128157 -0.261828,0.177767 z m -0.697289,-0.864032 v 0.730362 h 0.350022 q 0.201194,0 0.30317,-0.09233 0.103353,-0.09371 0.103353,-0.27423 0,-0.180524 -0.103353,-0.271475 -0.101976,-0.09233 -0.30317,-0.09233 z"
         style="fill:#f9f9f9;stroke-width:0.264583"
         id="path2224" />
      <path
         d="m 14.189334,82.425982 h 1.300872 v 0.234267 h -1.022508 v 0.609094 h 0.979788 v 0.234268 h -0.979788 v 0.74552 h 1.047312 v 0.234267 h -1.325676 z"
         style="fill:#f9f9f9;stroke-width:0.264583"
         id="path2226" />
      <path
         d="m 16.81037,82.614773 q -0.303169,0 -0.482315,0.225999 -0.177767,0.225999 -0.177767,0.615985 0,0.388608 0.177767,0.614607 0.179146,0.225999 0.482315,0.225999 0.303169,0 0.479559,-0.225999 0.177767,-0.225999 0.177767,-0.614607 0,-0.389986 -0.177767,-0.615985 -0.17639,-0.225999 -0.479559,-0.225999 z m 0.389986,1.831418 0.366559,0.401011 h -0.336242 l -0.304548,-0.329353 q -0.04547,0.0028 -0.07028,0.0041 -0.02343,0.0014 -0.04547,0.0014 -0.434083,0 -0.694533,-0.289389 -0.259072,-0.290767 -0.259072,-0.777216 0,-0.487827 0.259072,-0.777216 0.26045,-0.290766 0.694533,-0.290766 0.432705,0 0.691777,0.290766 0.259072,0.289389 0.259072,0.777216 0,0.358291 -0.144694,0.613229 -0.143317,0.254938 -0.416169,0.376205 z"
         style="fill:#f9f9f9;stroke-width:0.264583"
         id="path2228" />
    </g>
    <g
       aria-label="IN"
       transform="translate(-6.6477068,-63.816955)"
       id="text2193"
       style="font-size:2.82223px;line-height:1;font-family:sans-serif;-inkscape-font-specification:sans-serif;text-align:center;text-decoration:none;text-decoration-line:none;text-decoration-color:#000000;letter-spacing:0px;word-spacing:0px;text-anchor:middle;display:inline;fill:#f9f9f9;stroke-width:0.264583;stop-color:#000000">
      <path
         d="m 13.067608,125.952 h 0.278364 v 2.05741 h -0.278364 z"
         style="fill:#f9f9f9;stroke-width:0.264583"
         id="path2231" />
      <path
         d="m 13.899945,125.952 h 0.374827 l 0.912264,1.72117 V 125.952 h 0.270097 v 2.05741 h -0.374828 l -0.912264,-1.72117 v 1.72117 h -0.270096 z"
         style="fill:#f9f9f9;stroke-width:0.264583"
         id="path2233" />
    </g>
    <g
       aria-label="HIGH"
       transform="translate(-6.6477068,-63.816955)"
       id="text2197"
       style="font-size:2.82223px;line-height:1;font-family:sans-serif;-inkscape-font-specification:sans-serif;text-align:center;text-decoration:none;text-decoration-line:none;text-decoration-color:#000000;letter-spacing:0px;word-spacing:0px;text-anchor:middle;display:inline;fill:#f9f9f9;stroke-width:0.264583;stop-color:#000000">
      <path
         d="m 10.906838,143.14855 h 0.278364 v 0.84336 h 1.011483 v -0.84336 h 0.278365 v 2.05741 h -0.278365 v -0.97978 h -1.011483 v 0.97978 h -0.278364 z"
         style="fill:#f9f9f9;stroke-width:0.264583"
         id="path2236" />
      <path
         d="m 13.029022,143.14855 h 0.278365 v 2.05741 h -0.278365 z"
         style="fill:#f9f9f9;stroke-width:0.264583"
         id="path2238" />
      <path
         d="m 15.264207,144.91244 v -0.55259 h -0.454754 v -0.22876 h 0.730362 v 0.88333 q -0.161231,0.11437 -0.355535,0.17363 -0.194304,0.0579 -0.41479,0.0579 -0.482315,0 -0.755167,-0.28112 -0.271475,-0.2825 -0.271475,-0.78549 0,-0.50436 0.271475,-0.78548 0.272852,-0.2825 0.755167,-0.2825 0.201194,0 0.381717,0.0496 0.181902,0.0496 0.334864,0.14607 v 0.29628 q -0.15434,-0.13091 -0.327974,-0.19706 -0.173633,-0.0661 -0.365181,-0.0661 -0.377583,0 -0.567753,0.21084 -0.188792,0.21085 -0.188792,0.62839 0,0.41617 0.188792,0.62701 0.19017,0.21084 0.567753,0.21084 0.147451,0 0.263206,-0.0248 0.115756,-0.0262 0.208085,-0.0799 z"
         style="fill:#f9f9f9;stroke-width:0.264583"
         id="path2240" />
      <path
         d="m 16.049691,143.14855 h 0.278364 v 0.84336 h 1.011483 v -0.84336 h 0.278364 v 2.05741 h -0.278364 v -0.97978 h -1.011483 v 0.97978 h -0.278364 z"
         style="fill:#f9f9f9;stroke-width:0.264583"
         id="path2242" />
    </g>
    <g
       aria-label="LOW"
       transform="translate(-6.6477068,-63.816955)"
       id="text2201"
       style="font-size:2.82223px;line-height:1;font-family:sans-serif;-inkscape-font-specification:sans-serif;text-align:center;text-decoration:none;text-decoration-line:none;text-decoration-color:#000000;letter-spacing:0px;word-spacing:0px;text-anchor:middle;display:inline;fill:#f9f9f9;stroke-width:0.264583;stop-color:#000000">
      <path
         d="m 11.205184,161.74722 h 0.278365 v 1.82315 h 1.001836 v 0.23427 h -1.280201 z"
         style="fill:#f9f9f9;stroke-width:0.264583"
         id="path2245" />
      <path
         d="m 13.512027,161.93602 q -0.30317,0 -0.482315,0.226 -0.177768,0.22599 -0.177768,0.61598 0,0.38861 0.177768,0.61461 0.179145,0.226 0.482315,0.226 0.303169,0 0.479558,-0.226 0.177768,-0.226 0.177768,-0.61461 0,-0.38999 -0.177768,-0.61598 -0.176389,-0.226 -0.479558,-0.226 z m 0,-0.226 q 0.432705,0 0.691777,0.29076 0.259072,0.28939 0.259072,0.77722 0,0.48645 -0.259072,0.77722 -0.259072,0.28938 -0.691777,0.28938 -0.434084,0 -0.694534,-0.28938 -0.259072,-0.28939 -0.259072,-0.77722 0,-0.48783 0.259072,-0.77722 0.26045,-0.29076 0.694534,-0.29076 z"
         style="fill:#f9f9f9;stroke-width:0.264583"
         id="path2247" />
      <path
         d="m 14.715057,161.74722 h 0.281121 l 0.432705,1.73909 0.431327,-1.73909 h 0.312816 l 0.432705,1.73909 0.431327,-1.73909 h 0.282499 l -0.516766,2.05742 h -0.350023 l -0.434083,-1.78594 -0.438217,1.78594 h -0.350023 z"
         style="fill:#f9f9f9;stroke-width:0.264583"
         id="path2249" />
    </g>
    <g
       aria-label="IN"
       transform="translate(8.6981273,-63.816955)"
       id="g1276"
       style="font-size:2.82223px;line-height:1;font-family:sans-serif;-inkscape-font-specification:sans-serif;text-align:center;text-decoration:none;text-decoration-line:none;text-decoration-color:#000000;letter-spacing:0px;word-spacing:0px;text-anchor:middle;display:inline;fill:#f9f9f9;stroke-width:0.264583;stop-color:#000000">
      <path
         d="m 13.067608,125.952 h 0.278364 v 2.05741 h -0.278364 z"
         style="fill:#f9f9f9;stroke-width:0.264583"
         id="path1272" />
      <path
         d="m 13.899945,125.952 h 0.374827 l 0.912264,1.72117 V 125.952 h 0.270097 v 2.05741 h -0.374828 l -0.912264,-1.72117 v 1.72117 h -0.270096 z"
         style="fill:#f9f9f9;stroke-width:0.264583"
         id="path1274" />
    </g>
    <g
       aria-label="HIGH"
       transform="translate(8.6981273,-63.816955)"
       id="g1286"
       style="font-size:2.82223px;line-height:1;font-family:sans-serif;-inkscape-font-specification:sans-serif;text-align:center;text-decoration:none;text-decoration-line:none;text-decoration-color:#000000;letter-spacing:0px;word-spacing:0px;text-anchor:middle;display:inline;fill:#f9f9f9;stroke-width:0.264583;stop-color:#000000">
      <path
         d="m 10.906838,143.14855 h 0.278364 v 0.84336 h 1.011483 v -0.84336 h 0.278365 v 2.05741 h -0.278365 v -0.97978 h -1.011483 v 0.97978 h -0.278364 z"
         style="fill:#f9f9f9;stroke-width:0.264583"
         id="path1278" />
      <path
         d="m 13.029022,143.14855 h 0.278365 v 2.05741 h -0.278365 z"
         style="fill:#f9f9f9;stroke-width:0.264583"
         id="path1280" />
      <path
         d="m 15.264207,144.91244 v -0.55259 h -0.454754 v -0.22876 h 0.730362 v 0.88333 q -0.161231,0.11437 -0.355535,0.17363 -0.194304,0.0579 -0.41479,0.0579 -0.482315,0 -0.755167,-0.28112 -0.271475,-0.2825 -0.271475,-0.78549 0,-0.50436 0.271475,-0.78548 0.272852,-0.2825 0.755167,-0.2825 0.201194,0 0.381717,0.0496 0.181902,0.0496 0.334864,0.14607 v 0.29628 q -0.15434,-0.13091 -0.327974,-0.19706 -0.173633,-0.0661 -0.365181,-0.0661 -0.377583,0 -0.567753,0.21084 -0.188792,0.21085 -0.188792,0.62839 0,0.41617 0.188792,0.62701 0.19017,0.21084 0.567753,0.21084 0.147451,0 0.263206,-0.0248 0.115756,-0.0262 0.208085,-0.0799 z"
         style="fill:#f9f9f9;stroke-width:0.264583"
         id="path1282" />
      <path
         d="m 16.049691,143.14855 h 0.278364 v 0.84336 h 1.011483 v -0.84336 h 0.278364 v 2.05741 h -0.278364 v -0.97978 h -1.011483 v 0.97978 h -0.278364 z"
         style="fill:#f9f9f9;stroke-width:0.264583"
         id="path1284" />
    </g>
    <g
       aria-label="LOW"
       transform="translate(8.6981273,-63.816955)"
       id="g1294"
       style="font-size:2.82223px;line-height:1;font-family:sans-serif;-inkscape-font-specification:sans-serif;text-align:center;text-decoration:none;text-decoration-line:none;text-decoration-color:#000000;letter-spacing:0px;word-spacing:0px;text-anchor:middle;display:inline;fill:#f9f9f9;stroke-width:0.264583;stop-color:#000000">
      <path
         d="m 11.205184,161.74722 h 0.278365 v 1.82315 h 1.001836 v 0.23427 h -1.280201 z"
         style="fill:#f9f9f9;stroke-width:0.264583"
         id="path1288" />
      <path
         d="m 13.512027,161.93602 q -0.30317,0 -0.482315,0.226 -0.177768,0.22599 -0.177768,0.61598 0,0.38861 0.177768,0.61461 0.179145,0.226 0.482315,0.226 0.303169,0 0.479558,-0.226 0.177768,-0.226 0.177768,-0.61461 0,-0.38999 -0.177768,-0.61598 -0.176389,-0.226 -0.479558,-0.226 z m 0,-0.226 q 0.432705,0 0.691777,0.29076 0.259072,0.28939 0.259072,0.77722 0,0.48645 -0.259072,0.77722 -0.259072,0.28938 -0.691777,0.28938 -0.434084,0 -0.694534,-0.28938 -0.259072,-0.28939 -0.259072,-0.77722 0,-0.48783 0.259072,-0.77722 0.26045,-0.29076 0.694534,-0.29076 z"
         style="fill:#f9f9f9;stroke-width:0.264583"
         id="path1290" />
      <path
         d="m 14.715057,161.74722 h 0.281121 l 0.432705,1.73909 0.431327,-1.73909 h 0.312816 l 0.432705,1.73909 0.431327,-1.73909 h 0.282499 l -0.516766,2.05742 h -0.350023 l -0.434083,-1.78594 -0.438217,1.78594 h -0.350023 z"
         style="fill:#f9f9f9;stroke-width:0.264583"
         id="path1292" />
    </g>
    <g
       aria-label="lala  stereo"
       id="text1412"
       style="font-size:8.46667px;line-height:1;-inkscape-font-specification:sans-serif;text-align:center;letter-spacing:0px;word-spacing:0px;text-anchor:middle;display:inline;stroke-width:0.264583;stop-color:#000000;fill:#f2f2f2">
      <path
         d="m 10.177466,4.8083865 -0.3556001,0.7112003 -0.00847,3.1665346 -0.0508,0.1185334 h 0.8720667 l -0.01693,0.00847 0.7112,-0.3640668 V 9.5497217 H 8.3909987 L 8.7465989,8.8385214 V 5.5195868 L 8.3909987,4.8083865 Z"
         style="font-family:Kirsty;-inkscape-font-specification:Kirsty;fill:#f2f2f2"
         id="path1550" />
      <path
         d="M 12.920653,7.9156544 H 13.61492 L 13.276253,6.6287206 Z m 0.651933,1.6340673 0.2794,-0.7112003 -0.04233,-0.1693334 h -1.083734 l -0.04233,0.1693334 0.287867,0.7112003 h -1.532468 l 0.431801,-0.7112003 0.956733,-3.335868 -0.220133,-0.6942669 h 1.278467 l 1.049867,4.0301349 0.4318,0.7112003 z"
         style="font-family:Kirsty;-inkscape-font-specification:Kirsty;fill:#f2f2f2"
         id="path1552" />
      <path
         d="m 17.391047,4.8083865 -0.3556,0.7112003 -0.0085,3.1665346 -0.0508,0.1185334 h 0.872067 l -0.01693,0.00847 0.7112,-0.3640668 v 1.1006671 h -2.937935 l 0.3556,-0.7112003 V 5.5195868 l -0.3556,-0.7112003 z"
         style="font-family:Kirsty;-inkscape-font-specification:Kirsty;fill:#f2f2f2"
         id="path1554" />
      <path
         d="m 20.134234,7.9156544 h 0.694267 L 20.489834,6.6287206 Z m 0.651933,1.6340673 0.2794,-0.7112003 -0.04233,-0.1693334 H 19.9395 l -0.04233,0.1693334 0.287867,0.7112003 H 18.652566 L 19.084367,8.8385214 20.0411,5.5026534 19.820967,4.8083865 h 1.278467 l 1.049867,4.0301349 0.4318,0.7112003 z"
         style="font-family:Kirsty;-inkscape-font-specification:Kirsty;fill:#f2f2f2"
         id="path1556" />
      <path
         d="m 8.2385889,13.13775 v 1.286934 l -0.3556002,0.7112 H 5.3937877 V 14.02675 l 0.694267,0.364067 h 1.1684005 l 0.1100667,-0.2032 v -0.5588 l -0.1016001,-0.1778 -1.5240006,-0.5334 -0.3471335,-0.694267 v -1.117601 l 0.3471335,-0.7112 h 2.362201 v 1.109134 L 7.4088552,11.139616 H 6.3589881 l -0.093133,0.2032 v 0.389467 l 0.084667,0.1778 1.5409339,0.5334 z"
         style="font-family:Kirsty;-inkscape-font-specification:Kirsty;fill:#f2f2f2"
         id="path1558" />
      <path
         d="m 11.752252,11.783083 -0.668867,-0.321734 v -0.321733 h -0.321734 v 3.285068 l 0.347134,0.7112 H 9.3392507 l 0.3556001,-0.7112 V 11.139616 H 9.381584 v 0.321733 l -0.6688669,0.321734 v -1.388534 h 3.0395349 z"
         style="font-family:Kirsty;-inkscape-font-specification:Kirsty;fill:#f2f2f2"
         id="path1560" />
      <path
         d="m 15.274376,10.394549 v 1.109134 l -0.694267,-0.364067 h -1.016 l 0.06773,0.135467 v 1.032933 h 0.287867 l 0.694267,-0.347133 v 1.4478 l -0.694267,-0.3556 h -0.287867 v 1.219201 l -0.05927,0.118533 h 1.007533 l -0.01693,0.0085 0.7112,-0.364067 v 1.100667 h -3.073401 l 0.3556,-0.7112 v -3.318935 l -0.3556,-0.7112 z"
         style="font-family:Kirsty;-inkscape-font-specification:Kirsty;fill:#f2f2f2"
         id="path1562" />
      <path
         d="m 17.196299,12.47735 h 0.948267 l 0.1016,-0.186267 V 11.359749 L 18.1361,11.139616 h -1.024468 l 0.08467,0.186267 z m 1.049867,0.922867 -0.09313,-0.1778 h -0.956734 v 1.913467 h -1.430867 l 0.3556,-0.702733 v -3.327402 l -0.3556,-0.7112 h 3.200401 l 0.3556,0.702734 v 1.100667 l -0.186266,0.397933 -0.508001,0.254 0.457201,0.245534 0.237066,0.423333 v 0.914401 l 0.3556,0.702733 h -1.075267 l -0.3556,-0.694267 z"
         style="font-family:Kirsty;-inkscape-font-specification:Kirsty;fill:#f2f2f2"
         id="path1564" />
      <path
         d="m 23.233035,10.394549 v 1.109134 l -0.694267,-0.364067 h -1.016001 l 0.06773,0.135467 v 1.032933 h 0.287866 l 0.694267,-0.347133 v 1.4478 l -0.694267,-0.3556 h -0.287866 v 1.219201 l -0.05927,0.118533 h 1.007534 l -0.01693,0.0085 0.711201,-0.364067 v 1.100667 h -3.073402 l 0.3556,-0.7112 v -3.318935 l -0.3556,-0.7112 z"
         style="font-family:Kirsty;-inkscape-font-specification:Kirsty;fill:#f2f2f2"
         id="path1566" />
      <path
         d="m 25.866158,11.359749 -0.1016,-0.220133 h -0.838201 l -0.09313,0.2032 v 2.870201 l 0.08467,0.1778 h 0.8636 l 0.08467,-0.1778 z m -1.752601,3.776135 -0.3556,-0.702733 v -3.327402 l 0.347133,-0.7112 h 2.480735 l 0.3556,0.702734 v 3.335868 l -0.3556,0.702733 z"
         style="font-family:Kirsty;-inkscape-font-specification:Kirsty;fill:#f2f2f2"
         id="path1568" />
    </g>
    <g
       style="display:inline;fill:#f9f9f9"
       id="g2119"
       transform="translate(62.294011,0.34108111)">
      <path
         d="m -5.6275905,176.49599 c -0.0857,-0.24024 -0.37677,-0.16087 -0.35349,0.12347 0.0233,0.28469 0.43921,0.11677 0.35349,-0.12347 z m 1.56139,-14.0716 c -0.0536,0.0473 -0.0773,0.11218 -0.085,0.16757 -0.03,0.2166 -0.49318,0.34678 -0.23319,0.53163 0.22613,0.16052 0.30304,-0.27058 0.47414,-0.40957 0.0448,-0.0367 0.079,-0.0974 0.0804,-0.1711 0.002,-0.1076 -0.15699,-0.18874 -0.23636,-0.11853 z m -1.3395,16.00588 c 0.037,-0.0776 0.0487,-0.16828 0.0462,-0.26388 -0.004,-0.11783 -0.11183,-0.28928 -0.17392,-0.248 -0.1591,0.10513 -0.43709,0.13053 -0.44626,0.36159 -0.004,0.10478 0.0483,0.17851 0.127,0.23178 0.127,0.0857 0.38276,0.0533 0.44697,-0.0815 z m -3.45263,-21.03861 c 0.2159,-0.15805 0.42862,-0.32138 0.68297,-0.41099 0.6403,-0.22542 1.21709,-0.57573 1.81575,-0.88547 0.29951,-0.15487 0.65229,-0.21484 0.98743,-0.28928 0.21696,-0.0483 0.34925,0.0783 0.40005,0.29422 0.10336,0.43815 0.34149,0.81703 0.53869,1.21426 0.13582,0.27376 0.27305,0.55069 0.17004,0.87171 -0.0878,0.27552 -0.0109,0.45862 0.28681,0.51859 0.30444,0.061 0.34537,-0.15099 0.38593,-0.36971 0.009,-0.0494 0.012,-0.10619 0.0469,-0.14746 0.0561,-0.0663 0.24554,0.008 0.30445,0.13723 0.0339,0.0748 0.0554,0.1598 0.072,0.24659 0.0663,0.34501 0.12524,0.68968 0.127,1.04493 0.007,1.35325 0.009,2.70439 -0.3182,4.03225 -0.0896,0.36336 -0.20709,0.74824 0.34219,0.89358 0.15275,0.0406 0.11359,0.2353 0.10724,0.37254 -0.018,0.39616 -0.0282,0.79304 -0.0649,1.1878 -0.008,0.0875 -2.6e-4,0.16651 0.0198,0.2413 0.0349,0.12982 0.0882,0.38029 0.0765,0.57503 -0.0113,0.19473 -0.0907,0.47307 -0.16051,0.6297 -0.0409,0.0914 -0.0709,0.18803 -0.072,0.29916 -0.003,0.36301 -0.0257,0.72637 -0.0229,1.08867 0.005,0.56833 0.1023,1.08656 0.127,1.1617 0.0247,0.0748 0.004,0.46743 -0.0353,0.89958 -0.0392,0.4318 0.11359,0.98602 0.16475,1.25907 0.03,0.15839 0.0402,0.32279 0.0342,0.50059 -0.008,0.24024 -0.013,0.4886 0.018,0.73307 0.0512,0.40217 0.20179,0.7486 0.22754,0.80645 0.0261,0.0579 0.0688,0.10372 0.0794,0.13194 0.0106,0.0279 0.0198,0.0974 0.0519,0.15557 0.0318,0.0579 0.17427,0.53729 0.43568,1.04211 0.16969,0.32808 0.40569,0.61489 0.76906,0.82303 0.18803,0.1076 0.20249,0.31221 0.23671,0.4893 0.12417997,0.64347 0.22824997,1.29082 0.34642997,1.93499 0.0356,0.19403 -0.0208,0.34008 -0.10831,0.5207 -0.22753997,0.47061 -0.65756997,0.78317 -0.89604997,1.24107 -0.0744,0.14288 -0.266,0.26247 -0.41769,0.12947 -0.32843,-0.28786 -0.56303,-0.0268 -0.81597,0.10337 -0.14323,0.0737 -0.26212,0.19544 -0.39088,0.29668 -0.24307,0.19086 -0.35137,0.27623 -0.44309,0.21555 -0.23918,-0.1584 -0.38735,-0.35348 -0.46814,-0.1778 -0.0462,0.10054 -0.0614,0.21167 -0.0378,0.34149 0.0169,0.0924 0.0413,0.18415 0.0483,0.27728 0.018,0.23566 0.0339,0.49636 -0.19932,0.62724 -0.25752,0.14499 -0.43003,-0.0691 -0.60219,-0.22613 -0.0395,-0.0363 -0.0808,-0.0706 -0.13299,-0.11289 -0.0748,-0.061 -0.1898,0.3295 -0.57962,0.59796 -0.22013,0.15205 -0.50059,0.21378 -0.81633,0.21661 -0.19861,0.002 -0.31855,0.11324 -0.43744,0.23389 -0.19861,0.20073 -0.69286,-0.005 -1.00542,-0.39053 -0.18027,-0.22225 -0.32702,-0.47484 -0.3556,-0.80962 -0.0138,-0.16228 -0.18133,-0.25541 -0.29351,-0.3743 -0.22613,-0.24059 -0.61983,-0.34749 -0.62159,-0.79093 0,-0.0977 -0.21484,-0.2092 -0.34608,-0.28963 -0.29175,-0.17815 -0.5030605,-0.0755 -0.5252905,0.26882 -0.0113,0.17815 -0.012,0.35701 -0.0102,0.54751 0.003,0.30304 -0.20143,0.3182 -0.31185,-0.0356 -0.110421,-0.35419 -0.135821,-0.91687 -0.320325,-1.2132 -0.111125,-0.17922 -0.24765,-0.35455 -0.218017,-0.5775 0.02928,-0.21978 0.03669,-0.44239 0.03775,-0.66569 0.0021,-0.3683 0.09631,-1.06398 0.100542,-1.56316 0.0024,-0.30127 -0.01341,-0.60325 -0.01058,-0.90417 0.01093,-1.14759 0.0032,-2.29553 0.0028,-3.44347 0.0032,-0.0476 0.006,-0.0956 0.0092,-0.14322 0.0049,-0.079 0.125238,-0.23883 0.121708,-0.39688 -0.0035,-0.1584 -0.06173,-0.34572 -0.04022,-0.43427 0.02117,-0.0889 0.204965,-0.51646 0.293862,-0.98672 0.0892,-0.4699 0.0529,-0.89993 0.0568,-0.9465 0.004,-0.0462 0.15205,-0.47378 0.18945,-0.97966 0.0226,-0.30516 0.0286,-0.61278 0.0836,-0.91335 0.003,-0.0265 0.006,-0.0526 0.01,-0.0787 0.005,-0.0437 0.10195,-0.25047 0.12241,-0.4833 0.0204,-0.23248 -0.002,-0.51929 0.003,-0.63888 0.005,-0.11995 0.1626305,-0.52388 0.1855605,-0.93522 0.0229,-0.41169 -0.17569,-0.5782 -0.4702505,-0.48718 -0.18662,0.0575 -0.369715,0.0804 -0.546456,0.11606 -0.11148,0.0222 -0.203907,0.06 -0.287867,0.1083 -0.147815,0.085 -0.345371,0.16228 -0.466373,0.16651 -0.12065,0.004 -0.492125,0.0716 -0.759531,0.26247 -0.267759,0.1905 -0.465315,0.43745 -0.515761,0.48225 -0.05045,0.0452 -0.170746,0.0949 -0.266348,0.1658 -0.09525,0.0705 -0.153458,0.16687 -0.184856,0.18768 -0.0314,0.0208 -0.232834,0.0769 -0.400402,0.22684 -0.167569,0.14993 -0.327025,0.34501 -0.432152,0.36971 -0.105481,0.0243 -0.672748,-0.0536 -1.047398,0.3055 -0.225073,0.2159 -0.408517,0.49954 -0.670983,0.653 -0.2159,0.12594 0.07056,0.38276 -0.183092,0.44414 -0.07691,0.0162 -0.137583,-0.008 -0.194382,-0.0423 -0.09666,-0.0586 -0.168978,-0.30233 -0.228245,-0.53728 -0.04339,-0.17251 -0.08572,-0.3302 -0.02611,-0.42827 0.260702,-0.42792 0.121708,-0.99836 0.571852,-1.35643 0.08996,-0.0716 0.186621,-0.1651 0.264937,-0.27622 0.121709,-0.17357 0.247296,-0.41487 0.346075,-0.51824 0.09878,-0.10336 0.176388,-0.23953 0.226484,-0.26564 0.0314,-0.0162 0.06103,-0.0342 0.08361,-0.0586 0.344662,-0.37112 0.798687,-0.71649 0.286808,-1.29046 -0.02506,-0.0282 -0.0085,-0.0938 0.01553,-0.16616 0.02999,-0.0907 0.152049,-0.23248 0.236009,-0.34995 0.08396,-0.11748 0.310446,-0.64453 0.643821,-1.10526 0.543983,-0.75141 1.176867,-1.42945 1.863373,-2.06304 0.07549,-0.0698 0.1651,-0.12912 0.239887,-0.20108 0.12418,-0.11959 0.28293,-0.35913 0.42263,-0.50059 0.139345,-0.14147 0.313266,-0.31327 0.378177,-0.40923 0.06526,-0.096 0.08608,-0.20602 0.105481,-0.23601 0.01939,-0.0303 0.168627,-0.15945 0.320321,-0.3242 0.151341,-0.16475 0.382061,-0.48754 0.5813815,-0.69673 0.19932,-0.2092 0.69709,-0.50271 1.05339,-0.76377"
         style="display:inline;fill:#f9f9f9;fill-opacity:1;fill-rule:nonzero;stroke:none;stroke-width:0.0352777"
         id="path2110"
         transform="matrix(0.22774839,0,0,0.24565989,-37.726138,80.539021)" />
      <path
         d="m -60.846457,175.09898 c 0.0014,-0.0914 0.0194,-0.18592 0,-0.27235 -0.02858,-0.12806 -0.131234,-0.19261 -0.259998,-0.18909 -0.11818,0.003 -0.290689,0.0409 -0.262114,0.16581 0.05927,0.25964 -0.09807,0.4325 -0.167922,0.64241 -0.03775,0.11359 0.0028,0.25012 0.104422,0.31397 0.103717,0.0656 0.22472,0.0109 0.327731,-0.0512 0.23742,-0.14288 0.257528,-0.36759 0.257881,-0.6096 z m -19.259551,3.05858 c -0.01588,-0.14111 -0.03457,-0.28011 -0.06491,-0.41628 -0.07091,-0.31961 -0.175331,-0.63218 -0.277636,-0.94368 -0.04339,-0.13158 -0.115006,-0.28928 -0.282575,-0.25894 -0.236008,0.0423 -0.174272,0.25294 -0.143228,0.39617 0.118886,0.55069 0.307622,1.0795 0.560917,1.58327 0.01905,0.0378 0.05186,0.0688 0.112889,0.0755 0.07796,0.008 0.120297,-0.20461 0.09454,-0.43603 z m 2.970742,0.63006 c -0.317148,-0.54963 -0.626534,-1.0855 -0.938037,-1.6196 -0.06103,-0.10478 -0.106186,-0.20179 -0.0822,-0.32667 0.09596,-0.49707 -0.275872,-0.74966 -0.555624,-1.04846 -0.105834,-0.11324 -0.241653,-0.14287 -0.383117,-0.0868 -0.17145,0.0674 -0.151695,0.21696 -0.121708,0.35525 0.03951,0.18168 0.08325,0.36336 0.139347,0.5401 0.265289,0.83608 0.794455,1.518 1.259769,2.24473 0.150636,0.2353 0.314325,0.41486 0.50553,0.54962 0.33902,0.23919 0.460023,-0.11571 0.176037,-0.60819 z m 6.217003,-4.10563 c -0.04304,-0.13299 -0.02293,-0.28398 0.123119,-0.47766 0.141111,-0.18768 0.04233,-0.53446 -0.293864,-0.58032 -0.196497,-0.0268 -0.350308,-0.12206 -0.525639,-0.17921 -0.106539,-0.0346 -0.197908,-0.031 -0.274108,0.006 -0.1397,0.0684 -0.271639,0.1651 -0.384528,0.18239 -0.06809,0.0102 -0.135467,0.031 -0.203905,0.0346 -0.455437,0.0233 -0.926042,0.043 -1.333148,-0.20497 -0.370064,-0.22577 -0.616302,-0.10759 -0.789164,0.32315 -0.162277,0.40463 -0.06773,0.81245 -0.123825,1.21461 -0.0095,0.0674 -0.01411,0.15029 0.01587,0.20602 0.29457,0.54963 0.623712,1.08268 0.745067,1.70921 0.01093,0.055 0.08961,0.10266 0.144992,0.14253 0.680861,0.49071 1.467555,0.77858 2.215797,1.13911 0.142522,0.0688 0.318911,0.0903 0.480483,0.0931 0.539045,0.009 1.079148,0.0173 1.614311,-0.0635 0.65405,-0.0988 0.679803,-0.14146 0.742598,-0.79057 0.02152,-0.22296 0.06773,-0.41628 -0.210961,-0.51223 -0.10795,-0.0367 -0.201437,-0.13406 -0.220839,-0.25718 -0.0695,-0.44027 -0.299156,-0.73448 -0.586317,-0.97578 -0.435323,-0.36583 -1.049156,-0.73871 -1.135939,-1.00929 z m 6.9977,-4.64749 c 0.107597,0.115 -0.200731,0.28398 -0.40887,0.21731 -0.207786,-0.0667 -0.236008,0.0935 -0.0049,0.18838 0.230716,0.0949 0.427919,-0.26599 0.51823,-0.24624 0.0501,0.0113 0.09807,0.0603 0.136172,0.0931 0.112184,0.0956 0.221192,0.19474 0.329495,0.29493 0.179211,0.16651 0.358775,0.3496 0.403225,0.4071 0.03457,0.0445 0.06209,0.0868 0.05186,0.11642 -0.08749,0.25682 -0.05221,0.44132 0.05115,0.58702 0.195792,0.27658 0.492478,0.36195 0.503414,0.35348 0.01058,-0.009 0.01164,-0.007 0.0025,0.002 -0.0095,0.0102 0.212372,0.36936 0.548569,0.76165 0.201436,0.2353 0.403931,0.47167 0.56515,0.74366 0.105481,0.17744 0.227895,0.37394 0.392642,0.52705 0.2667,0.248 0.84455,0.58631 0.885472,1.06539 0.02434,0.28751 0.0053,0.58384 0.0441,0.86854 0.0042,0.0286 0.05327,0.0459 0,0.0878 -0.506236,0.4011 -0.60325,1.08055 -1.078794,1.5314 -0.319264,0.30304 -0.524228,0.75565 -0.829028,1.10949 -0.123119,0.14288 -0.218369,0.31785 -0.401108,0.38065 -0.227542,0.0787 -0.314678,0.2413 -0.398286,0.45014 -0.145345,0.36231 -0.379942,0.60396 -0.819856,0.6664 -0.436386,0.0617 -0.875595,0.20637 -0.972961,0.76235 -0.04092,0.23354 -0.264936,0.32738 -0.462139,0.39652 -0.264936,0.0928 -0.539397,0.17075 -0.815975,0.21696 -0.822678,0.13794 -1.604786,0.49213 -2.464153,0.4445 -0.178506,-0.01 -0.379942,0.0494 -0.541161,0.13335 -1.013531,0.52917 -2.119489,0.73167 -3.225095,0.93592 -0.109008,0.0201 -0.234244,2.7e-4 -0.343253,-0.0314 -0.529166,-0.15275 -1.058686,-0.10265 -1.601611,-0.09 -0.923925,0.0212 -1.857728,-0.0473 -2.707217,-0.50553 -0.22613,-0.12206 -0.463197,-0.25541 -0.710494,-0.30092 -0.765881,-0.14111 -1.265061,-0.67169 -1.787172,-1.16628 -1.655233,-1.56845 -2.310695,-3.58034 -2.538236,-5.77921 -0.02434,-0.23636 -0.02081,-0.46778 0.01905,-0.70202 0.345061,-2.02529 1.019925,-3.92887 1.923389,-5.77919 0.379589,-0.77753 0.810331,-1.49966 1.452739,-1.99884 0.6223,-0.48331 1.175103,-1.04952 1.780469,-1.55081 0.43815,-0.36266 1.034345,-0.48719 1.271412,-0.5708 0.136172,-0.048 0.261408,-0.14287 0.386644,-0.23636 0.238831,-0.17851 0.500239,-0.32456 0.750006,-0.47837 0.340783,-0.2099 0.703086,-0.39405 1.043164,-0.61066 0.479425,-0.3055 1.220964,-0.81668 1.762477,-0.98989 0.55492,-0.1778 1.113014,-0.34713 1.656645,-0.56444 0.686153,-0.27447 1.465086,-0.36407 2.191103,-0.32562 0.788458,0.042 1.588911,-0.12065 2.365375,0.0893 0.91052,0.24589 1.754364,0.58244 2.305403,1.29575 0.347486,0.45015 0.08925,1.23014 -0.421217,1.10843 -0.510469,-0.12206 -1.005769,-0.16757 -0.996244,-0.0607 0.006,0.066 0.05503,0.11818 0.09102,0.16934 0.131234,0.18379 0.07338,0.30515 -0.118533,0.37958 -0.123119,0.0476 -0.293864,0.007 -0.337255,0.19156 -0.05962,0.25224 -0.255764,0.21273 -0.381001,0.12206 -0.3429,-0.24765 -0.724605,-0.27587 -1.119716,-0.26564 -0.196145,0.005 -0.525992,-0.18697 -0.442384,0.27552 0.0028,0.0148 -0.01164,0.0385 -0.02505,0.0494 -0.450144,0.36266 -0.450144,0.36266 0.0035,0.77576 0.0088,0.008 0.01588,0.0173 0.02328,0.0279 0.01129,0.0162 -0.05609,0.1584 -0.210608,0.17533 -0.08714,0.01 -0.1778,-0.0215 -0.262114,-0.0829 -0.372533,-0.26987 -0.778581,-0.3937 -1.234722,-0.35666 -0.153459,0.0123 -0.263173,-0.0857 -0.389114,-0.14322 -0.173214,-0.0794 -0.379589,-0.1778 -0.540103,-0.1076 -0.411692,0.17956 -0.820208,0.0261 -1.200856,-0.024 -0.337961,-0.0445 -0.609247,0.0145 -0.849136,0.1651 -0.472722,0.29739 -1.0033,0.47942 -1.469672,0.78105 -0.756708,0.4893 -1.446742,1.03717 -1.692275,1.97414 -0.0762,0.29069 -0.282575,0.53587 -0.339372,0.84103 -0.01199,0.0635 -0.01728,0.11994 -0.0046,0.16933 0.02363,0.0914 0.109361,0.17251 0.136878,0.2166 0.01446,0.0233 0.0381,0.036 0.08325,0.0222 0.0092,-0.003 0.01129,-0.0293 0.01235,-0.0596 0.0011,-0.0346 0.09102,-0.115 0.199672,-0.17921 0.109009,-0.0642 0.320322,-0.0942 0.475545,-0.0847 0.09172,0.006 0.181328,0.0215 0.259997,0.0914 0.07973,0.0709 0.04516,0.17216 0.03457,0.27058 -0.01728,0.15734 0.479778,0.0286 0.932745,-0.1972 0.272344,-0.13582 0.552097,-0.25964 0.843844,-0.35595 0.115006,-0.0377 0.215195,-0.0759 0.285045,-0.1838 0.140052,-0.21731 0.336197,-0.32526 0.599369,-0.26282 0.256822,0.0607 0.170745,0.29528 0.231422,0.45897 0.106186,0.28751 0.450498,0.46002 0.591962,0.26917 0.280105,-0.37712 0.733072,-0.25718 1.06433,-0.47343 0.200731,-0.13124 0.492125,-0.13194 0.745772,-0.16722 0.08008,-0.0109 0.179564,0.042 0.215195,0.14711 0.03704,0.10936 -0.01905,0.19826 -0.09737,0.23918 -0.07338,0.0388 -0.150989,0.0699 -0.229658,0.0988 -0.12947,0.0476 0.119944,0.17216 0.567619,0.20214 0.249414,0.0169 0.481189,-0.0487 0.6604,-0.37641 0.0254,-0.0466 0.100189,-0.0656 0.18415,-0.0797 0.112889,-0.0187 0.283281,-0.012 0.381,0.0173 0.09772,0.0293 0.201084,0.14252 0.230364,0.25294 0.01764,0.0667 0.03422,0.1337 0.04763,0.20144 0.09666,0.49106 0.140053,0.53446 0.594784,0.54892 0.161925,0.005 0.324555,0.006 0.475191,-0.0699 0.23495,-0.11818 0.444853,-0.0928 0.625475,0.10689 0.04939,0.0543 0.10407,0.0963 0.165453,0.12383 0.104422,0.0469 0.262114,0.14252 0.369711,0.25717"
         style="display:inline;fill:#f9f9f9;fill-opacity:1;fill-rule:nonzero;stroke:none;stroke-width:0.0352777"
         id="path2112"
         transform="matrix(0.22774839,0,0,0.24565989,-37.726138,80.539021)" />
      <path
         d="m -36.293898,165.16119 c -0.02574,-0.0247 -0.05927,-0.0212 -0.07444,0.008 -0.01024,0.0198 -0.01799,0.0392 -0.01447,0.0561 0.0063,0.0321 0.05045,0.0776 0.08043,0.0797 0.02787,0.002 0.04621,-0.0109 0.05503,-0.0317 0.0141,-0.0349 -0.02045,-0.0871 -0.04657,-0.11183 z m -0.103365,-2.44757 c -0.01693,0.0247 -0.02469,0.0571 -0.02928,0.0907 -0.01376,0.0991 0.01447,0.1838 0.123473,0.19685 0.07973,0.01 0.112183,-0.0639 0.10936,-0.12911 -0.0019,-0.0441 -0.0049,-0.0903 -0.02294,-0.12842 -0.03034,-0.066 -0.150638,-0.0744 -0.180624,-0.03 z m 0.229307,4.01461 c -0.02328,-0.25153 -0.118182,-0.26599 -0.179565,-0.0286 -0.06103,0.23778 0.202493,0.28046 0.179565,0.0286 z m -0.328084,-2.48002 c 0.04515,0.27622 0.23636,0.2667 0.201084,-0.01 -0.03528,-0.27658 -0.24624,-0.2667 -0.201084,0.01 z m -7.127171,13.33958 c -0.127704,0.5521 0.207433,1.03893 0.193675,1.59385 -0.02434,0.99625 0.234246,1.97485 0.363363,2.96263 0.01693,0.12947 0.08078,0.2353 0.211667,0.23742 0.13335,0.002 0.198966,-0.10901 0.216251,-0.23424 0.01588,-0.11607 0.03775,-0.23495 0.02681,-0.34996 -0.04198,-0.44344 -0.0063,-0.89182 -0.109712,-1.33209 -0.119947,-0.50976 -0.120299,-1.03822 -2.65e-4,-1.53599 0.128058,-0.5334 0.438504,-1.028 0.2032,-1.60938 -0.02469,-0.061 0.05398,-0.17215 0.09913,-0.25223 0.09454,-0.16828 0.138642,-0.34749 0.148167,-0.53799 0.04163,-0.83926 -0.1397,-1.66511 -0.145698,-2.50155 -0.0011,-0.11959 -0.04551,-0.29703 -0.148519,-0.28963 -0.271285,0.0187 -0.543631,0.0833 -0.805391,0.16263 -0.199319,0.0607 -0.144992,0.26318 -0.171802,0.41981 -0.123121,0.72073 0.139345,1.4672 -0.137232,2.17452 -0.147814,0.37818 0.1524,0.7239 0.05644,1.0922 z m 7.955492,-13.68742 c 0.01376,0.23671 -0.07902,0.45614 -0.204962,0.50306 -0.07161,0.0265 -0.125238,0.073 -0.1143,0.18979 0.0099,0.10301 0.04833,0.18839 0.112183,0.25153 0.110418,0.10901 0.22507,0.17039 0.20461,0.24342 -0.02082,0.0727 0.04339,0.12171 0.04974,0.121 0.0063,-0.001 -0.07867,-0.0603 -0.149225,0.002 -0.0702,0.0624 -0.194027,0.19332 -0.174977,0.29528 0.0092,0.0483 0.06526,0.0882 0.138993,0.11536 0.05221,0.0194 0.100894,0.0381 0.142875,0.0646 0.07303,0.0462 0.02222,0.36336 0.1016,0.66004 0.04798,0.17886 0.117827,0.35631 0.127352,0.53975 0.0067,0.133 0.331613,0.35172 0.485423,0.56727 0.112536,0.15734 0.352777,0.0469 0.536575,0.0455 0.632532,-0.003 1.264709,-0.0166 1.89724,-0.0127 0.280459,0.002 0.518584,0.10795 0.775052,0.24694 0.15734,0.0854 0.474133,-0.21378 0.772935,-0.16898 0.21943,0.0328 0.439563,0.06 0.660048,0.085 0.36548,0.042 0.730957,0.26988 0.900997,0.44662 0.113241,0.11818 0.247295,0.19791 0.38382,0.20073 0.40993,0.008 0.750007,0.23671 1.147588,0.2353 0.456142,-0.002 0.88406,0.2219 1.37442,0.0614 0.407813,-0.1337 0.8382,0.14605 1.307397,0.0416 0.2794,-0.0624 0.570087,-0.067 0.862541,-0.0741 0.479071,-0.0113 0.923571,-0.0826 1.000477,-0.0794 0.07691,0.004 0.25541,0.0635 0.282927,0.19191 0.0113,0.0536 -0.02117,0.10795 -0.145343,0.16404 -0.0822,0.037 -0.118534,0.0896 -0.127707,0.14994 -0.01693,0.11253 0.03598,0.29421 0.03528,0.40957 -7.94e-4,0.11536 -0.143582,0.24483 -0.213432,0.38206 -0.03563,0.0706 -0.03493,0.15769 0.01693,0.26917 0.03916,0.0836 0.06597,0.20637 -0.05292,0.23142 -0.545042,0.11501 -0.750358,0.62371 -1.119717,0.94086 0,0 -0.0046,0.005 -0.0092,0.009 -0.0053,0.005 -0.188736,0.12171 -0.301977,0.33972 -0.113242,0.21802 -0.120298,0.46108 -0.204613,0.49707 -0.08431,0.0356 -0.164746,0.0586 -0.179917,0.0508 -0.01482,-0.008 -0.03492,-0.002 -0.04445,0.0123 -0.0098,0.0141 -0.0568,0.0459 -0.104775,0.0709 -0.04798,0.0247 -0.119943,0.0145 -0.152752,0.0349 -0.03281,0.0201 -0.06632,0.0804 -0.116416,0.10195 -0.05045,0.0219 -0.135115,-0.012 -0.188736,0.0116 -0.05362,0.0233 -0.137583,0.13018 -0.135821,0.22013 0.0013,0.09 0.0889,0.29951 -0.05503,0.38912 -0.144285,0.09 -0.272696,0.20002 -0.323496,0.20884 -0.03034,0.005 -0.06103,0.0106 -0.09137,0.0159 -0.540454,0.0437 -1.093962,0.0226 -1.56351,0.37536 -0.107244,0.0804 -0.251177,0.1531 -0.379942,0.15628 -0.383116,0.01 -0.759883,0.0797 -1.137708,0.13793 -0.561975,0.0864 -1.174046,0.0138 -1.36878,0.003 -0.194378,-0.0109 -0.459668,-0.0476 -0.581376,-0.004 -0.05468,0.0198 -0.08855,0.0762 -0.08361,0.20109 0.0021,0.0497 -0.01058,0.0917 -0.0314,0.12911 -0.03634,0.0649 -0.145695,0.11219 -0.220837,0.12242 -0.0755,0.0102 -0.322792,-0.002 -0.538692,-0.0794 -0.114654,-0.0413 -0.202848,-0.12277 -0.210608,-0.32385 -0.0013,-0.0314 -0.111125,-0.0847 -0.16863,-0.0818 -0.09102,0.004 -0.166158,0.0441 -0.154516,0.17321 0.04163,0.45897 -0.220134,0.60431 -0.63006,0.59408 -0.05468,-10e-4 -0.09349,0.0201 -0.122767,0.0533 -0.05115,0.0572 -0.07056,0.12418 -0.07408,0.12841 -0.0035,0.004 -0.157692,0.0875 -0.345369,0.18415 -0.113596,0.0582 -0.2286,0.11395 -0.347133,0.16016 -0.140407,0.055 -0.275522,0.0956 -0.261057,0.26882 0.03704,0.44203 -0.45861,0.84878 -0.08537,1.31621 0.02434,0.0303 -0.02611,0.12101 -0.04233,0.1838 -0.144992,0.56021 -0.145344,0.56197 0.407813,0.64452 0.09772,0.0145 0.189087,0.0286 0.212018,0.13865 0.02998,0.14393 -0.04057,0.21484 -0.183798,0.22436 -0.46002,0.03 -0.610658,0.33585 -0.684387,0.7366 -0.06985,0.37959 -0.176742,0.81809 0.05997,1.10032 0.203907,0.24306 0.13194,0.31785 7.94e-4,0.49777 -0.131233,0.17991 -0.05574,0.60677 -0.294923,0.5722 -0.480483,-0.0691 -0.293158,0.31539 -0.424037,0.47272 -0.09278,0.11184 -0.179565,0.22508 -0.22578,0.34996 -0.08043,0.21661 -0.024,0.39617 -0.05609,0.41804 -0.01765,0.0116 -0.02787,0.0318 -0.02998,0.0607 -7.94e-4,0.007 0.04233,0.0293 0.05927,0.0247 0.0321,-0.009 0.04974,-0.024 0.05327,-0.0427 0.0074,-0.0392 0.222604,0.0494 0.357365,-0.13723 0.06703,-0.0931 0.0702,-0.24341 0.05539,-0.40569 -0.01304,-0.14041 0.02963,-0.2346 0.15875,-0.26035 0.09878,-0.0198 0.187325,0.0501 0.21449,0.14428 0.04516,0.15558 0.159808,0.25718 0.287866,0.37783 0.193675,0.18203 0.105127,0.23742 -0.06103,0.3743 -0.106892,0.0882 -0.144285,0.25117 -0.25541,0.28786 -0.231775,0.0765 -0.511175,0.006 -0.745774,0.14323 -0.03951,0.0233 -0.102303,0.0459 -0.110066,0.0794 -0.06032,0.25647 -0.200729,0.38241 -0.454377,0.50447 -0.165452,0.0794 -0.149225,0.45615 -0.274815,0.68333 -0.05574,0.1009 -0.0896,0.21449 -0.138287,0.31892 -0.08114,0.17427 -0.274815,0.0808 -0.451205,0.0617 -0.176387,-0.0194 -0.332668,-0.0589 -0.398285,-0.17357 -0.03845,-0.067 -0.09666,-0.10795 -0.204258,-0.0737 -0.08961,0.0282 -0.130175,0.0956 -0.142875,0.1771 -0.02082,0.13158 -0.05644,0.34819 -0.158398,0.4766 -0.102304,0.12841 -0.137935,0.23354 -0.172509,0.21907 -0.03457,-0.0148 -0.08643,-0.11324 -0.19332,-0.17074 -0.106892,-0.0575 -0.126296,-0.22402 -0.100542,-0.33197 0.01516,-0.0624 0.01093,-0.12382 -0.05433,-0.18168 -0.03916,-0.0349 -0.172154,-0.0406 -0.186971,-0.0152 -0.170391,0.28928 -0.490008,0.38135 -0.727429,0.57856 -0.05468,0.0455 -0.09066,0.10901 -0.09983,0.17921 -0.01516,0.11536 0.04621,0.26106 0.04516,0.33549 -0.0011,0.0748 -0.10019,0.30762 -0.1778,0.53763 -0.07726,0.23037 -0.06879,0.20285 -0.08714,-0.0759 -0.01871,-0.27869 -0.112887,-0.58278 -0.179562,-0.6805 -0.06703,-0.0977 -0.16369,-0.14782 -0.175331,-0.16651 -0.01164,-0.019 -0.04163,-0.22084 -0.103011,-0.45332 -0.06138,-0.23284 -0.208846,-0.0857 -0.369713,0.23142 -0.102658,0.20249 -0.212725,0.37924 -0.20602,0.6029 -0.0024,0.049 -0.0049,0.0981 -0.0074,0.1471 -0.0039,0.0815 -0.08149,0.17392 -0.115007,0.25083 -0.03316,0.0769 0.04904,0.0198 0.03739,-0.12877 -0.0113,-0.14851 -0.04339,-0.38487 -0.02506,-0.53657 0.01093,-0.0921 0.02011,-0.18415 0.02117,-0.27623 0.0024,-0.19014 -0.04833,-0.37429 -0.210256,-0.49671 -0.158044,-0.11924 -0.24271,0.0702 -0.365477,0.10266 -0.32879,0.0875 -0.540808,-0.0374 -0.64629,-0.35313 -0.04445,-0.13264 -0.08678,-0.26634 -0.116064,-0.40287 -0.07338,-0.34184 -0.362654,-0.27552 -0.558094,-0.24024 -0.235302,0.0427 -0.115358,0.24165 -0.06738,0.39405 0.02117,0.066 0.03563,0.1337 0.04833,0.20214 0.02117,0.11289 -0.203906,0.0896 -0.367948,-0.17215 -0.09807,-0.15664 -0.150635,-0.33691 -0.153104,-0.53023 -0.0085,-0.67627 -0.14464,-1.33703 -0.2413,-2.00166 -0.0822,-0.56233 0.06667,-1.05657 0.06103,-1.20685 -0.0032,-0.0878 -0.03034,-0.18945 0.02363,-0.26565 0.163687,-0.23036 0.193675,-0.43956 0.106185,-0.60924 -0.164748,-0.31997 -0.524581,-0.39053 -0.522464,-0.43639 0.0024,-0.0455 0.134408,0.0321 0.328789,0.0526 0.110773,0.0116 0.143934,-0.072 0.155223,-0.2674 0.0067,-0.11325 -0.0056,-0.22896 -0.02257,-0.34149 -0.0381,-0.25118 -0.07197,-0.35666 -0.182738,-0.33444 -0.230716,0.0466 -0.368654,0.0572 -0.377473,-0.14428 -0.0088,-0.20144 -0.05574,-0.20214 0.06844,-0.1517 0.05891,0.024 0.140758,-0.009 0.221544,-0.0727 0.225777,-0.1785 0.234243,-0.43638 0.179916,-0.69956 -0.03034,-0.14781 -0.06032,-0.29527 -0.09031,-0.44308 -0.04939,-0.24483 0.08502,-0.52952 0.0949,-0.72143 0.0099,-0.19192 -0.04692,-0.42757 -0.05856,-0.54646 -0.01198,-0.11853 0.04763,-0.40358 0.03387,-0.67204 -0.0085,-0.16051 -0.04304,-0.32244 -0.05362,-0.48366 -0.0081,-0.12911 -0.0508,-0.2607 -0.170037,-0.27269 -0.331965,-0.0339 -0.667809,-0.11748 -1.00048,-0.13618 -0.556683,-0.031 -1.052335,0.25012 -1.165929,0.26176 -0.06844,0.007 -0.136879,0.0141 -0.205671,0.0212 -0.378883,0.031 -0.748945,0.0847 -1.108427,-0.14851 -0.131939,-0.0857 -0.379941,-0.0727 -0.542925,-0.0145 -0.479779,0.1718 -1.088321,-0.0554 -1.458383,0.48612 -0.06597,0.097 -0.288925,0.13723 -0.456848,0.0857 -0.172508,-0.0526 -0.262115,-0.018 -0.313619,0.0564 -0.10795,0.15593 -0.09031,0.32526 -0.08714,0.32174 0.0028,-0.004 -0.06985,0.0346 -0.170391,0.03 -0.100542,-0.005 -0.176035,-0.12171 -0.170037,-0.2413 0.0056,-0.1196 0.04904,-0.24307 0.0956,-0.27588 0.02858,-0.0198 0.05609,-0.0406 0.08114,-0.0639 0.122412,-0.11571 0.235654,-0.25823 0.135819,-0.42368 -0.09031,-0.14993 -0.249767,-0.0466 -0.378532,-0.0282 -0.409926,0.0596 -0.817033,0.14428 -1.23331,0.0261 -0.106891,-0.0307 -0.171802,7.1e-4 -0.219075,0.0568 -0.08573,0.1023 -0.144991,0.22437 -0.180623,0.24059 -0.03563,0.0162 -0.365125,0.0487 -0.703437,-0.085 -0.338315,-0.13335 -0.446265,-0.28081 -0.338667,-0.50941 0.05821,-0.12418 0.02646,-0.24059 -0.185563,-0.36195 -0.08537,-0.0487 -0.0762,-0.16968 -0.01622,-0.25012 0.137232,-0.18415 0.213784,-0.40675 0.416984,-0.54962 0.222602,-0.15699 0.324908,-0.23249 0.301625,-0.31257 -0.06914,-0.24094 -0.267052,-0.37641 -0.114652,-0.39969 0.09278,-0.0145 0.183443,-0.0321 0.221543,-0.14076 0.0067,-0.0194 0.0046,-0.0462 -0.0035,-0.0656 -0.0071,-0.0173 -0.02574,-0.0363 -0.04304,-0.0409 -0.01376,-0.004 -0.04868,0.0173 -0.04798,0.0198 0.05821,0.20073 0.214842,0.14852 0.342545,0.11465 0.32738,-0.0868 0.418042,-0.35666 0.148873,-0.55069 -0.171098,-0.12347 -0.270933,-0.27022 -0.335843,-0.43038 -0.114655,-0.28328 0.06491,-0.63112 0.226129,-0.49918 0.09172,0.0751 0.157339,0.19579 0.231071,0.29633 0.09384,0.127 0.112183,0.30762 0.26811,0.39299 0.07973,0.0437 0.164748,0.0931 0.253648,0.0265 0.101246,-0.0762 0.05574,-0.19155 7.94e-4,-0.24024 -0.10301,-0.091 -0.181679,-0.18873 -0.228952,-0.29845 -0.08255,-0.19226 -0.0056,-0.3743 0.02893,-0.39088 0.03422,-0.0166 0.111479,-0.004 0.152048,-0.0409 0.04092,-0.0378 0.0949,-0.26246 0.19826,-0.46672 0.06386,-0.1263 0.134057,-0.24659 0.227896,-0.34467 0.306563,-0.32032 0.729544,-0.47695 1.166636,-0.50165 0.303035,-0.0169 0.589843,-0.0709 0.877358,-0.14957 0.02117,-0.008 0.04233,-0.0159 0.0635,-0.0236 0.03493,-0.013 0.158044,-0.0233 0.274815,-0.0226 0.116768,7.1e-4 0.3429,0.18909 0.526695,0.11747 0.183446,-0.072 0.281871,-0.25576 0.322792,-0.26388 0.04092,-0.008 0.06032,0.14782 0.11924,0.33267 0.03739,0.11713 0.111831,0.19297 0.269523,0.13864 0.42686,-0.1471 0.879827,-0.11571 1.283758,-0.2741 0.26811,-0.10513 0.483307,-0.35948 0.600427,0.13194 0.02469,0.10371 0.148167,0.085 0.242358,0.0568 0.581025,-0.17534 1.167342,-0.0893 1.738138,0.0219 0.507646,0.0988 0.42051,-0.75424 0.959909,-0.54646 0.01588,0.006 0.09031,-0.0949 0.110066,-0.15522 0.02082,-0.0642 0.006,-0.1397 0.01236,-0.20955 0.0074,-0.0804 0.01553,-0.16122 0.024,-0.24165 0.01447,-0.13335 0.07796,-0.42545 0.07726,-0.65793 -2.64e-4,-0.23248 0.0141,-0.74578 0.0695,-1.14441 0.03281,-0.23883 0.08396,-0.47449 0.192263,-0.69992 0.04868,-0.10124 0.09313,-0.24447 0.05891,-0.33937 -0.210608,-0.58526 0.101952,-1.22096 -0.187325,-1.79775 -0.05468,-0.10866 0.01693,-0.28081 0.134761,-0.26953 0.236362,0.0229 0.552098,0.0667 0.613481,0.31221 0.08678,0.34608 0.281517,0.6731 0.185208,1.07351 -0.03775,0.15663 -0.04868,0.32279 -0.01482,0.47977 0.0568,0.26141 0.292452,0.16016 0.237773,-0.14358 -0.03246,-0.18097 -0.09455,-0.35595 -0.175332,-0.52881 -0.182033,-0.39017 0.105482,-0.75459 0.08573,-1.14759 -0.0127,-0.25541 0.334786,-0.18979 0.514702,-0.25717 0.215196,-0.0808 0.292455,-0.19015 0.297746,-0.40605 0.0067,-0.27234 -0.171804,-0.38559 -0.382058,-0.42474 -0.300567,-0.0565 -0.611365,-0.0138 -0.898879,0.0822 -0.116063,0.0392 -0.227188,0.0705 -0.337254,0.0765 -0.191207,0.0102 -0.275167,-0.17075 -0.206375,-0.28399 0.04339,-0.0709 0.08043,-0.14287 0.09384,-0.21907 0.05539,-0.31786 0.2032,-0.49284 0.39864,-0.59585 0.364066,-0.19191 0.872418,-0.0801 1.059391,-0.14111 0.108302,-0.0353 0.22084,-0.0815 0.346427,-0.0462 0.49389,0.13829 0.861838,-0.14464 1.178632,-0.52669 0.138641,-0.16722 0.207081,-0.34925 0.303035,-0.52811 0.04198,-0.078 0.112538,-0.17251 0.265642,-0.0476 0.377121,0.30727 0.489304,0.28151 0.612775,-0.16934 0.02963,-0.10795 0.06668,-0.16615 0.1143,-0.19438 0.109714,-0.0653 0.435681,0.25153 0.559506,0.62795 0.07303,0.22119 0.104423,0.45579 0.08326,0.70802 -0.0032,0.0402 -0.0035,0.0981 0.02469,0.13723 0.04657,0.0635 0.212725,-0.0677 0.186973,-0.21343 -0.01516,-0.0871 -0.05327,-0.17356 -0.07303,-0.25823 -0.03457,-0.14817 -0.03352,-0.32138 0.0071,-0.51365 0.05856,-0.2801 0.234598,-0.45578 0.314325,-0.41627 0.07973,0.0395 0.254354,0.35877 0.442031,0.68827 0.187325,0.32984 0.198615,0.73307 0.204258,0.85266 0.0056,0.11924 -0.0049,0.26635 -0.0074,0.34996 -0.0024,0.0836 0.05539,0.58667 0.24624,1.09184 0.115004,0.30516 0.250118,0.60537 0.315383,0.92463 0.02328,0.11395 0.05785,0.22578 0.08678,0.33902 0.04798,0.18698 0.01588,0.41134 0.05503,0.47449 0.03916,0.0631 0.117475,0.27129 0.131585,0.50765"
         style="display:inline;fill:#f9f9f9;fill-opacity:1;fill-rule:nonzero;stroke:none;stroke-width:0.0352777"
         id="path2114"
         transform="matrix(0.22774839,0,0,0.24565989,-37.726138,80.539021)" />
    </g>
  </g>
  <g
     inkscape:groupmode="layer"
     id="layer9"
     inkscape:label="Layout Components"
     style="display:none">
    <g
       id="use11134"
       transform="matrix(3.8700001,0,0,3.8700001,-87.390097,-56.524215)">
      <path
         inkscape:connector-curvature="0"
         id="path7484"
         d="m 24.550413,33.715648 c -0.591391,0 -1.072306,-0.480912 -1.072306,-1.072309 0,-0.591386 0.480915,-1.072306 1.072306,-1.072306 0.591391,0 1.072306,0.48092 1.072306,1.072306 0,0.591397 -0.480915,1.072309 -1.072306,1.072309"
         style="fill:#e6e6e6;fill-opacity:1;fill-rule:nonzero;stroke:#636663;stroke-width:0.0661458;stroke-miterlimit:4;stroke-dasharray:none;stroke-opacity:1" />
      <path
         inkscape:connector-curvature="0"
         id="path7486"
         d="m 24.550413,33.415581 c -0.425859,0 -0.772235,-0.346382 -0.772235,-0.772242 0,-0.425857 0.346376,-0.772231 0.772235,-0.772231 0.42586,0 0.772235,0.346374 0.772235,0.772231 0,0.42586 -0.346375,0.772242 -0.772235,0.772242"
         style="fill:#e6e6e6;fill-opacity:1;fill-rule:nonzero;stroke:#636663;stroke-width:0.0661458;stroke-miterlimit:4;stroke-dasharray:none;stroke-opacity:1" />
      <path
         inkscape:connector-curvature="0"
         id="path7488"
         d="m 25.026589,32.643339 c 0,0.262882 -0.213295,0.476181 -0.476176,0.476181 -0.262881,0 -0.476176,-0.213299 -0.476176,-0.476181 0,-0.262879 0.213295,-0.476168 0.476176,-0.476168 0.262881,0 0.476176,0.213289 0.476176,0.476168"
         style="fill:#000000;fill-opacity:1;fill-rule:nonzero;stroke:none;stroke-width:0.0933392" />
    </g>
    <g
       id="use11161"
       transform="matrix(3.8700001,0,0,3.8700001,-128.97976,-26.211918)">
      <path
         inkscape:connector-curvature="0"
         style="fill:#000000;fill-opacity:1;fill-rule:nonzero;stroke:none;stroke-width:0.0933392"
         d="m 38.57825,17.56713 c 0,0.730669 -0.592113,1.323155 -1.322781,1.323155 -0.730679,0 -1.323158,-0.592486 -1.323158,-1.323155 0,-0.730671 0.592479,-1.322791 1.323158,-1.322791 0.730668,0 1.322781,0.59212 1.322781,1.322791"
         id="path7310" />
      <path
         inkscape:connector-curvature="0"
         style="fill:#ffffff;fill-opacity:1;fill-rule:evenodd;stroke:none;stroke-width:0.0933392"
         d="m 37.29958,16.249444 c -0.01458,-0.0033 -0.02917,-0.0051 -0.04411,-0.0051 -0.01532,0 -0.02953,0.0018 -0.04412,0.0051 v 1.334457 h 0.08823 z m 0,0"
         id="path7312" />
    </g>
    <g
       id="use11134-6"
       transform="matrix(3.8700001,0,0,3.8700001,-79.811921,-73.662072)">
      <path
         inkscape:connector-curvature="0"
         id="path7476"
         d="m 24.550413,33.715648 c -0.591391,0 -1.072306,-0.480912 -1.072306,-1.072309 0,-0.591386 0.480915,-1.072306 1.072306,-1.072306 0.591391,0 1.072306,0.48092 1.072306,1.072306 0,0.591397 -0.480915,1.072309 -1.072306,1.072309"
         style="fill:#e6e6e6;fill-opacity:1;fill-rule:nonzero;stroke:#636663;stroke-width:0.0661458;stroke-miterlimit:4;stroke-dasharray:none;stroke-opacity:1" />
      <path
         inkscape:connector-curvature="0"
         id="path7478"
         d="m 24.550413,33.415581 c -0.425859,0 -0.772235,-0.346382 -0.772235,-0.772242 0,-0.425857 0.346376,-0.772231 0.772235,-0.772231 0.42586,0 0.772235,0.346374 0.772235,0.772231 0,0.42586 -0.346375,0.772242 -0.772235,0.772242"
         style="fill:#e6e6e6;fill-opacity:1;fill-rule:nonzero;stroke:#636663;stroke-width:0.0661458;stroke-miterlimit:4;stroke-dasharray:none;stroke-opacity:1" />
      <path
         inkscape:connector-curvature="0"
         id="path7480"
         d="m 25.026589,32.643339 c 0,0.262882 -0.213295,0.476181 -0.476176,0.476181 -0.262881,0 -0.476176,-0.213299 -0.476176,-0.476181 0,-0.262879 0.213295,-0.476168 0.476176,-0.476168 0.262881,0 0.476176,0.213289 0.476176,0.476168"
         style="fill:#000000;fill-opacity:1;fill-rule:nonzero;stroke:none;stroke-width:0.0933392" />
    </g>
    <g
       id="use11245"
       transform="matrix(3.8700001,0,0,3.8700001,-122.32294,-41.906788)">
      <path
         inkscape:connector-curvature="0"
         style="fill:#000000;fill-opacity:1;fill-rule:nonzero;stroke:none;stroke-width:0.0933392"
         d="m 37.215276,18.312357 c 0,0.927557 -0.752182,1.680104 -1.680105,1.680104 -0.92792,0 -1.680101,-0.752547 -1.680101,-1.680104 0,-0.927923 0.752181,-1.680104 1.680101,-1.680104 0.927923,0 1.680105,0.752181 1.680105,1.680104"
         id="path7422" />
      <path
         inkscape:connector-curvature="0"
         style="fill:#ffffff;fill-opacity:1;fill-rule:evenodd;stroke:none;stroke-width:0.0933392"
         d="m 35.590951,16.638452 c -0.01823,-0.004 -0.03682,-0.0062 -0.05578,-0.0062 -0.01934,0 -0.03792,0.0022 -0.05579,0.0062 v 1.694688 h 0.111567 z m 0,0"
         id="path7424" />
    </g>
    <g
       id="use11134-2"
       transform="matrix(3.8700001,0,0,3.8700001,-87.3901,-39.041205)">
      <path
         inkscape:connector-curvature="0"
         id="path7468"
         d="m 24.550413,33.715648 c -0.591391,0 -1.072306,-0.480912 -1.072306,-1.072309 0,-0.591386 0.480915,-1.072306 1.072306,-1.072306 0.591391,0 1.072306,0.48092 1.072306,1.072306 0,0.591397 -0.480915,1.072309 -1.072306,1.072309"
         style="fill:#e6e6e6;fill-opacity:1;fill-rule:nonzero;stroke:#636663;stroke-width:0.0661458;stroke-miterlimit:4;stroke-dasharray:none;stroke-opacity:1" />
      <path
         inkscape:connector-curvature="0"
         id="path7470"
         d="m 24.550413,33.415581 c -0.425859,0 -0.772235,-0.346382 -0.772235,-0.772242 0,-0.425857 0.346376,-0.772231 0.772235,-0.772231 0.42586,0 0.772235,0.346374 0.772235,0.772231 0,0.42586 -0.346375,0.772242 -0.772235,0.772242"
         style="fill:#e6e6e6;fill-opacity:1;fill-rule:nonzero;stroke:#636663;stroke-width:0.0661458;stroke-miterlimit:4;stroke-dasharray:none;stroke-opacity:1" />
      <path
         inkscape:connector-curvature="0"
         id="path7472"
         d="m 25.026589,32.643339 c 0,0.262882 -0.213295,0.476181 -0.476176,0.476181 -0.262881,0 -0.476176,-0.213299 -0.476176,-0.476181 0,-0.262879 0.213295,-0.476168 0.476176,-0.476168 0.262881,0 0.476176,0.213289 0.476176,0.476168"
         style="fill:#000000;fill-opacity:1;fill-rule:nonzero;stroke:none;stroke-width:0.0933392" />
    </g>
    <g
       id="use11134-0"
       transform="matrix(3.8700001,0,0,3.8700001,-87.3901,-20.520361)">
      <path
         inkscape:connector-curvature="0"
         id="path7460"
         d="m 24.550413,33.715648 c -0.591391,0 -1.072306,-0.480912 -1.072306,-1.072309 0,-0.591386 0.480915,-1.072306 1.072306,-1.072306 0.591391,0 1.072306,0.48092 1.072306,1.072306 0,0.591397 -0.480915,1.072309 -1.072306,1.072309"
         style="fill:#e6e6e6;fill-opacity:1;fill-rule:nonzero;stroke:#636663;stroke-width:0.0661458;stroke-miterlimit:4;stroke-dasharray:none;stroke-opacity:1" />
      <path
         inkscape:connector-curvature="0"
         id="path7462"
         d="m 24.550413,33.415581 c -0.425859,0 -0.772235,-0.346382 -0.772235,-0.772242 0,-0.425857 0.346376,-0.772231 0.772235,-0.772231 0.42586,0 0.772235,0.346374 0.772235,0.772231 0,0.42586 -0.346375,0.772242 -0.772235,0.772242"
         style="fill:#e6e6e6;fill-opacity:1;fill-rule:nonzero;stroke:#636663;stroke-width:0.0661458;stroke-miterlimit:4;stroke-dasharray:none;stroke-opacity:1" />
      <path
         inkscape:connector-curvature="0"
         id="path7464"
         d="m 25.026589,32.643339 c 0,0.262882 -0.213295,0.476181 -0.476176,0.476181 -0.262881,0 -0.476176,-0.213299 -0.476176,-0.476181 0,-0.262879 0.213295,-0.476168 0.476176,-0.476168 0.262881,0 0.476176,0.213289 0.476176,0.476168"
         style="fill:#000000;fill-opacity:1;fill-rule:nonzero;stroke:none;stroke-width:0.0933392" />
    </g>
  </g>
  <g
     inkscape:groupmode="layer"
     id="layer2"
     inkscape:label="components"
     style="display:none;opacity:0.998">
    <circle
       style="display:inline;opacity:1;fill:#ff0000;fill-opacity:1;stroke:none;stroke-width:0.958553;stroke-opacity:1"
       id="circle4646"
       cx="15.19818"
       cy="41.773582"
       inkscape:label="FREQ_CV"
       r="5" />
    <circle
       inkscape:label="LEFT"
       r="5"
       cy="69.805519"
       cx="7.6200032"
       id="circle4650"
       style="display:inline;opacity:1;fill:#00ff00;fill-opacity:1;stroke-width:0.264584" />
    <circle
       inkscape:label="LEFT_HIGH"
       r="5"
       cy="87.288528"
       cx="7.6200004"
       id="circle4654"
       style="display:inline;opacity:1;fill:#0000ff;fill-opacity:1;stroke:none;stroke-width:0.958553;stroke-opacity:1" />
    <circle
       style="display:inline;opacity:1;fill:#0000ff;fill-opacity:1;stroke:none;stroke-width:0.958553;stroke-opacity:1"
       id="circle4658"
       cx="7.6200004"
       cy="105.80937"
       r="5"
       inkscape:label="LEFT_LOW" />
    <circle
       inkscape:label="FREQ_CV"
       r="5"
       cy="52.66766"
       cx="15.19818"
       id="circle4662"
       style="display:inline;opacity:1;fill:#00ff00;fill-opacity:1;stroke-width:0.264584" />
    <circle
       r="5"
       inkscape:label="FREQ"
       cy="28.962034"
       cx="15.19818"
       id="circle4708"
       style="display:inline;opacity:1;fill:#ff0000;fill-opacity:1;stroke:none;stroke-width:0.959;stroke-miterlimit:4;stroke-dasharray:none;stroke-opacity:1" />
    <circle
       inkscape:label="RIGHT"
       r="5"
       cy="69.805519"
       cx="22.965837"
       id="circle1296"
       style="display:inline;opacity:1;fill:#00ff00;fill-opacity:1;stroke-width:0.264584" />
    <circle
       inkscape:label="RIGHT_HIGH"
       r="5"
       cy="87.288528"
       cx="22.965834"
       id="circle1298"
       style="display:inline;opacity:1;fill:#0000ff;fill-opacity:1;stroke:none;stroke-width:0.958553;stroke-opacity:1" />
    <circle
       style="display:inline;opacity:1;fill:#0000ff;fill-opacity:1;stroke:none;stroke-width:0.958553;stroke-opacity:1"
       id="circle1300"
       cx="22.965834"
       cy="105.80937"
       r="5"
       inkscape:label="RIGHT_LOW" />
  </g>
</svg>
