<?xml version="1.0" encoding="UTF-8" standalone="no"?>
<!-- Created with Inkscape (http://www.inkscape.org/) -->

<svg
   xmlns:dc="http://purl.org/dc/elements/1.1/"
   xmlns:cc="http://creativecommons.org/ns#"
   xmlns:rdf="http://www.w3.org/1999/02/22-rdf-syntax-ns#"
   xmlns:svg="http://www.w3.org/2000/svg"
   xmlns="http://www.w3.org/2000/svg"
   xmlns:sodipodi="http://sodipodi.sourceforge.net/DTD/sodipodi-0.dtd"
   xmlns:inkscape="http://www.inkscape.org/namespaces/inkscape"
   width="50.799999mm"
   height="128.5mm"
   viewBox="0 0 50.799999 128.5"
   version="1.1"
   id="svg821"
   inkscape:version="0.92.4 (5da689c313, 2019-01-14)"
   sodipodi:docname="Maccomo.svg">
  <defs
     id="defs815" />
  <sodipodi:namedview
     id="base"
     pagecolor="#ffffff"
     bordercolor="#666666"
     borderopacity="1.0"
     inkscape:pageopacity="0.0"
     inkscape:pageshadow="2"
     inkscape:zoom="8"
     inkscape:cx="175.6576"
     inkscape:cy="233.12488"
     inkscape:document-units="mm"
     inkscape:current-layer="layer1"
     showgrid="true"
     fit-margin-top="0"
     fit-margin-left="0"
     fit-margin-right="0"
     fit-margin-bottom="0"
     inkscape:snap-bbox="true"
     inkscape:bbox-nodes="true"
     inkscape:snap-others="false"
     inkscape:snap-nodes="true"
     inkscape:window-width="1920"
     inkscape:window-height="1043"
     inkscape:window-x="1920"
     inkscape:window-y="0"
     inkscape:window-maximized="1"
     inkscape:snap-global="true"
     inkscape:showpageshadow="false"
     inkscape:bbox-paths="true"
     inkscape:snap-bbox-midpoints="true"
     inkscape:snap-bbox-edge-midpoints="true">
    <inkscape:grid
       type="xygrid"
       id="grid1366"
       units="mm"
       dotted="true"
       enabled="false" />
  </sodipodi:namedview>
  <metadata
     id="metadata818">
    <rdf:RDF>
      <cc:Work
         rdf:about="">
        <dc:format>image/svg+xml</dc:format>
        <dc:type
           rdf:resource="http://purl.org/dc/dcmitype/StillImage" />
        <dc:title></dc:title>
      </cc:Work>
    </rdf:RDF>
  </metadata>
  <g
     inkscape:label="Layer 1"
     inkscape:groupmode="layer"
     id="layer1"
     transform="translate(0,-168.5)"
     style="display:inline">
    <rect
       style="opacity:1;fill:#f0f0f0;fill-opacity:1;stroke-width:2.8599999;stroke-miterlimit:4;stroke-dasharray:none"
       id="rect1368"
       width="50.810242"
       height="128.50943"
       x="-0.010335271"
       y="168.50136" />
    <rect
       style="opacity:1;fill:#cdde87;fill-opacity:1;stroke-width:0.27496281"
       id="rect1370"
       width="50.793404"
       height="1.2593384"
       x="0.046642244"
       y="295.74066" />
    <text
       xml:space="preserve"
       style="font-style:normal;font-variant:normal;font-weight:bold;font-stretch:normal;font-size:3.52777767px;line-height:1.25;font-family:sans-serif;-inkscape-font-specification:'sans-serif Bold';letter-spacing:0px;word-spacing:0px;fill:#000000;fill-opacity:1;stroke:none;stroke-width:0.26458332"
       x="11.90625"
       y="195.13542"
       id="text861"><tspan
         sodipodi:role="line"
         id="tspan859"
         x="11.90625"
         y="198.25668"
         style="font-style:normal;font-variant:normal;font-weight:bold;font-stretch:normal;font-family:sans-serif;-inkscape-font-specification:'sans-serif Bold';stroke-width:0.26458332" /></text>
    <path
       inkscape:connector-curvature="0"
       id="path25991"
       d="M 11.189108,216.18124 H 39.532227"
       style="display:inline;fill:none;stroke:#000000;stroke-width:0.28592175;stroke-linecap:round;stroke-linejoin:round;stroke-miterlimit:10;stroke-opacity:1" />
    <path
       inkscape:connector-curvature="0"
       id="path25999"
       d="M 11.189108,238.78673 H 39.532227"
       style="display:inline;fill:none;stroke:#000000;stroke-width:0.28592175;stroke-linecap:round;stroke-linejoin:round;stroke-miterlimit:10;stroke-opacity:1" />
    <path
       inkscape:connector-curvature="0"
       id="path26007"
       d="M 11.150738,261.3936 H 31.993506"
       style="display:inline;fill:none;stroke:#000000;stroke-width:0.24518906;stroke-linecap:round;stroke-linejoin:round;stroke-miterlimit:10;stroke-opacity:1" />
    <rect
       style="display:inline;opacity:1;fill:#cdde87;fill-opacity:1;stroke-width:0.32203466"
       id="rect5287"
       width="10.583333"
       height="10.596378"
       x="35.71875"
       y="275.82028" />
    <g
       transform="matrix(0.43423599,0,0,0.35444393,428.92846,116.01205)"
       aria-label="V/oct"
       style="font-style:normal;font-variant:normal;font-weight:bold;font-stretch:normal;font-size:12.78070164px;line-height:1.25;font-family:sans-serif;-inkscape-font-specification:'sans-serif Bold';letter-spacing:0px;word-spacing:0px;display:inline;fill:#000000;fill-opacity:1;stroke:none;stroke-width:0.84423596"
       id="text5967">
      <path
         inkscape:connector-curvature="0"
         d="m -970.59916,188.5811 -2.02944,5.57533 h -0.98851 l -2.02943,-5.57533 h 0.7938 l 1.74861,4.9051 1.74861,-4.9051 z"
         style="font-style:normal;font-variant:normal;font-weight:normal;font-stretch:normal;font-size:7.66842127px;font-family:sans-serif;-inkscape-font-specification:sans-serif;stroke-width:0.84423596"
         id="path6107" />
      <path
         inkscape:connector-curvature="0"
         d="m -967.28167,188.33023 -2.6847,6.96448 h -0.64777 l 2.67346,-6.96448 z"
         style="font-style:normal;font-variant:normal;font-weight:normal;font-stretch:normal;font-size:7.66842127px;font-family:sans-serif;-inkscape-font-specification:sans-serif;stroke-width:0.84423596"
         id="path6109" />
      <path
         inkscape:connector-curvature="0"
         d="m -962.75476,192.06709 q 0,1.0222 -0.52421,1.61381 -0.52421,0.59161 -1.40413,0.59161 -0.88741,0 -1.41162,-0.59161 -0.52046,-0.59161 -0.52046,-1.61381 0,-1.02221 0.52046,-1.61382 0.52421,-0.59535 1.41162,-0.59535 0.87992,0 1.40413,0.59535 0.52421,0.59161 0.52421,1.61382 z m -0.7264,0 q 0,-0.81253 -0.31827,-1.20568 -0.31827,-0.3969 -0.88367,-0.3969 -0.57288,0 -0.89115,0.3969 -0.31453,0.39315 -0.31453,1.20568 0,0.78631 0.31827,1.19444 0.31827,0.40439 0.88741,0.40439 0.56165,0 0.87992,-0.40064 0.32202,-0.40439 0.32202,-1.19819 z"
         style="font-style:normal;font-variant:normal;font-weight:normal;font-stretch:normal;font-size:7.66842127px;font-family:sans-serif;-inkscape-font-specification:sans-serif;stroke-width:0.84423596"
         id="path6111" />
      <path
         inkscape:connector-curvature="0"
         d="m -958.56858,193.89433 q -0.35197,0.16849 -0.67024,0.2621 -0.31452,0.0936 -0.67024,0.0936 -0.45306,0 -0.83124,-0.13105 -0.37818,-0.1348 -0.64777,-0.40439 -0.27334,-0.26959 -0.42311,-0.68147 -0.14978,-0.41188 -0.14978,-0.9623 0,-1.02595 0.56165,-1.61007 0.5654,-0.58411 1.49025,-0.58411 0.35946,0 0.70394,0.10109 0.34822,0.1011 0.63654,0.24713 v 0.78257 h -0.0374 q -0.32202,-0.25087 -0.6665,-0.38567 -0.34073,-0.1348 -0.66649,-0.1348 -0.5991,0 -0.94732,0.40439 -0.34448,0.40065 -0.34448,1.17947 0,0.75636 0.33699,1.16449 0.34074,0.40439 0.95481,0.40439 0.21343,0 0.43434,-0.0562 0.22092,-0.0562 0.3969,-0.14603 0.15352,-0.0786 0.28832,-0.16475 0.13479,-0.0899 0.21343,-0.15352 h 0.0374 z"
         style="font-style:normal;font-variant:normal;font-weight:normal;font-stretch:normal;font-size:7.66842127px;font-family:sans-serif;-inkscape-font-specification:sans-serif;stroke-width:0.84423596"
         id="path6113" />
      <path
         inkscape:connector-curvature="0"
         d="m -955.49073,194.11899 q -0.19845,0.0524 -0.43434,0.0861 -0.23215,0.0337 -0.41562,0.0337 -0.64029,0 -0.97353,-0.34448 -0.33325,-0.34448 -0.33325,-1.10458 v -2.22415 h -0.47553 v -0.5916 h 0.47553 v -1.20194 h 0.70394 v 1.20194 h 1.4528 v 0.5916 h -1.4528 v 1.90588 q 0,0.3295 0.015,0.51672 0.015,0.18347 0.10485,0.34448 0.0824,0.14977 0.22466,0.22091 0.14603,0.0674 0.44183,0.0674 0.17224,0 0.35946,-0.0487 0.18721,-0.0524 0.26959,-0.0861 h 0.0374 z"
         style="font-style:normal;font-variant:normal;font-weight:normal;font-stretch:normal;font-size:7.66842127px;font-family:sans-serif;-inkscape-font-specification:sans-serif;stroke-width:0.84423596"
         id="path6115" />
    </g>
    <g
       transform="matrix(0.43423599,0,0,0.35444393,429.50149,118.75383)"
       aria-label="cv"
       style="font-style:normal;font-variant:normal;font-weight:bold;font-stretch:normal;font-size:12.78070164px;line-height:1.25;font-family:sans-serif;-inkscape-font-specification:'sans-serif Bold';letter-spacing:0px;word-spacing:0px;display:inline;fill:#000000;fill-opacity:1;stroke:none;stroke-width:0.84423596"
       id="text5967-7">
      <path
         inkscape:connector-curvature="0"
         d="m -967.97441,256.28636 q -0.35197,0.16849 -0.67024,0.2621 -0.31453,0.0936 -0.67024,0.0936 -0.45307,0 -0.83125,-0.13105 -0.37817,-0.1348 -0.64777,-0.40439 -0.27333,-0.26959 -0.42311,-0.68147 -0.14977,-0.41188 -0.14977,-0.9623 0,-1.02595 0.56165,-1.61007 0.5654,-0.58412 1.49025,-0.58412 0.35946,0 0.70394,0.1011 0.34822,0.1011 0.63654,0.24713 v 0.78257 h -0.0374 q -0.32201,-0.25087 -0.66649,-0.38567 -0.34074,-0.1348 -0.6665,-0.1348 -0.59909,0 -0.94731,0.40439 -0.34448,0.40065 -0.34448,1.17947 0,0.75636 0.33699,1.16449 0.34073,0.40439 0.9548,0.40439 0.21343,0 0.43435,-0.0562 0.22092,-0.0562 0.3969,-0.14603 0.15352,-0.0786 0.28831,-0.16475 0.1348,-0.0899 0.21343,-0.15352 h 0.0374 z"
         style="font-style:normal;font-variant:normal;font-weight:normal;font-stretch:normal;font-size:7.66842127px;font-family:sans-serif;-inkscape-font-specification:sans-serif;stroke-width:0.84423596"
         id="path6135" />
      <path
         inkscape:connector-curvature="0"
         d="m -963.45124,252.36603 -1.69245,4.18243 h -0.70768 l -1.68121,-4.18243 h 0.76384 l 1.29555,3.32872 1.28431,-3.32872 z"
         style="font-style:normal;font-variant:normal;font-weight:normal;font-stretch:normal;font-size:7.66842127px;font-family:sans-serif;-inkscape-font-specification:sans-serif;stroke-width:0.84423596"
         id="path6137" />
    </g>
    <g
       transform="matrix(0.43423599,0,0,0.35444393,429.50149,118.75383)"
       aria-label="cv"
       style="font-style:normal;font-variant:normal;font-weight:bold;font-stretch:normal;font-size:12.78070164px;line-height:1.25;font-family:sans-serif;-inkscape-font-specification:'sans-serif Bold';letter-spacing:0px;word-spacing:0px;display:inline;fill:#000000;fill-opacity:1;stroke:none;stroke-width:0.84423596"
       id="text5967-7-6">
      <path
         inkscape:connector-curvature="0"
         d="m -968.93297,319.55085 q -0.35197,0.1685 -0.67024,0.26211 -0.31452,0.0936 -0.67024,0.0936 -0.45306,0 -0.83124,-0.13106 -0.37818,-0.13479 -0.64777,-0.40439 -0.27334,-0.26959 -0.42312,-0.68147 -0.14977,-0.41187 -0.14977,-0.96229 0,-1.02595 0.56165,-1.61007 0.5654,-0.58412 1.49025,-0.58412 0.35946,0 0.70394,0.1011 0.34822,0.10109 0.63654,0.24712 v 0.78257 h -0.0375 q -0.32201,-0.25087 -0.66649,-0.38567 -0.34073,-0.13479 -0.66649,-0.13479 -0.5991,0 -0.94732,0.40439 -0.34448,0.40064 -0.34448,1.17947 0,0.75635 0.33699,1.16449 0.34073,0.40439 0.95481,0.40439 0.21343,0 0.43434,-0.0562 0.22092,-0.0562 0.3969,-0.14603 0.15352,-0.0786 0.28832,-0.16475 0.13479,-0.0899 0.21342,-0.15352 h 0.0375 z"
         style="font-style:normal;font-variant:normal;font-weight:normal;font-stretch:normal;font-size:7.66842127px;font-family:sans-serif;-inkscape-font-specification:sans-serif;stroke-width:0.84423596"
         id="path6153" />
      <path
         inkscape:connector-curvature="0"
         d="m -964.4098,315.63052 -1.69245,4.18244 h -0.70768 l -1.68121,-4.18244 h 0.76385 l 1.29554,3.32873 1.28431,-3.32873 z"
         style="font-style:normal;font-variant:normal;font-weight:normal;font-stretch:normal;font-size:7.66842127px;font-family:sans-serif;-inkscape-font-specification:sans-serif;stroke-width:0.84423596"
         id="path6155" />
    </g>
    <g
       transform="matrix(0.43423599,0,0,0.35444393,429.50149,118.75383)"
       aria-label="cv"
       style="font-style:normal;font-variant:normal;font-weight:bold;font-stretch:normal;font-size:12.78070164px;line-height:1.25;font-family:sans-serif;-inkscape-font-specification:'sans-serif Bold';letter-spacing:0px;word-spacing:0px;display:inline;fill:#000000;fill-opacity:1;stroke:none;stroke-width:0.84423596"
       id="text5967-7-2">
      <path
         inkscape:connector-curvature="0"
         d="m -968.22155,383.77388 q -0.35196,0.16849 -0.67023,0.2621 -0.31453,0.0936 -0.67024,0.0936 -0.45307,0 -0.83125,-0.13105 -0.37818,-0.1348 -0.64777,-0.40439 -0.27334,-0.2696 -0.42311,-0.68147 -0.14977,-0.41188 -0.14977,-0.9623 0,-1.02595 0.56165,-1.61007 0.56539,-0.58412 1.49025,-0.58412 0.35946,0 0.70394,0.1011 0.34822,0.1011 0.63653,0.24713 v 0.78256 h -0.0374 q -0.32201,-0.25087 -0.66649,-0.38566 -0.34074,-0.1348 -0.6665,-0.1348 -0.59909,0 -0.94732,0.40439 -0.34448,0.40065 -0.34448,1.17947 0,0.75636 0.33699,1.16449 0.34074,0.40439 0.95481,0.40439 0.21343,0 0.43435,-0.0562 0.22091,-0.0562 0.3969,-0.14603 0.15352,-0.0786 0.28831,-0.16476 0.1348,-0.0899 0.21343,-0.15351 h 0.0374 z"
         style="font-style:normal;font-variant:normal;font-weight:normal;font-stretch:normal;font-size:7.66842127px;font-family:sans-serif;-inkscape-font-specification:sans-serif;stroke-width:0.84423596"
         id="path6165" />
      <path
         inkscape:connector-curvature="0"
         d="m -963.69838,379.85355 -1.69244,4.18243 h -0.70768 l -1.68121,-4.18243 h 0.76384 l 1.29555,3.32872 1.28431,-3.32872 z"
         style="font-style:normal;font-variant:normal;font-weight:normal;font-stretch:normal;font-size:7.66842127px;font-family:sans-serif;-inkscape-font-specification:sans-serif;stroke-width:0.84423596"
         id="path6167" />
    </g>
    <g
       transform="matrix(0.43423599,0,0,0.35444393,429.50149,118.75383)"
       aria-label="in"
       style="font-style:normal;font-variant:normal;font-weight:bold;font-stretch:normal;font-size:12.78070164px;line-height:1.25;font-family:sans-serif;-inkscape-font-specification:'sans-serif Bold';letter-spacing:0px;word-spacing:0px;display:inline;fill:#000000;fill-opacity:1;stroke:none;stroke-width:0.84423596"
       id="text5967-7-1">
      <path
         inkscape:connector-curvature="0"
         d="m -969.61441,435.80155 h -0.79381 v -0.73015 h 0.79381 z m -0.0449,4.88262 h -0.70393 v -4.18243 h 0.70393 z"
         style="font-style:normal;font-variant:normal;font-weight:normal;font-stretch:normal;font-size:7.66842127px;font-family:sans-serif;-inkscape-font-specification:sans-serif;stroke-width:0.84423596"
         id="path6210" />
      <path
         inkscape:connector-curvature="0"
         d="m -964.76174,440.68417 h -0.70394 v -2.3814 q 0,-0.28832 -0.0337,-0.53919 -0.0337,-0.25461 -0.12356,-0.3969 -0.0936,-0.15726 -0.26959,-0.23215 -0.17599,-0.0786 -0.45681,-0.0786 -0.28832,0 -0.60284,0.14229 -0.31453,0.14228 -0.60284,0.3632 v 3.12278 h -0.70394 v -4.18243 h 0.70394 v 0.4643 q 0.3295,-0.27334 0.68147,-0.42686 0.35197,-0.15352 0.72266,-0.15352 0.67772,0 1.03344,0.40814 0.35571,0.40813 0.35571,1.17572 z"
         style="font-style:normal;font-variant:normal;font-weight:normal;font-stretch:normal;font-size:7.66842127px;font-family:sans-serif;-inkscape-font-specification:sans-serif;stroke-width:0.84423596"
         id="path6212" />
    </g>
    <g
       transform="matrix(0.43423599,0,0,0.35444393,436.84997,118.51324)"
       aria-label="out"
       style="font-style:normal;font-variant:normal;font-weight:bold;font-stretch:normal;font-size:12.78070164px;line-height:1.25;font-family:sans-serif;-inkscape-font-specification:'sans-serif Bold';letter-spacing:0px;word-spacing:0px;display:inline;fill:#000000;fill-opacity:1;stroke:none;stroke-width:0.84423596"
       id="text5967-7-9">
      <path
         inkscape:connector-curvature="0"
         d="m -913.34436,438.47877 q 0,1.02221 -0.52421,1.61381 -0.52421,0.59161 -1.40413,0.59161 -0.88741,0 -1.41162,-0.59161 -0.52046,-0.5916 -0.52046,-1.61381 0,-1.02221 0.52046,-1.61381 0.52421,-0.59535 1.41162,-0.59535 0.87992,0 1.40413,0.59535 0.52421,0.5916 0.52421,1.61381 z m -0.72641,0 q 0,-0.81252 -0.31827,-1.20568 -0.31826,-0.3969 -0.88366,-0.3969 -0.57289,0 -0.89116,0.3969 -0.31452,0.39316 -0.31452,1.20568 0,0.78631 0.31827,1.19445 0.31827,0.40439 0.88741,0.40439 0.56165,0 0.87992,-0.40065 0.32201,-0.40439 0.32201,-1.19819 z"
         style="font-style:normal;font-variant:normal;font-weight:normal;font-stretch:normal;font-size:7.66842127px;font-family:sans-serif;-inkscape-font-specification:sans-serif;stroke-width:0.84423596"
         id="path6203" />
      <path
         inkscape:connector-curvature="0"
         d="m -908.78375,440.56812 h -0.70394 v -0.4643 q -0.35571,0.28082 -0.68147,0.4306 -0.32576,0.14977 -0.71891,0.14977 -0.65901,0 -1.02595,-0.40065 -0.36695,-0.40438 -0.36695,-1.18321 v -2.71465 h 0.70394 v 2.3814 q 0,0.31827 0.0299,0.54668 0.03,0.22466 0.12731,0.38567 0.1011,0.16475 0.26211,0.23964 0.161,0.0749 0.46804,0.0749 0.27334,0 0.59535,-0.14228 0.32576,-0.14229 0.60658,-0.3632 v -3.12279 h 0.70394 z"
         style="font-style:normal;font-variant:normal;font-weight:normal;font-stretch:normal;font-size:7.66842127px;font-family:sans-serif;-inkscape-font-specification:sans-serif;stroke-width:0.84423596"
         id="path6205" />
      <path
         inkscape:connector-curvature="0"
         d="m -905.22662,440.53067 q -0.19845,0.0524 -0.43434,0.0861 -0.23215,0.0337 -0.41563,0.0337 -0.64028,0 -0.97353,-0.34448 -0.33324,-0.34448 -0.33324,-1.10458 v -2.22414 h -0.47554 v -0.59161 h 0.47554 v -1.20193 h 0.70393 v 1.20193 h 1.45281 v 0.59161 h -1.45281 v 1.90587 q 0,0.3295 0.015,0.51672 0.015,0.18347 0.10484,0.34448 0.0824,0.14977 0.22466,0.22092 0.14603,0.0674 0.44184,0.0674 0.17224,0 0.35945,-0.0487 0.18722,-0.0524 0.2696,-0.0861 h 0.0374 z"
         style="font-style:normal;font-variant:normal;font-weight:normal;font-stretch:normal;font-size:7.66842127px;font-family:sans-serif;-inkscape-font-specification:sans-serif;stroke-width:0.84423596"
         id="path6207" />
    </g>
    <g
       aria-label="Maccomo"
       transform="translate(0,168.5)"
       style="font-style:normal;font-weight:normal;font-size:4.93888855px;line-height:1.25;font-family:sans-serif;letter-spacing:0px;word-spacing:0px;display:inline;fill:#000000;fill-opacity:1;stroke:none;stroke-width:0.26458332"
       id="text5961">
      <path
         d="m 14.208952,4.4441791 h 0.725881 l 0.918807,2.4501518 0.92363,-2.4501518 h 0.725882 V 8.0446482 H 17.028073 V 4.8830843 L 16.09962,7.3525285 H 15.610072 L 14.681619,4.8830843 v 3.1615639 h -0.472667 z"
         style="stroke-width:0.26458332"
         id="path6211" />
      <path
         d="m 19.680797,6.6869361 q -0.53778,0 -0.745174,0.1229899 -0.207395,0.1229899 -0.207395,0.4196126 0,0.2363336 0.15434,0.3762044 0.156752,0.1374593 0.424436,0.1374593 0.36897,0 0.590834,-0.2604492 0.224275,-0.2628607 0.224275,-0.6969427 v -0.098874 z m 0.885045,-0.183279 V 8.0446482 H 20.122113 V 7.6346818 q -0.151928,0.2459798 -0.378616,0.3641466 -0.226687,0.1157552 -0.55466,0.1157552 -0.414789,0 -0.660769,-0.2315104 Q 18.2845,7.6491512 18.2845,7.2584774 q 0,-0.4557861 0.303857,-0.6872965 0.306269,-0.2315104 0.911572,-0.2315104 h 0.622184 v -0.043408 q 0,-0.3062689 -0.202571,-0.472667 -0.20016,-0.1688097 -0.564307,-0.1688097 -0.23151,0 -0.450963,0.055466 -0.219452,0.055466 -0.422024,0.1663981 V 5.4666834 q 0.243568,-0.094051 0.472667,-0.1398709 0.229099,-0.048231 0.44614,-0.048231 0.586011,0 0.875399,0.3038574 0.289388,0.3038574 0.289388,0.9212185 z"
         style="stroke-width:0.26458332"
         id="path6213" />
      <path
         d="M 23.42596,5.4473909 V 5.8621803 Q 23.237858,5.758483 23.047344,5.7078401 q -0.188102,-0.053055 -0.381028,-0.053055 -0.43167,0 -0.670415,0.2749186 -0.238745,0.272507 -0.238745,0.7668782 0,0.4943712 0.238745,0.7692898 0.238745,0.272507 0.670415,0.272507 0.192926,0 0.381028,-0.050643 0.190514,-0.053055 0.378616,-0.1567518 v 0.4099663 q -0.185691,0.086816 -0.385851,0.1302246 -0.197748,0.043408 -0.422024,0.043408 -0.610126,0 -0.96945,-0.3834391 -0.359323,-0.3834391 -0.359323,-1.0345621 0,-0.6607693 0.361735,-1.0393852 0.364146,-0.378616 0.995977,-0.378616 0.204983,0 0.40032,0.043408 0.195337,0.040997 0.378616,0.1254015 z"
         style="stroke-width:0.26458332"
         id="path6215" />
      <path
         d="M 26.146207,5.4473909 V 5.8621803 Q 25.958105,5.758483 25.767591,5.7078401 q -0.188102,-0.053055 -0.381027,-0.053055 -0.431671,0 -0.670416,0.2749186 -0.238745,0.272507 -0.238745,0.7668782 0,0.4943712 0.238745,0.7692898 0.238745,0.272507 0.670416,0.272507 0.192925,0 0.381027,-0.050643 0.190514,-0.053055 0.378616,-0.1567518 v 0.4099663 q -0.185691,0.086816 -0.385851,0.1302246 -0.197748,0.043408 -0.422024,0.043408 -0.610126,0 -0.96945,-0.3834391 -0.359323,-0.3834391 -0.359323,-1.0345621 0,-0.6607693 0.361735,-1.0393852 0.364147,-0.378616 0.995977,-0.378616 0.204983,0 0.40032,0.043408 0.195337,0.040997 0.378616,0.1254015 z"
         style="stroke-width:0.26458332"
         id="path6217" />
      <path
         d="m 27.969352,5.6547856 q -0.356912,0 -0.564307,0.2797417 -0.207395,0.2773302 -0.207395,0.7620551 0,0.4847249 0.204983,0.7644666 0.207395,0.2773302 0.566719,0.2773302 0.3545,0 0.561895,-0.2797417 0.207394,-0.2797418 0.207394,-0.7620551 0,-0.4799018 -0.207394,-0.7596435 -0.207395,-0.2821533 -0.561895,-0.2821533 z m 0,-0.3762044 q 0.578776,0 0.90916,0.3762044 0.330385,0.3762044 0.330385,1.0417968 0,0.6631808 -0.330385,1.0417968 -0.330384,0.3762044 -0.90916,0.3762044 -0.581188,0 -0.911573,-0.3762044 -0.327973,-0.378616 -0.327973,-1.0417968 0,-0.6655924 0.327973,-1.0417968 0.330385,-0.3762044 0.911573,-0.3762044 z"
         style="stroke-width:0.26458332"
         id="path6219" />
      <path
         d="m 32.044899,5.8621803 q 0.166398,-0.2990342 0.397909,-0.4413167 0.23151,-0.1422824 0.545014,-0.1422824 0.422024,0 0.651123,0.2966227 0.229099,0.2942111 0.229099,0.8392252 v 1.6302191 h -0.44614 V 6.4288985 q 0,-0.3882622 -0.13746,-0.5763644 -0.137459,-0.1881022 -0.419612,-0.1881022 -0.344854,0 -0.545014,0.2290988 -0.20016,0.2290988 -0.20016,0.6245958 v 1.5265217 h -0.44614 V 6.4288985 q 0,-0.3906738 -0.137459,-0.5763644 -0.13746,-0.1881022 -0.424436,-0.1881022 -0.340031,0 -0.540191,0.2315104 -0.20016,0.2290988 -0.20016,0.6221842 v 1.5265217 h -0.44614 V 5.3436935 h 0.44614 v 0.4196126 q 0.151929,-0.2483914 0.364146,-0.3665581 0.212218,-0.1181668 0.504018,-0.1181668 0.294211,0 0.499194,0.1495171 0.207395,0.1495172 0.306269,0.434082 z"
         style="stroke-width:0.26458332"
         id="path6221" />
      <path
         d="m 35.802121,5.6547856 q -0.356912,0 -0.564307,0.2797417 -0.207394,0.2773302 -0.207394,0.7620551 0,0.4847249 0.204983,0.7644666 0.207394,0.2773302 0.566718,0.2773302 0.3545,0 0.561895,-0.2797417 0.207395,-0.2797418 0.207395,-0.7620551 0,-0.4799018 -0.207395,-0.7596435 -0.207395,-0.2821533 -0.561895,-0.2821533 z m 0,-0.3762044 q 0.578776,0 0.909161,0.3762044 0.330384,0.3762044 0.330384,1.0417968 0,0.6631808 -0.330384,1.0417968 -0.330385,0.3762044 -0.909161,0.3762044 -0.581188,0 -0.911572,-0.3762044 -0.327973,-0.378616 -0.327973,-1.0417968 0,-0.6655924 0.327973,-1.0417968 0.330384,-0.3762044 0.911572,-0.3762044 z"
         style="stroke-width:0.26458332"
         id="path6223" />
    </g>
    <g
       aria-label="frequency"
       style="font-style:normal;font-weight:normal;font-size:2.82222223px;line-height:1.25;font-family:sans-serif;letter-spacing:0px;word-spacing:0px;display:inline;fill:#000000;fill-opacity:1;stroke:none;stroke-width:0.26458332"
       id="text5965">
      <path
         d="m 34.590137,183.22917 v 0.21084 h -0.242535 q -0.136426,0 -0.190169,0.0551 -0.05237,0.0551 -0.05237,0.19844 V 183.83 h 0.417546 v 0.19705 h -0.417546 v 1.34635 H 33.85013 v -1.34635 H 33.607595 V 183.83 h 0.242535 v -0.10749 q 0,-0.2577 0.119889,-0.37483 0.11989,-0.11851 0.380339,-0.11851 z"
         style="stroke-width:0.26458332"
         id="path6226" />
      <path
         d="m 35.695323,184.06702 q -0.04272,-0.0248 -0.09371,-0.0358 -0.04961,-0.0124 -0.110243,-0.0124 -0.214974,0 -0.33073,0.14056 -0.114377,0.13918 -0.114377,0.40101 v 0.81304 H 34.79133 V 183.83 h 0.254937 v 0.23977 q 0.07993,-0.14056 0.208084,-0.20808 0.128158,-0.0689 0.311437,-0.0689 0.02618,0 0.05788,0.004 0.03169,0.003 0.07028,0.01 z"
         style="stroke-width:0.26458332"
         id="path6228" />
      <path
         d="m 37.223568,184.53831 v 0.12402 h -1.165821 q 0.01654,0.26183 0.157097,0.39963 0.141938,0.13643 0.394119,0.13643 0.146072,0 0.282497,-0.0358 0.137804,-0.0358 0.272852,-0.10749 v 0.23978 q -0.136426,0.0579 -0.279742,0.0882 -0.143316,0.0303 -0.290766,0.0303 -0.369314,0 -0.585666,-0.21497 -0.214974,-0.21498 -0.214974,-0.58154 0,-0.37896 0.20395,-0.60082 0.205327,-0.22324 0.552593,-0.22324 0.311437,0 0.49196,0.20119 0.181901,0.19982 0.181901,0.54433 z m -0.253559,-0.0744 q -0.0028,-0.20808 -0.117134,-0.3321 -0.112999,-0.12403 -0.300412,-0.12403 -0.212218,0 -0.340375,0.11989 -0.12678,0.11989 -0.146072,0.33762 z"
         style="stroke-width:0.26458332"
         id="path6230" />
      <path
         d="m 37.791319,184.60307 q 0,0.27975 0.114378,0.4396 0.115755,0.15847 0.316948,0.15847 0.201194,0 0.316949,-0.15847 0.115755,-0.15985 0.115755,-0.4396 0,-0.27974 -0.115755,-0.43821 -0.115755,-0.15985 -0.316949,-0.15985 -0.201193,0 -0.316948,0.15985 -0.114378,0.15847 -0.114378,0.43821 z m 0.86403,0.53882 q -0.07993,0.1378 -0.202571,0.20533 -0.121268,0.0661 -0.292144,0.0661 -0.279742,0 -0.456131,-0.22324 -0.175011,-0.22324 -0.175011,-0.58705 0,-0.3638 0.175011,-0.58704 0.176389,-0.22324 0.456131,-0.22324 0.170876,0 0.292144,0.0675 0.122645,0.0661 0.202571,0.20395 V 183.83 h 0.253559 v 2.13044 h -0.253559 z"
         style="stroke-width:0.26458332"
         id="path6232" />
      <path
         d="M 39.405002,184.7643 V 183.83 h 0.253559 v 0.92466 q 0,0.21911 0.08544,0.32935 0.08544,0.10886 0.256315,0.10886 0.205327,0 0.323839,-0.13091 0.119889,-0.13091 0.119889,-0.35691 V 183.83 h 0.253559 v 1.5434 h -0.253559 v -0.23702 q -0.09233,0.14056 -0.214974,0.20946 -0.121267,0.0675 -0.282498,0.0675 -0.265961,0 -0.403765,-0.16536 -0.137804,-0.16537 -0.137804,-0.4837 z m 0.638032,-0.97151 z"
         style="stroke-width:0.26458332"
         id="path6234" />
      <path
         d="m 42.542795,184.53831 v 0.12402 h -1.16582 q 0.01654,0.26183 0.157096,0.39963 0.141938,0.13643 0.394119,0.13643 0.146072,0 0.282498,-0.0358 0.137804,-0.0358 0.272851,-0.10749 v 0.23978 q -0.136425,0.0579 -0.279741,0.0882 -0.143316,0.0303 -0.290766,0.0303 -0.369315,0 -0.585667,-0.21497 -0.214974,-0.21498 -0.214974,-0.58154 0,-0.37896 0.20395,-0.60082 0.205328,-0.22324 0.552593,-0.22324 0.311437,0 0.49196,0.20119 0.181901,0.19982 0.181901,0.54433 z m -0.253559,-0.0744 q -0.0028,-0.20808 -0.117133,-0.3321 -0.112999,-0.12403 -0.300412,-0.12403 -0.212218,0 -0.340376,0.11989 -0.126779,0.11989 -0.146072,0.33762 z"
         style="stroke-width:0.26458332"
         id="path6236" />
      <path
         d="m 44.241916,184.44184 v 0.93156 h -0.253559 v -0.92329 q 0,-0.21911 -0.08544,-0.32797 -0.08544,-0.10887 -0.256315,-0.10887 -0.205327,0 -0.323839,0.13092 -0.118511,0.13091 -0.118511,0.35691 v 0.8723 H 42.949316 V 183.83 h 0.254937 v 0.23977 q 0.09095,-0.13918 0.213596,-0.20808 0.124023,-0.0689 0.285254,-0.0689 0.265961,0 0.402387,0.16536 0.136426,0.16399 0.136426,0.48369 z"
         style="stroke-width:0.26458332"
         id="path6238" />
      <path
         d="m 45.861111,183.88925 v 0.23702 q -0.107487,-0.0592 -0.216352,-0.0882 -0.107487,-0.0303 -0.21773,-0.0303 -0.246668,0 -0.383094,0.1571 -0.136426,0.15572 -0.136426,0.43821 0,0.2825 0.136426,0.4396 0.136426,0.15572 0.383094,0.15572 0.110243,0 0.21773,-0.0289 0.108865,-0.0303 0.216352,-0.0896 v 0.23426 q -0.106108,0.0496 -0.220486,0.0744 -0.112999,0.0248 -0.241156,0.0248 -0.348644,0 -0.553972,-0.21911 -0.205327,-0.21911 -0.205327,-0.59118 0,-0.37758 0.206705,-0.59393 0.208084,-0.21635 0.56913,-0.21635 0.117133,0 0.228754,0.0248 0.111622,0.0234 0.216352,0.0717 z"
         style="stroke-width:0.26458332"
         id="path6240" />
      <path
         d="m 46.947006,185.51671 q -0.107487,0.27561 -0.209462,0.35967 -0.101975,0.0841 -0.272852,0.0841 h -0.202571 v -0.21222 h 0.148828 q 0.104731,0 0.162608,-0.0496 0.05788,-0.0496 0.128158,-0.23426 l 0.04548,-0.11576 -0.624251,-1.51859 h 0.268717 l 0.482314,1.20716 0.482313,-1.20716 H 47.625 Z"
         style="stroke-width:0.26458332"
         id="path6242" />
    </g>
    <g
       aria-label="resonance"
       style="font-style:normal;font-weight:normal;font-size:2.82222223px;line-height:1.25;font-family:sans-serif;letter-spacing:0px;word-spacing:0px;display:inline;fill:#000000;fill-opacity:1;stroke:none;stroke-width:0.26458332"
       id="text5969">
      <path
         d="m 35.040752,206.88449 q -0.04272,-0.0248 -0.09371,-0.0358 -0.04961,-0.0124 -0.110243,-0.0124 -0.214974,0 -0.330729,0.14056 -0.114377,0.13918 -0.114377,0.40101 v 0.81304 h -0.254937 v -1.5434 h 0.254937 v 0.23978 q 0.07993,-0.14056 0.208084,-0.20809 0.128157,-0.0689 0.311436,-0.0689 0.02618,0 0.05788,0.004 0.03169,0.003 0.07028,0.01 z"
         style="stroke-width:0.26458332"
         id="path6245" />
      <path
         d="m 36.568996,207.35578 v 0.12402 h -1.16582 q 0.01654,0.26183 0.157096,0.39964 0.141938,0.13642 0.394119,0.13642 0.146072,0 0.282498,-0.0358 0.137804,-0.0358 0.272851,-0.10748 v 0.23977 q -0.136425,0.0579 -0.279741,0.0882 -0.143316,0.0303 -0.290766,0.0303 -0.369315,0 -0.585667,-0.21498 -0.214974,-0.21497 -0.214974,-0.58153 0,-0.37896 0.20395,-0.60083 0.205328,-0.22324 0.552593,-0.22324 0.311437,0 0.49196,0.2012 0.181901,0.19981 0.181901,0.54432 z m -0.253559,-0.0744 q -0.0028,-0.20809 -0.117133,-0.33211 -0.112999,-0.12402 -0.300412,-0.12402 -0.212218,0 -0.340376,0.11989 -0.126779,0.11988 -0.146072,0.33762 z"
         style="stroke-width:0.26458332"
         id="path6247" />
      <path
         d="m 37.969083,206.69294 v 0.23978 q -0.107487,-0.0551 -0.223242,-0.0827 -0.115755,-0.0276 -0.239779,-0.0276 -0.188791,0 -0.283876,0.0579 -0.09371,0.0579 -0.09371,0.17363 0,0.0882 0.06752,0.13918 0.06752,0.0496 0.271474,0.0951 l 0.08682,0.0193 q 0.270096,0.0579 0.383095,0.16399 0.114377,0.10473 0.114377,0.29352 0,0.21497 -0.170877,0.34037 -0.169498,0.12541 -0.467154,0.12541 -0.124024,0 -0.259072,-0.0248 -0.133669,-0.0234 -0.282497,-0.0717 v -0.26182 q 0.140559,0.073 0.276985,0.11024 0.136426,0.0358 0.270096,0.0358 0.179145,0 0.275607,-0.0606 0.09646,-0.062 0.09646,-0.17363 0,-0.10335 -0.07028,-0.15847 -0.0689,-0.0551 -0.304546,-0.10611 l -0.0882,-0.0207 q -0.235644,-0.0496 -0.340375,-0.15159 -0.104731,-0.10335 -0.104731,-0.2825 0,-0.21773 0.15434,-0.33624 0.15434,-0.11851 0.438216,-0.11851 0.14056,0 0.264584,0.0207 0.124023,0.0207 0.228754,0.062 z"
         style="stroke-width:0.26458332"
         id="path6249" />
      <path
         d="m 39.054977,206.82524 q -0.20395,0 -0.322461,0.15985 -0.118511,0.15847 -0.118511,0.43546 0,0.27698 0.117133,0.43684 0.118511,0.15847 0.323839,0.15847 0.202572,0 0.321083,-0.15985 0.118511,-0.15985 0.118511,-0.43546 0,-0.27423 -0.118511,-0.43408 -0.118511,-0.16123 -0.321083,-0.16123 z m 0,-0.21498 q 0.330729,0 0.51952,0.21498 0.188792,0.21497 0.188792,0.59531 0,0.37896 -0.188792,0.59531 -0.188791,0.21498 -0.51952,0.21498 -0.332107,0 -0.520898,-0.21498 -0.187414,-0.21635 -0.187414,-0.59531 0,-0.38034 0.187414,-0.59531 0.188791,-0.21498 0.520898,-0.21498 z"
         style="stroke-width:0.26458332"
         id="path6251" />
      <path
         d="m 41.465166,207.25932 v 0.93155 h -0.253559 v -0.92328 q 0,-0.21911 -0.08544,-0.32798 -0.08544,-0.10886 -0.256315,-0.10886 -0.205328,0 -0.323839,0.13091 -0.118511,0.13092 -0.118511,0.35691 v 0.8723 h -0.254937 v -1.5434 h 0.254937 v 0.23978 q 0.09095,-0.13918 0.213596,-0.20809 0.124023,-0.0689 0.285254,-0.0689 0.265961,0 0.402387,0.16537 0.136426,0.16398 0.136426,0.48369 z"
         style="stroke-width:0.26458332"
         id="path6253" />
      <path
         d="m 42.675084,207.41504 q -0.307303,0 -0.425814,0.0703 -0.118512,0.0703 -0.118512,0.23978 0,0.13504 0.08819,0.21497 0.08957,0.0786 0.242535,0.0786 0.210839,0 0.337619,-0.14883 0.128158,-0.15021 0.128158,-0.39825 v -0.0565 z m 0.50574,-0.10473 v 0.88056 h -0.253559 v -0.23426 q -0.08682,0.14056 -0.216352,0.20808 -0.129536,0.0661 -0.316949,0.0661 -0.237023,0 -0.377583,-0.1323 -0.139182,-0.13367 -0.139182,-0.35691 0,-0.26045 0.173633,-0.39274 0.175011,-0.13229 0.520899,-0.13229 h 0.355534 v -0.0248 q 0,-0.17501 -0.115756,-0.27009 -0.114377,-0.0965 -0.322461,-0.0965 -0.132291,0 -0.257693,0.0317 -0.125401,0.0317 -0.241156,0.0951 v -0.23427 q 0.139181,-0.0537 0.270095,-0.0799 0.130914,-0.0276 0.254937,-0.0276 0.334863,0 0.500228,0.17364 0.165365,0.17363 0.165365,0.52641 z"
         style="stroke-width:0.26458332"
         id="path6255" />
      <path
         d="m 44.987432,207.25932 v 0.93155 h -0.253559 v -0.92328 q 0,-0.21911 -0.08544,-0.32798 -0.08544,-0.10886 -0.256315,-0.10886 -0.205328,0 -0.323839,0.13091 -0.118511,0.13092 -0.118511,0.35691 v 0.8723 h -0.254937 v -1.5434 h 0.254937 v 0.23978 q 0.09095,-0.13918 0.213596,-0.20809 0.124023,-0.0689 0.285254,-0.0689 0.265961,0 0.402387,0.16537 0.136426,0.16398 0.136426,0.48369 z"
         style="stroke-width:0.26458332"
         id="path6257" />
      <path
         d="m 46.606626,206.70673 v 0.23702 q -0.107487,-0.0593 -0.216352,-0.0882 -0.107487,-0.0303 -0.21773,-0.0303 -0.246669,0 -0.383094,0.15709 -0.136426,0.15572 -0.136426,0.43822 0,0.2825 0.136426,0.43959 0.136425,0.15572 0.383094,0.15572 0.110243,0 0.21773,-0.0289 0.108865,-0.0303 0.216352,-0.0896 v 0.23427 q -0.106109,0.0496 -0.220486,0.0744 -0.112999,0.0248 -0.241156,0.0248 -0.348644,0 -0.553972,-0.21911 -0.205328,-0.21911 -0.205328,-0.59118 0,-0.37758 0.206706,-0.59394 0.208084,-0.21635 0.56913,-0.21635 0.117133,0 0.228754,0.0248 0.111621,0.0234 0.216352,0.0717 z"
         style="stroke-width:0.26458332"
         id="path6259" />
      <path
         d="m 48.370515,207.35578 v 0.12402 h -1.16582 q 0.01654,0.26183 0.157096,0.39964 0.141938,0.13642 0.394119,0.13642 0.146072,0 0.282498,-0.0358 0.137804,-0.0358 0.272852,-0.10748 v 0.23977 q -0.136426,0.0579 -0.279742,0.0882 -0.143316,0.0303 -0.290766,0.0303 -0.369314,0 -0.585666,-0.21498 -0.214974,-0.21497 -0.214974,-0.58153 0,-0.37896 0.203949,-0.60083 0.205328,-0.22324 0.552594,-0.22324 0.311436,0 0.491959,0.2012 0.181901,0.19981 0.181901,0.54432 z m -0.253559,-0.0744 q -0.0028,-0.20809 -0.117133,-0.33211 -0.112999,-0.12402 -0.300412,-0.12402 -0.212218,0 -0.340376,0.11989 -0.126779,0.11988 -0.146072,0.33762 z"
         style="stroke-width:0.26458332"
         id="path6261" />
    </g>
    <g
       transform="matrix(0.43423599,0,0,0.35444393,429.40061,113.42028)"
       aria-label="cv"
       style="font-style:normal;font-variant:normal;font-weight:bold;font-stretch:normal;font-size:12.78070164px;line-height:1.25;font-family:sans-serif;-inkscape-font-specification:'sans-serif Bold';letter-spacing:0px;word-spacing:0px;display:inline;fill:#000000;fill-opacity:1;stroke:none;stroke-width:0.84423596"
       id="text5967-7-3">
      <path
         inkscape:connector-curvature="0"
         d="m -967.97441,256.28636 q -0.35197,0.16849 -0.67024,0.2621 -0.31453,0.0936 -0.67024,0.0936 -0.45307,0 -0.83125,-0.13105 -0.37817,-0.1348 -0.64777,-0.40439 -0.27333,-0.26959 -0.42311,-0.68147 -0.14977,-0.41188 -0.14977,-0.9623 0,-1.02595 0.56165,-1.61007 0.5654,-0.58412 1.49025,-0.58412 0.35946,0 0.70394,0.1011 0.34822,0.1011 0.63654,0.24713 v 0.78257 h -0.0374 q -0.32201,-0.25087 -0.66649,-0.38567 -0.34074,-0.1348 -0.6665,-0.1348 -0.59909,0 -0.94731,0.40439 -0.34448,0.40065 -0.34448,1.17947 0,0.75636 0.33699,1.16449 0.34073,0.40439 0.9548,0.40439 0.21343,0 0.43435,-0.0562 0.22092,-0.0562 0.3969,-0.14603 0.15352,-0.0786 0.28831,-0.16475 0.1348,-0.0899 0.21343,-0.15352 h 0.0374 z"
         style="font-style:normal;font-variant:normal;font-weight:normal;font-stretch:normal;font-size:7.66842127px;font-family:sans-serif;-inkscape-font-specification:sans-serif;stroke-width:0.84423596"
         id="path6135-6" />
      <path
         inkscape:connector-curvature="0"
         d="m -963.45124,252.36603 -1.69245,4.18243 h -0.70768 l -1.68121,-4.18243 h 0.76384 l 1.29555,3.32872 1.28431,-3.32872 z"
         style="font-style:normal;font-variant:normal;font-weight:normal;font-stretch:normal;font-size:7.66842127px;font-family:sans-serif;-inkscape-font-specification:sans-serif;stroke-width:0.84423596"
         id="path6137-7" />
    </g>
    <path
       inkscape:connector-curvature="0"
       id="path25971-0"
       d="M 10.583158,198.04583 H 30.459752"
       style="display:inline;fill:none;stroke:#000000;stroke-width:0.23943868;stroke-linecap:round;stroke-linejoin:round;stroke-miterlimit:10;stroke-opacity:1" />
    <path
       inkscape:connector-curvature="0"
       id="path25971-9"
       d="M 10.539499,189.84375 H 30.443362"
       style="display:inline;fill:none;stroke:#000000;stroke-width:0.23960289;stroke-linecap:round;stroke-linejoin:round;stroke-miterlimit:10;stroke-opacity:1" />
    <path
       style="fill:#f0f0f0;stroke:#ffffff;stroke-width:0.26458332px;stroke-linecap:butt;stroke-linejoin:miter;stroke-opacity:1;fill-opacity:1"
       d="m 31.75,189.84375 c 2.645833,3.70417 2.645833,3.70417 0,0 z"
       id="path6181"
       inkscape:connector-curvature="0" />
    <path
       style="fill:none;stroke:#000000;stroke-width:0.26458332px;stroke-linecap:butt;stroke-linejoin:miter;stroke-opacity:1"
       d="m 39.6875,193.8125 c -5.291667,0 -5.291667,0 -5.291667,0"
       id="path6189"
       inkscape:connector-curvature="0" />
    <path
       style="fill:none;stroke:#000000;stroke-width:0.26458332px;stroke-linecap:butt;stroke-linejoin:miter;stroke-opacity:1"
       d="m 30.427083,189.84375 3.96875,3.96875"
       id="path6191"
       inkscape:connector-curvature="0" />
    <path
       style="fill:none;stroke:#000000;stroke-width:0.26458332px;stroke-linecap:butt;stroke-linejoin:miter;stroke-opacity:1"
       d="m 34.395833,193.8125 -3.96875,4.23333"
       id="path6204"
       inkscape:connector-curvature="0" />
    <g
       aria-label="Studio Six Plus One"
       style="font-style:normal;font-weight:normal;font-size:2.82222223px;line-height:1.25;font-family:sans-serif;letter-spacing:0px;word-spacing:0px;fill:#000000;fill-opacity:1;stroke:none;stroke-width:0.26458332"
       id="text6208">
      <path
         d="m 13.681163,291.43821 v 0.27148 q -0.158474,-0.0758 -0.299034,-0.113 -0.14056,-0.0372 -0.271473,-0.0372 -0.227377,0 -0.3514,0.0882 -0.122646,0.0882 -0.122646,0.2508 0,0.13642 0.08131,0.2067 0.08268,0.0689 0.311436,0.11163 l 0.168121,0.0344 q 0.311437,0.0593 0.458887,0.20946 0.148828,0.14883 0.148828,0.39963 0,0.29903 -0.201194,0.45337 -0.199815,0.15434 -0.587044,0.15434 -0.146072,0 -0.311437,-0.0331 -0.163986,-0.0331 -0.340375,-0.0978 v -0.28663 q 0.169499,0.0951 0.332107,0.14331 0.162609,0.0482 0.319705,0.0482 0.238401,0 0.367936,-0.0937 0.129536,-0.0937 0.129536,-0.26734 0,-0.15158 -0.09371,-0.23702 -0.09233,-0.0854 -0.304546,-0.12816 l -0.169499,-0.0331 q -0.311437,-0.062 -0.450618,-0.19431 -0.139182,-0.13229 -0.139182,-0.36793 0,-0.27285 0.191547,-0.42995 0.192925,-0.1571 0.530545,-0.1571 0.144694,0 0.2949,0.0262 0.150206,0.0262 0.307302,0.0785 z"
         style="stroke-width:0.26458332"
         id="path6294" />
      <path
         d="m 14.479048,291.44648 v 0.43822 h 0.522276 v 0.19706 h -0.522276 v 0.83784 q 0,0.1888 0.05099,0.24254 0.05236,0.0537 0.21084,0.0537 h 0.260449 v 0.21222 h -0.260449 q -0.293522,0 -0.405143,-0.10886 -0.111621,-0.11025 -0.111621,-0.39964 v -0.83784 h -0.186036 v -0.19706 h 0.186036 v -0.43822 z"
         style="stroke-width:0.26458332"
         id="path6296" />
      <path
         d="m 15.310005,292.81901 v -0.93431 h 0.253559 v 0.92466 q 0,0.21911 0.08544,0.32935 0.08544,0.10887 0.256315,0.10887 0.205328,0 0.323839,-0.13092 0.119889,-0.13091 0.119889,-0.35691 v -0.87505 h 0.253559 v 1.5434 h -0.253559 v -0.23702 q -0.09233,0.14056 -0.214974,0.20946 -0.121267,0.0675 -0.282497,0.0675 -0.265962,0 -0.403766,-0.16536 -0.137803,-0.16537 -0.137803,-0.48369 z m 0.638031,-0.97152 z"
         style="stroke-width:0.26458332"
         id="path6298" />
      <path
         d="m 18.143251,292.11896 v -0.83509 h 0.253559 v 2.14423 h -0.253559 v -0.23151 q -0.07993,0.1378 -0.202571,0.20533 -0.121268,0.0661 -0.292144,0.0661 -0.279742,0 -0.456131,-0.22324 -0.175011,-0.22324 -0.175011,-0.58704 0,-0.3638 0.175011,-0.58705 0.176389,-0.22324 0.456131,-0.22324 0.170876,0 0.292144,0.0675 0.122645,0.0661 0.202571,0.20395 z m -0.86403,0.53882 q 0,0.27974 0.114377,0.43959 0.115756,0.15848 0.316949,0.15848 0.201194,0 0.316949,-0.15848 0.115755,-0.15985 0.115755,-0.43959 0,-0.27974 -0.115755,-0.43822 -0.115755,-0.15985 -0.316949,-0.15985 -0.201193,0 -0.316949,0.15985 -0.114377,0.15848 -0.114377,0.43822 z"
         style="stroke-width:0.26458332"
         id="path6300" />
      <path
         d="m 18.919087,291.8847 h 0.253559 v 1.5434 h -0.253559 z m 0,-0.60083 h 0.253559 v 0.32109 h -0.253559 z"
         style="stroke-width:0.26458332"
         id="path6302" />
      <path
         d="m 20.299881,292.06246 q -0.20395,0 -0.322461,0.15986 -0.118511,0.15847 -0.118511,0.43546 0,0.27698 0.117133,0.43684 0.118511,0.15847 0.323839,0.15847 0.202572,0 0.321083,-0.15985 0.118511,-0.15986 0.118511,-0.43546 0,-0.27423 -0.118511,-0.43408 -0.118511,-0.16124 -0.321083,-0.16124 z m 0,-0.21497 q 0.330729,0 0.51952,0.21497 0.188792,0.21498 0.188792,0.59532 0,0.37896 -0.188792,0.59531 -0.188791,0.21497 -0.51952,0.21497 -0.332107,0 -0.520898,-0.21497 -0.187414,-0.21635 -0.187414,-0.59531 0,-0.38034 0.187414,-0.59532 0.188791,-0.21497 0.520898,-0.21497 z"
         style="stroke-width:0.26458332"
         id="path6304" />
      <path
         d="m 23.569965,291.43821 v 0.27148 q -0.158474,-0.0758 -0.299034,-0.113 -0.14056,-0.0372 -0.271474,-0.0372 -0.227376,0 -0.3514,0.0882 -0.122645,0.0882 -0.122645,0.2508 0,0.13642 0.0813,0.2067 0.08268,0.0689 0.311437,0.11163 l 0.168121,0.0344 q 0.311436,0.0593 0.458886,0.20946 0.148828,0.14883 0.148828,0.39963 0,0.29903 -0.201193,0.45337 -0.199816,0.15434 -0.587044,0.15434 -0.146072,0 -0.311437,-0.0331 -0.163987,-0.0331 -0.340375,-0.0978 v -0.28663 q 0.169498,0.0951 0.332107,0.14331 0.162608,0.0482 0.319705,0.0482 0.2384,0 0.367936,-0.0937 0.129535,-0.0937 0.129535,-0.26734 0,-0.15158 -0.09371,-0.23702 -0.09233,-0.0854 -0.304547,-0.12816 l -0.169498,-0.0331 q -0.311437,-0.062 -0.450619,-0.19431 -0.139182,-0.13229 -0.139182,-0.36793 0,-0.27285 0.191548,-0.42995 0.192925,-0.1571 0.530544,-0.1571 0.144694,0 0.294901,0.0262 0.150206,0.0262 0.307302,0.0785 z"
         style="stroke-width:0.26458332"
         id="path6306" />
      <path
         d="m 24.117047,291.8847 h 0.253559 v 1.5434 h -0.253559 z m 0,-0.60083 h 0.253559 v 0.32109 h -0.253559 z"
         style="stroke-width:0.26458332"
         id="path6308" />
      <path
         d="m 26.182726,291.8847 -0.558106,0.75103 0.587045,0.79237 H 25.91263 l -0.44924,-0.60634 -0.44924,0.60634 h -0.299035 l 0.599447,-0.80753 -0.548459,-0.73587 h 0.299034 l 0.409277,0.54984 0.409278,-0.54984 z"
         style="stroke-width:0.26458332"
         id="path6310" />
      <path
         d="m 27.757824,291.59944 v 0.77308 h 0.350022 q 0.194303,0 0.300412,-0.10059 0.106109,-0.1006 0.106109,-0.28664 0,-0.18465 -0.106109,-0.28525 -0.106109,-0.1006 -0.300412,-0.1006 z m -0.278364,-0.22875 h 0.628386 q 0.345887,0 0.522276,0.1571 0.177767,0.15571 0.177767,0.4575 0,0.30455 -0.177767,0.46027 -0.176389,0.15572 -0.522276,0.15572 h -0.350022 v 0.82682 H 27.47946 Z"
         style="stroke-width:0.26458332"
         id="path6312" />
      <path
         d="m 29.171691,291.28387 h 0.253559 v 2.14423 h -0.253559 z"
         style="stroke-width:0.26458332"
         id="path6314" />
      <path
         d="m 29.928234,292.81901 v -0.93431 h 0.253559 v 0.92466 q 0,0.21911 0.08544,0.32935 0.08544,0.10887 0.256315,0.10887 0.205327,0 0.323839,-0.13092 0.119889,-0.13091 0.119889,-0.35691 v -0.87505 h 0.253559 v 1.5434 h -0.253559 v -0.23702 q -0.09233,0.14056 -0.214974,0.20946 -0.121267,0.0675 -0.282498,0.0675 -0.265961,0 -0.403765,-0.16536 -0.137804,-0.16537 -0.137804,-0.48369 z m 0.638032,-0.97152 z"
         style="stroke-width:0.26458332"
         id="path6316" />
      <path
         d="m 32.729785,291.93017 v 0.23978 q -0.107487,-0.0551 -0.223242,-0.0827 -0.115756,-0.0276 -0.239779,-0.0276 -0.188791,0 -0.283876,0.0579 -0.09371,0.0579 -0.09371,0.17363 0,0.0882 0.06752,0.13918 0.06752,0.0496 0.271474,0.0951 l 0.08682,0.0193 q 0.270096,0.0579 0.383095,0.16398 0.114377,0.10474 0.114377,0.29353 0,0.21497 -0.170877,0.34037 -0.169498,0.1254 -0.467155,0.1254 -0.124023,0 -0.259071,-0.0248 -0.133669,-0.0234 -0.282498,-0.0717 v -0.26183 q 0.14056,0.073 0.276986,0.11025 0.136426,0.0358 0.270096,0.0358 0.179145,0 0.275607,-0.0606 0.09646,-0.062 0.09646,-0.17363 0,-0.10335 -0.07028,-0.15848 -0.0689,-0.0551 -0.304546,-0.1061 l -0.08819,-0.0207 q -0.235644,-0.0496 -0.340375,-0.15159 -0.104731,-0.10335 -0.104731,-0.2825 0,-0.21773 0.15434,-0.33624 0.15434,-0.11851 0.438216,-0.11851 0.14056,0 0.264583,0.0207 0.124024,0.0207 0.228755,0.062 z"
         style="stroke-width:0.26458332"
         id="path6318" />
      <path
         d="m 34.962207,291.55948 q -0.303168,0 -0.482313,0.226 -0.177767,0.226 -0.177767,0.61598 0,0.38861 0.177767,0.61461 0.179145,0.226 0.482313,0.226 0.303168,0 0.479557,-0.226 0.177767,-0.226 0.177767,-0.61461 0,-0.38998 -0.177767,-0.61598 -0.176389,-0.226 -0.479557,-0.226 z m 0,-0.226 q 0.432704,0 0.691775,0.29077 0.259071,0.28939 0.259071,0.77721 0,0.48645 -0.259071,0.77722 -0.259071,0.28938 -0.691775,0.28938 -0.434082,0 -0.694531,-0.28938 -0.259072,-0.28939 -0.259072,-0.77722 0,-0.48782 0.259072,-0.77721 0.260449,-0.29077 0.694531,-0.29077 z"
         style="stroke-width:0.26458332"
         id="path6320" />
      <path
         d="m 37.620442,292.49655 v 0.93155 h -0.253559 v -0.92329 q 0,-0.2191 -0.08544,-0.32797 -0.08544,-0.10886 -0.256315,-0.10886 -0.205328,0 -0.323839,0.13091 -0.118511,0.13091 -0.118511,0.35691 v 0.8723 h -0.254937 v -1.5434 h 0.254937 v 0.23978 q 0.09095,-0.13919 0.213596,-0.20809 0.124023,-0.0689 0.285253,-0.0689 0.265962,0 0.402388,0.16537 0.136425,0.16398 0.136425,0.48369 z"
         style="stroke-width:0.26458332"
         id="path6322" />
      <path
         d="m 39.4491,292.59301 v 0.12402 h -1.16582 q 0.01654,0.26183 0.157096,0.39963 0.141938,0.13643 0.394119,0.13643 0.146072,0 0.282498,-0.0358 0.137804,-0.0358 0.272851,-0.10749 v 0.23978 q -0.136425,0.0579 -0.279741,0.0882 -0.143316,0.0303 -0.290767,0.0303 -0.369314,0 -0.585666,-0.21497 -0.214974,-0.21497 -0.214974,-0.58153 0,-0.37896 0.20395,-0.60083 0.205328,-0.22324 0.552593,-0.22324 0.311437,0 0.49196,0.20119 0.181901,0.19982 0.181901,0.54433 z m -0.253559,-0.0744 q -0.0028,-0.20809 -0.117133,-0.33211 -0.112999,-0.12403 -0.300413,-0.12403 -0.212218,0 -0.340375,0.11989 -0.12678,0.11989 -0.146072,0.33762 z"
         style="stroke-width:0.26458332"
         id="path6324" />
    </g>
    <g
       aria-label="lp12"
       style="font-style:normal;font-weight:normal;font-size:2.11666656px;line-height:1.25;font-family:sans-serif;letter-spacing:0px;word-spacing:0px;fill:#000000;fill-opacity:1;stroke:none;stroke-width:0.26458332"
       id="text939">
      <path
         d="m 34.683281,265.01732 h 0.19017 v 1.60817 h -0.19017 z"
         style="font-size:2.11666656px;stroke-width:0.26458332"
         id="path1036" />
      <path
         d="m 35.454294,266.45186 v 0.61391 h -0.191203 v -1.59783 h 0.191203 v 0.1757 q 0.05994,-0.10336 0.150895,-0.15297 0.09198,-0.0506 0.219108,-0.0506 0.21084,0 0.342098,0.16743 0.132292,0.16743 0.132292,0.44029 0,0.27285 -0.132292,0.44028 -0.131258,0.16743 -0.342098,0.16743 -0.127124,0 -0.219108,-0.0496 -0.09095,-0.0506 -0.150895,-0.15399 z m 0.646989,-0.40411 q 0,-0.20981 -0.08682,-0.32867 -0.08578,-0.11989 -0.236678,-0.11989 -0.150895,0 -0.237711,0.11989 -0.08578,0.11886 -0.08578,0.32867 0,0.2098 0.08578,0.32969 0.08682,0.11886 0.237711,0.11886 0.150895,0 0.236678,-0.11886 0.08682,-0.11989 0.08682,-0.32969 z"
         style="font-size:2.11666656px;stroke-width:0.26458332"
         id="path1038" />
      <path
         d="m 36.676958,266.44979 h 0.341065 v -1.17719 l -0.371037,0.0744 v -0.19017 l 0.368969,-0.0744 h 0.208773 v 1.36736 h 0.341065 v 0.1757 h -0.888835 z"
         style="font-size:2.11666656px;stroke-width:0.26458332"
         id="path1040" />
      <path
         d="m 38.16834,266.44979 h 0.728638 v 0.1757 h -0.979786 v -0.1757 q 0.118856,-0.12299 0.323495,-0.3297 0.205672,-0.20774 0.258382,-0.26768 0.100252,-0.11266 0.139526,-0.19017 0.04031,-0.0786 0.04031,-0.154 0,-0.12299 -0.08682,-0.2005 -0.08578,-0.0775 -0.224276,-0.0775 -0.09819,0 -0.207739,0.0341 -0.108521,0.0341 -0.232544,0.10335 v -0.21084 q 0.12609,-0.0506 0.235644,-0.0765 0.109554,-0.0258 0.200505,-0.0258 0.239778,0 0.382405,0.11989 0.142627,0.11989 0.142627,0.3204 0,0.0951 -0.03617,0.18087 -0.03514,0.0847 -0.129191,0.2005 -0.02584,0.03 -0.164331,0.17363 -0.138493,0.14263 -0.390674,0.39998 z"
         style="font-size:2.11666656px;stroke-width:0.26458332"
         id="path1042" />
    </g>
    <g
       aria-label="lp24"
       style="font-style:normal;font-weight:normal;font-size:2.11666656px;line-height:1.25;font-family:sans-serif;letter-spacing:0px;word-spacing:0px;display:inline;fill:#000000;fill-opacity:1;stroke:none;stroke-width:0.26458332"
       id="text939-3">
      <path
         d="m 32.500828,260.39116 h 0.19017 v 1.60817 h -0.19017 z"
         style="font-size:2.11666656px;stroke-width:0.26458332"
         id="path1027" />
      <path
         d="m 33.271841,261.8257 v 0.61391 h -0.191203 v -1.59783 h 0.191203 v 0.1757 q 0.05994,-0.10336 0.150895,-0.15297 0.09198,-0.0506 0.219108,-0.0506 0.21084,0 0.342098,0.16743 0.132291,0.16743 0.132291,0.44029 0,0.27285 -0.132291,0.44028 -0.131258,0.16743 -0.342098,0.16743 -0.127124,0 -0.219108,-0.0496 -0.09095,-0.0506 -0.150895,-0.15399 z m 0.646989,-0.40411 q 0,-0.20981 -0.08682,-0.32867 -0.08578,-0.11989 -0.236678,-0.11989 -0.150895,0 -0.237712,0.11989 -0.08578,0.11886 -0.08578,0.32867 0,0.2098 0.08578,0.32969 0.08682,0.11886 0.237712,0.11886 0.150895,0 0.236678,-0.11886 0.08682,-0.11989 0.08682,-0.32969 z"
         style="font-size:2.11666656px;stroke-width:0.26458332"
         id="path1029" />
      <path
         d="m 34.638165,261.82363 h 0.728638 v 0.1757 h -0.979785 v -0.1757 q 0.118856,-0.12299 0.323494,-0.3297 0.205673,-0.20774 0.258383,-0.26768 0.100252,-0.11266 0.139526,-0.19017 0.04031,-0.0786 0.04031,-0.154 0,-0.12299 -0.08682,-0.2005 -0.08578,-0.0775 -0.224276,-0.0775 -0.09819,0 -0.207739,0.0341 -0.10852,0.0341 -0.232544,0.10335 v -0.21084 q 0.126091,-0.0506 0.235645,-0.0765 0.109554,-0.0258 0.200504,-0.0258 0.239779,0 0.382406,0.11988 0.142627,0.11989 0.142627,0.3204 0,0.0951 -0.03617,0.18087 -0.03514,0.0848 -0.129191,0.2005 -0.02584,0.03 -0.164331,0.17363 -0.138493,0.14263 -0.390674,0.39998 z"
         style="font-size:2.11666656px;stroke-width:0.26458332"
         id="path1031" />
      <path
         d="m 36.379661,260.63817 -0.527099,0.82372 h 0.527099 z m -0.05478,-0.1819 H 36.5874 v 1.00562 h 0.220142 v 0.17364 H 36.5874 v 0.3638 h -0.207739 v -0.3638 h -0.696598 v -0.20154 z"
         style="font-size:2.11666656px;stroke-width:0.26458332"
         id="path1033" />
    </g>
    <g
       aria-label="hp12"
       style="font-style:normal;font-weight:normal;font-size:2.11666656px;line-height:1.25;font-family:sans-serif;letter-spacing:0px;word-spacing:0px;display:inline;fill:#000000;fill-opacity:1;stroke:none;stroke-width:0.26458332"
       id="text939-7">
      <path
         d="m 35.112793,257.02793 v 0.69866 h -0.190169 v -0.69246 q 0,-0.16433 -0.06408,-0.24598 -0.06408,-0.0816 -0.192236,-0.0816 -0.153996,0 -0.242879,0.0982 -0.08888,0.0982 -0.08888,0.26768 v 0.65422 h -0.191203 v -1.60817 h 0.191203 v 0.63045 q 0.06821,-0.10438 0.160197,-0.15606 0.09302,-0.0517 0.21394,-0.0517 0.199472,0 0.301791,0.12402 0.102319,0.12299 0.102319,0.36277 z"
         style="font-size:2.11666656px;stroke-width:0.26458332"
         id="path1018" />
      <path
         d="m 35.678133,257.55296 v 0.61392 h -0.191202 v -1.59784 h 0.191202 v 0.1757 q 0.05994,-0.10335 0.150895,-0.15296 0.09199,-0.0506 0.219109,-0.0506 0.210839,0 0.342097,0.16743 0.132292,0.16743 0.132292,0.44028 0,0.27285 -0.132292,0.44028 -0.131258,0.16744 -0.342097,0.16744 -0.127124,0 -0.219109,-0.0496 -0.09095,-0.0506 -0.150895,-0.154 z m 0.646989,-0.40411 q 0,-0.20981 -0.08682,-0.32866 -0.08578,-0.11989 -0.236678,-0.11989 -0.150895,0 -0.237712,0.11989 -0.08578,0.11885 -0.08578,0.32866 0,0.20981 0.08578,0.3297 0.08682,0.11885 0.237712,0.11885 0.150895,0 0.236678,-0.11885 0.08682,-0.11989 0.08682,-0.3297 z"
         style="font-size:2.11666656px;stroke-width:0.26458332"
         id="path1020" />
      <path
         d="m 36.900798,257.55089 h 0.341064 v -1.17719 l -0.371037,0.0744 v -0.19017 l 0.36897,-0.0744 h 0.208773 v 1.36736 h 0.341064 v 0.1757 h -0.888834 z"
         style="font-size:2.11666656px;stroke-width:0.26458332"
         id="path1022" />
      <path
         d="m 38.39218,257.55089 h 0.728637 v 0.1757 h -0.979785 v -0.1757 q 0.118856,-0.12299 0.323495,-0.32969 0.205672,-0.20774 0.258382,-0.26769 0.100252,-0.11265 0.139526,-0.19017 0.04031,-0.0785 0.04031,-0.15399 0,-0.12299 -0.08682,-0.20051 -0.08578,-0.0775 -0.224275,-0.0775 -0.09819,0 -0.20774,0.0341 -0.10852,0.0341 -0.232544,0.10335 v -0.21084 q 0.126091,-0.0506 0.235645,-0.0765 0.109554,-0.0258 0.200505,-0.0258 0.239778,0 0.382405,0.11989 0.142627,0.11989 0.142627,0.32039 0,0.0951 -0.03617,0.18087 -0.03514,0.0848 -0.129191,0.2005 -0.02584,0.03 -0.164332,0.17364 -0.138492,0.14262 -0.390673,0.39997 z"
         style="font-size:2.11666656px;stroke-width:0.26458332"
         id="path1024" />
    </g>
    <g
       aria-label="hp24"
       style="font-style:normal;font-weight:normal;font-size:2.11666656px;line-height:1.25;font-family:sans-serif;letter-spacing:0px;word-spacing:0px;display:inline;fill:#000000;fill-opacity:1;stroke:none;stroke-width:0.26458332"
       id="text939-35">
      <path
         d="m 44.72144,256.98352 v 0.69867 h -0.19017 v -0.69246 q 0,-0.16434 -0.06408,-0.24598 -0.06408,-0.0816 -0.192237,-0.0816 -0.153996,0 -0.242879,0.0982 -0.08888,0.0982 -0.08888,0.26769 v 0.65422 H 43.75199 v -1.60817 h 0.191203 v 0.63045 q 0.06821,-0.10438 0.160196,-0.15606 0.09302,-0.0517 0.213941,-0.0517 0.199471,0 0.30179,0.12403 0.10232,0.12299 0.10232,0.36276 z"
         style="font-size:2.11666656px;stroke-width:0.26458332"
         id="path1009" />
      <path
         d="m 45.28678,257.50856 v 0.61391 h -0.191203 v -1.59783 h 0.191203 v 0.1757 q 0.05994,-0.10336 0.150895,-0.15296 0.09198,-0.0506 0.219108,-0.0506 0.21084,0 0.342098,0.16743 0.132292,0.16744 0.132292,0.44029 0,0.27285 -0.132292,0.44028 -0.131258,0.16743 -0.342098,0.16743 -0.127124,0 -0.219108,-0.0496 -0.09095,-0.0506 -0.150895,-0.15399 z m 0.646989,-0.40411 q 0,-0.20981 -0.08682,-0.32866 -0.08578,-0.11989 -0.236678,-0.11989 -0.150895,0 -0.237711,0.11989 -0.08578,0.11885 -0.08578,0.32866 0,0.2098 0.08578,0.32969 0.08682,0.11886 0.237711,0.11886 0.150895,0 0.236678,-0.11886 0.08682,-0.11989 0.08682,-0.32969 z"
         style="font-size:2.11666656px;stroke-width:0.26458332"
         id="path1011" />
      <path
         d="m 46.653104,257.50649 h 0.728638 v 0.1757 h -0.979785 v -0.1757 q 0.118856,-0.12299 0.323494,-0.3297 0.205673,-0.20773 0.258383,-0.26768 0.100252,-0.11265 0.139526,-0.19017 0.04031,-0.0785 0.04031,-0.15399 0,-0.12299 -0.08682,-0.20051 -0.08578,-0.0775 -0.224276,-0.0775 -0.09819,0 -0.207739,0.0341 -0.10852,0.0341 -0.232544,0.10336 v -0.21084 q 0.126091,-0.0507 0.235645,-0.0765 0.109554,-0.0258 0.200504,-0.0258 0.239779,0 0.382406,0.11989 0.142627,0.11989 0.142627,0.32039 0,0.0951 -0.03617,0.18087 -0.03514,0.0848 -0.129191,0.2005 -0.02584,0.03 -0.164331,0.17363 -0.138493,0.14263 -0.390674,0.39998 z"
         style="font-size:2.11666656px;stroke-width:0.26458332"
         id="path1013" />
      <path
         d="m 48.3946,256.32103 -0.527099,0.82373 H 48.3946 Z m -0.05478,-0.1819 h 0.262517 v 1.00563 h 0.220141 v 0.17363 H 48.60234 v 0.3638 H 48.3946 v -0.3638 h -0.696598 v -0.20154 z"
         style="font-size:2.11666656px;stroke-width:0.26458332"
         id="path1015" />
    </g>
    <g
       aria-label="bp12"
       style="font-style:normal;font-weight:normal;font-size:2.11666656px;line-height:1.25;font-family:sans-serif;letter-spacing:0px;word-spacing:0px;display:inline;fill:#000000;fill-opacity:1;stroke:none;stroke-width:0.26458332"
       id="text939-9">
      <path
         d="m 46.136011,261.33272 q 0,-0.20981 -0.08682,-0.32866 -0.08578,-0.11989 -0.236678,-0.11989 -0.150895,0 -0.237712,0.11989 -0.08578,0.11885 -0.08578,0.32866 0,0.20981 0.08578,0.32969 0.08682,0.11886 0.237712,0.11886 0.150895,0 0.236678,-0.11886 0.08682,-0.11988 0.08682,-0.32969 z m -0.646989,-0.40411 q 0.05994,-0.10335 0.150895,-0.15296 0.09199,-0.0506 0.219109,-0.0506 0.210839,0 0.342097,0.16744 0.132292,0.16743 0.132292,0.44028 0,0.27285 -0.132292,0.44028 -0.131258,0.16743 -0.342097,0.16743 -0.127124,0 -0.219109,-0.0496 -0.09095,-0.0506 -0.150895,-0.15399 v 0.17363 H 45.29782 v -1.60817 h 0.191202 z"
         style="font-size:2.11666656px;stroke-width:0.26458332"
         id="path1000" />
      <path
         d="m 46.832609,261.73683 v 0.61391 h -0.191202 v -1.59783 h 0.191202 v 0.1757 q 0.05994,-0.10335 0.150896,-0.15296 0.09198,-0.0506 0.219108,-0.0506 0.21084,0 0.342098,0.16744 0.132291,0.16743 0.132291,0.44028 0,0.27285 -0.132291,0.44028 -0.131258,0.16743 -0.342098,0.16743 -0.127124,0 -0.219108,-0.0496 -0.09095,-0.0506 -0.150896,-0.15399 z m 0.646989,-0.40411 q 0,-0.20981 -0.08682,-0.32866 -0.08578,-0.11989 -0.236678,-0.11989 -0.150895,0 -0.237712,0.11989 -0.08578,0.11885 -0.08578,0.32866 0,0.20981 0.08578,0.32969 0.08682,0.11886 0.237712,0.11886 0.150895,0 0.236678,-0.11886 0.08682,-0.11988 0.08682,-0.32969 z"
         style="font-size:2.11666656px;stroke-width:0.26458332"
         id="path1002" />
      <path
         d="m 48.055274,261.73476 h 0.341064 v -1.17719 l -0.371037,0.0744 v -0.19017 l 0.36897,-0.0744 h 0.208773 v 1.36736 h 0.341064 v 0.1757 h -0.888834 z"
         style="font-size:2.11666656px;stroke-width:0.26458332"
         id="path1004" />
      <path
         d="m 49.546656,261.73476 h 0.728637 v 0.1757 h -0.979785 v -0.1757 q 0.118856,-0.12299 0.323495,-0.32969 0.205672,-0.20774 0.258382,-0.26769 0.100252,-0.11265 0.139526,-0.19017 0.04031,-0.0786 0.04031,-0.15399 0,-0.12299 -0.08682,-0.20051 -0.08578,-0.0775 -0.224276,-0.0775 -0.09819,0 -0.207739,0.0341 -0.108521,0.0341 -0.232544,0.10336 v -0.21084 q 0.12609,-0.0507 0.235644,-0.0765 0.109554,-0.0258 0.200505,-0.0258 0.239778,0 0.382405,0.11989 0.142627,0.11989 0.142627,0.32039 0,0.0951 -0.03617,0.18087 -0.03514,0.0847 -0.129191,0.2005 -0.02584,0.03 -0.164331,0.17364 -0.138493,0.14262 -0.390674,0.39997 z"
         style="font-size:2.11666656px;stroke-width:0.26458332"
         id="path1006" />
    </g>
    <g
       aria-label="bp24"
       style="font-style:normal;font-weight:normal;font-size:2.11666656px;line-height:1.25;font-family:sans-serif;letter-spacing:0px;word-spacing:0px;display:inline;fill:#000000;fill-opacity:1;stroke:none;stroke-width:0.26458332"
       id="text939-2">
      <path
         d="m 44.419142,266.03365 q 0,-0.20981 -0.08682,-0.32867 -0.08578,-0.11988 -0.236678,-0.11988 -0.150895,0 -0.237711,0.11988 -0.08578,0.11886 -0.08578,0.32867 0,0.2098 0.08578,0.32969 0.08682,0.11886 0.237711,0.11886 0.150896,0 0.236678,-0.11886 0.08682,-0.11989 0.08682,-0.32969 z m -0.646989,-0.40411 q 0.05994,-0.10336 0.150895,-0.15297 0.09198,-0.0506 0.219108,-0.0506 0.21084,0 0.342098,0.16743 0.132292,0.16744 0.132292,0.44029 0,0.27285 -0.132292,0.44028 -0.131258,0.16743 -0.342098,0.16743 -0.127124,0 -0.219108,-0.0496 -0.09095,-0.0506 -0.150895,-0.15399 v 0.17363 H 43.58095 v -1.60817 h 0.191203 z"
         style="font-size:2.11666656px;stroke-width:0.26458332"
         id="path991" />
      <path
         d="m 45.11574,266.43776 v 0.61391 h -0.191203 v -1.59783 h 0.191203 v 0.1757 q 0.05994,-0.10336 0.150895,-0.15297 0.09198,-0.0506 0.219108,-0.0506 0.21084,0 0.342098,0.16743 0.132292,0.16744 0.132292,0.44029 0,0.27285 -0.132292,0.44028 -0.131258,0.16743 -0.342098,0.16743 -0.127124,0 -0.219108,-0.0496 -0.09095,-0.0506 -0.150895,-0.15399 z m 0.646989,-0.40411 q 0,-0.20981 -0.08682,-0.32867 -0.08578,-0.11988 -0.236678,-0.11988 -0.150896,0 -0.237712,0.11988 -0.08578,0.11886 -0.08578,0.32867 0,0.2098 0.08578,0.32969 0.08682,0.11886 0.237712,0.11886 0.150895,0 0.236678,-0.11886 0.08682,-0.11989 0.08682,-0.32969 z"
         style="font-size:2.11666656px;stroke-width:0.26458332"
         id="path993" />
      <path
         d="m 46.482065,266.43569 h 0.728638 v 0.1757 h -0.979786 v -0.1757 q 0.118856,-0.12299 0.323495,-0.3297 0.205672,-0.20774 0.258382,-0.26768 0.100252,-0.11265 0.139526,-0.19017 0.04031,-0.0786 0.04031,-0.154 0,-0.12299 -0.08682,-0.2005 -0.08578,-0.0775 -0.224276,-0.0775 -0.09819,0 -0.207739,0.0341 -0.108521,0.0341 -0.232544,0.10335 v -0.21083 q 0.12609,-0.0506 0.235644,-0.0765 0.109554,-0.0258 0.200505,-0.0258 0.239778,0 0.382405,0.11989 0.142627,0.11988 0.142627,0.32039 0,0.0951 -0.03617,0.18087 -0.03514,0.0847 -0.129191,0.2005 -0.02584,0.03 -0.164331,0.17363 -0.138493,0.14263 -0.390674,0.39998 z"
         style="font-size:2.11666656px;stroke-width:0.26458332"
         id="path995" />
      <path
         d="m 48.223561,265.25023 -0.5271,0.82372 h 0.5271 z m -0.05478,-0.1819 H 48.4313 v 1.00562 h 0.220142 v 0.17364 H 48.4313 v 0.3638 h -0.207739 v -0.3638 h -0.696598 v -0.20154 z"
         style="font-size:2.11666656px;stroke-width:0.26458332"
         id="path997" />
    </g>
    <g
       aria-label="drive"
       style="font-style:normal;font-weight:normal;font-size:2.82222223px;line-height:1.25;font-family:sans-serif;letter-spacing:0px;word-spacing:0px;fill:#000000;fill-opacity:1;stroke:none;stroke-width:0.26458332"
       id="text20527">
      <path
         d="m 38.501005,230.07973 v -0.83509 h 0.253559 v 2.14423 h -0.253559 v -0.23151 q -0.07993,0.1378 -0.202572,0.20533 -0.121267,0.0661 -0.292144,0.0661 -0.279742,0 -0.456131,-0.22324 -0.175011,-0.22324 -0.175011,-0.58704 0,-0.36381 0.175011,-0.58705 0.176389,-0.22324 0.456131,-0.22324 0.170877,0 0.292144,0.0675 0.122645,0.0662 0.202572,0.20395 z m -0.86403,0.53882 q 0,0.27974 0.114377,0.43959 0.115755,0.15848 0.316949,0.15848 0.201193,0 0.316948,-0.15848 0.115756,-0.15985 0.115756,-0.43959 0,-0.27974 -0.115756,-0.43822 -0.115755,-0.15985 -0.316948,-0.15985 -0.201194,0 -0.316949,0.15985 -0.114377,0.15848 -0.114377,0.43822 z"
         style="stroke-width:0.26458332"
         id="path20529" />
      <path
         d="m 40.171187,230.08249 q -0.04272,-0.0248 -0.09371,-0.0358 -0.04961,-0.0124 -0.110243,-0.0124 -0.214974,0 -0.330729,0.14056 -0.114377,0.13918 -0.114377,0.40101 v 0.81304 h -0.254937 v -1.5434 h 0.254937 v 0.23978 q 0.07993,-0.14056 0.208084,-0.20809 0.128157,-0.0689 0.311436,-0.0689 0.02618,0 0.05788,0.004 0.0317,0.003 0.07028,0.01 z"
         style="stroke-width:0.26458332"
         id="path20531" />
      <path
         d="m 40.439904,229.84547 h 0.253559 v 1.5434 h -0.253559 z m 0,-0.60083 h 0.253559 v 0.32109 h -0.253559 z"
         style="stroke-width:0.26458332"
         id="path20533" />
      <path
         d="m 41.040729,229.84547 h 0.268717 l 0.482314,1.29535 0.482313,-1.29535 h 0.268718 l -0.578776,1.5434 h -0.34451 z"
         style="stroke-width:0.26458332"
         id="path20535" />
      <path
         d="m 44.212973,230.55378 v 0.12402 h -1.16582 q 0.01654,0.26183 0.157096,0.39963 0.141938,0.13643 0.394119,0.13643 0.146072,0 0.282498,-0.0358 0.137804,-0.0358 0.272851,-0.10749 v 0.23978 q -0.136425,0.0579 -0.279741,0.0882 -0.143316,0.0303 -0.290766,0.0303 -0.369315,0 -0.585667,-0.21497 -0.214974,-0.21497 -0.214974,-0.58153 0,-0.37896 0.20395,-0.60083 0.205328,-0.22324 0.552593,-0.22324 0.311437,0 0.49196,0.20119 0.181901,0.19982 0.181901,0.54433 z m -0.253559,-0.0744 q -0.0028,-0.20809 -0.117133,-0.33211 -0.112999,-0.12403 -0.300413,-0.12403 -0.212217,0 -0.340375,0.11989 -0.12678,0.11989 -0.146072,0.33762 z"
         style="stroke-width:0.26458332"
         id="path20537" />
    </g>
  </g>
  <g
     inkscape:groupmode="layer"
     id="layer3"
     inkscape:label="temp"
     style="display:none" />
  <g
     inkscape:groupmode="layer"
     id="layer2"
     inkscape:label="components"
     style="display:inline">
    <circle
       style="display:inline;opacity:1;fill:#00ff00;fill-opacity:1;stroke-width:0.26458332"
       id="path1587-8-3"
       cx="9.260417"
       cy="70.291664"
       r="3.96875"
       inkscape:label="SATURATION_CV" />
    <circle
       style="display:inline;opacity:1;fill:#00ff00;fill-opacity:1;stroke-width:0.26458332"
       id="path1587-8-0"
       cx="9.260417"
       cy="92.78125"
       r="3.96875"
       inkscape:label="MODE_CV" />
    <circle
       style="display:inline;opacity:1;fill:#00ff00;fill-opacity:1;stroke-width:0.26458332"
       id="path1587-8-2"
       cx="9.260417"
       cy="112.625"
       r="3.96875"
       inkscape:label="MAIN" />
    <circle
       style="display:inline;opacity:1;fill:#0000ff;fill-opacity:1;stroke-width:0.26458332"
       id="path1389"
       cx="41.010418"
       cy="112.625"
       r="3.96875"
       inkscape:label="MAIN" />
    <circle
       style="display:inline;opacity:1;fill:#00ff00;fill-opacity:1;stroke-width:0.26458332"
       id="path1389-8"
       cx="9.260417"
       cy="21.34375"
       r="3.96875"
       inkscape:label="VOCT" />
    <circle
       style="display:inline;opacity:1;fill:#00ff00;fill-opacity:1;stroke-width:0.26458332"
       id="path1587-8"
       cx="9.260417"
       cy="47.802082"
       r="3.96875"
       inkscape:label="RESONANCE_CV" />
    <circle
       style="display:inline;opacity:1;fill:#00ff00;fill-opacity:1;stroke-width:0.26458332"
       id="path1389-8-5"
       cx="9.260417"
       cy="29.545834"
       r="3.96875"
       inkscape:label="FREQ_CV" />
    <circle
       transform="translate(0,-168.5)"
       style="display:inline;opacity:1;fill:#ff0000;fill-opacity:1;stroke-width:0.26458332"
       id="path1587-8-0-3"
       cx="41.010418"
       cy="261.28125"
       r="3.96875"
       inkscape:label="MODE" />
    <circle
       transform="translate(0,-168.5)"
       style="display:inline;opacity:1;fill:#ff0000;fill-opacity:1;stroke-width:0.26458332"
       id="path1587-8-0-5"
       cx="41.010418"
       cy="238.79167"
       r="3.96875"
       inkscape:label="SATURATION" />
    <circle
       transform="translate(0,-168.5)"
       style="display:inline;opacity:1;fill:#ff0000;fill-opacity:1;stroke-width:0.26458332"
       id="path1587-8-0-6"
       cx="41.010418"
       cy="216.30208"
       r="3.96875"
       inkscape:label="RESONANCE" />
    <circle
       transform="translate(0,-168.5)"
       style="display:inline;opacity:1;fill:#ff0000;fill-opacity:1;stroke-width:0.26458332"
       id="path1587-8-0-2"
       cx="41.010418"
       cy="193.8125"
       r="3.96875"
       inkscape:label="FREQUENCY" />
    <circle
       style="display:inline;opacity:1;fill:#ff0000;fill-opacity:1;stroke-width:0.26458332"
       id="path1587-8-0-2-9"
       cx="24.870832"
       cy="29.545834"
       r="3.96875"
       inkscape:label="FREQUENCY_CV_ATTENUVERTER" />
    <circle
       transform="translate(0,-168.5)"
       style="display:inline;opacity:1;fill:#ff0000;fill-opacity:1;stroke-width:0.26458332"
       id="path1587-8-0-2-9-1"
       cx="25.135416"
       cy="216.30208"
       r="3.96875"
       inkscape:label="RESONANCE_CV_ATTENUVERTER" />
    <circle
       transform="translate(0,-168.5)"
       style="display:inline;opacity:1;fill:#ff0000;fill-opacity:1;stroke-width:0.26458332"
       id="path1587-8-0-2-9-2"
       cx="25.135416"
       cy="238.79167"
       r="3.96875"
       inkscape:label="SATURATION_CV_ATTENUVERTER" />
  </g>
</svg>
