<?xml version="1.0" encoding="UTF-8" standalone="no"?>
<svg
   xmlns:osb="http://www.openswatchbook.org/uri/2009/osb"
   xmlns:dc="http://purl.org/dc/elements/1.1/"
   xmlns:cc="http://creativecommons.org/ns#"
   xmlns:rdf="http://www.w3.org/1999/02/22-rdf-syntax-ns#"
   xmlns:svg="http://www.w3.org/2000/svg"
   xmlns="http://www.w3.org/2000/svg"
   xmlns:sodipodi="http://sodipodi.sourceforge.net/DTD/sodipodi-0.dtd"
   xmlns:inkscape="http://www.inkscape.org/namespaces/inkscape"
   sodipodi:docname="Maccomo.svg"
   inkscape:version="1.0 (1f3f8bd44a, 2020-05-13)"
   id="svg821"
   version="1.1"
   viewBox="0 0 50.799999 128.5"
   height="128.5mm"
   width="50.799999mm">
  <defs
     id="defs815">
    <linearGradient
       id="linearGradient1761"
       osb:paint="solid">
      <stop
         style="stop-color:#ffff00;stop-opacity:1;"
         offset="0"
         id="stop1759" />
    </linearGradient>
    <linearGradient
       id="linearGradient1755"
       osb:paint="solid">
      <stop
         style="stop-color:#0000ff;stop-opacity:1;"
         offset="0"
         id="stop1753" />
    </linearGradient>
    <linearGradient
       id="linearGradient1749"
       osb:paint="solid">
      <stop
         style="stop-color:#00ff00;stop-opacity:1;"
         offset="0"
         id="stop1747" />
    </linearGradient>
    <linearGradient
       id="linearGradient1743"
       osb:paint="solid">
      <stop
         style="stop-color:#ff0000;stop-opacity:1;"
         offset="0"
         id="stop1741" />
    </linearGradient>
    <linearGradient
       id="linearGradient1737"
       osb:paint="solid">
      <stop
         style="stop-color:#ff00ff;stop-opacity:1;"
         offset="0"
         id="stop1735" />
    </linearGradient>
    <linearGradient
       id="linearGradient1686"
       osb:paint="solid">
      <stop
         style="stop-color:#000000;stop-opacity:1;"
         offset="0"
         id="stop1684" />
    </linearGradient>
    <linearGradient
       id="linearGradient5500"
       osb:paint="solid">
      <stop
         style="stop-color:#f0f0f0;stop-opacity:1;"
         offset="0"
         id="stop5498" />
    </linearGradient>
    <linearGradient
       id="linearGradient5494"
       osb:paint="solid">
      <stop
         style="stop-color:#cdde87;stop-opacity:1;"
         offset="0"
         id="stop5492" />
    </linearGradient>
    <clipPath
       id="clip89">
      <rect
         y="0"
         x="0"
         width="18"
         height="19"
         id="rect4864" />
    </clipPath>
    <clipPath
       id="clip90">
      <path
         inkscape:connector-curvature="0"
         d="m 0.898438,0.128906 h 16.25 v 17.882813 h -16.25 z m 0,0"
         id="path4861" />
    </clipPath>
    <mask
       id="mask44">
      <g
         style="filter:url(#alpha)"
         id="g4858"
         transform="matrix(0.26458333,0,0,0.26458333,89.358789,128.57765)">
        <rect
           x="0"
           y="0"
           width="3052.8701"
           height="3351.5"
           style="fill:#000000;fill-opacity:0.149994;stroke:none"
           id="rect4856" />
      </g>
    </mask>
    <filter
       id="alpha"
       filterUnits="objectBoundingBox"
       x="0"
       y="0"
       width="1"
       height="1">
      <feColorMatrix
         type="matrix"
         in="SourceGraphic"
         values="0 0 0 0 1 0 0 0 0 1 0 0 0 0 1 0 0 0 1 0"
         id="feColorMatrix4149" />
    </filter>
    <clipPath
       id="clipPath17821">
      <rect
         y="0"
         x="0"
         width="18"
         height="19"
         id="rect17819" />
    </clipPath>
    <clipPath
       id="clipPath17825">
      <path
         inkscape:connector-curvature="0"
         d="m 0.898438,0.128906 h 16.25 v 17.882813 h -16.25 z m 0,0"
         id="path17823" />
    </clipPath>
    <clipPath
       id="clip87">
      <rect
         y="0"
         x="0"
         width="24"
         height="26"
         id="rect4848" />
    </clipPath>
    <clipPath
       id="clip88">
      <path
         inkscape:connector-curvature="0"
         d="m 0.683594,0.921875 h 22.679687 v 24.9375 H 0.683594 Z m 0,0"
         id="path4845" />
    </clipPath>
    <mask
       id="mask43">
      <g
         style="filter:url(#alpha)"
         id="g4842"
         transform="matrix(0.26458333,0,0,0.26458333,89.358789,128.57765)">
        <rect
           x="0"
           y="0"
           width="3052.8701"
           height="3351.5"
           style="fill:#000000;fill-opacity:0.149994;stroke:none"
           id="rect4840" />
      </g>
    </mask>
    <filter
       id="filter17836"
       filterUnits="objectBoundingBox"
       x="0"
       y="0"
       width="1"
       height="1">
      <feColorMatrix
         type="matrix"
         in="SourceGraphic"
         values="0 0 0 0 1 0 0 0 0 1 0 0 0 0 1 0 0 0 1 0"
         id="feColorMatrix17834" />
    </filter>
    <clipPath
       id="clipPath17840">
      <rect
         y="0"
         x="0"
         width="24"
         height="26"
         id="rect17838" />
    </clipPath>
    <clipPath
       id="clipPath17844">
      <path
         inkscape:connector-curvature="0"
         d="m 0.683594,0.921875 h 22.679687 v 24.9375 H 0.683594 Z m 0,0"
         id="path17842" />
    </clipPath>
    <clipPath
       id="clip11">
      <rect
         id="rect9531"
         height="16"
         width="17"
         y="0"
         x="0" />
    </clipPath>
    <clipPath
       id="clip12">
      <path
         id="path9528"
         d="M 0.671875,0.476562 H 16.917969 V 15.574219 H 0.671875 Z m 0,0"
         inkscape:connector-curvature="0" />
    </clipPath>
    <clipPath
       id="clip9">
      <rect
         id="rect9515"
         height="25"
         width="24"
         y="0"
         x="0" />
    </clipPath>
    <clipPath
       id="clip10">
      <path
         id="path9512"
         d="M 0.457031,0.238281 H 23.132812 V 24.980469 H 0.457031 Z m 0,0"
         inkscape:connector-curvature="0" />
    </clipPath>
    <clipPath
       id="clip7">
      <rect
         id="rect9499"
         height="16"
         width="17"
         y="0"
         x="0" />
    </clipPath>
    <clipPath
       id="clip8">
      <path
         id="path9496"
         d="M 0.671875,0.449219 H 16.917969 V 15.546875 H 0.671875 Z m 0,0"
         inkscape:connector-curvature="0" />
    </clipPath>
    <clipPath
       id="clip5">
      <rect
         id="rect9483"
         height="25"
         width="24"
         y="0"
         x="0" />
    </clipPath>
    <clipPath
       id="clip6">
      <path
         id="path9480"
         d="M 0.457031,0.210938 H 23.132812 V 24.953125 H 0.457031 Z m 0,0"
         inkscape:connector-curvature="0" />
    </clipPath>
    <clipPath
       id="clip1">
      <rect
         id="rect9461"
         height="32"
         width="30"
         y="0"
         x="0" />
    </clipPath>
    <clipPath
       id="clip2">
      <path
         id="path9458"
         d="M 0.441406,0.394531 H 29.140625 V 31.96875 H 0.441406 Z m 0,0"
         inkscape:connector-curvature="0" />
    </clipPath>
  </defs>
  <sodipodi:namedview
     inkscape:document-rotation="0"
     inkscape:snap-bbox-edge-midpoints="true"
     inkscape:snap-bbox-midpoints="true"
     inkscape:bbox-paths="true"
     inkscape:showpageshadow="false"
     inkscape:snap-global="false"
     inkscape:window-maximized="1"
     inkscape:window-y="27"
     inkscape:window-x="0"
     inkscape:window-height="948"
     inkscape:window-width="1920"
     inkscape:snap-nodes="true"
     inkscape:snap-others="false"
     inkscape:bbox-nodes="true"
     inkscape:snap-bbox="true"
     fit-margin-bottom="0"
     fit-margin-right="0"
     fit-margin-left="0"
     fit-margin-top="0"
     showgrid="true"
     inkscape:current-layer="layer1"
     inkscape:document-units="mm"
     inkscape:cy="257.47006"
     inkscape:cx="-95.03112"
     inkscape:zoom="1"
     inkscape:pageshadow="2"
     inkscape:pageopacity="0.0"
     borderopacity="1.0"
     bordercolor="#666666"
     pagecolor="#ffffff"
     id="base">
    <inkscape:grid
       enabled="false"
       dotted="true"
       units="mm"
       id="grid1366"
       type="xygrid" />
  </sodipodi:namedview>
  <metadata
     id="metadata818">
    <rdf:RDF>
      <cc:Work
         rdf:about="">
        <dc:format>image/svg+xml</dc:format>
        <dc:type
           rdf:resource="http://purl.org/dc/dcmitype/StillImage" />
        <dc:title />
      </cc:Work>
    </rdf:RDF>
  </metadata>
  <g
     style="display:inline"
     transform="translate(0,-168.5)"
     id="layer1"
     inkscape:groupmode="layer"
     inkscape:label="Layer 1">
    <rect
       y="168.50136"
       x="-0.010335271"
       height="128.50943"
       width="50.810242"
       id="rect1368"
       style="opacity:1;fill:#f0f0f0;fill-opacity:1;stroke-width:2.8599999;stroke-miterlimit:4;stroke-dasharray:none" />
    <rect
       y="295.74066"
       x="0.046642244"
       height="1.2593384"
       width="50.793404"
       id="rect1370"
       style="opacity:1;fill:#cdde87;fill-opacity:1;stroke-width:0.27496281" />
    <text
       id="text861"
       y="195.13542"
       x="11.90625"
       style="font-style:normal;font-variant:normal;font-weight:bold;font-stretch:normal;font-size:3.52778px;line-height:1.25;font-family:sans-serif;-inkscape-font-specification:'sans-serif Bold';letter-spacing:0px;word-spacing:0px;fill:#000000;fill-opacity:1;stroke:none;stroke-width:0.264583"
       xml:space="preserve" />
    <path
       style="display:inline;fill:none;stroke:#000000;stroke-width:0.285922;stroke-linecap:round;stroke-linejoin:round;stroke-miterlimit:10;stroke-opacity:1"
       d="M 11.189108,218.68124 H 39.532227"
       id="path25991"
       inkscape:connector-curvature="0" />
    <path
       style="display:inline;fill:none;stroke:#000000;stroke-width:0.285922;stroke-linecap:round;stroke-linejoin:round;stroke-miterlimit:10;stroke-opacity:1"
       d="M 11.189108,241.28673 H 39.532227"
       id="path25999"
       inkscape:connector-curvature="0" />
    <rect
       y="275.60226"
       x="35.71875"
       height="10.596378"
       width="10.583333"
       id="rect5287"
       style="display:inline;opacity:1;fill:#cdde87;fill-opacity:1;stroke-width:0.322035" />
    <path
       style="display:inline;fill:none;stroke:#000000;stroke-width:0.239439;stroke-linecap:round;stroke-linejoin:round;stroke-miterlimit:10;stroke-opacity:1"
       d="M 10.583158,200.54583 H 30.459752"
       id="path25971-0"
       inkscape:connector-curvature="0" />
    <path
       style="display:inline;fill:none;stroke:#000000;stroke-width:0.239603;stroke-linecap:round;stroke-linejoin:round;stroke-miterlimit:10;stroke-opacity:1"
       d="M 10.539499,189.84375 H 30.443362"
       id="path25971-9"
       inkscape:connector-curvature="0" />
    <path
       inkscape:connector-curvature="0"
       id="path6181"
       d="m 31.75,192.34375 c 2.645833,3.70417 2.645833,3.70417 0,0 z"
       style="fill:#f0f0f0;fill-opacity:1;stroke:#ffffff;stroke-width:0.264583px;stroke-linecap:butt;stroke-linejoin:miter;stroke-opacity:1" />
    <path
       inkscape:connector-curvature="0"
       id="path6189"
       d="m 39.6875,195.0625 c -5.291667,0 -5.291667,0 -5.291667,0"
       style="fill:none;stroke:#000000;stroke-width:0.264583px;stroke-linecap:butt;stroke-linejoin:miter;stroke-opacity:1" />
    <path
       sodipodi:nodetypes="cc"
       inkscape:connector-curvature="0"
       id="path6191"
       d="m 30.443362,189.84375 3.952471,5.21875"
       style="fill:none;stroke:#000000;stroke-width:0.264583px;stroke-linecap:butt;stroke-linejoin:miter;stroke-opacity:1" />
    <path
       sodipodi:nodetypes="cc"
       inkscape:connector-curvature="0"
       id="path6204"
       d="m 34.395833,195.0625 -3.936081,5.48333"
       style="fill:none;stroke:#000000;stroke-width:0.264583px;stroke-linecap:butt;stroke-linejoin:miter;stroke-opacity:1" />
    <g
       transform="translate(72.490617,168.5)"
       id="g2119"
       style="display:inline">
      <path
         transform="matrix(0.22774839,0,0,0.24565989,-37.726138,80.539021)"
         id="path2110"
         style="display:inline;fill:#171514;fill-opacity:1;fill-rule:nonzero;stroke:none;stroke-width:0.0352777"
         d="m -5.6275905,176.49599 c -0.0857,-0.24024 -0.37677,-0.16087 -0.35349,0.12347 0.0233,0.28469 0.43921,0.11677 0.35349,-0.12347 z m 1.56139,-14.0716 c -0.0536,0.0473 -0.0773,0.11218 -0.085,0.16757 -0.03,0.2166 -0.49318,0.34678 -0.23319,0.53163 0.22613,0.16052 0.30304,-0.27058 0.47414,-0.40957 0.0448,-0.0367 0.079,-0.0974 0.0804,-0.1711 0.002,-0.1076 -0.15699,-0.18874 -0.23636,-0.11853 z m -1.3395,16.00588 c 0.037,-0.0776 0.0487,-0.16828 0.0462,-0.26388 -0.004,-0.11783 -0.11183,-0.28928 -0.17392,-0.248 -0.1591,0.10513 -0.43709,0.13053 -0.44626,0.36159 -0.004,0.10478 0.0483,0.17851 0.127,0.23178 0.127,0.0857 0.38276,0.0533 0.44697,-0.0815 z m -3.45263,-21.03861 c 0.2159,-0.15805 0.42862,-0.32138 0.68297,-0.41099 0.6403,-0.22542 1.21709,-0.57573 1.81575,-0.88547 0.29951,-0.15487 0.65229,-0.21484 0.98743,-0.28928 0.21696,-0.0483 0.34925,0.0783 0.40005,0.29422 0.10336,0.43815 0.34149,0.81703 0.53869,1.21426 0.13582,0.27376 0.27305,0.55069 0.17004,0.87171 -0.0878,0.27552 -0.0109,0.45862 0.28681,0.51859 0.30444,0.061 0.34537,-0.15099 0.38593,-0.36971 0.009,-0.0494 0.012,-0.10619 0.0469,-0.14746 0.0561,-0.0663 0.24554,0.008 0.30445,0.13723 0.0339,0.0748 0.0554,0.1598 0.072,0.24659 0.0663,0.34501 0.12524,0.68968 0.127,1.04493 0.007,1.35325 0.009,2.70439 -0.3182,4.03225 -0.0896,0.36336 -0.20709,0.74824 0.34219,0.89358 0.15275,0.0406 0.11359,0.2353 0.10724,0.37254 -0.018,0.39616 -0.0282,0.79304 -0.0649,1.1878 -0.008,0.0875 -2.6e-4,0.16651 0.0198,0.2413 0.0349,0.12982 0.0882,0.38029 0.0765,0.57503 -0.0113,0.19473 -0.0907,0.47307 -0.16051,0.6297 -0.0409,0.0914 -0.0709,0.18803 -0.072,0.29916 -0.003,0.36301 -0.0257,0.72637 -0.0229,1.08867 0.005,0.56833 0.1023,1.08656 0.127,1.1617 0.0247,0.0748 0.004,0.46743 -0.0353,0.89958 -0.0392,0.4318 0.11359,0.98602 0.16475,1.25907 0.03,0.15839 0.0402,0.32279 0.0342,0.50059 -0.008,0.24024 -0.013,0.4886 0.018,0.73307 0.0512,0.40217 0.20179,0.7486 0.22754,0.80645 0.0261,0.0579 0.0688,0.10372 0.0794,0.13194 0.0106,0.0279 0.0198,0.0974 0.0519,0.15557 0.0318,0.0579 0.17427,0.53729 0.43568,1.04211 0.16969,0.32808 0.40569,0.61489 0.76906,0.82303 0.18803,0.1076 0.20249,0.31221 0.23671,0.4893 0.12417997,0.64347 0.22824997,1.29082 0.34642997,1.93499 0.0356,0.19403 -0.0208,0.34008 -0.10831,0.5207 -0.22753997,0.47061 -0.65756997,0.78317 -0.89604997,1.24107 -0.0744,0.14288 -0.266,0.26247 -0.41769,0.12947 -0.32843,-0.28786 -0.56303,-0.0268 -0.81597,0.10337 -0.14323,0.0737 -0.26212,0.19544 -0.39088,0.29668 -0.24307,0.19086 -0.35137,0.27623 -0.44309,0.21555 -0.23918,-0.1584 -0.38735,-0.35348 -0.46814,-0.1778 -0.0462,0.10054 -0.0614,0.21167 -0.0378,0.34149 0.0169,0.0924 0.0413,0.18415 0.0483,0.27728 0.018,0.23566 0.0339,0.49636 -0.19932,0.62724 -0.25752,0.14499 -0.43003,-0.0691 -0.60219,-0.22613 -0.0395,-0.0363 -0.0808,-0.0706 -0.13299,-0.11289 -0.0748,-0.061 -0.1898,0.3295 -0.57962,0.59796 -0.22013,0.15205 -0.50059,0.21378 -0.81633,0.21661 -0.19861,0.002 -0.31855,0.11324 -0.43744,0.23389 -0.19861,0.20073 -0.69286,-0.005 -1.00542,-0.39053 -0.18027,-0.22225 -0.32702,-0.47484 -0.3556,-0.80962 -0.0138,-0.16228 -0.18133,-0.25541 -0.29351,-0.3743 -0.22613,-0.24059 -0.61983,-0.34749 -0.62159,-0.79093 0,-0.0977 -0.21484,-0.2092 -0.34608,-0.28963 -0.29175,-0.17815 -0.5030605,-0.0755 -0.5252905,0.26882 -0.0113,0.17815 -0.012,0.35701 -0.0102,0.54751 0.003,0.30304 -0.20143,0.3182 -0.31185,-0.0356 -0.110421,-0.35419 -0.135821,-0.91687 -0.320325,-1.2132 -0.111125,-0.17922 -0.24765,-0.35455 -0.218017,-0.5775 0.02928,-0.21978 0.03669,-0.44239 0.03775,-0.66569 0.0021,-0.3683 0.09631,-1.06398 0.100542,-1.56316 0.0024,-0.30127 -0.01341,-0.60325 -0.01058,-0.90417 0.01093,-1.14759 0.0032,-2.29553 0.0028,-3.44347 0.0032,-0.0476 0.006,-0.0956 0.0092,-0.14322 0.0049,-0.079 0.125238,-0.23883 0.121708,-0.39688 -0.0035,-0.1584 -0.06173,-0.34572 -0.04022,-0.43427 0.02117,-0.0889 0.204965,-0.51646 0.293862,-0.98672 0.0892,-0.4699 0.0529,-0.89993 0.0568,-0.9465 0.004,-0.0462 0.15205,-0.47378 0.18945,-0.97966 0.0226,-0.30516 0.0286,-0.61278 0.0836,-0.91335 0.003,-0.0265 0.006,-0.0526 0.01,-0.0787 0.005,-0.0437 0.10195,-0.25047 0.12241,-0.4833 0.0204,-0.23248 -0.002,-0.51929 0.003,-0.63888 0.005,-0.11995 0.1626305,-0.52388 0.1855605,-0.93522 0.0229,-0.41169 -0.17569,-0.5782 -0.4702505,-0.48718 -0.18662,0.0575 -0.369715,0.0804 -0.546456,0.11606 -0.11148,0.0222 -0.203907,0.06 -0.287867,0.1083 -0.147815,0.085 -0.345371,0.16228 -0.466373,0.16651 -0.12065,0.004 -0.492125,0.0716 -0.759531,0.26247 -0.267759,0.1905 -0.465315,0.43745 -0.515761,0.48225 -0.05045,0.0452 -0.170746,0.0949 -0.266348,0.1658 -0.09525,0.0705 -0.153458,0.16687 -0.184856,0.18768 -0.0314,0.0208 -0.232834,0.0769 -0.400402,0.22684 -0.167569,0.14993 -0.327025,0.34501 -0.432152,0.36971 -0.105481,0.0243 -0.672748,-0.0536 -1.047398,0.3055 -0.225073,0.2159 -0.408517,0.49954 -0.670983,0.653 -0.2159,0.12594 0.07056,0.38276 -0.183092,0.44414 -0.07691,0.0162 -0.137583,-0.008 -0.194382,-0.0423 -0.09666,-0.0586 -0.168978,-0.30233 -0.228245,-0.53728 -0.04339,-0.17251 -0.08572,-0.3302 -0.02611,-0.42827 0.260702,-0.42792 0.121708,-0.99836 0.571852,-1.35643 0.08996,-0.0716 0.186621,-0.1651 0.264937,-0.27622 0.121709,-0.17357 0.247296,-0.41487 0.346075,-0.51824 0.09878,-0.10336 0.176388,-0.23953 0.226484,-0.26564 0.0314,-0.0162 0.06103,-0.0342 0.08361,-0.0586 0.344662,-0.37112 0.798687,-0.71649 0.286808,-1.29046 -0.02506,-0.0282 -0.0085,-0.0938 0.01553,-0.16616 0.02999,-0.0907 0.152049,-0.23248 0.236009,-0.34995 0.08396,-0.11748 0.310446,-0.64453 0.643821,-1.10526 0.543983,-0.75141 1.176867,-1.42945 1.863373,-2.06304 0.07549,-0.0698 0.1651,-0.12912 0.239887,-0.20108 0.12418,-0.11959 0.28293,-0.35913 0.42263,-0.50059 0.139345,-0.14147 0.313266,-0.31327 0.378177,-0.40923 0.06526,-0.096 0.08608,-0.20602 0.105481,-0.23601 0.01939,-0.0303 0.168627,-0.15945 0.320321,-0.3242 0.151341,-0.16475 0.382061,-0.48754 0.5813815,-0.69673 0.19932,-0.2092 0.69709,-0.50271 1.05339,-0.76377" />
      <path
         transform="matrix(0.22774839,0,0,0.24565989,-37.726138,80.539021)"
         id="path2112"
         style="display:inline;fill:#171514;fill-opacity:1;fill-rule:nonzero;stroke:none;stroke-width:0.0352777"
         d="m -60.846457,175.09898 c 0.0014,-0.0914 0.0194,-0.18592 0,-0.27235 -0.02858,-0.12806 -0.131234,-0.19261 -0.259998,-0.18909 -0.11818,0.003 -0.290689,0.0409 -0.262114,0.16581 0.05927,0.25964 -0.09807,0.4325 -0.167922,0.64241 -0.03775,0.11359 0.0028,0.25012 0.104422,0.31397 0.103717,0.0656 0.22472,0.0109 0.327731,-0.0512 0.23742,-0.14288 0.257528,-0.36759 0.257881,-0.6096 z m -19.259551,3.05858 c -0.01588,-0.14111 -0.03457,-0.28011 -0.06491,-0.41628 -0.07091,-0.31961 -0.175331,-0.63218 -0.277636,-0.94368 -0.04339,-0.13158 -0.115006,-0.28928 -0.282575,-0.25894 -0.236008,0.0423 -0.174272,0.25294 -0.143228,0.39617 0.118886,0.55069 0.307622,1.0795 0.560917,1.58327 0.01905,0.0378 0.05186,0.0688 0.112889,0.0755 0.07796,0.008 0.120297,-0.20461 0.09454,-0.43603 z m 2.970742,0.63006 c -0.317148,-0.54963 -0.626534,-1.0855 -0.938037,-1.6196 -0.06103,-0.10478 -0.106186,-0.20179 -0.0822,-0.32667 0.09596,-0.49707 -0.275872,-0.74966 -0.555624,-1.04846 -0.105834,-0.11324 -0.241653,-0.14287 -0.383117,-0.0868 -0.17145,0.0674 -0.151695,0.21696 -0.121708,0.35525 0.03951,0.18168 0.08325,0.36336 0.139347,0.5401 0.265289,0.83608 0.794455,1.518 1.259769,2.24473 0.150636,0.2353 0.314325,0.41486 0.50553,0.54962 0.33902,0.23919 0.460023,-0.11571 0.176037,-0.60819 z m 6.217003,-4.10563 c -0.04304,-0.13299 -0.02293,-0.28398 0.123119,-0.47766 0.141111,-0.18768 0.04233,-0.53446 -0.293864,-0.58032 -0.196497,-0.0268 -0.350308,-0.12206 -0.525639,-0.17921 -0.106539,-0.0346 -0.197908,-0.031 -0.274108,0.006 -0.1397,0.0684 -0.271639,0.1651 -0.384528,0.18239 -0.06809,0.0102 -0.135467,0.031 -0.203905,0.0346 -0.455437,0.0233 -0.926042,0.043 -1.333148,-0.20497 -0.370064,-0.22577 -0.616302,-0.10759 -0.789164,0.32315 -0.162277,0.40463 -0.06773,0.81245 -0.123825,1.21461 -0.0095,0.0674 -0.01411,0.15029 0.01587,0.20602 0.29457,0.54963 0.623712,1.08268 0.745067,1.70921 0.01093,0.055 0.08961,0.10266 0.144992,0.14253 0.680861,0.49071 1.467555,0.77858 2.215797,1.13911 0.142522,0.0688 0.318911,0.0903 0.480483,0.0931 0.539045,0.009 1.079148,0.0173 1.614311,-0.0635 0.65405,-0.0988 0.679803,-0.14146 0.742598,-0.79057 0.02152,-0.22296 0.06773,-0.41628 -0.210961,-0.51223 -0.10795,-0.0367 -0.201437,-0.13406 -0.220839,-0.25718 -0.0695,-0.44027 -0.299156,-0.73448 -0.586317,-0.97578 -0.435323,-0.36583 -1.049156,-0.73871 -1.135939,-1.00929 z m 6.9977,-4.64749 c 0.107597,0.115 -0.200731,0.28398 -0.40887,0.21731 -0.207786,-0.0667 -0.236008,0.0935 -0.0049,0.18838 0.230716,0.0949 0.427919,-0.26599 0.51823,-0.24624 0.0501,0.0113 0.09807,0.0603 0.136172,0.0931 0.112184,0.0956 0.221192,0.19474 0.329495,0.29493 0.179211,0.16651 0.358775,0.3496 0.403225,0.4071 0.03457,0.0445 0.06209,0.0868 0.05186,0.11642 -0.08749,0.25682 -0.05221,0.44132 0.05115,0.58702 0.195792,0.27658 0.492478,0.36195 0.503414,0.35348 0.01058,-0.009 0.01164,-0.007 0.0025,0.002 -0.0095,0.0102 0.212372,0.36936 0.548569,0.76165 0.201436,0.2353 0.403931,0.47167 0.56515,0.74366 0.105481,0.17744 0.227895,0.37394 0.392642,0.52705 0.2667,0.248 0.84455,0.58631 0.885472,1.06539 0.02434,0.28751 0.0053,0.58384 0.0441,0.86854 0.0042,0.0286 0.05327,0.0459 0,0.0878 -0.506236,0.4011 -0.60325,1.08055 -1.078794,1.5314 -0.319264,0.30304 -0.524228,0.75565 -0.829028,1.10949 -0.123119,0.14288 -0.218369,0.31785 -0.401108,0.38065 -0.227542,0.0787 -0.314678,0.2413 -0.398286,0.45014 -0.145345,0.36231 -0.379942,0.60396 -0.819856,0.6664 -0.436386,0.0617 -0.875595,0.20637 -0.972961,0.76235 -0.04092,0.23354 -0.264936,0.32738 -0.462139,0.39652 -0.264936,0.0928 -0.539397,0.17075 -0.815975,0.21696 -0.822678,0.13794 -1.604786,0.49213 -2.464153,0.4445 -0.178506,-0.01 -0.379942,0.0494 -0.541161,0.13335 -1.013531,0.52917 -2.119489,0.73167 -3.225095,0.93592 -0.109008,0.0201 -0.234244,2.7e-4 -0.343253,-0.0314 -0.529166,-0.15275 -1.058686,-0.10265 -1.601611,-0.09 -0.923925,0.0212 -1.857728,-0.0473 -2.707217,-0.50553 -0.22613,-0.12206 -0.463197,-0.25541 -0.710494,-0.30092 -0.765881,-0.14111 -1.265061,-0.67169 -1.787172,-1.16628 -1.655233,-1.56845 -2.310695,-3.58034 -2.538236,-5.77921 -0.02434,-0.23636 -0.02081,-0.46778 0.01905,-0.70202 0.345061,-2.02529 1.019925,-3.92887 1.923389,-5.77919 0.379589,-0.77753 0.810331,-1.49966 1.452739,-1.99884 0.6223,-0.48331 1.175103,-1.04952 1.780469,-1.55081 0.43815,-0.36266 1.034345,-0.48719 1.271412,-0.5708 0.136172,-0.048 0.261408,-0.14287 0.386644,-0.23636 0.238831,-0.17851 0.500239,-0.32456 0.750006,-0.47837 0.340783,-0.2099 0.703086,-0.39405 1.043164,-0.61066 0.479425,-0.3055 1.220964,-0.81668 1.762477,-0.98989 0.55492,-0.1778 1.113014,-0.34713 1.656645,-0.56444 0.686153,-0.27447 1.465086,-0.36407 2.191103,-0.32562 0.788458,0.042 1.588911,-0.12065 2.365375,0.0893 0.91052,0.24589 1.754364,0.58244 2.305403,1.29575 0.347486,0.45015 0.08925,1.23014 -0.421217,1.10843 -0.510469,-0.12206 -1.005769,-0.16757 -0.996244,-0.0607 0.006,0.066 0.05503,0.11818 0.09102,0.16934 0.131234,0.18379 0.07338,0.30515 -0.118533,0.37958 -0.123119,0.0476 -0.293864,0.007 -0.337255,0.19156 -0.05962,0.25224 -0.255764,0.21273 -0.381001,0.12206 -0.3429,-0.24765 -0.724605,-0.27587 -1.119716,-0.26564 -0.196145,0.005 -0.525992,-0.18697 -0.442384,0.27552 0.0028,0.0148 -0.01164,0.0385 -0.02505,0.0494 -0.450144,0.36266 -0.450144,0.36266 0.0035,0.77576 0.0088,0.008 0.01588,0.0173 0.02328,0.0279 0.01129,0.0162 -0.05609,0.1584 -0.210608,0.17533 -0.08714,0.01 -0.1778,-0.0215 -0.262114,-0.0829 -0.372533,-0.26987 -0.778581,-0.3937 -1.234722,-0.35666 -0.153459,0.0123 -0.263173,-0.0857 -0.389114,-0.14322 -0.173214,-0.0794 -0.379589,-0.1778 -0.540103,-0.1076 -0.411692,0.17956 -0.820208,0.0261 -1.200856,-0.024 -0.337961,-0.0445 -0.609247,0.0145 -0.849136,0.1651 -0.472722,0.29739 -1.0033,0.47942 -1.469672,0.78105 -0.756708,0.4893 -1.446742,1.03717 -1.692275,1.97414 -0.0762,0.29069 -0.282575,0.53587 -0.339372,0.84103 -0.01199,0.0635 -0.01728,0.11994 -0.0046,0.16933 0.02363,0.0914 0.109361,0.17251 0.136878,0.2166 0.01446,0.0233 0.0381,0.036 0.08325,0.0222 0.0092,-0.003 0.01129,-0.0293 0.01235,-0.0596 0.0011,-0.0346 0.09102,-0.115 0.199672,-0.17921 0.109009,-0.0642 0.320322,-0.0942 0.475545,-0.0847 0.09172,0.006 0.181328,0.0215 0.259997,0.0914 0.07973,0.0709 0.04516,0.17216 0.03457,0.27058 -0.01728,0.15734 0.479778,0.0286 0.932745,-0.1972 0.272344,-0.13582 0.552097,-0.25964 0.843844,-0.35595 0.115006,-0.0377 0.215195,-0.0759 0.285045,-0.1838 0.140052,-0.21731 0.336197,-0.32526 0.599369,-0.26282 0.256822,0.0607 0.170745,0.29528 0.231422,0.45897 0.106186,0.28751 0.450498,0.46002 0.591962,0.26917 0.280105,-0.37712 0.733072,-0.25718 1.06433,-0.47343 0.200731,-0.13124 0.492125,-0.13194 0.745772,-0.16722 0.08008,-0.0109 0.179564,0.042 0.215195,0.14711 0.03704,0.10936 -0.01905,0.19826 -0.09737,0.23918 -0.07338,0.0388 -0.150989,0.0699 -0.229658,0.0988 -0.12947,0.0476 0.119944,0.17216 0.567619,0.20214 0.249414,0.0169 0.481189,-0.0487 0.6604,-0.37641 0.0254,-0.0466 0.100189,-0.0656 0.18415,-0.0797 0.112889,-0.0187 0.283281,-0.012 0.381,0.0173 0.09772,0.0293 0.201084,0.14252 0.230364,0.25294 0.01764,0.0667 0.03422,0.1337 0.04763,0.20144 0.09666,0.49106 0.140053,0.53446 0.594784,0.54892 0.161925,0.005 0.324555,0.006 0.475191,-0.0699 0.23495,-0.11818 0.444853,-0.0928 0.625475,0.10689 0.04939,0.0543 0.10407,0.0963 0.165453,0.12383 0.104422,0.0469 0.262114,0.14252 0.369711,0.25717" />
      <path
         transform="matrix(0.22774839,0,0,0.24565989,-37.726138,80.539021)"
         id="path2114"
         style="display:inline;fill:#171514;fill-opacity:1;fill-rule:nonzero;stroke:none;stroke-width:0.0352777"
         d="m -36.293898,165.16119 c -0.02574,-0.0247 -0.05927,-0.0212 -0.07444,0.008 -0.01024,0.0198 -0.01799,0.0392 -0.01447,0.0561 0.0063,0.0321 0.05045,0.0776 0.08043,0.0797 0.02787,0.002 0.04621,-0.0109 0.05503,-0.0317 0.0141,-0.0349 -0.02045,-0.0871 -0.04657,-0.11183 z m -0.103365,-2.44757 c -0.01693,0.0247 -0.02469,0.0571 -0.02928,0.0907 -0.01376,0.0991 0.01447,0.1838 0.123473,0.19685 0.07973,0.01 0.112183,-0.0639 0.10936,-0.12911 -0.0019,-0.0441 -0.0049,-0.0903 -0.02294,-0.12842 -0.03034,-0.066 -0.150638,-0.0744 -0.180624,-0.03 z m 0.229307,4.01461 c -0.02328,-0.25153 -0.118182,-0.26599 -0.179565,-0.0286 -0.06103,0.23778 0.202493,0.28046 0.179565,0.0286 z m -0.328084,-2.48002 c 0.04515,0.27622 0.23636,0.2667 0.201084,-0.01 -0.03528,-0.27658 -0.24624,-0.2667 -0.201084,0.01 z m -7.127171,13.33958 c -0.127704,0.5521 0.207433,1.03893 0.193675,1.59385 -0.02434,0.99625 0.234246,1.97485 0.363363,2.96263 0.01693,0.12947 0.08078,0.2353 0.211667,0.23742 0.13335,0.002 0.198966,-0.10901 0.216251,-0.23424 0.01588,-0.11607 0.03775,-0.23495 0.02681,-0.34996 -0.04198,-0.44344 -0.0063,-0.89182 -0.109712,-1.33209 -0.119947,-0.50976 -0.120299,-1.03822 -2.65e-4,-1.53599 0.128058,-0.5334 0.438504,-1.028 0.2032,-1.60938 -0.02469,-0.061 0.05398,-0.17215 0.09913,-0.25223 0.09454,-0.16828 0.138642,-0.34749 0.148167,-0.53799 0.04163,-0.83926 -0.1397,-1.66511 -0.145698,-2.50155 -0.0011,-0.11959 -0.04551,-0.29703 -0.148519,-0.28963 -0.271285,0.0187 -0.543631,0.0833 -0.805391,0.16263 -0.199319,0.0607 -0.144992,0.26318 -0.171802,0.41981 -0.123121,0.72073 0.139345,1.4672 -0.137232,2.17452 -0.147814,0.37818 0.1524,0.7239 0.05644,1.0922 z m 7.955492,-13.68742 c 0.01376,0.23671 -0.07902,0.45614 -0.204962,0.50306 -0.07161,0.0265 -0.125238,0.073 -0.1143,0.18979 0.0099,0.10301 0.04833,0.18839 0.112183,0.25153 0.110418,0.10901 0.22507,0.17039 0.20461,0.24342 -0.02082,0.0727 0.04339,0.12171 0.04974,0.121 0.0063,-0.001 -0.07867,-0.0603 -0.149225,0.002 -0.0702,0.0624 -0.194027,0.19332 -0.174977,0.29528 0.0092,0.0483 0.06526,0.0882 0.138993,0.11536 0.05221,0.0194 0.100894,0.0381 0.142875,0.0646 0.07303,0.0462 0.02222,0.36336 0.1016,0.66004 0.04798,0.17886 0.117827,0.35631 0.127352,0.53975 0.0067,0.133 0.331613,0.35172 0.485423,0.56727 0.112536,0.15734 0.352777,0.0469 0.536575,0.0455 0.632532,-0.003 1.264709,-0.0166 1.89724,-0.0127 0.280459,0.002 0.518584,0.10795 0.775052,0.24694 0.15734,0.0854 0.474133,-0.21378 0.772935,-0.16898 0.21943,0.0328 0.439563,0.06 0.660048,0.085 0.36548,0.042 0.730957,0.26988 0.900997,0.44662 0.113241,0.11818 0.247295,0.19791 0.38382,0.20073 0.40993,0.008 0.750007,0.23671 1.147588,0.2353 0.456142,-0.002 0.88406,0.2219 1.37442,0.0614 0.407813,-0.1337 0.8382,0.14605 1.307397,0.0416 0.2794,-0.0624 0.570087,-0.067 0.862541,-0.0741 0.479071,-0.0113 0.923571,-0.0826 1.000477,-0.0794 0.07691,0.004 0.25541,0.0635 0.282927,0.19191 0.0113,0.0536 -0.02117,0.10795 -0.145343,0.16404 -0.0822,0.037 -0.118534,0.0896 -0.127707,0.14994 -0.01693,0.11253 0.03598,0.29421 0.03528,0.40957 -7.94e-4,0.11536 -0.143582,0.24483 -0.213432,0.38206 -0.03563,0.0706 -0.03493,0.15769 0.01693,0.26917 0.03916,0.0836 0.06597,0.20637 -0.05292,0.23142 -0.545042,0.11501 -0.750358,0.62371 -1.119717,0.94086 0,0 -0.0046,0.005 -0.0092,0.009 -0.0053,0.005 -0.188736,0.12171 -0.301977,0.33972 -0.113242,0.21802 -0.120298,0.46108 -0.204613,0.49707 -0.08431,0.0356 -0.164746,0.0586 -0.179917,0.0508 -0.01482,-0.008 -0.03492,-0.002 -0.04445,0.0123 -0.0098,0.0141 -0.0568,0.0459 -0.104775,0.0709 -0.04798,0.0247 -0.119943,0.0145 -0.152752,0.0349 -0.03281,0.0201 -0.06632,0.0804 -0.116416,0.10195 -0.05045,0.0219 -0.135115,-0.012 -0.188736,0.0116 -0.05362,0.0233 -0.137583,0.13018 -0.135821,0.22013 0.0013,0.09 0.0889,0.29951 -0.05503,0.38912 -0.144285,0.09 -0.272696,0.20002 -0.323496,0.20884 -0.03034,0.005 -0.06103,0.0106 -0.09137,0.0159 -0.540454,0.0437 -1.093962,0.0226 -1.56351,0.37536 -0.107244,0.0804 -0.251177,0.1531 -0.379942,0.15628 -0.383116,0.01 -0.759883,0.0797 -1.137708,0.13793 -0.561975,0.0864 -1.174046,0.0138 -1.36878,0.003 -0.194378,-0.0109 -0.459668,-0.0476 -0.581376,-0.004 -0.05468,0.0198 -0.08855,0.0762 -0.08361,0.20109 0.0021,0.0497 -0.01058,0.0917 -0.0314,0.12911 -0.03634,0.0649 -0.145695,0.11219 -0.220837,0.12242 -0.0755,0.0102 -0.322792,-0.002 -0.538692,-0.0794 -0.114654,-0.0413 -0.202848,-0.12277 -0.210608,-0.32385 -0.0013,-0.0314 -0.111125,-0.0847 -0.16863,-0.0818 -0.09102,0.004 -0.166158,0.0441 -0.154516,0.17321 0.04163,0.45897 -0.220134,0.60431 -0.63006,0.59408 -0.05468,-10e-4 -0.09349,0.0201 -0.122767,0.0533 -0.05115,0.0572 -0.07056,0.12418 -0.07408,0.12841 -0.0035,0.004 -0.157692,0.0875 -0.345369,0.18415 -0.113596,0.0582 -0.2286,0.11395 -0.347133,0.16016 -0.140407,0.055 -0.275522,0.0956 -0.261057,0.26882 0.03704,0.44203 -0.45861,0.84878 -0.08537,1.31621 0.02434,0.0303 -0.02611,0.12101 -0.04233,0.1838 -0.144992,0.56021 -0.145344,0.56197 0.407813,0.64452 0.09772,0.0145 0.189087,0.0286 0.212018,0.13865 0.02998,0.14393 -0.04057,0.21484 -0.183798,0.22436 -0.46002,0.03 -0.610658,0.33585 -0.684387,0.7366 -0.06985,0.37959 -0.176742,0.81809 0.05997,1.10032 0.203907,0.24306 0.13194,0.31785 7.94e-4,0.49777 -0.131233,0.17991 -0.05574,0.60677 -0.294923,0.5722 -0.480483,-0.0691 -0.293158,0.31539 -0.424037,0.47272 -0.09278,0.11184 -0.179565,0.22508 -0.22578,0.34996 -0.08043,0.21661 -0.024,0.39617 -0.05609,0.41804 -0.01765,0.0116 -0.02787,0.0318 -0.02998,0.0607 -7.94e-4,0.007 0.04233,0.0293 0.05927,0.0247 0.0321,-0.009 0.04974,-0.024 0.05327,-0.0427 0.0074,-0.0392 0.222604,0.0494 0.357365,-0.13723 0.06703,-0.0931 0.0702,-0.24341 0.05539,-0.40569 -0.01304,-0.14041 0.02963,-0.2346 0.15875,-0.26035 0.09878,-0.0198 0.187325,0.0501 0.21449,0.14428 0.04516,0.15558 0.159808,0.25718 0.287866,0.37783 0.193675,0.18203 0.105127,0.23742 -0.06103,0.3743 -0.106892,0.0882 -0.144285,0.25117 -0.25541,0.28786 -0.231775,0.0765 -0.511175,0.006 -0.745774,0.14323 -0.03951,0.0233 -0.102303,0.0459 -0.110066,0.0794 -0.06032,0.25647 -0.200729,0.38241 -0.454377,0.50447 -0.165452,0.0794 -0.149225,0.45615 -0.274815,0.68333 -0.05574,0.1009 -0.0896,0.21449 -0.138287,0.31892 -0.08114,0.17427 -0.274815,0.0808 -0.451205,0.0617 -0.176387,-0.0194 -0.332668,-0.0589 -0.398285,-0.17357 -0.03845,-0.067 -0.09666,-0.10795 -0.204258,-0.0737 -0.08961,0.0282 -0.130175,0.0956 -0.142875,0.1771 -0.02082,0.13158 -0.05644,0.34819 -0.158398,0.4766 -0.102304,0.12841 -0.137935,0.23354 -0.172509,0.21907 -0.03457,-0.0148 -0.08643,-0.11324 -0.19332,-0.17074 -0.106892,-0.0575 -0.126296,-0.22402 -0.100542,-0.33197 0.01516,-0.0624 0.01093,-0.12382 -0.05433,-0.18168 -0.03916,-0.0349 -0.172154,-0.0406 -0.186971,-0.0152 -0.170391,0.28928 -0.490008,0.38135 -0.727429,0.57856 -0.05468,0.0455 -0.09066,0.10901 -0.09983,0.17921 -0.01516,0.11536 0.04621,0.26106 0.04516,0.33549 -0.0011,0.0748 -0.10019,0.30762 -0.1778,0.53763 -0.07726,0.23037 -0.06879,0.20285 -0.08714,-0.0759 -0.01871,-0.27869 -0.112887,-0.58278 -0.179562,-0.6805 -0.06703,-0.0977 -0.16369,-0.14782 -0.175331,-0.16651 -0.01164,-0.019 -0.04163,-0.22084 -0.103011,-0.45332 -0.06138,-0.23284 -0.208846,-0.0857 -0.369713,0.23142 -0.102658,0.20249 -0.212725,0.37924 -0.20602,0.6029 -0.0024,0.049 -0.0049,0.0981 -0.0074,0.1471 -0.0039,0.0815 -0.08149,0.17392 -0.115007,0.25083 -0.03316,0.0769 0.04904,0.0198 0.03739,-0.12877 -0.0113,-0.14851 -0.04339,-0.38487 -0.02506,-0.53657 0.01093,-0.0921 0.02011,-0.18415 0.02117,-0.27623 0.0024,-0.19014 -0.04833,-0.37429 -0.210256,-0.49671 -0.158044,-0.11924 -0.24271,0.0702 -0.365477,0.10266 -0.32879,0.0875 -0.540808,-0.0374 -0.64629,-0.35313 -0.04445,-0.13264 -0.08678,-0.26634 -0.116064,-0.40287 -0.07338,-0.34184 -0.362654,-0.27552 -0.558094,-0.24024 -0.235302,0.0427 -0.115358,0.24165 -0.06738,0.39405 0.02117,0.066 0.03563,0.1337 0.04833,0.20214 0.02117,0.11289 -0.203906,0.0896 -0.367948,-0.17215 -0.09807,-0.15664 -0.150635,-0.33691 -0.153104,-0.53023 -0.0085,-0.67627 -0.14464,-1.33703 -0.2413,-2.00166 -0.0822,-0.56233 0.06667,-1.05657 0.06103,-1.20685 -0.0032,-0.0878 -0.03034,-0.18945 0.02363,-0.26565 0.163687,-0.23036 0.193675,-0.43956 0.106185,-0.60924 -0.164748,-0.31997 -0.524581,-0.39053 -0.522464,-0.43639 0.0024,-0.0455 0.134408,0.0321 0.328789,0.0526 0.110773,0.0116 0.143934,-0.072 0.155223,-0.2674 0.0067,-0.11325 -0.0056,-0.22896 -0.02257,-0.34149 -0.0381,-0.25118 -0.07197,-0.35666 -0.182738,-0.33444 -0.230716,0.0466 -0.368654,0.0572 -0.377473,-0.14428 -0.0088,-0.20144 -0.05574,-0.20214 0.06844,-0.1517 0.05891,0.024 0.140758,-0.009 0.221544,-0.0727 0.225777,-0.1785 0.234243,-0.43638 0.179916,-0.69956 -0.03034,-0.14781 -0.06032,-0.29527 -0.09031,-0.44308 -0.04939,-0.24483 0.08502,-0.52952 0.0949,-0.72143 0.0099,-0.19192 -0.04692,-0.42757 -0.05856,-0.54646 -0.01198,-0.11853 0.04763,-0.40358 0.03387,-0.67204 -0.0085,-0.16051 -0.04304,-0.32244 -0.05362,-0.48366 -0.0081,-0.12911 -0.0508,-0.2607 -0.170037,-0.27269 -0.331965,-0.0339 -0.667809,-0.11748 -1.00048,-0.13618 -0.556683,-0.031 -1.052335,0.25012 -1.165929,0.26176 -0.06844,0.007 -0.136879,0.0141 -0.205671,0.0212 -0.378883,0.031 -0.748945,0.0847 -1.108427,-0.14851 -0.131939,-0.0857 -0.379941,-0.0727 -0.542925,-0.0145 -0.479779,0.1718 -1.088321,-0.0554 -1.458383,0.48612 -0.06597,0.097 -0.288925,0.13723 -0.456848,0.0857 -0.172508,-0.0526 -0.262115,-0.018 -0.313619,0.0564 -0.10795,0.15593 -0.09031,0.32526 -0.08714,0.32174 0.0028,-0.004 -0.06985,0.0346 -0.170391,0.03 -0.100542,-0.005 -0.176035,-0.12171 -0.170037,-0.2413 0.0056,-0.1196 0.04904,-0.24307 0.0956,-0.27588 0.02858,-0.0198 0.05609,-0.0406 0.08114,-0.0639 0.122412,-0.11571 0.235654,-0.25823 0.135819,-0.42368 -0.09031,-0.14993 -0.249767,-0.0466 -0.378532,-0.0282 -0.409926,0.0596 -0.817033,0.14428 -1.23331,0.0261 -0.106891,-0.0307 -0.171802,7.1e-4 -0.219075,0.0568 -0.08573,0.1023 -0.144991,0.22437 -0.180623,0.24059 -0.03563,0.0162 -0.365125,0.0487 -0.703437,-0.085 -0.338315,-0.13335 -0.446265,-0.28081 -0.338667,-0.50941 0.05821,-0.12418 0.02646,-0.24059 -0.185563,-0.36195 -0.08537,-0.0487 -0.0762,-0.16968 -0.01622,-0.25012 0.137232,-0.18415 0.213784,-0.40675 0.416984,-0.54962 0.222602,-0.15699 0.324908,-0.23249 0.301625,-0.31257 -0.06914,-0.24094 -0.267052,-0.37641 -0.114652,-0.39969 0.09278,-0.0145 0.183443,-0.0321 0.221543,-0.14076 0.0067,-0.0194 0.0046,-0.0462 -0.0035,-0.0656 -0.0071,-0.0173 -0.02574,-0.0363 -0.04304,-0.0409 -0.01376,-0.004 -0.04868,0.0173 -0.04798,0.0198 0.05821,0.20073 0.214842,0.14852 0.342545,0.11465 0.32738,-0.0868 0.418042,-0.35666 0.148873,-0.55069 -0.171098,-0.12347 -0.270933,-0.27022 -0.335843,-0.43038 -0.114655,-0.28328 0.06491,-0.63112 0.226129,-0.49918 0.09172,0.0751 0.157339,0.19579 0.231071,0.29633 0.09384,0.127 0.112183,0.30762 0.26811,0.39299 0.07973,0.0437 0.164748,0.0931 0.253648,0.0265 0.101246,-0.0762 0.05574,-0.19155 7.94e-4,-0.24024 -0.10301,-0.091 -0.181679,-0.18873 -0.228952,-0.29845 -0.08255,-0.19226 -0.0056,-0.3743 0.02893,-0.39088 0.03422,-0.0166 0.111479,-0.004 0.152048,-0.0409 0.04092,-0.0378 0.0949,-0.26246 0.19826,-0.46672 0.06386,-0.1263 0.134057,-0.24659 0.227896,-0.34467 0.306563,-0.32032 0.729544,-0.47695 1.166636,-0.50165 0.303035,-0.0169 0.589843,-0.0709 0.877358,-0.14957 0.02117,-0.008 0.04233,-0.0159 0.0635,-0.0236 0.03493,-0.013 0.158044,-0.0233 0.274815,-0.0226 0.116768,7.1e-4 0.3429,0.18909 0.526695,0.11747 0.183446,-0.072 0.281871,-0.25576 0.322792,-0.26388 0.04092,-0.008 0.06032,0.14782 0.11924,0.33267 0.03739,0.11713 0.111831,0.19297 0.269523,0.13864 0.42686,-0.1471 0.879827,-0.11571 1.283758,-0.2741 0.26811,-0.10513 0.483307,-0.35948 0.600427,0.13194 0.02469,0.10371 0.148167,0.085 0.242358,0.0568 0.581025,-0.17534 1.167342,-0.0893 1.738138,0.0219 0.507646,0.0988 0.42051,-0.75424 0.959909,-0.54646 0.01588,0.006 0.09031,-0.0949 0.110066,-0.15522 0.02082,-0.0642 0.006,-0.1397 0.01236,-0.20955 0.0074,-0.0804 0.01553,-0.16122 0.024,-0.24165 0.01447,-0.13335 0.07796,-0.42545 0.07726,-0.65793 -2.64e-4,-0.23248 0.0141,-0.74578 0.0695,-1.14441 0.03281,-0.23883 0.08396,-0.47449 0.192263,-0.69992 0.04868,-0.10124 0.09313,-0.24447 0.05891,-0.33937 -0.210608,-0.58526 0.101952,-1.22096 -0.187325,-1.79775 -0.05468,-0.10866 0.01693,-0.28081 0.134761,-0.26953 0.236362,0.0229 0.552098,0.0667 0.613481,0.31221 0.08678,0.34608 0.281517,0.6731 0.185208,1.07351 -0.03775,0.15663 -0.04868,0.32279 -0.01482,0.47977 0.0568,0.26141 0.292452,0.16016 0.237773,-0.14358 -0.03246,-0.18097 -0.09455,-0.35595 -0.175332,-0.52881 -0.182033,-0.39017 0.105482,-0.75459 0.08573,-1.14759 -0.0127,-0.25541 0.334786,-0.18979 0.514702,-0.25717 0.215196,-0.0808 0.292455,-0.19015 0.297746,-0.40605 0.0067,-0.27234 -0.171804,-0.38559 -0.382058,-0.42474 -0.300567,-0.0565 -0.611365,-0.0138 -0.898879,0.0822 -0.116063,0.0392 -0.227188,0.0705 -0.337254,0.0765 -0.191207,0.0102 -0.275167,-0.17075 -0.206375,-0.28399 0.04339,-0.0709 0.08043,-0.14287 0.09384,-0.21907 0.05539,-0.31786 0.2032,-0.49284 0.39864,-0.59585 0.364066,-0.19191 0.872418,-0.0801 1.059391,-0.14111 0.108302,-0.0353 0.22084,-0.0815 0.346427,-0.0462 0.49389,0.13829 0.861838,-0.14464 1.178632,-0.52669 0.138641,-0.16722 0.207081,-0.34925 0.303035,-0.52811 0.04198,-0.078 0.112538,-0.17251 0.265642,-0.0476 0.377121,0.30727 0.489304,0.28151 0.612775,-0.16934 0.02963,-0.10795 0.06668,-0.16615 0.1143,-0.19438 0.109714,-0.0653 0.435681,0.25153 0.559506,0.62795 0.07303,0.22119 0.104423,0.45579 0.08326,0.70802 -0.0032,0.0402 -0.0035,0.0981 0.02469,0.13723 0.04657,0.0635 0.212725,-0.0677 0.186973,-0.21343 -0.01516,-0.0871 -0.05327,-0.17356 -0.07303,-0.25823 -0.03457,-0.14817 -0.03352,-0.32138 0.0071,-0.51365 0.05856,-0.2801 0.234598,-0.45578 0.314325,-0.41627 0.07973,0.0395 0.254354,0.35877 0.442031,0.68827 0.187325,0.32984 0.198615,0.73307 0.204258,0.85266 0.0056,0.11924 -0.0049,0.26635 -0.0074,0.34996 -0.0024,0.0836 0.05539,0.58667 0.24624,1.09184 0.115004,0.30516 0.250118,0.60537 0.315383,0.92463 0.02328,0.11395 0.05785,0.22578 0.08678,0.33902 0.04798,0.18698 0.01588,0.41134 0.05503,0.47449 0.03916,0.0631 0.117475,0.27129 0.131585,0.50765" />
    </g>
  </g>
  <g
     style="display:none"
     inkscape:label="temp"
     id="layer3"
     inkscape:groupmode="layer" />
  <g
     style="display:none"
     inkscape:label="components"
     id="layer2"
     inkscape:groupmode="layer">
    <circle
       inkscape:label="SATURATION_CV"
       r="3.96875"
       cy="72.791664"
       cx="9.260417"
       id="path1587-8-3"
       style="display:inline;opacity:1;fill:#00ff00;fill-opacity:1;stroke-width:0.264583" />
    <circle
       inkscape:label="MAIN"
       r="3.96875"
       cy="112.625"
       cx="9.260417"
       id="path1587-8-2"
       style="display:inline;opacity:1;fill:#00ff00;fill-opacity:1;stroke-width:0.264583" />
    <circle
       inkscape:label="MAIN"
       r="3.96875"
       cy="112.625"
       cx="41.010418"
       id="path1389"
       style="display:inline;opacity:1;fill:#0000ff;fill-opacity:1;stroke-width:0.264583" />
    <circle
       inkscape:label="VOCT"
       r="3.96875"
       cy="21.34375"
       cx="9.260417"
       id="path1389-8"
       style="display:inline;opacity:1;fill:#00ff00;fill-opacity:1;stroke-width:0.264583" />
    <circle
       inkscape:label="RESONANCE_CV"
       r="3.96875"
       cy="50.302082"
       cx="9.260417"
       id="path1587-8"
       style="display:inline;opacity:1;fill:#00ff00;fill-opacity:1;stroke-width:0.264583" />
    <circle
       inkscape:label="FREQ_CV"
       r="3.96875"
       cy="32.045834"
       cx="9.260417"
       id="path1389-8-5"
       style="display:inline;opacity:1;fill:#00ff00;fill-opacity:1;stroke-width:0.264583" />
    <circle
       inkscape:label="MODE"
       r="3.96875"
       cy="92.78125"
       cx="25.135416"
       id="path1587-8-0-3"
       style="display:inline;opacity:1;fill:#ff0000;fill-opacity:1;stroke-width:0.264583" />
    <circle
       inkscape:label="SATURATION"
       r="3.96875"
       cy="72.791672"
       cx="41.010418"
       id="path1587-8-0-5"
       style="display:inline;opacity:1;fill:#ff0000;fill-opacity:1;stroke-width:0.264583" />
    <circle
       inkscape:label="RESONANCE"
       r="3.96875"
       cy="50.302078"
       cx="41.010418"
       id="path1587-8-0-6"
       style="display:inline;opacity:1;fill:#ff0000;fill-opacity:1;stroke-width:0.264583" />
    <circle
       inkscape:label="FREQUENCY"
       r="3.96875"
       cy="26.5625"
       cx="41.010418"
       id="path1587-8-0-2"
       style="display:inline;opacity:1;fill:#ff0000;fill-opacity:1;stroke-width:0.264583" />
    <circle
       inkscape:label="FREQUENCY_CV_ATTENUVERTER"
       r="3.96875"
       cy="32.045834"
       cx="24.870832"
       id="path1587-8-0-2-9"
       style="display:inline;opacity:1;fill:#ff0000;fill-opacity:1;stroke-width:0.264583" />
    <circle
       inkscape:label="RESONANCE_CV_ATTENUVERTER"
       r="3.96875"
       cy="50.302078"
       cx="25.135416"
       id="path1587-8-0-2-9-1"
       style="display:inline;opacity:1;fill:#ff0000;fill-opacity:1;stroke-width:0.264583" />
    <circle
       inkscape:label="SATURATION_CV_ATTENUVERTER"
       r="3.96875"
       cy="72.791672"
       cx="25.135416"
       id="path1587-8-0-2-9-2"
       style="display:inline;opacity:1;fill:#ff0000;fill-opacity:1;stroke-width:0.264583" />
  </g>
  <g
     style="display:none"
     inkscape:label="text"
     id="layer6"
     inkscape:groupmode="layer">
    <text
       id="text2127"
       y="16.249376"
       x="9.6470261"
       style="font-size:2.82223px;line-height:1;font-family:sans-serif;-inkscape-font-specification:sans-serif;text-align:center;text-decoration:none;text-decoration-line:none;text-decoration-color:#000000;letter-spacing:0px;word-spacing:0px;text-anchor:middle;display:inline;fill:#000000;stroke-width:0.264583;stop-color:#000000"
       xml:space="preserve"><tspan
         style="stroke-width:0.264583"
         y="16.249376"
         x="9.6470261"
         id="tspan2125"
         sodipodi:role="line">V/OCT</tspan></text>
    <text
       id="text2134"
       y="38.834736"
       x="9.2485752"
       style="font-size:2.82223px;line-height:1;font-family:sans-serif;-inkscape-font-specification:sans-serif;text-align:center;text-decoration:none;text-decoration-line:none;text-decoration-color:#000000;letter-spacing:0px;word-spacing:0px;text-anchor:middle;fill:#000000;stroke-width:0.264583;stop-color:#000000"
       xml:space="preserve"><tspan
         style="stroke-width:0.264583"
         y="38.834736"
         x="9.2485752"
         id="tspan2132"
         sodipodi:role="line">CV</tspan></text>
    <text
       id="text2138"
       y="45.226627"
       x="9.3494654"
       style="font-size:2.82223px;line-height:1;font-family:sans-serif;-inkscape-font-specification:sans-serif;text-align:center;text-decoration:none;text-decoration-line:none;text-decoration-color:#000000;letter-spacing:0px;word-spacing:0px;text-anchor:middle;fill:#000000;stroke-width:0.264583;stop-color:#000000"
       xml:space="preserve"><tspan
         style="stroke-width:0.264583"
         y="45.226627"
         x="9.3494654"
         id="tspan2136"
         sodipodi:role="line">CV</tspan></text>
    <text
       id="text2142"
       y="67.650345"
       x="8.9332247"
       style="font-size:2.82223px;line-height:1;font-family:sans-serif;-inkscape-font-specification:sans-serif;text-align:center;text-decoration:none;text-decoration-line:none;text-decoration-color:#000000;letter-spacing:0px;word-spacing:0px;text-anchor:middle;fill:#000000;stroke-width:0.264583;stop-color:#000000"
       xml:space="preserve"><tspan
         style="stroke-width:0.264583"
         y="67.650345"
         x="8.9332247"
         id="tspan2140"
         sodipodi:role="line">CV</tspan></text>
    <text
       id="text2146"
       y="88.608543"
       x="18.913193"
       style="font-size:2.82223px;line-height:1;font-family:sans-serif;-inkscape-font-specification:sans-serif;text-align:center;text-decoration:none;text-decoration-line:none;text-decoration-color:#000000;letter-spacing:0px;word-spacing:0px;text-anchor:middle;fill:#000000;stroke-width:0.264583;stop-color:#000000"
       xml:space="preserve"><tspan
         style="stroke-width:0.264583"
         y="88.608543"
         x="18.913193"
         id="tspan2144"
         sodipodi:role="line">HP12</tspan></text>
    <text
       id="text2150"
       y="93.9627"
       x="17.28067"
       style="font-size:2.82223px;line-height:1;font-family:sans-serif;-inkscape-font-specification:sans-serif;text-align:center;text-decoration:none;text-decoration-line:none;text-decoration-color:#000000;letter-spacing:0px;word-spacing:0px;text-anchor:middle;fill:#000000;stroke-width:0.264583;stop-color:#000000"
       xml:space="preserve"><tspan
         style="stroke-width:0.264583"
         y="93.9627"
         x="17.28067"
         id="tspan2148"
         sodipodi:role="line">LP24</tspan></text>
    <text
       id="text2154"
       y="99.67028"
       x="19.494129"
       style="font-size:2.82223px;line-height:1;font-family:sans-serif;-inkscape-font-specification:sans-serif;text-align:center;text-decoration:none;text-decoration-line:none;text-decoration-color:#000000;letter-spacing:0px;word-spacing:0px;text-anchor:middle;fill:#000000;stroke-width:0.264583;stop-color:#000000"
       xml:space="preserve"><tspan
         style="stroke-width:0.264583"
         y="99.67028"
         x="19.494129"
         id="tspan2152"
         sodipodi:role="line">LP12</tspan></text>
    <text
       id="text2158"
       y="106.33244"
       x="9.3412685"
       style="font-size:2.82223px;line-height:1;font-family:sans-serif;-inkscape-font-specification:sans-serif;text-align:center;text-decoration:none;text-decoration-line:none;text-decoration-color:#000000;letter-spacing:0px;word-spacing:0px;text-anchor:middle;fill:#000000;stroke-width:0.264583;stop-color:#000000"
       xml:space="preserve"><tspan
         style="stroke-width:0.264583"
         y="106.33244"
         x="9.3412685"
         id="tspan2156"
         sodipodi:role="line">IN</tspan></text>
    <text
       id="text2162"
       y="106.29247"
       x="41.084637"
       style="font-size:2.82223px;line-height:1;font-family:sans-serif;-inkscape-font-specification:sans-serif;text-align:center;text-decoration:none;text-decoration-line:none;text-decoration-color:#000000;letter-spacing:0px;word-spacing:0px;text-anchor:middle;fill:#000000;stroke-width:0.264583;stop-color:#000000"
       xml:space="preserve"><tspan
         style="stroke-width:0.264583"
         y="106.29247"
         x="41.084637"
         id="tspan2160"
         sodipodi:role="line">OUT</tspan></text>
    <text
       id="text2166"
       y="99.656227"
       x="31.725636"
       style="font-size:2.82223px;line-height:1;font-family:sans-serif;-inkscape-font-specification:sans-serif;text-align:center;text-decoration:none;text-decoration-line:none;text-decoration-color:#000000;letter-spacing:0px;word-spacing:0px;text-anchor:middle;fill:#000000;stroke-width:0.264583;stop-color:#000000"
       xml:space="preserve"><tspan
         style="stroke-width:0.264583"
         y="99.656227"
         x="31.725636"
         id="tspan2164"
         sodipodi:role="line">BP24</tspan></text>
    <text
       id="text2170"
       y="93.850739"
       x="33.442505"
       style="font-size:2.82223px;line-height:1;font-family:sans-serif;-inkscape-font-specification:sans-serif;text-align:center;text-decoration:none;text-decoration-line:none;text-decoration-color:#000000;letter-spacing:0px;word-spacing:0px;text-anchor:middle;fill:#000000;stroke-width:0.264583;stop-color:#000000"
       xml:space="preserve"><tspan
         style="stroke-width:0.264583"
         y="93.850739"
         x="33.442505"
         id="tspan2168"
         sodipodi:role="line">BP12</tspan></text>
    <text
       id="text2174"
       y="88.564133"
       x="31.990383"
       style="font-size:2.82223px;line-height:1;font-family:sans-serif;-inkscape-font-specification:sans-serif;text-align:center;text-decoration:none;text-decoration-line:none;text-decoration-color:#000000;letter-spacing:0px;word-spacing:0px;text-anchor:middle;fill:#000000;stroke-width:0.264583;stop-color:#000000"
       xml:space="preserve"><tspan
         style="stroke-width:0.264583"
         y="88.564133"
         x="31.990383"
         id="tspan2172"
         sodipodi:role="line">HP24</tspan></text>
    <text
       id="text2178"
       y="65.368927"
       x="40.747208"
       style="font-size:2.82223px;line-height:1;font-family:sans-serif;-inkscape-font-specification:sans-serif;text-align:center;text-decoration:none;text-decoration-line:none;text-decoration-color:#000000;letter-spacing:0px;word-spacing:0px;text-anchor:middle;fill:#000000;stroke-width:0.264583;stop-color:#000000"
       xml:space="preserve"><tspan
         style="stroke-width:0.264583"
         y="65.368927"
         x="40.747208"
         id="tspan2176"
         sodipodi:role="line">DRIVE</tspan></text>
    <text
       id="text2182"
       y="42.110966"
       x="41.206783"
       style="font-size:2.82223px;line-height:1;font-family:sans-serif;-inkscape-font-specification:sans-serif;text-align:center;text-decoration:none;text-decoration-line:none;text-decoration-color:#000000;letter-spacing:0px;word-spacing:0px;text-anchor:middle;fill:#000000;stroke-width:0.264583;stop-color:#000000"
       xml:space="preserve"><tspan
         style="stroke-width:0.264583"
         y="42.110966"
         x="41.206783"
         id="tspan2180"
         sodipodi:role="line">RESONANCE</tspan></text>
    <text
       id="text2186"
       y="19.232878"
       x="40.475739"
       style="font-size:2.82223px;line-height:1;font-family:sans-serif;-inkscape-font-specification:sans-serif;text-align:center;text-decoration:none;text-decoration-line:none;text-decoration-color:#000000;letter-spacing:0px;word-spacing:0px;text-anchor:middle;fill:#000000;stroke-width:0.264583;stop-color:#000000"
       xml:space="preserve"><tspan
         style="stroke-width:0.264583"
         y="19.232878"
         x="40.475739"
         id="tspan2184"
         sodipodi:role="line">FREQUENCY</tspan></text>
    <text
       id="text2190"
       y="9.5510807"
       x="25.408609"
       style="font-size:8.46667px;line-height:1;font-family:sans-serif;-inkscape-font-specification:sans-serif;text-align:center;text-decoration:none;text-decoration-line:none;text-decoration-color:#000000;letter-spacing:0px;word-spacing:0px;text-anchor:middle;fill:#000000;stroke-width:0.264583;stop-color:#000000"
       xml:space="preserve"><tspan
         style="font-style:normal;font-variant:normal;font-weight:normal;font-stretch:normal;font-size:8.46667px;font-family:Kirsty;-inkscape-font-specification:Kirsty;stroke-width:0.264583"
         y="9.5510807"
         x="25.408609"
         id="tspan2188"
         sodipodi:role="line">maccomo</tspan></text>
  </g>
  <g
     inkscape:label="text path"
     id="layer7"
     inkscape:groupmode="layer">
    <g
       style="font-size:2.82223px;line-height:1;font-family:sans-serif;-inkscape-font-specification:sans-serif;text-align:center;text-decoration:none;text-decoration-line:none;text-decoration-color:#000000;letter-spacing:0px;word-spacing:0px;text-anchor:middle;display:inline;fill:#000000;stroke-width:0.264583;stop-color:#000000"
       id="text2205"
       aria-label="V/OCT">
      <path
         id="path2299"
         style="stroke-width:0.264583"
         d="M 6.0530924,16.249376 5.2676085,14.19196 H 5.5583753 L 6.2101892,15.924158 6.8633811,14.19196 H 7.15277 l -0.784106,2.057416 z" />
      <path
         id="path2301"
         style="stroke-width:0.264583"
         d="M 7.8914005,14.19196 H 8.1256676 L 7.4090858,16.511204 H 7.1748186 Z" />
      <path
         id="path2303"
         style="stroke-width:0.264583"
         d="m 9.2405037,14.380751 q -0.3031692,0 -0.4823147,0.225999 -0.1777674,0.225999 -0.1777674,0.615985 0,0.388608 0.1777674,0.614607 0.1791455,0.225999 0.4823147,0.225999 0.3031693,0 0.4795586,-0.225999 0.1777675,-0.225999 0.1777675,-0.614607 0,-0.389986 -0.1777675,-0.615985 Q 9.543673,14.380751 9.2405037,14.380751 Z m 0,-0.225999 q 0.4327052,0 0.6917771,0.290767 0.2590722,0.289389 0.2590722,0.777216 0,0.486449 -0.2590722,0.777216 -0.2590719,0.289389 -0.6917771,0.289389 -0.4340832,0 -0.6945332,-0.289389 -0.2590719,-0.289389 -0.2590719,-0.777216 0,-0.487827 0.2590719,-0.777216 0.26045,-0.290767 0.6945332,-0.290767 z" />
      <path
         id="path2305"
         style="stroke-width:0.264583"
         d="m 12.167465,14.350434 v 0.293523 q -0.14056,-0.130914 -0.300413,-0.195682 -0.158475,-0.06477 -0.337621,-0.06477 -0.352778,0 -0.540192,0.216353 -0.187414,0.214975 -0.187414,0.622875 0,0.406522 0.187414,0.622875 0.187414,0.214975 0.540192,0.214975 0.179146,0 0.337621,-0.06477 0.159853,-0.06477 0.300413,-0.195682 v 0.290766 q -0.146073,0.09922 -0.31006,0.148829 -0.162609,0.04961 -0.34451,0.04961 -0.467156,0 -0.735875,-0.285255 -0.268718,-0.286633 -0.268718,-0.78135 0,-0.496095 0.268718,-0.78135 0.268719,-0.286633 0.735875,-0.286633 0.184657,0 0.347266,0.04961 0.163987,0.04823 0.307304,0.146072 z" />
      <path
         id="path2307"
         style="stroke-width:0.264583"
         d="m 12.314915,14.19196 h 1.740467 v 0.234267 H 13.32502 v 1.823149 h -0.279742 v -1.823149 h -0.730363 z" />
    </g>
    <g
       style="font-size:2.82223px;line-height:1;font-family:sans-serif;-inkscape-font-specification:sans-serif;text-align:center;text-decoration:none;text-decoration-line:none;text-decoration-color:#000000;letter-spacing:0px;word-spacing:0px;text-anchor:middle;display:inline;fill:#000000;stroke-width:0.264583;stop-color:#000000"
       id="text2209"
       aria-label="CV">
      <path
         id="path2310"
         style="stroke-width:0.264583"
         d="m 9.1149051,36.935794 v 0.293523 Q 8.9743448,37.098403 8.814492,37.033635 q -0.1584749,-0.06477 -0.3376203,-0.06477 -0.3527788,0 -0.5401925,0.216353 -0.1874137,0.214974 -0.1874137,0.622875 0,0.406522 0.1874137,0.622875 0.1874137,0.214974 0.5401925,0.214974 0.1791454,0 0.3376203,-0.06477 0.1598528,-0.06477 0.3004131,-0.195682 v 0.290767 q -0.1460724,0.09922 -0.3100594,0.148829 -0.162609,0.04961 -0.3445105,0.04961 -0.4671563,0 -0.7358745,-0.285255 -0.2687182,-0.286632 -0.2687182,-0.781349 0,-0.496096 0.2687182,-0.78135 0.2687182,-0.286633 0.7358745,-0.286633 0.1846576,0 0.3472666,0.04961 0.163987,0.04823 0.3073033,0.146073 z" />
      <path
         id="path2312"
         style="stroke-width:0.264583"
         d="M 10.078157,38.834736 9.2926726,36.777319 h 0.2907669 l 0.6518135,1.732199 0.653192,-1.732199 h 0.289389 l -0.784106,2.057417 z" />
    </g>
    <g
       style="font-size:2.82223px;line-height:1;font-family:sans-serif;-inkscape-font-specification:sans-serif;text-align:center;text-decoration:none;text-decoration-line:none;text-decoration-color:#000000;letter-spacing:0px;word-spacing:0px;text-anchor:middle;display:inline;fill:#000000;stroke-width:0.264583;stop-color:#000000"
       id="text2213"
       aria-label="CV">
      <path
         id="path2315"
         style="stroke-width:0.264583"
         d="m 9.2157953,43.327685 v 0.293523 Q 9.075235,43.490294 8.9153821,43.425526 q -0.1584748,-0.06477 -0.3376203,-0.06477 -0.3527787,0 -0.5401925,0.216353 -0.1874137,0.214975 -0.1874137,0.622875 0,0.406522 0.1874137,0.622875 0.1874138,0.214975 0.5401925,0.214975 0.1791455,0 0.3376203,-0.06477 0.1598529,-0.06477 0.3004132,-0.195682 v 0.290767 q -0.1460725,0.09922 -0.3100595,0.148828 -0.1626089,0.04961 -0.3445105,0.04961 -0.4671562,0 -0.7358744,-0.285255 -0.2687182,-0.286633 -0.2687182,-0.78135 0,-0.496095 0.2687182,-0.78135 0.2687182,-0.286633 0.7358744,-0.286633 0.1846577,0 0.3472666,0.04961 0.163987,0.04823 0.3073034,0.146072 z" />
      <path
         id="path2317"
         style="stroke-width:0.264583"
         d="M 10.179047,45.226627 9.3935628,43.169211 h 0.2907668 l 0.6518144,1.732198 0.653191,-1.732198 h 0.289389 l -0.784106,2.057416 z" />
    </g>
    <g
       style="font-size:2.82223px;line-height:1;font-family:sans-serif;-inkscape-font-specification:sans-serif;text-align:center;text-decoration:none;text-decoration-line:none;text-decoration-color:#000000;letter-spacing:0px;word-spacing:0px;text-anchor:middle;display:inline;fill:#000000;stroke-width:0.264583;stop-color:#000000"
       id="text2217"
       aria-label="CV">
      <path
         id="path2320"
         style="stroke-width:0.264583"
         d="m 8.7995546,65.751403 v 0.293523 q -0.1405603,-0.130914 -0.3004132,-0.195682 -0.1584748,-0.06477 -0.3376203,-0.06477 -0.3527787,0 -0.5401924,0.216353 -0.1874138,0.214974 -0.1874138,0.622875 0,0.406522 0.1874138,0.622875 0.1874137,0.214974 0.5401924,0.214974 0.1791455,0 0.3376203,-0.06477 0.1598529,-0.06477 0.3004132,-0.195682 v 0.290767 q -0.1460725,0.09922 -0.3100595,0.148829 -0.1626089,0.04961 -0.3445105,0.04961 -0.4671562,0 -0.7358744,-0.285255 -0.2687182,-0.286632 -0.2687182,-0.781349 0,-0.496096 0.2687182,-0.78135 0.2687182,-0.286633 0.7358744,-0.286633 0.1846577,0 0.3472666,0.04961 0.163987,0.04823 0.3073034,0.146073 z" />
      <path
         id="path2322"
         style="stroke-width:0.264583"
         d="M 9.762806,67.650345 8.9773221,65.592928 h 0.2907668 l 0.6518139,1.732199 0.6531922,-1.732199 h 0.289389 l -0.784106,2.057417 z" />
    </g>
    <g
       style="font-size:2.82223px;line-height:1;font-family:sans-serif;-inkscape-font-specification:sans-serif;text-align:center;text-decoration:none;text-decoration-line:none;text-decoration-color:#000000;letter-spacing:0px;word-spacing:0px;text-anchor:middle;display:inline;fill:#000000;stroke-width:0.264583;stop-color:#000000"
       id="text2221"
       aria-label="HP12">
      <path
         id="path2325"
         style="stroke-width:0.264583"
         d="m 15.48049,86.551127 h 0.278365 v 0.843361 h 1.011482 v -0.843361 h 0.278365 v 2.057416 h -0.278365 v -0.979787 h -1.011482 v 0.979787 H 15.48049 Z" />
      <path
         id="path2327"
         style="stroke-width:0.264583"
         d="m 17.881039,86.779882 v 0.773081 h 0.350023 q 0.194304,0 0.300413,-0.100597 0.106109,-0.100597 0.106109,-0.286633 0,-0.184657 -0.106109,-0.285254 -0.106109,-0.100597 -0.300413,-0.100597 z m -0.278364,-0.228755 h 0.628387 q 0.345889,0 0.522278,0.157096 0.177767,0.155719 0.177767,0.45751 0,0.304548 -0.177767,0.460266 -0.176389,0.155719 -0.522278,0.155719 h -0.350023 v 0.826825 h -0.278364 z" />
      <path
         id="path2329"
         style="stroke-width:0.264583"
         d="m 19.378971,88.374276 h 0.454754 v -1.56959 l -0.494717,0.09922 v -0.253559 l 0.491961,-0.09922 h 0.278364 v 1.823149 h 0.454754 v 0.234267 h -1.185116 z" />
      <path
         id="path2331"
         style="stroke-width:0.264583"
         d="m 21.367486,88.374276 h 0.971519 v 0.234267 h -1.306383 v -0.234267 q 0.158474,-0.163987 0.431327,-0.439595 0.27423,-0.276987 0.34451,-0.356913 0.13367,-0.150207 0.186036,-0.25356 0.05374,-0.104731 0.05374,-0.205328 0,-0.163987 -0.115756,-0.26734 -0.114377,-0.103353 -0.299035,-0.103353 -0.130914,0 -0.276987,0.04547 -0.144694,0.04547 -0.310059,0.137804 v -0.28112 q 0.168121,-0.06752 0.314194,-0.101975 0.146072,-0.03445 0.26734,-0.03445 0.319706,0 0.509875,0.159853 0.19017,0.159853 0.19017,0.427193 0,0.12678 -0.04823,0.241158 -0.04685,0.112999 -0.172256,0.26734 -0.03445,0.03996 -0.219108,0.231511 -0.184658,0.19017 -0.5209,0.533302 z" />
    </g>
    <g
       style="font-size:2.82223px;line-height:1;font-family:sans-serif;-inkscape-font-specification:sans-serif;text-align:center;text-decoration:none;text-decoration-line:none;text-decoration-color:#000000;letter-spacing:0px;word-spacing:0px;text-anchor:middle;display:inline;fill:#000000;stroke-width:0.264583;stop-color:#000000"
       id="text2225"
       aria-label="LP24">
      <path
         id="path2334"
         style="stroke-width:0.264583"
         d="m 14.123576,91.905283 h 0.278364 v 1.82315 h 1.001837 V 93.9627 h -1.280201 z" />
      <path
         id="path2336"
         style="stroke-width:0.264583"
         d="m 15.972908,92.134038 v 0.773082 h 0.350023 q 0.194304,0 0.300413,-0.100597 0.106109,-0.100597 0.106109,-0.286633 0,-0.184658 -0.106109,-0.285255 -0.106109,-0.100597 -0.300413,-0.100597 z m -0.278364,-0.228755 h 0.628387 q 0.345888,0 0.522278,0.157097 0.177767,0.155719 0.177767,0.45751 0,0.304547 -0.177767,0.460266 -0.17639,0.155719 -0.522278,0.155719 H 15.972908 V 93.9627 h -0.278364 z" />
      <path
         id="path2338"
         style="stroke-width:0.264583"
         d="m 17.662388,93.728433 h 0.971519 V 93.9627 h -1.306383 v -0.234267 q 0.158474,-0.163987 0.431327,-0.439596 0.27423,-0.276986 0.34451,-0.356913 0.13367,-0.150206 0.186036,-0.253559 0.05374,-0.104731 0.05374,-0.205329 0,-0.163987 -0.115756,-0.26734 -0.114377,-0.103353 -0.299035,-0.103353 -0.130914,0 -0.276987,0.04548 -0.144694,0.04547 -0.310059,0.137804 v -0.281121 q 0.168121,-0.06752 0.314194,-0.101975 0.146072,-0.03445 0.26734,-0.03445 0.319705,0 0.509875,0.159853 0.19017,0.159853 0.19017,0.427193 0,0.12678 -0.04823,0.241157 -0.04685,0.113 -0.172256,0.26734 -0.03445,0.03996 -0.219108,0.231511 -0.184658,0.19017 -0.5209,0.533303 z" />
      <path
         id="path2340"
         style="stroke-width:0.264583"
         d="m 19.984389,92.147819 -0.702802,1.098299 h 0.702802 z m -0.07304,-0.242536 h 0.350023 v 1.340835 h 0.293523 v 0.231511 H 20.261375 V 93.9627 h -0.276986 v -0.485071 h -0.928801 v -0.268718 z" />
    </g>
    <g
       style="font-size:2.82223px;line-height:1;font-family:sans-serif;-inkscape-font-specification:sans-serif;text-align:center;text-decoration:none;text-decoration-line:none;text-decoration-color:#000000;letter-spacing:0px;word-spacing:0px;text-anchor:middle;display:inline;fill:#000000;stroke-width:0.264583;stop-color:#000000"
       id="text2229"
       aria-label="LP12">
      <path
         id="path2343"
         style="stroke-width:0.264583"
         d="m 16.337035,97.612864 h 0.278364 v 1.823149 h 1.001837 v 0.234267 h -1.280201 z" />
      <path
         id="path2345"
         style="stroke-width:0.264583"
         d="M 18.186367,97.841619 V 98.6147 h 0.350023 q 0.194304,0 0.300413,-0.100597 0.106109,-0.100597 0.106109,-0.286633 0,-0.184657 -0.106109,-0.285254 -0.106109,-0.100597 -0.300413,-0.100597 z m -0.278364,-0.228755 h 0.628387 q 0.345889,0 0.522278,0.157096 0.177767,0.155719 0.177767,0.45751 0,0.304548 -0.177767,0.460266 -0.176389,0.155719 -0.522278,0.155719 h -0.350023 v 0.826825 h -0.278364 z" />
      <path
         id="path2347"
         style="stroke-width:0.264583"
         d="m 19.684299,99.436013 h 0.454754 v -1.56959 l -0.494717,0.09922 v -0.253559 l 0.491961,-0.09922 h 0.278364 v 1.823149 h 0.454754 v 0.234267 h -1.185116 z" />
      <path
         id="path2349"
         style="stroke-width:0.264583"
         d="m 21.672814,99.436013 h 0.971519 v 0.234267 h -1.306384 v -0.234267 q 0.158475,-0.163987 0.431328,-0.439595 0.27423,-0.276987 0.34451,-0.356913 0.13367,-0.150207 0.186036,-0.25356 0.05374,-0.104731 0.05374,-0.205328 0,-0.163987 -0.115755,-0.26734 -0.114378,-0.103353 -0.299035,-0.103353 -0.130914,0 -0.276987,0.04548 -0.144694,0.04547 -0.310059,0.137804 v -0.28112 q 0.168121,-0.06752 0.314193,-0.101975 0.146073,-0.03445 0.267341,-0.03445 0.319705,0 0.509875,0.159852 0.19017,0.159853 0.19017,0.427193 0,0.12678 -0.04823,0.241158 -0.04685,0.112999 -0.172255,0.26734 -0.03445,0.03996 -0.219109,0.231511 -0.184657,0.19017 -0.520899,0.533302 z" />
    </g>
    <g
       style="font-size:2.82223px;line-height:1;font-family:sans-serif;-inkscape-font-specification:sans-serif;text-align:center;text-decoration:none;text-decoration-line:none;text-decoration-color:#000000;letter-spacing:0px;word-spacing:0px;text-anchor:middle;display:inline;fill:#000000;stroke-width:0.264583;stop-color:#000000"
       id="text2233"
       aria-label="IN">
      <path
         id="path2352"
         style="stroke-width:0.264583"
         d="m 8.1465061,104.27503 h 0.2783645 v 2.05741 H 8.1465061 Z" />
      <path
         id="path2354"
         style="stroke-width:0.264583"
         d="m 8.9788435,104.27503 h 0.3748274 l 0.9122641,1.72117 v -1.72117 h 0.270096 v 2.05741 h -0.374827 l -0.9122643,-1.72117 v 1.72117 H 8.9788435 Z" />
    </g>
    <g
       style="font-size:2.82223px;line-height:1;font-family:sans-serif;-inkscape-font-specification:sans-serif;text-align:center;text-decoration:none;text-decoration-line:none;text-decoration-color:#000000;letter-spacing:0px;word-spacing:0px;text-anchor:middle;display:inline;fill:#000000;stroke-width:0.264583;stop-color:#000000"
       id="text2237"
       aria-label="OUT">
      <path
         id="path2357"
         style="stroke-width:0.264583"
         d="m 39.189829,104.42385 q -0.303169,0 -0.482315,0.226 -0.177767,0.226 -0.177767,0.61598 0,0.38861 0.177767,0.61461 0.179146,0.226 0.482315,0.226 0.303169,0 0.479559,-0.226 0.177767,-0.226 0.177767,-0.61461 0,-0.38998 -0.177767,-0.61598 -0.17639,-0.226 -0.479559,-0.226 z m 0,-0.226 q 0.432705,0 0.691777,0.29077 0.259072,0.28938 0.259072,0.77721 0,0.48645 -0.259072,0.77722 -0.259072,0.28939 -0.691777,0.28939 -0.434083,0 -0.694533,-0.28939 -0.259072,-0.28939 -0.259072,-0.77722 0,-0.48783 0.259072,-0.77721 0.26045,-0.29077 0.694533,-0.29077 z" />
      <path
         id="path2359"
         style="stroke-width:0.264583"
         d="m 40.544444,104.23506 h 0.279743 v 1.24988 q 0,0.33073 0.119889,0.4768 0.11989,0.1447 0.388608,0.1447 0.26734,0 0.38723,-0.1447 0.11989,-0.14607 0.11989,-0.4768 v -1.24988 h 0.279742 v 1.28433 q 0,0.40239 -0.199816,0.60772 -0.198438,0.20533 -0.587046,0.20533 -0.389986,0 -0.589802,-0.20533 -0.198438,-0.20533 -0.198438,-0.60772 z" />
      <path
         id="path2361"
         style="stroke-width:0.264583"
         d="m 42.357948,104.23506 h 1.740467 v 0.23426 h -0.730363 v 1.82315 H 43.08831 v -1.82315 h -0.730362 z" />
    </g>
    <g
       style="font-size:2.82223px;line-height:1;font-family:sans-serif;-inkscape-font-specification:sans-serif;text-align:center;text-decoration:none;text-decoration-line:none;text-decoration-color:#000000;letter-spacing:0px;word-spacing:0px;text-anchor:middle;display:inline;fill:#000000;stroke-width:0.264583;stop-color:#000000"
       id="text2241"
       aria-label="BP24">
      <path
         id="path2364"
         style="stroke-width:0.264583"
         d="m 28.665004,98.673683 v 0.753789 h 0.446486 q 0.224621,0 0.332108,-0.09233 0.108865,-0.09371 0.108865,-0.285254 0,-0.192926 -0.108865,-0.283877 -0.107487,-0.09233 -0.332108,-0.09233 z m 0,-0.846118 v 0.620119 h 0.412035 q 0.20395,0 0.303169,-0.07579 0.100597,-0.07717 0.100597,-0.234267 0,-0.155719 -0.100597,-0.232889 -0.09922,-0.07717 -0.303169,-0.07717 z M 28.38664,97.59881 h 0.711069 q 0.318328,0 0.490583,0.132292 0.172256,0.132292 0.172256,0.376206 0,0.188792 -0.08819,0.300413 -0.0882,0.111621 -0.259072,0.139182 0.205328,0.0441 0.318328,0.184658 0.114377,0.139182 0.114377,0.348645 0,0.275608 -0.187414,0.425815 -0.187413,0.150206 -0.533302,0.150206 h -0.73863 z" />
      <path
         id="path2366"
         style="stroke-width:0.264583"
         d="m 30.599775,97.827565 v 0.773082 h 0.350023 q 0.194304,0 0.300413,-0.100597 0.106109,-0.100597 0.106109,-0.286633 0,-0.184658 -0.106109,-0.285255 -0.106109,-0.100597 -0.300413,-0.100597 z M 30.321411,97.59881 h 0.628387 q 0.345888,0 0.522278,0.157097 0.177767,0.155719 0.177767,0.45751 0,0.304547 -0.177767,0.460266 -0.17639,0.155719 -0.522278,0.155719 h -0.350023 v 0.826825 h -0.278364 z" />
      <path
         id="path2368"
         style="stroke-width:0.264583"
         d="m 32.289255,99.42196 h 0.971519 v 0.234267 H 31.954391 V 99.42196 q 0.158474,-0.163987 0.431327,-0.439595 0.27423,-0.276987 0.34451,-0.356913 0.13367,-0.150207 0.186036,-0.25356 0.05374,-0.104731 0.05374,-0.205328 0,-0.163987 -0.115756,-0.26734 -0.114378,-0.103354 -0.299035,-0.103354 -0.130914,0 -0.276987,0.04548 -0.144694,0.04547 -0.310059,0.137804 v -0.281121 q 0.168121,-0.06752 0.314194,-0.101975 0.146072,-0.03445 0.26734,-0.03445 0.319705,0 0.509875,0.159853 0.19017,0.159853 0.19017,0.427193 0,0.12678 -0.04823,0.241157 -0.04685,0.113 -0.172256,0.267341 -0.03445,0.03996 -0.219108,0.231511 -0.184658,0.190169 -0.5209,0.533302 z" />
      <path
         id="path2370"
         style="stroke-width:0.264583"
         d="m 34.611255,97.841346 -0.702801,1.098299 h 0.702801 z m -0.07304,-0.242536 h 0.350023 v 1.340835 h 0.293523 v 0.231511 h -0.293523 v 0.485071 h -0.276987 v -0.485071 h -0.9288 v -0.268718 z" />
    </g>
    <g
       style="font-size:2.82223px;line-height:1;font-family:sans-serif;-inkscape-font-specification:sans-serif;text-align:center;text-decoration:none;text-decoration-line:none;text-decoration-color:#000000;letter-spacing:0px;word-spacing:0px;text-anchor:middle;display:inline;fill:#000000;stroke-width:0.264583;stop-color:#000000"
       id="text2245"
       aria-label="BP12">
      <path
         id="path2373"
         style="stroke-width:0.264583"
         d="m 30.381874,92.868195 v 0.753789 h 0.446485 q 0.224621,0 0.332108,-0.09233 0.108866,-0.09371 0.108866,-0.285255 0,-0.192926 -0.108866,-0.283877 -0.107487,-0.09233 -0.332108,-0.09233 z m 0,-0.846118 v 0.620119 h 0.412034 q 0.20395,0 0.303169,-0.07579 0.100597,-0.07717 0.100597,-0.234267 0,-0.155719 -0.100597,-0.232889 -0.09922,-0.07717 -0.303169,-0.07717 z m -0.278365,-0.228755 h 0.71107 q 0.318327,0 0.490583,0.132292 0.172255,0.132292 0.172255,0.376205 0,0.188792 -0.08819,0.300413 -0.08819,0.111622 -0.259072,0.139183 0.205329,0.0441 0.318328,0.184657 0.114378,0.139183 0.114378,0.348645 0,0.275608 -0.187414,0.425815 -0.187414,0.150207 -0.533302,0.150207 h -0.738631 z" />
      <path
         id="path2375"
         style="stroke-width:0.264583"
         d="m 32.316645,92.022077 v 0.773081 h 0.350022 q 0.194304,0 0.300413,-0.100597 0.10611,-0.100597 0.10611,-0.286632 0,-0.184658 -0.10611,-0.285255 -0.106109,-0.100597 -0.300413,-0.100597 z M 32.03828,91.793322 h 0.628387 q 0.345889,0 0.522278,0.157097 0.177768,0.155718 0.177768,0.45751 0,0.304547 -0.177768,0.460266 -0.176389,0.155718 -0.522278,0.155718 h -0.350022 v 0.826826 H 32.03828 Z" />
      <path
         id="path2377"
         style="stroke-width:0.264583"
         d="m 33.814576,93.616471 h 0.454754 v -1.56959 l -0.494717,0.09922 v -0.25356 l 0.491961,-0.09922 h 0.278365 v 1.823149 h 0.454753 v 0.234268 h -1.185116 z" />
      <path
         id="path2379"
         style="stroke-width:0.264583"
         d="m 35.803091,93.616471 h 0.971519 v 0.234268 h -1.306384 v -0.234268 q 0.158475,-0.163987 0.431328,-0.439595 0.27423,-0.276986 0.34451,-0.356913 0.13367,-0.150207 0.186036,-0.25356 0.05374,-0.104731 0.05374,-0.205328 0,-0.163987 -0.115755,-0.26734 -0.114378,-0.103353 -0.299035,-0.103353 -0.130914,0 -0.276987,0.04547 -0.144694,0.04548 -0.310059,0.137804 v -0.28112 q 0.168121,-0.06752 0.314193,-0.101975 0.146073,-0.03445 0.267341,-0.03445 0.319705,0 0.509875,0.159852 0.19017,0.159853 0.19017,0.427194 0,0.126779 -0.04823,0.241157 -0.04685,0.112999 -0.172255,0.26734 -0.03445,0.03996 -0.219108,0.231511 -0.184658,0.19017 -0.5209,0.533302 z" />
    </g>
    <g
       style="font-size:2.82223px;line-height:1;font-family:sans-serif;-inkscape-font-specification:sans-serif;text-align:center;text-decoration:none;text-decoration-line:none;text-decoration-color:#000000;letter-spacing:0px;word-spacing:0px;text-anchor:middle;display:inline;fill:#000000;stroke-width:0.264583;stop-color:#000000"
       id="text2249"
       aria-label="HP24">
      <path
         id="path2382"
         style="stroke-width:0.264583"
         d="m 28.55768,86.506716 h 0.278365 v 0.843362 h 1.011483 v -0.843362 h 0.278364 v 2.057417 h -0.278364 v -0.979788 h -1.011483 v 0.979788 H 28.55768 Z" />
      <path
         id="path2384"
         style="stroke-width:0.264583"
         d="m 30.95823,86.735471 v 0.773081 h 0.350022 q 0.194304,0 0.300414,-0.100597 0.106109,-0.100597 0.106109,-0.286632 0,-0.184658 -0.106109,-0.285255 -0.10611,-0.100597 -0.300414,-0.100597 z m -0.278365,-0.228755 h 0.628387 q 0.345889,0 0.522278,0.157097 0.177768,0.155718 0.177768,0.45751 0,0.304547 -0.177768,0.460266 -0.176389,0.155718 -0.522278,0.155718 H 30.95823 v 0.826826 h -0.278365 z" />
      <path
         id="path2386"
         style="stroke-width:0.264583"
         d="m 32.647709,88.329866 h 0.97152 v 0.234267 h -1.306384 v -0.234267 q 0.158475,-0.163987 0.431327,-0.439596 0.274231,-0.276986 0.344511,-0.356913 0.13367,-0.150206 0.186035,-0.253559 0.05374,-0.104732 0.05374,-0.205329 0,-0.163987 -0.115756,-0.26734 -0.114377,-0.103353 -0.299035,-0.103353 -0.130914,0 -0.276986,0.04547 -0.144695,0.04548 -0.31006,0.137805 v -0.281121 q 0.168122,-0.06752 0.314194,-0.101975 0.146072,-0.03445 0.26734,-0.03445 0.319706,0 0.509876,0.159853 0.190169,0.159853 0.190169,0.427193 0,0.12678 -0.04823,0.241157 -0.04685,0.113 -0.172255,0.26734 -0.03445,0.03996 -0.219109,0.231511 -0.184658,0.19017 -0.5209,0.533303 z" />
      <path
         id="path2388"
         style="stroke-width:0.264583"
         d="m 34.96971,86.749251 -0.702801,1.0983 h 0.702801 z m -0.07304,-0.242535 h 0.350023 v 1.340835 h 0.293523 v 0.231511 h -0.293523 v 0.485071 H 34.96971 v -0.485071 h -0.9288 v -0.268718 z" />
    </g>
    <g
       style="font-size:2.82223px;line-height:1;font-family:sans-serif;-inkscape-font-specification:sans-serif;text-align:center;text-decoration:none;text-decoration-line:none;text-decoration-color:#000000;letter-spacing:0px;word-spacing:0px;text-anchor:middle;display:inline;fill:#000000;stroke-width:0.264583;stop-color:#000000"
       id="text2253"
       aria-label="DRIVE">
      <path
         id="path2391"
         style="stroke-width:0.264583"
         d="m 36.961726,63.540265 v 1.599907 h 0.336242 q 0.425815,0 0.622875,-0.192926 0.198438,-0.192926 0.198438,-0.609094 0,-0.413413 -0.198438,-0.604961 -0.19706,-0.192926 -0.622875,-0.192926 z M 36.683362,63.31151 h 0.571887 q 0.59807,0 0.877813,0.249426 0.279742,0.248047 0.279742,0.777216 0,0.531924 -0.28112,0.781349 -0.281121,0.249426 -0.876435,0.249426 h -0.571887 z" />
      <path
         id="path2393"
         style="stroke-width:0.264583"
         d="m 39.83081,64.404298 q 0.08957,0.03032 0.173633,0.129536 0.08544,0.09922 0.170877,0.272852 l 0.282499,0.562241 h -0.299035 l -0.263206,-0.52779 q -0.101976,-0.206706 -0.198438,-0.27423 -0.09508,-0.06753 -0.26045,-0.06753 h -0.30317 v 0.869545 H 38.855156 V 63.31151 h 0.628387 q 0.352779,0 0.526412,0.147451 0.173633,0.14745 0.173633,0.445107 0,0.194304 -0.09095,0.322462 -0.08957,0.128158 -0.261828,0.177768 z m -0.69729,-0.864033 v 0.730362 h 0.350023 q 0.201194,0 0.303169,-0.09233 0.103353,-0.09371 0.103353,-0.274231 0,-0.180523 -0.103353,-0.271474 -0.101975,-0.09233 -0.303169,-0.09233 z" />
      <path
         id="path2395"
         style="stroke-width:0.264583"
         d="m 40.817488,63.31151 h 0.278364 v 2.057417 h -0.278364 z" />
      <path
         id="path2397"
         style="stroke-width:0.264583"
         d="M 42.180371,65.368927 41.394887,63.31151 h 0.290767 l 0.651814,1.732199 0.653192,-1.732199 h 0.289389 l -0.784106,2.057417 z" />
      <path
         id="path2399"
         style="stroke-width:0.264583"
         d="m 43.579084,63.31151 h 1.300872 v 0.234267 h -1.022507 v 0.609095 h 0.979787 v 0.234267 h -0.979787 v 0.745521 h 1.047311 v 0.234267 h -1.325676 z" />
    </g>
    <g
       style="font-size:2.82223px;line-height:1;font-family:sans-serif;-inkscape-font-specification:sans-serif;text-align:center;text-decoration:none;text-decoration-line:none;text-decoration-color:#000000;letter-spacing:0px;word-spacing:0px;text-anchor:middle;display:inline;fill:#000000;stroke-width:0.264583;stop-color:#000000"
       id="text2257"
       aria-label="RESONANCE">
      <path
         id="path2402"
         style="stroke-width:0.264583"
         d="m 33.623418,41.146336 q 0.08957,0.03032 0.173633,0.129536 0.08544,0.09922 0.170877,0.272853 l 0.282499,0.562241 h -0.299035 l -0.263206,-0.52779 q -0.101975,-0.206707 -0.198438,-0.274231 -0.09508,-0.06752 -0.26045,-0.06752 h -0.303169 v 0.869545 h -0.278365 v -2.057417 h 0.628387 q 0.352779,0 0.526412,0.14745 0.173634,0.147451 0.173634,0.445108 0,0.194304 -0.09095,0.322462 -0.08957,0.128158 -0.261828,0.177767 z m -0.697289,-0.864032 v 0.730362 h 0.350022 q 0.201194,0 0.30317,-0.09233 0.103353,-0.09371 0.103353,-0.27423 0,-0.180523 -0.103353,-0.271474 -0.101976,-0.09233 -0.30317,-0.09233 z" />
      <path
         id="path2404"
         style="stroke-width:0.264583"
         d="m 34.610096,40.053549 h 1.300872 v 0.234267 h -1.022507 v 0.609095 h 0.979787 v 0.234267 h -0.979787 v 0.745521 h 1.047312 v 0.234267 h -1.325677 z" />
      <path
         id="path2406"
         style="stroke-width:0.264583"
         d="m 37.629386,40.121073 v 0.271474 q -0.158475,-0.07579 -0.299035,-0.112999 -0.14056,-0.03721 -0.271474,-0.03721 -0.227377,0 -0.351401,0.08819 -0.122646,0.08819 -0.122646,0.250804 0,0.136426 0.08131,0.206706 0.08268,0.0689 0.311437,0.111622 l 0.168121,0.03445 q 0.311438,0.05926 0.458888,0.209462 0.148829,0.148829 0.148829,0.399632 0,0.299036 -0.201194,0.453376 -0.199816,0.154341 -0.587046,0.154341 -0.146073,0 -0.311438,-0.03307 -0.163987,-0.03307 -0.340376,-0.09784 v -0.286633 q 0.169499,0.09509 0.332108,0.143317 0.162609,0.04823 0.319706,0.04823 0.238401,0 0.367937,-0.09371 0.129536,-0.09371 0.129536,-0.26734 0,-0.151585 -0.09371,-0.237023 -0.09233,-0.08544 -0.304547,-0.128158 l -0.169499,-0.03307 q -0.311438,-0.06201 -0.45062,-0.194304 -0.139182,-0.132292 -0.139182,-0.367937 0,-0.272853 0.191548,-0.429949 0.192925,-0.157097 0.530546,-0.157097 0.144694,0 0.294901,0.02618 0.150206,0.02618 0.307303,0.07855 z" />
      <path
         id="path2408"
         style="stroke-width:0.264583"
         d="m 39.022587,40.242341 q -0.303169,0 -0.482315,0.225999 -0.177767,0.225999 -0.177767,0.615984 0,0.388608 0.177767,0.614607 0.179146,0.225999 0.482315,0.225999 0.303169,0 0.479558,-0.225999 0.177768,-0.225999 0.177768,-0.614607 0,-0.389985 -0.177768,-0.615984 -0.176389,-0.225999 -0.479558,-0.225999 z m 0,-0.225999 q 0.432705,0 0.691777,0.290767 0.259072,0.289389 0.259072,0.777215 0,0.486449 -0.259072,0.777216 -0.259072,0.289389 -0.691777,0.289389 -0.434083,0 -0.694533,-0.289389 -0.259072,-0.289389 -0.259072,-0.777216 0,-0.487826 0.259072,-0.777215 0.26045,-0.290767 0.694533,-0.290767 z" />
      <path
         id="path2410"
         style="stroke-width:0.264583"
         d="m 40.408897,40.053549 h 0.374827 l 0.912264,1.721174 v -1.721174 h 0.270096 v 2.057417 h -0.374827 l -0.912264,-1.721175 v 1.721175 h -0.270096 z" />
      <path
         id="path2412"
         style="stroke-width:0.264583"
         d="m 43.207701,40.327779 -0.377584,1.023886 h 0.756545 z m -0.157097,-0.27423 h 0.315571 l 0.784106,2.057417 h -0.289388 l -0.187414,-0.52779 h -0.927422 l -0.187414,0.52779 H 42.26512 Z" />
      <path
         id="path2414"
         style="stroke-width:0.264583"
         d="m 44.449316,40.053549 h 0.374827 l 0.912264,1.721174 v -1.721174 h 0.270097 v 2.057417 h -0.374828 l -0.912264,-1.721175 v 1.721175 h -0.270096 z" />
      <path
         id="path2416"
         style="stroke-width:0.264583"
         d="m 48.101128,40.212024 v 0.293523 q -0.14056,-0.130914 -0.300413,-0.195682 -0.158475,-0.06477 -0.33762,-0.06477 -0.352779,0 -0.540193,0.216352 -0.187413,0.214975 -0.187413,0.622875 0,0.406523 0.187413,0.622875 0.187414,0.214975 0.540193,0.214975 0.179145,0 0.33762,-0.06477 0.159853,-0.06477 0.300413,-0.195682 v 0.290767 q -0.146072,0.09922 -0.310059,0.148828 -0.162609,0.04961 -0.344511,0.04961 -0.467156,0 -0.735874,-0.285255 -0.268718,-0.286632 -0.268718,-0.78135 0,-0.496095 0.268718,-0.781349 0.268718,-0.286633 0.735874,-0.286633 0.184658,0 0.347267,0.04961 0.163987,0.04823 0.307303,0.146073 z" />
      <path
         id="path2418"
         style="stroke-width:0.264583"
         d="m 48.533833,40.053549 h 1.300872 v 0.234267 h -1.022507 v 0.609095 h 0.979788 v 0.234267 h -0.979788 v 0.745521 h 1.047312 v 0.234267 h -1.325677 z" />
    </g>
    <g
       style="font-size:2.82223px;line-height:1;font-family:sans-serif;-inkscape-font-specification:sans-serif;text-align:center;text-decoration:none;text-decoration-line:none;text-decoration-color:#000000;letter-spacing:0px;word-spacing:0px;text-anchor:middle;display:inline;fill:#000000;stroke-width:0.264583;stop-color:#000000"
       id="text2261"
       aria-label="FREQUENCY">
      <path
         id="path2421"
         style="stroke-width:0.264583"
         d="m 32.14823,17.175461 h 1.182361 v 0.234267 h -0.903996 v 0.606339 h 0.815801 v 0.234267 h -0.815801 v 0.982544 H 32.14823 Z" />
      <path
         id="path2423"
         style="stroke-width:0.264583"
         d="m 34.749974,18.268248 q 0.08957,0.03032 0.173633,0.129536 0.08544,0.09922 0.170877,0.272853 l 0.282499,0.562241 h -0.299035 l -0.263206,-0.52779 q -0.101975,-0.206707 -0.198438,-0.274231 -0.09508,-0.06752 -0.26045,-0.06752 h -0.303169 v 0.869545 H 33.77432 v -2.057417 h 0.628387 q 0.352779,0 0.526412,0.14745 0.173634,0.147451 0.173634,0.445108 0,0.194304 -0.09095,0.322462 -0.08957,0.128158 -0.261828,0.177767 z m -0.697289,-0.864032 v 0.730362 h 0.350022 q 0.201194,0 0.303169,-0.09233 0.103354,-0.09371 0.103354,-0.27423 0,-0.180523 -0.103354,-0.271474 -0.101975,-0.09233 -0.303169,-0.09233 z" />
      <path
         id="path2425"
         style="stroke-width:0.264583"
         d="m 35.736652,17.175461 h 1.300872 v 0.234267 h -1.022508 v 0.609095 h 0.979788 v 0.234267 h -0.979788 v 0.745521 h 1.047312 v 0.234267 h -1.325676 z" />
      <path
         id="path2427"
         style="stroke-width:0.264583"
         d="m 38.357688,17.364253 q -0.303169,0 -0.482315,0.225999 -0.177767,0.225999 -0.177767,0.615984 0,0.388608 0.177767,0.614607 0.179146,0.225999 0.482315,0.225999 0.303169,0 0.479558,-0.225999 0.177768,-0.225999 0.177768,-0.614607 0,-0.389985 -0.177768,-0.615984 -0.176389,-0.225999 -0.479558,-0.225999 z m 0.389986,1.831418 0.366559,0.40101 h -0.336242 l -0.304548,-0.329352 q -0.04548,0.0028 -0.07028,0.0041 -0.02343,0.0014 -0.04547,0.0014 -0.434083,0 -0.694533,-0.289389 -0.259072,-0.290767 -0.259072,-0.777216 0,-0.487826 0.259072,-0.777215 0.26045,-0.290767 0.694533,-0.290767 0.432705,0 0.691777,0.290767 0.259072,0.289389 0.259072,0.777215 0,0.358291 -0.144695,0.613229 -0.143316,0.254938 -0.416168,0.376206 z" />
      <path
         id="path2429"
         style="stroke-width:0.264583"
         d="m 39.712303,17.175461 h 0.279743 v 1.249884 q 0,0.33073 0.11989,0.476803 0.119889,0.144694 0.388608,0.144694 0.26734,0 0.387229,-0.144694 0.11989,-0.146073 0.11989,-0.476803 v -1.249884 h 0.279743 v 1.284335 q 0,0.402388 -0.199817,0.607717 -0.198438,0.205328 -0.587045,0.205328 -0.389986,0 -0.589802,-0.205328 -0.198439,-0.205329 -0.198439,-0.607717 z" />
      <path
         id="path2431"
         style="stroke-width:0.264583"
         d="m 41.811061,17.175461 h 1.300872 v 0.234267 h -1.022508 v 0.609095 h 0.979788 v 0.234267 h -0.979788 v 0.745521 h 1.047312 v 0.234267 h -1.325676 z" />
      <path
         id="path2433"
         style="stroke-width:0.264583"
         d="m 43.597004,17.175461 h 0.374827 l 0.912264,1.721174 v -1.721174 h 0.270096 v 2.057417 H 44.779364 L 43.8671,17.511703 v 1.721175 h -0.270096 z" />
      <path
         id="path2435"
         style="stroke-width:0.264583"
         d="m 47.248815,17.333936 v 0.293523 q -0.14056,-0.130914 -0.300413,-0.195682 -0.158475,-0.06477 -0.33762,-0.06477 -0.352779,0 -0.540193,0.216352 -0.187414,0.214975 -0.187414,0.622875 0,0.406523 0.187414,0.622875 0.187414,0.214975 0.540193,0.214975 0.179145,0 0.33762,-0.06477 0.159853,-0.06477 0.300413,-0.195682 v 0.290767 q -0.146072,0.09922 -0.310059,0.148828 -0.162609,0.04961 -0.344511,0.04961 -0.467156,0 -0.735874,-0.285255 -0.268718,-0.286632 -0.268718,-0.78135 0,-0.496095 0.268718,-0.781349 0.268718,-0.286633 0.735874,-0.286633 0.184658,0 0.347267,0.04961 0.163987,0.04823 0.307303,0.146073 z" />
      <path
         id="path2437"
         style="stroke-width:0.264583"
         d="m 47.349413,17.175461 h 0.299035 l 0.570509,0.846118 0.566375,-0.846118 h 0.299036 l -0.727607,1.077629 v 0.979788 H 48.077019 V 18.25309 Z" />
    </g>
    <g
       style="font-size:8.46667px;line-height:1;font-family:sans-serif;-inkscape-font-specification:sans-serif;text-align:center;text-decoration:none;text-decoration-line:none;text-decoration-color:#000000;letter-spacing:0px;word-spacing:0px;text-anchor:middle;display:inline;fill:#000000;stroke-width:0.264583;stop-color:#000000"
       id="text2265"
       aria-label="maccomo">
      <path
         id="path2440"
         style="font-style:normal;font-variant:normal;font-weight:normal;font-stretch:normal;font-size:8.46667px;font-family:Kirsty;-inkscape-font-specification:Kirsty;stroke-width:0.264583"
         d="m 16.078604,4.8097455 -0.364067,0.7112003 v 3.3189346 l 0.3556,0.7112003 h -1.524001 l 0.3556,-0.7112003 V 7.1296131 l 0.06773,-0.7281336 -0.795867,3.1496012 h -0.7366 l -0.753534,-3.1834679 0.04233,0.6519336 v 1.820334 l 0.347134,0.7112003 h -1.515534 l 0.3556,-0.7112003 V 5.5209458 l -0.3556,-0.7112003 h 1.828801 l 0.4826,1.9896674 0.0762,0.4910669 0.08467,-0.4741335 0.550334,-2.0066008 z" />
      <path
         id="path2442"
         style="font-style:normal;font-variant:normal;font-weight:normal;font-stretch:normal;font-size:8.46667px;font-family:Kirsty;-inkscape-font-specification:Kirsty;stroke-width:0.264583"
         d="m 17.811361,7.9170134 h 0.694266 L 18.166961,6.6300795 Z m 0.651933,1.6340673 0.2794,-0.7112003 -0.04233,-0.1693334 h -1.083734 l -0.04233,0.1693334 0.287867,0.7112003 h -1.532468 l 0.4318,-0.7112003 0.956734,-3.335868 -0.220133,-0.6942669 h 1.278467 l 1.049867,4.0301349 0.4318,0.7112003 z" />
      <path
         id="path2444"
         style="font-style:normal;font-variant:normal;font-weight:normal;font-stretch:normal;font-size:8.46667px;font-family:Kirsty;-inkscape-font-specification:Kirsty;stroke-width:0.264583"
         d="M 23.2549,8.4588803 V 9.5510807 H 20.892699 L 20.545566,8.8483471 V 5.5209458 L 20.892699,4.8097455 H 23.1787 V 5.9188793 L 22.484433,5.5548124 h -0.778934 l -0.09313,0.2032001 v 2.8702012 l 0.09313,0.1778 h 0.846667 l -0.01693,0.00847 z" />
      <path
         id="path2446"
         style="font-style:normal;font-variant:normal;font-weight:normal;font-stretch:normal;font-size:8.46667px;font-family:Kirsty;-inkscape-font-specification:Kirsty;stroke-width:0.264583"
         d="M 26.57873,8.4588803 V 9.5510807 H 24.216529 L 23.869395,8.8483471 V 5.5209458 L 24.216529,4.8097455 H 26.50253 V 5.9188793 L 25.808263,5.5548124 h -0.778934 l -0.09313,0.2032001 v 2.8702012 l 0.09313,0.1778 h 0.846667 l -0.01693,0.00847 z" />
      <path
         id="path2448"
         style="font-style:normal;font-variant:normal;font-weight:normal;font-stretch:normal;font-size:8.46667px;font-family:Kirsty;-inkscape-font-specification:Kirsty;stroke-width:0.264583"
         d="m 29.309892,5.7749459 -0.1016,-0.2201335 h -0.8382 l -0.09313,0.2032001 v 2.8702012 l 0.08467,0.1778 h 0.863601 l 0.08467,-0.1778 z m -1.7526,3.7761348 -0.3556,-0.7027336 V 5.5209458 l 0.347133,-0.7112003 h 2.480734 l 0.3556,0.7027336 v 3.335868 l -0.3556,0.7027336 z" />
      <path
         id="path2450"
         style="font-style:normal;font-variant:normal;font-weight:normal;font-stretch:normal;font-size:8.46667px;font-family:Kirsty;-inkscape-font-specification:Kirsty;stroke-width:0.264583"
         d="m 35.475878,4.8097455 -0.364067,0.7112003 v 3.3189346 l 0.3556,0.7112003 H 33.94341 l 0.3556,-0.7112003 V 7.1296131 l 0.06773,-0.7281336 -0.795867,3.1496012 h -0.7366 l -0.753534,-3.1834679 0.04233,0.6519336 v 1.820334 l 0.347134,0.7112003 h -1.515534 l 0.3556,-0.7112003 V 5.5209458 l -0.3556,-0.7112003 h 1.828801 l 0.4826,1.9896674 0.0762,0.4910669 0.08467,-0.4741335 0.550334,-2.0066008 z" />
      <path
         id="path2452"
         style="font-style:normal;font-variant:normal;font-weight:normal;font-stretch:normal;font-size:8.46667px;font-family:Kirsty;-inkscape-font-specification:Kirsty;stroke-width:0.264583"
         d="m 38.156901,5.7749459 -0.1016,-0.2201335 h -0.8382 l -0.09313,0.2032001 v 2.8702012 l 0.08467,0.1778 h 0.8636 l 0.08467,-0.1778 z M 36.4043,9.5510807 36.0487,8.8483471 V 5.5209458 l 0.347134,-0.7112003 h 2.480734 l 0.3556,0.7027336 v 3.335868 l -0.3556,0.7027336 z" />
    </g>
  </g>
</svg>
