<?xml version="1.0" encoding="UTF-8" standalone="no"?>
<svg
   width="30.48mm"
   height="128.5mm"
   viewBox="0 0 30.479999 128.5"
   version="1.1"
   id="svg821"
   inkscape:version="1.2.2 (b0a84865, 2022-12-01)"
   sodipodi:docname="Mix.svg"
   xml:space="preserve"
   xmlns:inkscape="http://www.inkscape.org/namespaces/inkscape"
   xmlns:sodipodi="http://sodipodi.sourceforge.net/DTD/sodipodi-0.dtd"
   xmlns:xlink="http://www.w3.org/1999/xlink"
   xmlns="http://www.w3.org/2000/svg"
   xmlns:svg="http://www.w3.org/2000/svg"
   xmlns:rdf="http://www.w3.org/1999/02/22-rdf-syntax-ns#"
   xmlns:cc="http://creativecommons.org/ns#"
   xmlns:dc="http://purl.org/dc/elements/1.1/"><defs
     id="defs815"><rect
       x="45.065063"
       y="101.17967"
       width="38.461498"
       height="19.339811"
       id="rect1046" /><linearGradient
       id="linearGradient1761"
       inkscape:swatch="solid"><stop
         id="stop1759"
         offset="0"
         style="stop-color:#ffff00;stop-opacity:1;" /></linearGradient><linearGradient
       id="linearGradient1755"
       inkscape:swatch="solid"><stop
         id="stop1753"
         offset="0"
         style="stop-color:#0000ff;stop-opacity:1;" /></linearGradient><linearGradient
       id="linearGradient1749"
       inkscape:swatch="solid"><stop
         id="stop1747"
         offset="0"
         style="stop-color:#00ff00;stop-opacity:1;" /></linearGradient><linearGradient
       id="linearGradient1743"
       inkscape:swatch="solid"><stop
         id="stop1741"
         offset="0"
         style="stop-color:#ff0000;stop-opacity:1;" /></linearGradient><linearGradient
       id="linearGradient1737"
       inkscape:swatch="solid"><stop
         id="stop1735"
         offset="0"
         style="stop-color:#ff00ff;stop-opacity:1;" /></linearGradient><linearGradient
       id="linearGradient1686"
       inkscape:swatch="solid"><stop
         id="stop1684"
         offset="0"
         style="stop-color:#000000;stop-opacity:1;" /></linearGradient><linearGradient
       id="linearGradient5500"
       inkscape:swatch="solid"><stop
         id="stop5498"
         offset="0"
         style="stop-color:#f0f0f0;stop-opacity:1;" /></linearGradient><linearGradient
       id="linearGradient5494"
       inkscape:swatch="solid"><stop
         id="stop5492"
         offset="0"
         style="stop-color:#cdde87;stop-opacity:1;" /></linearGradient><clipPath
       id="clip89"><rect
         id="rect4864"
         height="19"
         width="18"
         x="0"
         y="0" /></clipPath><clipPath
       id="clip90"><path
         id="path4861"
         d="m 0.898438,0.128906 h 16.25 v 17.882813 h -16.25 z m 0,0"
         inkscape:connector-curvature="0" /></clipPath><mask
       id="mask44"><g
         transform="matrix(0.26458333,0,0,0.26458333,89.358789,128.57765)"
         id="g4858"
         style="filter:url(#alpha)"><rect
           id="rect4856"
           style="fill:#000000;fill-opacity:0.149994;stroke:none"
           height="3351.5"
           width="3052.8701"
           y="0"
           x="0" /></g></mask><filter
       height="1"
       width="1"
       y="0"
       x="0"
       filterUnits="objectBoundingBox"
       id="alpha"><feColorMatrix
         id="feColorMatrix4149"
         values="0 0 0 0 1 0 0 0 0 1 0 0 0 0 1 0 0 0 1 0"
         in="SourceGraphic"
         type="matrix" /></filter><clipPath
       id="clipPath17821"><rect
         id="rect17819"
         height="19"
         width="18"
         x="0"
         y="0" /></clipPath><clipPath
       id="clipPath17825"><path
         id="path17823"
         d="m 0.898438,0.128906 h 16.25 v 17.882813 h -16.25 z m 0,0"
         inkscape:connector-curvature="0" /></clipPath><clipPath
       id="clip87"><rect
         id="rect4848"
         height="26"
         width="24"
         x="0"
         y="0" /></clipPath><clipPath
       id="clip88"><path
         id="path4845"
         d="m 0.683594,0.921875 h 22.679687 v 24.9375 H 0.683594 Z m 0,0"
         inkscape:connector-curvature="0" /></clipPath><mask
       id="mask43"><g
         transform="matrix(0.26458333,0,0,0.26458333,89.358789,128.57765)"
         id="g4842"
         style="filter:url(#alpha)"><rect
           id="rect4840"
           style="fill:#000000;fill-opacity:0.149994;stroke:none"
           height="3351.5"
           width="3052.8701"
           y="0"
           x="0" /></g></mask><filter
       height="1"
       width="1"
       y="0"
       x="0"
       filterUnits="objectBoundingBox"
       id="filter17836"><feColorMatrix
         id="feColorMatrix17834"
         values="0 0 0 0 1 0 0 0 0 1 0 0 0 0 1 0 0 0 1 0"
         in="SourceGraphic"
         type="matrix" /></filter><clipPath
       id="clipPath17840"><rect
         id="rect17838"
         height="26"
         width="24"
         x="0"
         y="0" /></clipPath><clipPath
       id="clipPath17844"><path
         id="path17842"
         d="m 0.683594,0.921875 h 22.679687 v 24.9375 H 0.683594 Z m 0,0"
         inkscape:connector-curvature="0" /></clipPath><clipPath
       id="clip11"><rect
         x="0"
         y="0"
         width="17"
         height="16"
         id="rect9531" /></clipPath><clipPath
       id="clip12"><path
         inkscape:connector-curvature="0"
         d="M 0.671875,0.476562 H 16.917969 V 15.574219 H 0.671875 Z m 0,0"
         id="path9528" /></clipPath><clipPath
       id="clip9"><rect
         x="0"
         y="0"
         width="24"
         height="25"
         id="rect9515" /></clipPath><clipPath
       id="clip10"><path
         inkscape:connector-curvature="0"
         d="M 0.457031,0.238281 H 23.132812 V 24.980469 H 0.457031 Z m 0,0"
         id="path9512" /></clipPath><clipPath
       id="clip7"><rect
         x="0"
         y="0"
         width="17"
         height="16"
         id="rect9499" /></clipPath><clipPath
       id="clip8"><path
         inkscape:connector-curvature="0"
         d="M 0.671875,0.449219 H 16.917969 V 15.546875 H 0.671875 Z m 0,0"
         id="path9496" /></clipPath><clipPath
       id="clip5"><rect
         x="0"
         y="0"
         width="24"
         height="25"
         id="rect9483" /></clipPath><clipPath
       id="clip6"><path
         inkscape:connector-curvature="0"
         d="M 0.457031,0.210938 H 23.132812 V 24.953125 H 0.457031 Z m 0,0"
         id="path9480" /></clipPath><clipPath
       id="clip1"><rect
         x="0"
         y="0"
         width="30"
         height="32"
         id="rect9461" /></clipPath><clipPath
       id="clip2"><path
         inkscape:connector-curvature="0"
         d="M 0.441406,0.394531 H 29.140625 V 31.96875 H 0.441406 Z m 0,0"
         id="path9458" /></clipPath><rect
       x="45.065063"
       y="101.17967"
       width="38.461498"
       height="19.339811"
       id="rect1114" /><rect
       x="45.065063"
       y="101.17967"
       width="38.461498"
       height="19.339811"
       id="rect1267" /><rect
       x="45.065063"
       y="101.17967"
       width="38.461498"
       height="19.339811"
       id="rect1431" /></defs><sodipodi:namedview
     id="base"
     pagecolor="#ffffff"
     bordercolor="#666666"
     borderopacity="1.0"
     inkscape:pageopacity="0.0"
     inkscape:pageshadow="2"
     inkscape:zoom="1.28"
     inkscape:cx="20.3125"
     inkscape:cy="269.53125"
     inkscape:document-units="mm"
     inkscape:current-layer="layer2"
     showgrid="true"
     fit-margin-top="0"
     fit-margin-left="0"
     fit-margin-right="0"
     fit-margin-bottom="0"
     inkscape:snap-bbox="true"
     inkscape:bbox-nodes="true"
     inkscape:snap-others="false"
     inkscape:snap-nodes="true"
     inkscape:window-width="1920"
     inkscape:window-height="942"
     inkscape:window-x="1443"
     inkscape:window-y="25"
     inkscape:window-maximized="0"
     inkscape:snap-global="true"
     inkscape:showpageshadow="false"
     inkscape:bbox-paths="true"
     inkscape:snap-bbox-midpoints="true"
     inkscape:snap-bbox-edge-midpoints="true"
     inkscape:document-rotation="0"
     inkscape:snap-page="true"
     inkscape:pagecheckerboard="0"
     inkscape:deskcolor="#d1d1d1"><inkscape:grid
       type="xygrid"
       id="grid1366"
       units="mm"
       dotted="true"
       enabled="false" /></sodipodi:namedview><metadata
     id="metadata818"><rdf:RDF><cc:Work
         rdf:about=""><dc:format>image/svg+xml</dc:format><dc:type
           rdf:resource="http://purl.org/dc/dcmitype/StillImage" /></cc:Work></rdf:RDF></metadata><g
     inkscape:label="Layer 1"
     inkscape:groupmode="layer"
     id="layer1"
     transform="translate(0,-168.5)"
     style="display:inline"><rect
       style="opacity:1;fill:#333333;fill-opacity:1;stroke-width:2.2155;stroke-miterlimit:4;stroke-dasharray:none;stroke:#333333;stroke-opacity:1"
       id="rect1368"
       width="30.490335"
       height="128.50943"
       x="-0.010335271"
       y="168.50136" /><text
       xml:space="preserve"
       style="font-style:normal;font-variant:normal;font-weight:bold;font-stretch:normal;font-size:3.52778px;line-height:1.25;font-family:sans-serif;-inkscape-font-specification:'sans-serif Bold';letter-spacing:0px;word-spacing:0px;fill:#000000;fill-opacity:1;stroke:none;stroke-width:0.264583"
       x="11.90625"
       y="195.13542"
       id="text861" /><rect
       style="display:inline;opacity:1;fill:none;fill-opacity:1;stroke:#f9f9f9;stroke-width:0.317423"
       id="rect5287"
       width="10.277886"
       height="10.60099"
       x="17.744001"
       y="276.37091" /><path
       style="fill:#f0f0f0;fill-opacity:1;stroke:#ffffff;stroke-width:0.264583px;stroke-linecap:butt;stroke-linejoin:miter;stroke-opacity:1"
       d="m 31.75,192.34375 c 2.645833,3.70417 2.645833,3.70417 0,0 z"
       id="path6181"
       inkscape:connector-curvature="0" /><g
       style="display:inline;fill:#f9f9f9"
       id="g2119"
       transform="translate(62.330664,168.5)"><path
         d="m -5.6275905,176.49599 c -0.0857,-0.24024 -0.37677,-0.16087 -0.35349,0.12347 0.0233,0.28469 0.43921,0.11677 0.35349,-0.12347 z m 1.56139,-14.0716 c -0.0536,0.0473 -0.0773,0.11218 -0.085,0.16757 -0.03,0.2166 -0.49318,0.34678 -0.23319,0.53163 0.22613,0.16052 0.30304,-0.27058 0.47414,-0.40957 0.0448,-0.0367 0.079,-0.0974 0.0804,-0.1711 0.002,-0.1076 -0.15699,-0.18874 -0.23636,-0.11853 z m -1.3395,16.00588 c 0.037,-0.0776 0.0487,-0.16828 0.0462,-0.26388 -0.004,-0.11783 -0.11183,-0.28928 -0.17392,-0.248 -0.1591,0.10513 -0.43709,0.13053 -0.44626,0.36159 -0.004,0.10478 0.0483,0.17851 0.127,0.23178 0.127,0.0857 0.38276,0.0533 0.44697,-0.0815 z m -3.45263,-21.03861 c 0.2159,-0.15805 0.42862,-0.32138 0.68297,-0.41099 0.6403,-0.22542 1.21709,-0.57573 1.81575,-0.88547 0.29951,-0.15487 0.65229,-0.21484 0.98743,-0.28928 0.21696,-0.0483 0.34925,0.0783 0.40005,0.29422 0.10336,0.43815 0.34149,0.81703 0.53869,1.21426 0.13582,0.27376 0.27305,0.55069 0.17004,0.87171 -0.0878,0.27552 -0.0109,0.45862 0.28681,0.51859 0.30444,0.061 0.34537,-0.15099 0.38593,-0.36971 0.009,-0.0494 0.012,-0.10619 0.0469,-0.14746 0.0561,-0.0663 0.24554,0.008 0.30445,0.13723 0.0339,0.0748 0.0554,0.1598 0.072,0.24659 0.0663,0.34501 0.12524,0.68968 0.127,1.04493 0.007,1.35325 0.009,2.70439 -0.3182,4.03225 -0.0896,0.36336 -0.20709,0.74824 0.34219,0.89358 0.15275,0.0406 0.11359,0.2353 0.10724,0.37254 -0.018,0.39616 -0.0282,0.79304 -0.0649,1.1878 -0.008,0.0875 -2.6e-4,0.16651 0.0198,0.2413 0.0349,0.12982 0.0882,0.38029 0.0765,0.57503 -0.0113,0.19473 -0.0907,0.47307 -0.16051,0.6297 -0.0409,0.0914 -0.0709,0.18803 -0.072,0.29916 -0.003,0.36301 -0.0257,0.72637 -0.0229,1.08867 0.005,0.56833 0.1023,1.08656 0.127,1.1617 0.0247,0.0748 0.004,0.46743 -0.0353,0.89958 -0.0392,0.4318 0.11359,0.98602 0.16475,1.25907 0.03,0.15839 0.0402,0.32279 0.0342,0.50059 -0.008,0.24024 -0.013,0.4886 0.018,0.73307 0.0512,0.40217 0.20179,0.7486 0.22754,0.80645 0.0261,0.0579 0.0688,0.10372 0.0794,0.13194 0.0106,0.0279 0.0198,0.0974 0.0519,0.15557 0.0318,0.0579 0.17427,0.53729 0.43568,1.04211 0.16969,0.32808 0.40569,0.61489 0.76906,0.82303 0.18803,0.1076 0.20249,0.31221 0.23671,0.4893 0.12417997,0.64347 0.22824997,1.29082 0.34642997,1.93499 0.0356,0.19403 -0.0208,0.34008 -0.10831,0.5207 -0.22753997,0.47061 -0.65756997,0.78317 -0.89604997,1.24107 -0.0744,0.14288 -0.266,0.26247 -0.41769,0.12947 -0.32843,-0.28786 -0.56303,-0.0268 -0.81597,0.10337 -0.14323,0.0737 -0.26212,0.19544 -0.39088,0.29668 -0.24307,0.19086 -0.35137,0.27623 -0.44309,0.21555 -0.23918,-0.1584 -0.38735,-0.35348 -0.46814,-0.1778 -0.0462,0.10054 -0.0614,0.21167 -0.0378,0.34149 0.0169,0.0924 0.0413,0.18415 0.0483,0.27728 0.018,0.23566 0.0339,0.49636 -0.19932,0.62724 -0.25752,0.14499 -0.43003,-0.0691 -0.60219,-0.22613 -0.0395,-0.0363 -0.0808,-0.0706 -0.13299,-0.11289 -0.0748,-0.061 -0.1898,0.3295 -0.57962,0.59796 -0.22013,0.15205 -0.50059,0.21378 -0.81633,0.21661 -0.19861,0.002 -0.31855,0.11324 -0.43744,0.23389 -0.19861,0.20073 -0.69286,-0.005 -1.00542,-0.39053 -0.18027,-0.22225 -0.32702,-0.47484 -0.3556,-0.80962 -0.0138,-0.16228 -0.18133,-0.25541 -0.29351,-0.3743 -0.22613,-0.24059 -0.61983,-0.34749 -0.62159,-0.79093 0,-0.0977 -0.21484,-0.2092 -0.34608,-0.28963 -0.29175,-0.17815 -0.5030605,-0.0755 -0.5252905,0.26882 -0.0113,0.17815 -0.012,0.35701 -0.0102,0.54751 0.003,0.30304 -0.20143,0.3182 -0.31185,-0.0356 -0.110421,-0.35419 -0.135821,-0.91687 -0.320325,-1.2132 -0.111125,-0.17922 -0.24765,-0.35455 -0.218017,-0.5775 0.02928,-0.21978 0.03669,-0.44239 0.03775,-0.66569 0.0021,-0.3683 0.09631,-1.06398 0.100542,-1.56316 0.0024,-0.30127 -0.01341,-0.60325 -0.01058,-0.90417 0.01093,-1.14759 0.0032,-2.29553 0.0028,-3.44347 0.0032,-0.0476 0.006,-0.0956 0.0092,-0.14322 0.0049,-0.079 0.125238,-0.23883 0.121708,-0.39688 -0.0035,-0.1584 -0.06173,-0.34572 -0.04022,-0.43427 0.02117,-0.0889 0.204965,-0.51646 0.293862,-0.98672 0.0892,-0.4699 0.0529,-0.89993 0.0568,-0.9465 0.004,-0.0462 0.15205,-0.47378 0.18945,-0.97966 0.0226,-0.30516 0.0286,-0.61278 0.0836,-0.91335 0.003,-0.0265 0.006,-0.0526 0.01,-0.0787 0.005,-0.0437 0.10195,-0.25047 0.12241,-0.4833 0.0204,-0.23248 -0.002,-0.51929 0.003,-0.63888 0.005,-0.11995 0.1626305,-0.52388 0.1855605,-0.93522 0.0229,-0.41169 -0.17569,-0.5782 -0.4702505,-0.48718 -0.18662,0.0575 -0.369715,0.0804 -0.546456,0.11606 -0.11148,0.0222 -0.203907,0.06 -0.287867,0.1083 -0.147815,0.085 -0.345371,0.16228 -0.466373,0.16651 -0.12065,0.004 -0.492125,0.0716 -0.759531,0.26247 -0.267759,0.1905 -0.465315,0.43745 -0.515761,0.48225 -0.05045,0.0452 -0.170746,0.0949 -0.266348,0.1658 -0.09525,0.0705 -0.153458,0.16687 -0.184856,0.18768 -0.0314,0.0208 -0.232834,0.0769 -0.400402,0.22684 -0.167569,0.14993 -0.327025,0.34501 -0.432152,0.36971 -0.105481,0.0243 -0.672748,-0.0536 -1.047398,0.3055 -0.225073,0.2159 -0.408517,0.49954 -0.670983,0.653 -0.2159,0.12594 0.07056,0.38276 -0.183092,0.44414 -0.07691,0.0162 -0.137583,-0.008 -0.194382,-0.0423 -0.09666,-0.0586 -0.168978,-0.30233 -0.228245,-0.53728 -0.04339,-0.17251 -0.08572,-0.3302 -0.02611,-0.42827 0.260702,-0.42792 0.121708,-0.99836 0.571852,-1.35643 0.08996,-0.0716 0.186621,-0.1651 0.264937,-0.27622 0.121709,-0.17357 0.247296,-0.41487 0.346075,-0.51824 0.09878,-0.10336 0.176388,-0.23953 0.226484,-0.26564 0.0314,-0.0162 0.06103,-0.0342 0.08361,-0.0586 0.344662,-0.37112 0.798687,-0.71649 0.286808,-1.29046 -0.02506,-0.0282 -0.0085,-0.0938 0.01553,-0.16616 0.02999,-0.0907 0.152049,-0.23248 0.236009,-0.34995 0.08396,-0.11748 0.310446,-0.64453 0.643821,-1.10526 0.543983,-0.75141 1.176867,-1.42945 1.863373,-2.06304 0.07549,-0.0698 0.1651,-0.12912 0.239887,-0.20108 0.12418,-0.11959 0.28293,-0.35913 0.42263,-0.50059 0.139345,-0.14147 0.313266,-0.31327 0.378177,-0.40923 0.06526,-0.096 0.08608,-0.20602 0.105481,-0.23601 0.01939,-0.0303 0.168627,-0.15945 0.320321,-0.3242 0.151341,-0.16475 0.382061,-0.48754 0.5813815,-0.69673 0.19932,-0.2092 0.69709,-0.50271 1.05339,-0.76377"
         style="display:inline;fill:#f9f9f9;fill-opacity:1;fill-rule:nonzero;stroke:none;stroke-width:0.0352777"
         id="path2110"
         transform="matrix(0.22774839,0,0,0.24565989,-37.726138,80.539021)" /><path
         d="m -60.846457,175.09898 c 0.0014,-0.0914 0.0194,-0.18592 0,-0.27235 -0.02858,-0.12806 -0.131234,-0.19261 -0.259998,-0.18909 -0.11818,0.003 -0.290689,0.0409 -0.262114,0.16581 0.05927,0.25964 -0.09807,0.4325 -0.167922,0.64241 -0.03775,0.11359 0.0028,0.25012 0.104422,0.31397 0.103717,0.0656 0.22472,0.0109 0.327731,-0.0512 0.23742,-0.14288 0.257528,-0.36759 0.257881,-0.6096 z m -19.259551,3.05858 c -0.01588,-0.14111 -0.03457,-0.28011 -0.06491,-0.41628 -0.07091,-0.31961 -0.175331,-0.63218 -0.277636,-0.94368 -0.04339,-0.13158 -0.115006,-0.28928 -0.282575,-0.25894 -0.236008,0.0423 -0.174272,0.25294 -0.143228,0.39617 0.118886,0.55069 0.307622,1.0795 0.560917,1.58327 0.01905,0.0378 0.05186,0.0688 0.112889,0.0755 0.07796,0.008 0.120297,-0.20461 0.09454,-0.43603 z m 2.970742,0.63006 c -0.317148,-0.54963 -0.626534,-1.0855 -0.938037,-1.6196 -0.06103,-0.10478 -0.106186,-0.20179 -0.0822,-0.32667 0.09596,-0.49707 -0.275872,-0.74966 -0.555624,-1.04846 -0.105834,-0.11324 -0.241653,-0.14287 -0.383117,-0.0868 -0.17145,0.0674 -0.151695,0.21696 -0.121708,0.35525 0.03951,0.18168 0.08325,0.36336 0.139347,0.5401 0.265289,0.83608 0.794455,1.518 1.259769,2.24473 0.150636,0.2353 0.314325,0.41486 0.50553,0.54962 0.33902,0.23919 0.460023,-0.11571 0.176037,-0.60819 z m 6.217003,-4.10563 c -0.04304,-0.13299 -0.02293,-0.28398 0.123119,-0.47766 0.141111,-0.18768 0.04233,-0.53446 -0.293864,-0.58032 -0.196497,-0.0268 -0.350308,-0.12206 -0.525639,-0.17921 -0.106539,-0.0346 -0.197908,-0.031 -0.274108,0.006 -0.1397,0.0684 -0.271639,0.1651 -0.384528,0.18239 -0.06809,0.0102 -0.135467,0.031 -0.203905,0.0346 -0.455437,0.0233 -0.926042,0.043 -1.333148,-0.20497 -0.370064,-0.22577 -0.616302,-0.10759 -0.789164,0.32315 -0.162277,0.40463 -0.06773,0.81245 -0.123825,1.21461 -0.0095,0.0674 -0.01411,0.15029 0.01587,0.20602 0.29457,0.54963 0.623712,1.08268 0.745067,1.70921 0.01093,0.055 0.08961,0.10266 0.144992,0.14253 0.680861,0.49071 1.467555,0.77858 2.215797,1.13911 0.142522,0.0688 0.318911,0.0903 0.480483,0.0931 0.539045,0.009 1.079148,0.0173 1.614311,-0.0635 0.65405,-0.0988 0.679803,-0.14146 0.742598,-0.79057 0.02152,-0.22296 0.06773,-0.41628 -0.210961,-0.51223 -0.10795,-0.0367 -0.201437,-0.13406 -0.220839,-0.25718 -0.0695,-0.44027 -0.299156,-0.73448 -0.586317,-0.97578 -0.435323,-0.36583 -1.049156,-0.73871 -1.135939,-1.00929 z m 6.9977,-4.64749 c 0.107597,0.115 -0.200731,0.28398 -0.40887,0.21731 -0.207786,-0.0667 -0.236008,0.0935 -0.0049,0.18838 0.230716,0.0949 0.427919,-0.26599 0.51823,-0.24624 0.0501,0.0113 0.09807,0.0603 0.136172,0.0931 0.112184,0.0956 0.221192,0.19474 0.329495,0.29493 0.179211,0.16651 0.358775,0.3496 0.403225,0.4071 0.03457,0.0445 0.06209,0.0868 0.05186,0.11642 -0.08749,0.25682 -0.05221,0.44132 0.05115,0.58702 0.195792,0.27658 0.492478,0.36195 0.503414,0.35348 0.01058,-0.009 0.01164,-0.007 0.0025,0.002 -0.0095,0.0102 0.212372,0.36936 0.548569,0.76165 0.201436,0.2353 0.403931,0.47167 0.56515,0.74366 0.105481,0.17744 0.227895,0.37394 0.392642,0.52705 0.2667,0.248 0.84455,0.58631 0.885472,1.06539 0.02434,0.28751 0.0053,0.58384 0.0441,0.86854 0.0042,0.0286 0.05327,0.0459 0,0.0878 -0.506236,0.4011 -0.60325,1.08055 -1.078794,1.5314 -0.319264,0.30304 -0.524228,0.75565 -0.829028,1.10949 -0.123119,0.14288 -0.218369,0.31785 -0.401108,0.38065 -0.227542,0.0787 -0.314678,0.2413 -0.398286,0.45014 -0.145345,0.36231 -0.379942,0.60396 -0.819856,0.6664 -0.436386,0.0617 -0.875595,0.20637 -0.972961,0.76235 -0.04092,0.23354 -0.264936,0.32738 -0.462139,0.39652 -0.264936,0.0928 -0.539397,0.17075 -0.815975,0.21696 -0.822678,0.13794 -1.604786,0.49213 -2.464153,0.4445 -0.178506,-0.01 -0.379942,0.0494 -0.541161,0.13335 -1.013531,0.52917 -2.119489,0.73167 -3.225095,0.93592 -0.109008,0.0201 -0.234244,2.7e-4 -0.343253,-0.0314 -0.529166,-0.15275 -1.058686,-0.10265 -1.601611,-0.09 -0.923925,0.0212 -1.857728,-0.0473 -2.707217,-0.50553 -0.22613,-0.12206 -0.463197,-0.25541 -0.710494,-0.30092 -0.765881,-0.14111 -1.265061,-0.67169 -1.787172,-1.16628 -1.655233,-1.56845 -2.310695,-3.58034 -2.538236,-5.77921 -0.02434,-0.23636 -0.02081,-0.46778 0.01905,-0.70202 0.345061,-2.02529 1.019925,-3.92887 1.923389,-5.77919 0.379589,-0.77753 0.810331,-1.49966 1.452739,-1.99884 0.6223,-0.48331 1.175103,-1.04952 1.780469,-1.55081 0.43815,-0.36266 1.034345,-0.48719 1.271412,-0.5708 0.136172,-0.048 0.261408,-0.14287 0.386644,-0.23636 0.238831,-0.17851 0.500239,-0.32456 0.750006,-0.47837 0.340783,-0.2099 0.703086,-0.39405 1.043164,-0.61066 0.479425,-0.3055 1.220964,-0.81668 1.762477,-0.98989 0.55492,-0.1778 1.113014,-0.34713 1.656645,-0.56444 0.686153,-0.27447 1.465086,-0.36407 2.191103,-0.32562 0.788458,0.042 1.588911,-0.12065 2.365375,0.0893 0.91052,0.24589 1.754364,0.58244 2.305403,1.29575 0.347486,0.45015 0.08925,1.23014 -0.421217,1.10843 -0.510469,-0.12206 -1.005769,-0.16757 -0.996244,-0.0607 0.006,0.066 0.05503,0.11818 0.09102,0.16934 0.131234,0.18379 0.07338,0.30515 -0.118533,0.37958 -0.123119,0.0476 -0.293864,0.007 -0.337255,0.19156 -0.05962,0.25224 -0.255764,0.21273 -0.381001,0.12206 -0.3429,-0.24765 -0.724605,-0.27587 -1.119716,-0.26564 -0.196145,0.005 -0.525992,-0.18697 -0.442384,0.27552 0.0028,0.0148 -0.01164,0.0385 -0.02505,0.0494 -0.450144,0.36266 -0.450144,0.36266 0.0035,0.77576 0.0088,0.008 0.01588,0.0173 0.02328,0.0279 0.01129,0.0162 -0.05609,0.1584 -0.210608,0.17533 -0.08714,0.01 -0.1778,-0.0215 -0.262114,-0.0829 -0.372533,-0.26987 -0.778581,-0.3937 -1.234722,-0.35666 -0.153459,0.0123 -0.263173,-0.0857 -0.389114,-0.14322 -0.173214,-0.0794 -0.379589,-0.1778 -0.540103,-0.1076 -0.411692,0.17956 -0.820208,0.0261 -1.200856,-0.024 -0.337961,-0.0445 -0.609247,0.0145 -0.849136,0.1651 -0.472722,0.29739 -1.0033,0.47942 -1.469672,0.78105 -0.756708,0.4893 -1.446742,1.03717 -1.692275,1.97414 -0.0762,0.29069 -0.282575,0.53587 -0.339372,0.84103 -0.01199,0.0635 -0.01728,0.11994 -0.0046,0.16933 0.02363,0.0914 0.109361,0.17251 0.136878,0.2166 0.01446,0.0233 0.0381,0.036 0.08325,0.0222 0.0092,-0.003 0.01129,-0.0293 0.01235,-0.0596 0.0011,-0.0346 0.09102,-0.115 0.199672,-0.17921 0.109009,-0.0642 0.320322,-0.0942 0.475545,-0.0847 0.09172,0.006 0.181328,0.0215 0.259997,0.0914 0.07973,0.0709 0.04516,0.17216 0.03457,0.27058 -0.01728,0.15734 0.479778,0.0286 0.932745,-0.1972 0.272344,-0.13582 0.552097,-0.25964 0.843844,-0.35595 0.115006,-0.0377 0.215195,-0.0759 0.285045,-0.1838 0.140052,-0.21731 0.336197,-0.32526 0.599369,-0.26282 0.256822,0.0607 0.170745,0.29528 0.231422,0.45897 0.106186,0.28751 0.450498,0.46002 0.591962,0.26917 0.280105,-0.37712 0.733072,-0.25718 1.06433,-0.47343 0.200731,-0.13124 0.492125,-0.13194 0.745772,-0.16722 0.08008,-0.0109 0.179564,0.042 0.215195,0.14711 0.03704,0.10936 -0.01905,0.19826 -0.09737,0.23918 -0.07338,0.0388 -0.150989,0.0699 -0.229658,0.0988 -0.12947,0.0476 0.119944,0.17216 0.567619,0.20214 0.249414,0.0169 0.481189,-0.0487 0.6604,-0.37641 0.0254,-0.0466 0.100189,-0.0656 0.18415,-0.0797 0.112889,-0.0187 0.283281,-0.012 0.381,0.0173 0.09772,0.0293 0.201084,0.14252 0.230364,0.25294 0.01764,0.0667 0.03422,0.1337 0.04763,0.20144 0.09666,0.49106 0.140053,0.53446 0.594784,0.54892 0.161925,0.005 0.324555,0.006 0.475191,-0.0699 0.23495,-0.11818 0.444853,-0.0928 0.625475,0.10689 0.04939,0.0543 0.10407,0.0963 0.165453,0.12383 0.104422,0.0469 0.262114,0.14252 0.369711,0.25717"
         style="display:inline;fill:#f9f9f9;fill-opacity:1;fill-rule:nonzero;stroke:none;stroke-width:0.0352777"
         id="path2112"
         transform="matrix(0.22774839,0,0,0.24565989,-37.726138,80.539021)" /><path
         d="m -36.293898,165.16119 c -0.02574,-0.0247 -0.05927,-0.0212 -0.07444,0.008 -0.01024,0.0198 -0.01799,0.0392 -0.01447,0.0561 0.0063,0.0321 0.05045,0.0776 0.08043,0.0797 0.02787,0.002 0.04621,-0.0109 0.05503,-0.0317 0.0141,-0.0349 -0.02045,-0.0871 -0.04657,-0.11183 z m -0.103365,-2.44757 c -0.01693,0.0247 -0.02469,0.0571 -0.02928,0.0907 -0.01376,0.0991 0.01447,0.1838 0.123473,0.19685 0.07973,0.01 0.112183,-0.0639 0.10936,-0.12911 -0.0019,-0.0441 -0.0049,-0.0903 -0.02294,-0.12842 -0.03034,-0.066 -0.150638,-0.0744 -0.180624,-0.03 z m 0.229307,4.01461 c -0.02328,-0.25153 -0.118182,-0.26599 -0.179565,-0.0286 -0.06103,0.23778 0.202493,0.28046 0.179565,0.0286 z m -0.328084,-2.48002 c 0.04515,0.27622 0.23636,0.2667 0.201084,-0.01 -0.03528,-0.27658 -0.24624,-0.2667 -0.201084,0.01 z m -7.127171,13.33958 c -0.127704,0.5521 0.207433,1.03893 0.193675,1.59385 -0.02434,0.99625 0.234246,1.97485 0.363363,2.96263 0.01693,0.12947 0.08078,0.2353 0.211667,0.23742 0.13335,0.002 0.198966,-0.10901 0.216251,-0.23424 0.01588,-0.11607 0.03775,-0.23495 0.02681,-0.34996 -0.04198,-0.44344 -0.0063,-0.89182 -0.109712,-1.33209 -0.119947,-0.50976 -0.120299,-1.03822 -2.65e-4,-1.53599 0.128058,-0.5334 0.438504,-1.028 0.2032,-1.60938 -0.02469,-0.061 0.05398,-0.17215 0.09913,-0.25223 0.09454,-0.16828 0.138642,-0.34749 0.148167,-0.53799 0.04163,-0.83926 -0.1397,-1.66511 -0.145698,-2.50155 -0.0011,-0.11959 -0.04551,-0.29703 -0.148519,-0.28963 -0.271285,0.0187 -0.543631,0.0833 -0.805391,0.16263 -0.199319,0.0607 -0.144992,0.26318 -0.171802,0.41981 -0.123121,0.72073 0.139345,1.4672 -0.137232,2.17452 -0.147814,0.37818 0.1524,0.7239 0.05644,1.0922 z m 7.955492,-13.68742 c 0.01376,0.23671 -0.07902,0.45614 -0.204962,0.50306 -0.07161,0.0265 -0.125238,0.073 -0.1143,0.18979 0.0099,0.10301 0.04833,0.18839 0.112183,0.25153 0.110418,0.10901 0.22507,0.17039 0.20461,0.24342 -0.02082,0.0727 0.04339,0.12171 0.04974,0.121 0.0063,-0.001 -0.07867,-0.0603 -0.149225,0.002 -0.0702,0.0624 -0.194027,0.19332 -0.174977,0.29528 0.0092,0.0483 0.06526,0.0882 0.138993,0.11536 0.05221,0.0194 0.100894,0.0381 0.142875,0.0646 0.07303,0.0462 0.02222,0.36336 0.1016,0.66004 0.04798,0.17886 0.117827,0.35631 0.127352,0.53975 0.0067,0.133 0.331613,0.35172 0.485423,0.56727 0.112536,0.15734 0.352777,0.0469 0.536575,0.0455 0.632532,-0.003 1.264709,-0.0166 1.89724,-0.0127 0.280459,0.002 0.518584,0.10795 0.775052,0.24694 0.15734,0.0854 0.474133,-0.21378 0.772935,-0.16898 0.21943,0.0328 0.439563,0.06 0.660048,0.085 0.36548,0.042 0.730957,0.26988 0.900997,0.44662 0.113241,0.11818 0.247295,0.19791 0.38382,0.20073 0.40993,0.008 0.750007,0.23671 1.147588,0.2353 0.456142,-0.002 0.88406,0.2219 1.37442,0.0614 0.407813,-0.1337 0.8382,0.14605 1.307397,0.0416 0.2794,-0.0624 0.570087,-0.067 0.862541,-0.0741 0.479071,-0.0113 0.923571,-0.0826 1.000477,-0.0794 0.07691,0.004 0.25541,0.0635 0.282927,0.19191 0.0113,0.0536 -0.02117,0.10795 -0.145343,0.16404 -0.0822,0.037 -0.118534,0.0896 -0.127707,0.14994 -0.01693,0.11253 0.03598,0.29421 0.03528,0.40957 -7.94e-4,0.11536 -0.143582,0.24483 -0.213432,0.38206 -0.03563,0.0706 -0.03493,0.15769 0.01693,0.26917 0.03916,0.0836 0.06597,0.20637 -0.05292,0.23142 -0.545042,0.11501 -0.750358,0.62371 -1.119717,0.94086 0,0 -0.0046,0.005 -0.0092,0.009 -0.0053,0.005 -0.188736,0.12171 -0.301977,0.33972 -0.113242,0.21802 -0.120298,0.46108 -0.204613,0.49707 -0.08431,0.0356 -0.164746,0.0586 -0.179917,0.0508 -0.01482,-0.008 -0.03492,-0.002 -0.04445,0.0123 -0.0098,0.0141 -0.0568,0.0459 -0.104775,0.0709 -0.04798,0.0247 -0.119943,0.0145 -0.152752,0.0349 -0.03281,0.0201 -0.06632,0.0804 -0.116416,0.10195 -0.05045,0.0219 -0.135115,-0.012 -0.188736,0.0116 -0.05362,0.0233 -0.137583,0.13018 -0.135821,0.22013 0.0013,0.09 0.0889,0.29951 -0.05503,0.38912 -0.144285,0.09 -0.272696,0.20002 -0.323496,0.20884 -0.03034,0.005 -0.06103,0.0106 -0.09137,0.0159 -0.540454,0.0437 -1.093962,0.0226 -1.56351,0.37536 -0.107244,0.0804 -0.251177,0.1531 -0.379942,0.15628 -0.383116,0.01 -0.759883,0.0797 -1.137708,0.13793 -0.561975,0.0864 -1.174046,0.0138 -1.36878,0.003 -0.194378,-0.0109 -0.459668,-0.0476 -0.581376,-0.004 -0.05468,0.0198 -0.08855,0.0762 -0.08361,0.20109 0.0021,0.0497 -0.01058,0.0917 -0.0314,0.12911 -0.03634,0.0649 -0.145695,0.11219 -0.220837,0.12242 -0.0755,0.0102 -0.322792,-0.002 -0.538692,-0.0794 -0.114654,-0.0413 -0.202848,-0.12277 -0.210608,-0.32385 -0.0013,-0.0314 -0.111125,-0.0847 -0.16863,-0.0818 -0.09102,0.004 -0.166158,0.0441 -0.154516,0.17321 0.04163,0.45897 -0.220134,0.60431 -0.63006,0.59408 -0.05468,-10e-4 -0.09349,0.0201 -0.122767,0.0533 -0.05115,0.0572 -0.07056,0.12418 -0.07408,0.12841 -0.0035,0.004 -0.157692,0.0875 -0.345369,0.18415 -0.113596,0.0582 -0.2286,0.11395 -0.347133,0.16016 -0.140407,0.055 -0.275522,0.0956 -0.261057,0.26882 0.03704,0.44203 -0.45861,0.84878 -0.08537,1.31621 0.02434,0.0303 -0.02611,0.12101 -0.04233,0.1838 -0.144992,0.56021 -0.145344,0.56197 0.407813,0.64452 0.09772,0.0145 0.189087,0.0286 0.212018,0.13865 0.02998,0.14393 -0.04057,0.21484 -0.183798,0.22436 -0.46002,0.03 -0.610658,0.33585 -0.684387,0.7366 -0.06985,0.37959 -0.176742,0.81809 0.05997,1.10032 0.203907,0.24306 0.13194,0.31785 7.94e-4,0.49777 -0.131233,0.17991 -0.05574,0.60677 -0.294923,0.5722 -0.480483,-0.0691 -0.293158,0.31539 -0.424037,0.47272 -0.09278,0.11184 -0.179565,0.22508 -0.22578,0.34996 -0.08043,0.21661 -0.024,0.39617 -0.05609,0.41804 -0.01765,0.0116 -0.02787,0.0318 -0.02998,0.0607 -7.94e-4,0.007 0.04233,0.0293 0.05927,0.0247 0.0321,-0.009 0.04974,-0.024 0.05327,-0.0427 0.0074,-0.0392 0.222604,0.0494 0.357365,-0.13723 0.06703,-0.0931 0.0702,-0.24341 0.05539,-0.40569 -0.01304,-0.14041 0.02963,-0.2346 0.15875,-0.26035 0.09878,-0.0198 0.187325,0.0501 0.21449,0.14428 0.04516,0.15558 0.159808,0.25718 0.287866,0.37783 0.193675,0.18203 0.105127,0.23742 -0.06103,0.3743 -0.106892,0.0882 -0.144285,0.25117 -0.25541,0.28786 -0.231775,0.0765 -0.511175,0.006 -0.745774,0.14323 -0.03951,0.0233 -0.102303,0.0459 -0.110066,0.0794 -0.06032,0.25647 -0.200729,0.38241 -0.454377,0.50447 -0.165452,0.0794 -0.149225,0.45615 -0.274815,0.68333 -0.05574,0.1009 -0.0896,0.21449 -0.138287,0.31892 -0.08114,0.17427 -0.274815,0.0808 -0.451205,0.0617 -0.176387,-0.0194 -0.332668,-0.0589 -0.398285,-0.17357 -0.03845,-0.067 -0.09666,-0.10795 -0.204258,-0.0737 -0.08961,0.0282 -0.130175,0.0956 -0.142875,0.1771 -0.02082,0.13158 -0.05644,0.34819 -0.158398,0.4766 -0.102304,0.12841 -0.137935,0.23354 -0.172509,0.21907 -0.03457,-0.0148 -0.08643,-0.11324 -0.19332,-0.17074 -0.106892,-0.0575 -0.126296,-0.22402 -0.100542,-0.33197 0.01516,-0.0624 0.01093,-0.12382 -0.05433,-0.18168 -0.03916,-0.0349 -0.172154,-0.0406 -0.186971,-0.0152 -0.170391,0.28928 -0.490008,0.38135 -0.727429,0.57856 -0.05468,0.0455 -0.09066,0.10901 -0.09983,0.17921 -0.01516,0.11536 0.04621,0.26106 0.04516,0.33549 -0.0011,0.0748 -0.10019,0.30762 -0.1778,0.53763 -0.07726,0.23037 -0.06879,0.20285 -0.08714,-0.0759 -0.01871,-0.27869 -0.112887,-0.58278 -0.179562,-0.6805 -0.06703,-0.0977 -0.16369,-0.14782 -0.175331,-0.16651 -0.01164,-0.019 -0.04163,-0.22084 -0.103011,-0.45332 -0.06138,-0.23284 -0.208846,-0.0857 -0.369713,0.23142 -0.102658,0.20249 -0.212725,0.37924 -0.20602,0.6029 -0.0024,0.049 -0.0049,0.0981 -0.0074,0.1471 -0.0039,0.0815 -0.08149,0.17392 -0.115007,0.25083 -0.03316,0.0769 0.04904,0.0198 0.03739,-0.12877 -0.0113,-0.14851 -0.04339,-0.38487 -0.02506,-0.53657 0.01093,-0.0921 0.02011,-0.18415 0.02117,-0.27623 0.0024,-0.19014 -0.04833,-0.37429 -0.210256,-0.49671 -0.158044,-0.11924 -0.24271,0.0702 -0.365477,0.10266 -0.32879,0.0875 -0.540808,-0.0374 -0.64629,-0.35313 -0.04445,-0.13264 -0.08678,-0.26634 -0.116064,-0.40287 -0.07338,-0.34184 -0.362654,-0.27552 -0.558094,-0.24024 -0.235302,0.0427 -0.115358,0.24165 -0.06738,0.39405 0.02117,0.066 0.03563,0.1337 0.04833,0.20214 0.02117,0.11289 -0.203906,0.0896 -0.367948,-0.17215 -0.09807,-0.15664 -0.150635,-0.33691 -0.153104,-0.53023 -0.0085,-0.67627 -0.14464,-1.33703 -0.2413,-2.00166 -0.0822,-0.56233 0.06667,-1.05657 0.06103,-1.20685 -0.0032,-0.0878 -0.03034,-0.18945 0.02363,-0.26565 0.163687,-0.23036 0.193675,-0.43956 0.106185,-0.60924 -0.164748,-0.31997 -0.524581,-0.39053 -0.522464,-0.43639 0.0024,-0.0455 0.134408,0.0321 0.328789,0.0526 0.110773,0.0116 0.143934,-0.072 0.155223,-0.2674 0.0067,-0.11325 -0.0056,-0.22896 -0.02257,-0.34149 -0.0381,-0.25118 -0.07197,-0.35666 -0.182738,-0.33444 -0.230716,0.0466 -0.368654,0.0572 -0.377473,-0.14428 -0.0088,-0.20144 -0.05574,-0.20214 0.06844,-0.1517 0.05891,0.024 0.140758,-0.009 0.221544,-0.0727 0.225777,-0.1785 0.234243,-0.43638 0.179916,-0.69956 -0.03034,-0.14781 -0.06032,-0.29527 -0.09031,-0.44308 -0.04939,-0.24483 0.08502,-0.52952 0.0949,-0.72143 0.0099,-0.19192 -0.04692,-0.42757 -0.05856,-0.54646 -0.01198,-0.11853 0.04763,-0.40358 0.03387,-0.67204 -0.0085,-0.16051 -0.04304,-0.32244 -0.05362,-0.48366 -0.0081,-0.12911 -0.0508,-0.2607 -0.170037,-0.27269 -0.331965,-0.0339 -0.667809,-0.11748 -1.00048,-0.13618 -0.556683,-0.031 -1.052335,0.25012 -1.165929,0.26176 -0.06844,0.007 -0.136879,0.0141 -0.205671,0.0212 -0.378883,0.031 -0.748945,0.0847 -1.108427,-0.14851 -0.131939,-0.0857 -0.379941,-0.0727 -0.542925,-0.0145 -0.479779,0.1718 -1.088321,-0.0554 -1.458383,0.48612 -0.06597,0.097 -0.288925,0.13723 -0.456848,0.0857 -0.172508,-0.0526 -0.262115,-0.018 -0.313619,0.0564 -0.10795,0.15593 -0.09031,0.32526 -0.08714,0.32174 0.0028,-0.004 -0.06985,0.0346 -0.170391,0.03 -0.100542,-0.005 -0.176035,-0.12171 -0.170037,-0.2413 0.0056,-0.1196 0.04904,-0.24307 0.0956,-0.27588 0.02858,-0.0198 0.05609,-0.0406 0.08114,-0.0639 0.122412,-0.11571 0.235654,-0.25823 0.135819,-0.42368 -0.09031,-0.14993 -0.249767,-0.0466 -0.378532,-0.0282 -0.409926,0.0596 -0.817033,0.14428 -1.23331,0.0261 -0.106891,-0.0307 -0.171802,7.1e-4 -0.219075,0.0568 -0.08573,0.1023 -0.144991,0.22437 -0.180623,0.24059 -0.03563,0.0162 -0.365125,0.0487 -0.703437,-0.085 -0.338315,-0.13335 -0.446265,-0.28081 -0.338667,-0.50941 0.05821,-0.12418 0.02646,-0.24059 -0.185563,-0.36195 -0.08537,-0.0487 -0.0762,-0.16968 -0.01622,-0.25012 0.137232,-0.18415 0.213784,-0.40675 0.416984,-0.54962 0.222602,-0.15699 0.324908,-0.23249 0.301625,-0.31257 -0.06914,-0.24094 -0.267052,-0.37641 -0.114652,-0.39969 0.09278,-0.0145 0.183443,-0.0321 0.221543,-0.14076 0.0067,-0.0194 0.0046,-0.0462 -0.0035,-0.0656 -0.0071,-0.0173 -0.02574,-0.0363 -0.04304,-0.0409 -0.01376,-0.004 -0.04868,0.0173 -0.04798,0.0198 0.05821,0.20073 0.214842,0.14852 0.342545,0.11465 0.32738,-0.0868 0.418042,-0.35666 0.148873,-0.55069 -0.171098,-0.12347 -0.270933,-0.27022 -0.335843,-0.43038 -0.114655,-0.28328 0.06491,-0.63112 0.226129,-0.49918 0.09172,0.0751 0.157339,0.19579 0.231071,0.29633 0.09384,0.127 0.112183,0.30762 0.26811,0.39299 0.07973,0.0437 0.164748,0.0931 0.253648,0.0265 0.101246,-0.0762 0.05574,-0.19155 7.94e-4,-0.24024 -0.10301,-0.091 -0.181679,-0.18873 -0.228952,-0.29845 -0.08255,-0.19226 -0.0056,-0.3743 0.02893,-0.39088 0.03422,-0.0166 0.111479,-0.004 0.152048,-0.0409 0.04092,-0.0378 0.0949,-0.26246 0.19826,-0.46672 0.06386,-0.1263 0.134057,-0.24659 0.227896,-0.34467 0.306563,-0.32032 0.729544,-0.47695 1.166636,-0.50165 0.303035,-0.0169 0.589843,-0.0709 0.877358,-0.14957 0.02117,-0.008 0.04233,-0.0159 0.0635,-0.0236 0.03493,-0.013 0.158044,-0.0233 0.274815,-0.0226 0.116768,7.1e-4 0.3429,0.18909 0.526695,0.11747 0.183446,-0.072 0.281871,-0.25576 0.322792,-0.26388 0.04092,-0.008 0.06032,0.14782 0.11924,0.33267 0.03739,0.11713 0.111831,0.19297 0.269523,0.13864 0.42686,-0.1471 0.879827,-0.11571 1.283758,-0.2741 0.26811,-0.10513 0.483307,-0.35948 0.600427,0.13194 0.02469,0.10371 0.148167,0.085 0.242358,0.0568 0.581025,-0.17534 1.167342,-0.0893 1.738138,0.0219 0.507646,0.0988 0.42051,-0.75424 0.959909,-0.54646 0.01588,0.006 0.09031,-0.0949 0.110066,-0.15522 0.02082,-0.0642 0.006,-0.1397 0.01236,-0.20955 0.0074,-0.0804 0.01553,-0.16122 0.024,-0.24165 0.01447,-0.13335 0.07796,-0.42545 0.07726,-0.65793 -2.64e-4,-0.23248 0.0141,-0.74578 0.0695,-1.14441 0.03281,-0.23883 0.08396,-0.47449 0.192263,-0.69992 0.04868,-0.10124 0.09313,-0.24447 0.05891,-0.33937 -0.210608,-0.58526 0.101952,-1.22096 -0.187325,-1.79775 -0.05468,-0.10866 0.01693,-0.28081 0.134761,-0.26953 0.236362,0.0229 0.552098,0.0667 0.613481,0.31221 0.08678,0.34608 0.281517,0.6731 0.185208,1.07351 -0.03775,0.15663 -0.04868,0.32279 -0.01482,0.47977 0.0568,0.26141 0.292452,0.16016 0.237773,-0.14358 -0.03246,-0.18097 -0.09455,-0.35595 -0.175332,-0.52881 -0.182033,-0.39017 0.105482,-0.75459 0.08573,-1.14759 -0.0127,-0.25541 0.334786,-0.18979 0.514702,-0.25717 0.215196,-0.0808 0.292455,-0.19015 0.297746,-0.40605 0.0067,-0.27234 -0.171804,-0.38559 -0.382058,-0.42474 -0.300567,-0.0565 -0.611365,-0.0138 -0.898879,0.0822 -0.116063,0.0392 -0.227188,0.0705 -0.337254,0.0765 -0.191207,0.0102 -0.275167,-0.17075 -0.206375,-0.28399 0.04339,-0.0709 0.08043,-0.14287 0.09384,-0.21907 0.05539,-0.31786 0.2032,-0.49284 0.39864,-0.59585 0.364066,-0.19191 0.872418,-0.0801 1.059391,-0.14111 0.108302,-0.0353 0.22084,-0.0815 0.346427,-0.0462 0.49389,0.13829 0.861838,-0.14464 1.178632,-0.52669 0.138641,-0.16722 0.207081,-0.34925 0.303035,-0.52811 0.04198,-0.078 0.112538,-0.17251 0.265642,-0.0476 0.377121,0.30727 0.489304,0.28151 0.612775,-0.16934 0.02963,-0.10795 0.06668,-0.16615 0.1143,-0.19438 0.109714,-0.0653 0.435681,0.25153 0.559506,0.62795 0.07303,0.22119 0.104423,0.45579 0.08326,0.70802 -0.0032,0.0402 -0.0035,0.0981 0.02469,0.13723 0.04657,0.0635 0.212725,-0.0677 0.186973,-0.21343 -0.01516,-0.0871 -0.05327,-0.17356 -0.07303,-0.25823 -0.03457,-0.14817 -0.03352,-0.32138 0.0071,-0.51365 0.05856,-0.2801 0.234598,-0.45578 0.314325,-0.41627 0.07973,0.0395 0.254354,0.35877 0.442031,0.68827 0.187325,0.32984 0.198615,0.73307 0.204258,0.85266 0.0056,0.11924 -0.0049,0.26635 -0.0074,0.34996 -0.0024,0.0836 0.05539,0.58667 0.24624,1.09184 0.115004,0.30516 0.250118,0.60537 0.315383,0.92463 0.02328,0.11395 0.05785,0.22578 0.08678,0.33902 0.04798,0.18698 0.01588,0.41134 0.05503,0.47449 0.03916,0.0631 0.117475,0.27129 0.131585,0.50765"
         style="display:inline;fill:#f9f9f9;fill-opacity:1;fill-rule:nonzero;stroke:none;stroke-width:0.0352777"
         id="path2114"
         transform="matrix(0.22774839,0,0,0.24565989,-37.726138,80.539021)" /></g></g><g
     inkscape:groupmode="layer"
     id="layer3"
     inkscape:label="temp"
     style="display:inline"><image
       preserveAspectRatio="none"
       inkscape:svg-dpi="96"
       width="12.7"
       height="12.7"
       xlink:href="SspoLargeKnob.svg"
       id="image1126"
       x="1.2367206"
       y="18.041277"
       style="display:inline" /><image
       preserveAspectRatio="none"
       inkscape:svg-dpi="96"
       width="12.7"
       height="12.7"
       xlink:href="SspoLargeKnob.svg"
       id="image1179"
       x="16.532944"
       y="18.041277"
       style="display:inline" /><image
       preserveAspectRatio="none"
       inkscape:svg-dpi="96"
       width="8.3556213"
       height="8.3556213"
       xlink:href="SspoPort.svg"
       id="image1538"
       x="3.4089098"
       y="78.917892" /><image
       preserveAspectRatio="none"
       inkscape:svg-dpi="96"
       width="8.3556213"
       height="8.3556213"
       xlink:href="SspoPort.svg"
       id="image1574"
       x="18.705133"
       y="78.917892" /><image
       preserveAspectRatio="none"
       inkscape:svg-dpi="96"
       width="12.7"
       height="12.7"
       xlink:href="SspoLargeKnob.svg"
       id="image1704"
       x="1.2367206"
       y="37.833351"
       style="display:inline" /><image
       preserveAspectRatio="none"
       inkscape:svg-dpi="96"
       width="12.7"
       height="12.7"
       xlink:href="SspoLargeKnob.svg"
       id="image1706"
       x="16.532944"
       y="37.833351"
       style="display:inline" /><image
       preserveAspectRatio="none"
       inkscape:svg-dpi="96"
       width="12.7"
       height="12.7"
       xlink:href="SspoLargeKnob.svg"
       id="image1726"
       x="1.2367206"
       y="57.625423"
       style="display:inline" /><image
       preserveAspectRatio="none"
       inkscape:svg-dpi="96"
       width="12.7"
       height="12.7"
       xlink:href="SspoLargeKnob.svg"
       id="image1728"
       x="16.532944"
       y="57.625423"
       style="display:inline" /><image
       preserveAspectRatio="none"
       inkscape:svg-dpi="96"
       width="8.3556213"
       height="8.3556213"
       xlink:href="SspoPort.svg"
       id="image1838"
       x="3.4089098"
       y="93.955734" /><image
       preserveAspectRatio="none"
       inkscape:svg-dpi="96"
       width="8.3556213"
       height="8.3556213"
       xlink:href="SspoPort.svg"
       id="image1840"
       x="18.705133"
       y="93.955734" /><image
       preserveAspectRatio="none"
       inkscape:svg-dpi="96"
       width="8.3556213"
       height="8.3556213"
       xlink:href="SspoPort.svg"
       id="image1912"
       x="3.4089098"
       y="108.99358" /><image
       preserveAspectRatio="none"
       inkscape:svg-dpi="96"
       width="8.3556213"
       height="8.3556213"
       xlink:href="SspoPort.svg"
       id="image1914"
       x="18.705133"
       y="108.99358" /></g><g
     inkscape:groupmode="layer"
     id="layer2"
     inkscape:label="components"
     style="display:inline"><circle
       style="display:inline;opacity:1;fill:#00ff00;fill-opacity:1;stroke-width:0.264583"
       id="path1587-8-3"
       cx="7.5867205"
       cy="83.095703"
       r="3.96875"
       inkscape:label="ONE" /><circle
       style="display:inline;opacity:1;fill:#00ff00;fill-opacity:1;stroke-width:0.264583"
       id="path1389-8"
       cx="7.5867205"
       cy="113.17139"
       r="3.96875"
       inkscape:label="FIVE" /><circle
       style="display:inline;opacity:1;fill:#ff0000;fill-opacity:1;stroke-width:0.264583"
       id="path1587-8-0-5"
       cx="7.5867205"
       cy="63.975422"
       r="3.96875"
       inkscape:label="FIVE" /><circle
       style="display:inline;opacity:1;fill:#ff0000;fill-opacity:1;stroke-width:0.264583"
       id="path1587-8-0-6"
       cx="22.882944"
       cy="44.18335"
       r="3.96875"
       inkscape:label="FOUR" /><circle
       style="display:inline;opacity:1;fill:#ff0000;fill-opacity:1;stroke-width:0.264583"
       id="path1587-8-0-2"
       cx="7.5867205"
       cy="24.391277"
       r="3.96875"
       inkscape:label="ONE" /><circle
       style="display:inline;opacity:1;fill:#00ff00;fill-opacity:1;stroke-width:0.264583"
       id="circle1066"
       cx="7.5867205"
       cy="98.133545"
       r="3.96875"
       inkscape:label="THREE" /><circle
       style="display:inline;opacity:1;fill:#ff0000;fill-opacity:1;stroke-width:0.264583"
       id="circle1068"
       cx="22.882944"
       cy="63.975422"
       r="3.96875"
       inkscape:label="MAIN" /><circle
       style="display:inline;opacity:1;fill:#ff0000;fill-opacity:1;stroke-width:0.264583"
       id="circle1072"
       cx="7.5867205"
       cy="44.18335"
       r="3.96875"
       inkscape:label="THREE"
       inkscape:transform-center-x="-21.303206"
       inkscape:transform-center-y="-0.84374695" /><circle
       style="display:inline;opacity:1;fill:#00ff00;fill-opacity:1;stroke-width:0.264583"
       id="circle1384"
       cx="22.882944"
       cy="83.095703"
       r="3.96875"
       inkscape:label="TWO" /><circle
       style="display:inline;opacity:1;fill:#0000ff;fill-opacity:1;stroke-width:0.264583"
       id="path1389"
       cx="22.882944"
       cy="113.17139"
       r="3.96875"
       inkscape:label="MAIN" /><circle
       style="display:inline;opacity:1;fill:#ff0000;fill-opacity:1;stroke-width:0.264583"
       id="circle2615"
       cx="22.882944"
       cy="24.391277"
       r="3.96875"
       inkscape:label="TWO" /><circle
       style="display:inline;opacity:1;fill:#00ff00;fill-opacity:1;stroke-width:0.264583"
       id="circle2617"
       cx="22.882944"
       cy="98.133545"
       r="3.96875"
       inkscape:label="FOUR" /></g><g
     inkscape:groupmode="layer"
     id="layer4"
     inkscape:label="ui components" /><g
     inkscape:groupmode="layer"
     id="layer6"
     inkscape:label="text"
     style="display:none"><text
       xml:space="preserve"
       style="font-size:8.46667px;line-height:1;font-family:sans-serif;-inkscape-font-specification:sans-serif;text-align:center;text-decoration:none;text-decoration-line:none;text-decoration-color:#000000;letter-spacing:0px;word-spacing:0px;text-anchor:middle;fill:#f2f2f2;stroke-width:0.264583;stop-color:#000000"
       x="15.090895"
       y="9.5510807"
       id="text2190"><tspan
         sodipodi:role="line"
         id="tspan2188"
         x="15.090895"
         y="9.5510807"
         style="font-style:normal;font-variant:normal;font-weight:normal;font-stretch:normal;font-size:8.46667px;font-family:Kirsty;-inkscape-font-specification:Kirsty;fill:#f2f2f2;stroke-width:0.264583">MIX</tspan></text><text
       xml:space="preserve"
       id="text1044"
       style="font-size:2.82222px;line-height:1;font-family:sans-serif;-inkscape-font-specification:sans-serif;text-align:center;text-decoration:none;text-decoration-line:none;text-decoration-color:#000000;letter-spacing:0px;word-spacing:0px;white-space:pre;shape-inside:url(#rect1046);display:inline;fill:#000000;stroke-width:0.264583;stop-color:#000000" /><g
       id="g2426"
       transform="translate(0,-8.9958338)"><text
         xml:space="preserve"
         style="font-size:3.175px;fill:#f2f2f2;stroke-width:0.264583"
         x="21.851999"
         y="25.5695"
         id="text2392"><tspan
           sodipodi:role="line"
           id="tspan2390"
           style="stroke-width:0.264583"
           x="21.851999"
           y="25.5695">2</tspan></text><text
         xml:space="preserve"
         style="font-size:3.175px;fill:#f2f2f2;stroke-width:0.264583"
         x="6.5674028"
         y="45.337543"
         id="text2396"><tspan
           sodipodi:role="line"
           id="tspan2394"
           style="stroke-width:0.264583"
           x="6.5674028"
           y="45.337543">3</tspan></text><text
         xml:space="preserve"
         style="font-size:3.175px;fill:#f2f2f2;stroke-width:0.264583"
         x="21.890757"
         y="45.337543"
         id="text2400"><tspan
           sodipodi:role="line"
           id="tspan2398"
           style="stroke-width:0.264583"
           x="21.890757"
           y="45.337543">4</tspan></text><text
         xml:space="preserve"
         style="font-size:3.175px;fill:#f2f2f2;stroke-width:0.264583"
         x="6.5449238"
         y="65.105583"
         id="text2404"><tspan
           sodipodi:role="line"
           id="tspan2402"
           style="stroke-width:0.264583"
           x="6.5449238"
           y="65.105583">5</tspan></text><text
         xml:space="preserve"
         style="font-size:3.175px;fill:#f2f2f2;stroke-width:0.264583"
         x="6.5309711"
         y="25.549345"
         id="text2408"><tspan
           sodipodi:role="line"
           id="tspan2406"
           style="stroke-width:0.264583"
           x="6.5309711"
           y="25.549345">1</tspan></text><text
         xml:space="preserve"
         style="font-size:3.175px;fill:#f2f2f2;stroke-width:0.264583"
         x="19.404087"
         y="65.105583"
         id="text2412"><tspan
           sodipodi:role="line"
           id="tspan2410"
           style="stroke-width:0.264583"
           x="19.404087"
           y="65.105583">OUT</tspan></text></g><g
       id="g2478"
       transform="translate(0,-6.879167)"><text
         xml:space="preserve"
         style="font-size:3.175px;fill:#f2f2f2;stroke-width:0.264583"
         x="21.851999"
         y="84.273926"
         id="text2430"><tspan
           sodipodi:role="line"
           id="tspan2428"
           style="stroke-width:0.264583"
           x="21.851999"
           y="84.273926">2</tspan></text><text
         xml:space="preserve"
         style="font-size:3.175px;fill:#f2f2f2;stroke-width:0.264583"
         x="6.5674028"
         y="99.287735"
         id="text2434"><tspan
           sodipodi:role="line"
           id="tspan2432"
           style="stroke-width:0.264583"
           x="6.5674028"
           y="99.287735">3</tspan></text><text
         xml:space="preserve"
         style="font-size:3.175px;fill:#f2f2f2;stroke-width:0.264583"
         x="21.890757"
         y="99.287735"
         id="text2438"><tspan
           sodipodi:role="line"
           id="tspan2436"
           style="stroke-width:0.264583"
           x="21.890757"
           y="99.287735">4</tspan></text><text
         xml:space="preserve"
         style="font-size:3.175px;fill:#f2f2f2;stroke-width:0.264583"
         x="6.5449238"
         y="114.30156"
         id="text2442"><tspan
           sodipodi:role="line"
           id="tspan2440"
           style="stroke-width:0.264583"
           x="6.5449238"
           y="114.30156">5</tspan></text><text
         xml:space="preserve"
         style="font-size:3.175px;fill:#f2f2f2;stroke-width:0.264583"
         x="6.5309711"
         y="84.253769"
         id="text2446"><tspan
           sodipodi:role="line"
           id="tspan2444"
           style="stroke-width:0.264583"
           x="6.5309711"
           y="84.253769">1</tspan></text><text
         xml:space="preserve"
         style="font-size:3.175px;fill:#f2f2f2;stroke-width:0.264583"
         x="19.404087"
         y="114.32558"
         id="text2450"><tspan
           sodipodi:role="line"
           id="tspan2448"
           style="stroke-width:0.264583"
           x="19.404087"
           y="114.32558">OUT</tspan></text></g></g><g
     inkscape:groupmode="layer"
     id="layer7"
     inkscape:label="text path"
     style="display:inline"><g
       id="text1417"
       style="font-size:2.82222px;line-height:1;font-family:sans-serif;-inkscape-font-specification:sans-serif;text-align:center;text-decoration:none;text-decoration-line:none;text-decoration-color:#000000;letter-spacing:0px;word-spacing:0px;text-anchor:middle;white-space:pre;shape-inside:url(#rect1431);display:inline;fill:#000000;stroke-width:0.264583;stop-color:#000000" /><g
       id="g2508"
       transform="translate(0,-8.9958339)"
       style="display:inline"><g
         aria-label="2"
         id="text2486"
         style="font-size:3.175px;fill:#f2f2f2;stroke-width:0.264583"><path
           d="m 23.664292,25.5695 h -1.562696 v -0.324011 q 0.162781,-0.139527 0.325562,-0.279053 0.164331,-0.139526 0.305408,-0.277502 0.297656,-0.288355 0.407727,-0.457337 0.110071,-0.170532 0.110071,-0.367419 0,-0.179834 -0.119373,-0.280603 -0.117822,-0.10232 -0.330212,-0.10232 -0.141077,0 -0.305408,0.04961 -0.164331,0.04961 -0.320911,0.151928 h -0.0155 v -0.325561 q 0.110071,-0.05426 0.293006,-0.09922 0.184485,-0.04496 0.356567,-0.04496 0.355017,0 0.556555,0.172082 0.201538,0.170532 0.201538,0.463538 0,0.131775 -0.03411,0.246496 -0.03256,0.113172 -0.09767,0.215491 -0.06046,0.09612 -0.142627,0.189136 -0.08062,0.09302 -0.196887,0.206189 -0.165881,0.162781 -0.342615,0.31626 -0.176733,0.151928 -0.330212,0.282153 h 1.241785 z"
           id="path2586" /></g><g
         aria-label="3"
         id="text2490"
         style="font-size:3.175px;fill:#f2f2f2;stroke-width:0.264583"><path
           d="m 8.1766069,44.225983 q 0.074414,0.06666 0.1224732,0.167432 0.048059,0.100769 0.048059,0.260449 0,0.15813 -0.057361,0.289905 -0.057361,0.131775 -0.1612305,0.229443 -0.1162719,0.108521 -0.2744018,0.161231 -0.1565796,0.05116 -0.344165,0.05116 -0.1922364,0 -0.3782715,-0.04651 -0.1860352,-0.04496 -0.3054077,-0.09922 v -0.324011 h 0.023254 q 0.1317749,0.08682 0.3100585,0.144177 0.1782837,0.05736 0.3441651,0.05736 0.097668,0 0.2077392,-0.03256 0.1100708,-0.03256 0.1782837,-0.09612 0.071314,-0.06821 0.1054199,-0.150379 0.035657,-0.08217 0.035657,-0.207739 0,-0.124024 -0.040308,-0.204639 -0.038757,-0.08216 -0.1085205,-0.128674 -0.069763,-0.04806 -0.168982,-0.06511 -0.099219,-0.0186 -0.2139404,-0.0186 H 7.3596025 V 43.956232 H 7.468123 q 0.2356446,0 0.3751709,-0.09767 0.1410767,-0.09922 0.1410767,-0.288354 0,-0.08372 -0.035657,-0.145728 -0.035657,-0.06356 -0.099219,-0.10387 -0.066663,-0.04031 -0.1426269,-0.05581 -0.075964,-0.0155 -0.1720826,-0.0155 -0.1472778,0 -0.3131591,0.05271 -0.1658814,0.05271 -0.3131592,0.148828 h -0.015503 v -0.324011 q 0.1100708,-0.05426 0.2930053,-0.09922 0.1844849,-0.04651 0.3565674,-0.04651 0.1689819,0 0.2976562,0.03101 0.1286744,0.03101 0.232544,0.09922 0.1116211,0.07441 0.1689819,0.179834 0.057361,0.10542 0.057361,0.246496 0,0.192237 -0.1364258,0.336414 -0.1348755,0.142627 -0.3193604,0.179834 v 0.0217 q 0.074414,0.0124 0.1705323,0.05271 0.096118,0.03876 0.1627807,0.09767 z"
           id="path2589" /></g><g
         aria-label="4"
         id="text2494"
         style="font-size:3.175px;fill:#f2f2f2;stroke-width:0.264583"><path
           d="m 23.755759,44.687971 h -0.342615 v 0.649572 h -0.297656 v -0.649572 h -1.105359 v -0.356568 l 1.117761,-1.302246 h 0.285254 v 1.410767 h 0.342615 z m -0.640271,-0.248047 v -1.041797 l -0.894519,1.041797 z"
           id="path2592" /></g><g
         aria-label="5"
         id="text2498"
         style="font-size:3.175px;fill:#f2f2f2;stroke-width:0.264583"><path
           d="m 8.3386127,64.372295 q 0,0.16123 -0.058911,0.308508 -0.058911,0.147278 -0.1612305,0.248047 -0.1116211,0.10852 -0.2666504,0.167431 -0.153479,0.05736 -0.3565673,0.05736 -0.1891358,0 -0.3643189,-0.04031 -0.1751831,-0.03876 -0.2961059,-0.09457 v -0.327112 h 0.021704 q 0.127124,0.08062 0.2976562,0.137976 0.1705322,0.05581 0.3348633,0.05581 0.1100708,0 0.2123901,-0.03101 0.1038696,-0.03101 0.1844849,-0.108521 0.068213,-0.06666 0.1023193,-0.15968 0.035657,-0.09302 0.035657,-0.215491 0,-0.119372 -0.041858,-0.201538 -0.040308,-0.08217 -0.1131713,-0.131775 -0.080615,-0.05891 -0.1968872,-0.08216 -0.1147217,-0.02481 -0.2573487,-0.02481 -0.1364258,0 -0.2635498,0.0186 -0.1255737,0.0186 -0.217041,0.03721 v -1.189075 h 1.3890625 v 0.271301 H 7.2332539 v 0.613916 q 0.066662,-0.0062 0.1364257,-0.0093 0.069763,-0.0031 0.1209229,-0.0031 0.1875854,0 0.3286621,0.03256 0.1410766,0.03101 0.2588989,0.111621 0.1240234,0.08527 0.1922363,0.220142 0.068213,0.134875 0.068213,0.337964 z"
           id="path2595" /></g><g
         aria-label="1"
         id="text2502"
         style="font-size:3.175px;fill:#f2f2f2;stroke-width:0.264583"><path
           d="M 8.2114886,25.549345 H 6.9619525 V 25.3137 H 7.4425433 V 23.766508 H 6.9619525 v -0.21084 q 0.097668,0 0.2092895,-0.0155 0.1116211,-0.01705 0.168982,-0.04806 0.071313,-0.03876 0.1116211,-0.09767 0.041858,-0.06046 0.048059,-0.161231 H 7.7401995 V 25.3137 h 0.4712891 z"
           id="path2598" /></g><g
         aria-label="OUT"
         id="text2506"
         style="font-size:3.175px;fill:#f2f2f2;stroke-width:0.264583"><path
           d="m 21.434971,63.062297 q 0.141076,0.155029 0.215491,0.379822 0.07596,0.224792 0.07596,0.510046 0,0.285254 -0.07752,0.511597 -0.07596,0.224792 -0.21394,0.375171 -0.142627,0.156579 -0.337964,0.235644 -0.193787,0.07906 -0.443384,0.07906 -0.243396,0 -0.443384,-0.08062 -0.198437,-0.08061 -0.337963,-0.234094 -0.139527,-0.153479 -0.215491,-0.376721 -0.07441,-0.223243 -0.07441,-0.510047 0,-0.282153 0.07441,-0.505395 0.07441,-0.224793 0.217041,-0.384473 0.136426,-0.151929 0.337964,-0.232544 0.203088,-0.08061 0.441833,-0.08061 0.248047,0 0.444934,0.08216 0.198438,0.08062 0.336414,0.230994 z m -0.02791,0.889868 q 0,-0.449585 -0.201539,-0.692981 -0.201538,-0.244946 -0.550354,-0.244946 -0.351916,0 -0.553454,0.244946 -0.199988,0.243396 -0.199988,0.692981 0,0.454236 0.204639,0.696082 0.204638,0.240295 0.548803,0.240295 0.344166,0 0.547254,-0.240295 0.204639,-0.241846 0.204639,-0.696082 z"
           id="path2601" /><path
           d="m 23.951096,64.178508 q 0,0.251147 -0.05581,0.438733 -0.05426,0.186035 -0.179834,0.310059 -0.119373,0.117822 -0.279053,0.172082 -0.15968,0.05426 -0.37207,0.05426 -0.217041,0 -0.378272,-0.05736 -0.16123,-0.05736 -0.271301,-0.168981 -0.125574,-0.127125 -0.181384,-0.306959 -0.05426,-0.179833 -0.05426,-0.441833 v -1.381311 h 0.306958 v 1.396814 q 0,0.187585 0.0248,0.296106 0.02635,0.10852 0.08682,0.196887 0.06821,0.100769 0.184484,0.151929 0.117823,0.05116 0.282154,0.05116 0.165881,0 0.282153,-0.04961 0.116272,-0.05116 0.186035,-0.153479 0.06046,-0.08837 0.08527,-0.201538 0.02636,-0.114722 0.02636,-0.283704 v -1.404565 h 0.306958 z"
           id="path2603" /><path
           d="m 26.183518,63.070049 h -0.824756 v 2.035534 h -0.306958 v -2.035534 h -0.824756 v -0.272852 h 1.95647 z"
           id="path2605" /></g></g><g
       aria-label="MIX"
       id="text2482"
       style="font-size:8.46667px;line-height:1;-inkscape-font-specification:sans-serif;text-align:center;letter-spacing:0px;word-spacing:0px;text-anchor:middle;display:inline;fill:#f2f2f2;stroke-width:0.264583;stop-color:#000000"><path
         d="m 14.113008,3.6244117 -0.4318,0.846667 v 4.233335 l 0.423333,0.846667 h -1.778 l 0.423333,-0.846667 v -2.616201 l 0.06773,-0.770467 -1.0922,4.233335 H 10.87874 L 9.7865396,5.1399456 9.8712063,5.9612126 V 8.7044137 L 10.29454,9.5510807 H 8.5165391 L 8.9398726,8.7044137 V 4.4710787 L 8.5165391,3.6244117 h 2.2013339 l 0.635001,2.590801 0.127,0.7620003 0.127,-0.7281336 0.719667,-2.6246677 z"
         style="font-family:Kirsty;-inkscape-font-specification:Kirsty"
         id="path2608" /><path
         d="m 16.720729,3.6244117 -0.4318,0.846667 v 4.233335 l 0.423334,0.846667 h -2.116668 l 0.423334,-0.846667 v -4.233335 l -0.423334,-0.846667 z"
         style="font-family:Kirsty;-inkscape-font-specification:Kirsty"
         id="path2610" /><path
         d="m 19.142186,3.6244117 -0.169334,0.846667 0.287867,0.5757335 0.169333,0.3810002 0.160867,-0.3640668 0.3048,-0.5926669 -0.169333,-0.846667 h 1.871134 l -0.6858,0.846667 -1.016001,1.794934 1.363134,2.438401 0.677334,0.846667 h -2.116668 l 0.169334,-0.846667 -0.524934,-0.9906004 -0.160867,-0.3640668 -0.169333,0.3810001 -0.508,0.9736671 0.169333,0.846667 h -1.862667 l 0.677333,-0.846667 1.227667,-2.2013342 -1.134533,-2.0320008 -0.685801,-0.846667 z"
         style="font-family:Kirsty;-inkscape-font-specification:Kirsty"
         id="path2612" /></g><g
       id="g2534"
       transform="translate(0,-6.8791669)"
       style="display:inline"><g
         aria-label="2"
         id="text2512"
         style="font-size:3.175px;fill:#f2f2f2;stroke-width:0.264583"><path
           d="m 23.664292,84.273926 h -1.562696 v -0.324011 q 0.162781,-0.139527 0.325562,-0.279053 0.164331,-0.139527 0.305408,-0.277503 0.297656,-0.288354 0.407727,-0.457336 0.110071,-0.170532 0.110071,-0.367419 0,-0.179834 -0.119373,-0.280603 -0.117822,-0.10232 -0.330212,-0.10232 -0.141077,0 -0.305408,0.04961 -0.164331,0.04961 -0.320911,0.151928 h -0.0155 v -0.325561 q 0.110071,-0.05426 0.293006,-0.09922 0.184485,-0.04496 0.356567,-0.04496 0.355017,0 0.556555,0.172082 0.201538,0.170532 0.201538,0.463538 0,0.131775 -0.03411,0.246496 -0.03256,0.113172 -0.09767,0.215491 -0.06046,0.09612 -0.142627,0.189136 -0.08062,0.09302 -0.196887,0.206189 -0.165881,0.16278 -0.342615,0.316259 -0.176733,0.151929 -0.330212,0.282154 h 1.241785 z"
           id="path2564" /></g><g
         aria-label="3"
         id="text2516"
         style="font-size:3.175px;fill:#f2f2f2;stroke-width:0.264583"><path
           d="m 8.1766069,98.176175 q 0.074414,0.06666 0.1224732,0.167432 0.048059,0.100769 0.048059,0.260449 0,0.15813 -0.057361,0.289905 -0.057361,0.131774 -0.1612305,0.229443 -0.1162719,0.10852 -0.2744018,0.16123 -0.1565796,0.05116 -0.344165,0.05116 -0.1922364,0 -0.3782715,-0.04651 -0.1860352,-0.04496 -0.3054077,-0.09922 v -0.324012 h 0.023254 q 0.1317749,0.08682 0.3100585,0.144178 0.1782837,0.05736 0.3441651,0.05736 0.097668,0 0.2077392,-0.03256 0.1100708,-0.03256 0.1782837,-0.09612 0.071314,-0.06821 0.1054199,-0.150378 0.035657,-0.08217 0.035657,-0.20774 0,-0.124023 -0.040308,-0.204638 -0.038757,-0.08217 -0.1085205,-0.128675 -0.069763,-0.04806 -0.168982,-0.06511 -0.099219,-0.0186 -0.2139404,-0.0186 H 7.3596025 V 97.906424 H 7.468123 q 0.2356446,0 0.3751709,-0.09767 0.1410767,-0.09922 0.1410767,-0.288355 0,-0.08372 -0.035657,-0.145728 -0.035657,-0.06356 -0.099219,-0.103869 -0.066663,-0.04031 -0.1426269,-0.05581 -0.075964,-0.0155 -0.1720826,-0.0155 -0.1472778,0 -0.3131591,0.05271 -0.1658814,0.05271 -0.3131592,0.148828 h -0.015503 v -0.324011 q 0.1100708,-0.05426 0.2930053,-0.09922 0.1844849,-0.04651 0.3565674,-0.04651 0.1689819,0 0.2976562,0.03101 0.1286744,0.03101 0.232544,0.09922 0.1116211,0.07441 0.1689819,0.179834 0.057361,0.10542 0.057361,0.246497 0,0.192236 -0.1364258,0.336413 -0.1348755,0.142627 -0.3193604,0.179834 v 0.0217 q 0.074414,0.0124 0.1705323,0.05271 0.096118,0.03876 0.1627807,0.09767 z"
           id="path2567" /></g><g
         aria-label="4"
         id="text2520"
         style="font-size:3.175px;fill:#f2f2f2;stroke-width:0.264583"><path
           d="m 23.755759,98.638162 h -0.342615 v 0.649573 h -0.297656 v -0.649573 h -1.105359 v -0.356567 l 1.117761,-1.302246 h 0.285254 v 1.410766 h 0.342615 z m -0.640271,-0.248047 v -1.041796 l -0.894519,1.041796 z"
           id="path2570" /></g><g
         aria-label="5"
         id="text2524"
         style="font-size:3.175px;fill:#f2f2f2;stroke-width:0.264583"><path
           d="m 8.3386127,113.56827 q 0,0.16123 -0.058911,0.30851 -0.058911,0.14728 -0.1612305,0.24805 -0.1116211,0.10852 -0.2666504,0.16743 -0.153479,0.0574 -0.3565673,0.0574 -0.1891358,0 -0.3643189,-0.0403 -0.1751831,-0.0388 -0.2961059,-0.0946 v -0.32711 h 0.021704 q 0.127124,0.0806 0.2976562,0.13798 0.1705322,0.0558 0.3348633,0.0558 0.1100708,0 0.2123901,-0.031 0.1038696,-0.031 0.1844849,-0.10852 0.068213,-0.0667 0.1023193,-0.15968 0.035657,-0.093 0.035657,-0.21549 0,-0.11937 -0.041858,-0.20154 -0.040308,-0.0822 -0.1131713,-0.13177 -0.080615,-0.0589 -0.1968872,-0.0822 -0.1147217,-0.0248 -0.2573487,-0.0248 -0.1364258,0 -0.2635498,0.0186 -0.1255737,0.0186 -0.217041,0.0372 v -1.18908 h 1.3890625 v 0.2713 H 7.2332539 v 0.61392 q 0.066662,-0.006 0.1364257,-0.009 0.069763,-0.003 0.1209229,-0.003 0.1875854,0 0.3286621,0.0326 0.1410766,0.031 0.2588989,0.11163 0.1240234,0.0853 0.1922363,0.22014 0.068213,0.13487 0.068213,0.33796 z"
           id="path2573" /></g><g
         aria-label="1"
         id="text2528"
         style="font-size:3.175px;fill:#f2f2f2;stroke-width:0.264583"><path
           d="M 8.2114886,84.253769 H 6.9619525 V 84.018124 H 7.4425433 V 82.470932 H 6.9619525 v -0.21084 q 0.097668,0 0.2092895,-0.0155 0.1116211,-0.01705 0.168982,-0.04806 0.071313,-0.03876 0.1116211,-0.09767 0.041858,-0.06046 0.048059,-0.161231 h 0.2402954 v 2.080493 h 0.4712891 z"
           id="path2576" /></g><g
         aria-label="OUT"
         id="text2532"
         style="font-size:3.175px;fill:#f2f2f2;stroke-width:0.264583"><path
           d="m 21.434971,112.28229 q 0.141076,0.15503 0.215491,0.37982 0.07596,0.22479 0.07596,0.51005 0,0.28525 -0.07752,0.5116 -0.07596,0.22479 -0.21394,0.37517 -0.142627,0.15658 -0.337964,0.23564 -0.193787,0.0791 -0.443384,0.0791 -0.243396,0 -0.443384,-0.0806 -0.198437,-0.0806 -0.337963,-0.23409 -0.139527,-0.15348 -0.215491,-0.37672 -0.07441,-0.22325 -0.07441,-0.51005 0,-0.28215 0.07441,-0.5054 0.07441,-0.22479 0.217041,-0.38447 0.136426,-0.15193 0.337964,-0.23254 0.203088,-0.0806 0.441833,-0.0806 0.248047,0 0.444934,0.0822 0.198438,0.0806 0.336414,0.23099 z m -0.02791,0.88987 q 0,-0.44959 -0.201539,-0.69298 -0.201538,-0.24495 -0.550354,-0.24495 -0.351916,0 -0.553454,0.24495 -0.199988,0.24339 -0.199988,0.69298 0,0.45423 0.204639,0.69608 0.204638,0.2403 0.548803,0.2403 0.344166,0 0.547254,-0.2403 0.204639,-0.24185 0.204639,-0.69608 z"
           id="path2579" /><path
           d="m 23.951096,113.3985 q 0,0.25115 -0.05581,0.43873 -0.05426,0.18604 -0.179834,0.31006 -0.119373,0.11783 -0.279053,0.17209 -0.15968,0.0543 -0.37207,0.0543 -0.217041,0 -0.378272,-0.0574 -0.16123,-0.0574 -0.271301,-0.16899 -0.125574,-0.12712 -0.181384,-0.30695 -0.05426,-0.17984 -0.05426,-0.44184 v -1.38131 h 0.306958 v 1.39681 q 0,0.18759 0.0248,0.29611 0.02635,0.10852 0.08682,0.19689 0.06821,0.10077 0.184484,0.15193 0.117823,0.0512 0.282154,0.0512 0.165881,0 0.282153,-0.0496 0.116272,-0.0512 0.186035,-0.15348 0.06046,-0.0884 0.08527,-0.20154 0.02636,-0.11472 0.02636,-0.2837 v -1.40457 h 0.306958 z"
           id="path2581" /><path
           d="m 26.183518,112.29004 h -0.824756 v 2.03554 h -0.306958 v -2.03554 h -0.824756 v -0.27285 h 1.95647 z"
           id="path2583" /></g></g></g></svg>
