<?xml version="1.0" encoding="UTF-8" standalone="no"?>
<svg
   xmlns:osb="http://www.openswatchbook.org/uri/2009/osb"
   xmlns:dc="http://purl.org/dc/elements/1.1/"
   xmlns:cc="http://creativecommons.org/ns#"
   xmlns:rdf="http://www.w3.org/1999/02/22-rdf-syntax-ns#"
   xmlns:svg="http://www.w3.org/2000/svg"
   xmlns="http://www.w3.org/2000/svg"
   xmlns:xlink="http://www.w3.org/1999/xlink"
   xmlns:sodipodi="http://sodipodi.sourceforge.net/DTD/sodipodi-0.dtd"
   xmlns:inkscape="http://www.inkscape.org/namespaces/inkscape"
   inkscape:version="1.0 (ba04d7031c, 2020-05-07)"
   sodipodi:docname="PolyShiftRegister.svg"
   id="svg4541"
   version="1.1"
   viewBox="0 0 15.24 128.50002"
   height="128.5mm"
   width="15.24mm">
  <title
     id="title4354">SSPO 3HP template</title>
  <defs
     id="defs4535">
    <linearGradient
       osb:paint="solid"
       id="linearGradient1761">
      <stop
         id="stop1759"
         offset="0"
         style="stop-color:#ffff00;stop-opacity:1;" />
    </linearGradient>
    <linearGradient
       osb:paint="solid"
       id="linearGradient1755">
      <stop
         id="stop1753"
         offset="0"
         style="stop-color:#0000ff;stop-opacity:1;" />
    </linearGradient>
    <linearGradient
       osb:paint="solid"
       id="linearGradient1749">
      <stop
         id="stop1747"
         offset="0"
         style="stop-color:#00ff00;stop-opacity:1;" />
    </linearGradient>
    <linearGradient
       osb:paint="solid"
       id="linearGradient1743">
      <stop
         id="stop1741"
         offset="0"
         style="stop-color:#ff0000;stop-opacity:1;" />
    </linearGradient>
    <linearGradient
       osb:paint="solid"
       id="linearGradient1737">
      <stop
         id="stop1735"
         offset="0"
         style="stop-color:#ff00ff;stop-opacity:1;" />
    </linearGradient>
    <linearGradient
       osb:paint="solid"
       id="linearGradient1686">
      <stop
         id="stop1684"
         offset="0"
         style="stop-color:#000000;stop-opacity:1;" />
    </linearGradient>
    <linearGradient
       osb:paint="solid"
       id="linearGradient5500">
      <stop
         id="stop5498"
         offset="0"
         style="stop-color:#f0f0f0;stop-opacity:1;" />
    </linearGradient>
    <linearGradient
       osb:paint="solid"
       id="linearGradient5494">
      <stop
         id="stop5492"
         offset="0"
         style="stop-color:#cdde87;stop-opacity:1;" />
    </linearGradient>
    <linearGradient
       gradientTransform="translate(-175.91565,-239.06438)"
       gradientUnits="userSpaceOnUse"
       y2="444.60522"
       x2="-867.84308"
       y1="444.60522"
       x1="-906.18518"
       id="linearGradient5496"
       xlink:href="#linearGradient5494"
       inkscape:collect="always" />
    <linearGradient
       gradientTransform="matrix(0.05150635,0,0,0.27616015,57.827317,53.733312)"
       gradientUnits="userSpaceOnUse"
       y2="269.14816"
       x2="-697.97778"
       y1="269.14816"
       x1="-993.65643"
       id="linearGradient5502"
       xlink:href="#linearGradient5500"
       inkscape:collect="always" />
    <linearGradient
       y2="444.60522"
       x2="-867.84308"
       y1="444.60522"
       x1="-906.18518"
       gradientTransform="matrix(0.27602379,0,0,0.27602379,259.59312,42.123635)"
       gradientUnits="userSpaceOnUse"
       id="linearGradient1231"
       xlink:href="#linearGradient5494"
       inkscape:collect="always" />
  </defs>
  <sodipodi:namedview
     inkscape:snap-others="false"
     inkscape:snap-nodes="false"
     inkscape:snap-bbox-edge-midpoints="true"
     inkscape:document-rotation="0"
     showborder="true"
     inkscape:snap-global="true"
     inkscape:bbox-nodes="true"
     inkscape:bbox-paths="true"
     inkscape:snap-bbox="true"
     units="mm"
     inkscape:window-maximized="1"
     inkscape:window-y="27"
     inkscape:window-x="0"
     inkscape:window-height="948"
     inkscape:window-width="1920"
     fit-margin-bottom="0"
     fit-margin-right="0"
     fit-margin-left="0"
     fit-margin-top="0"
     showgrid="true"
     inkscape:current-layer="layer1"
     inkscape:document-units="mm"
     inkscape:cy="262.46196"
     inkscape:cx="-223.39335"
     inkscape:zoom="1.4142136"
     inkscape:pageshadow="2"
     inkscape:pageopacity="0.0"
     borderopacity="1.0"
     bordercolor="#666666"
     pagecolor="#ffffff"
     id="base">
    <inkscape:grid
       id="grid5963"
       type="xygrid" />
  </sodipodi:namedview>
  <metadata
     id="metadata4538">
    <rdf:RDF>
      <cc:Work
         rdf:about="">
        <dc:format>image/svg+xml</dc:format>
        <dc:type
           rdf:resource="http://purl.org/dc/dcmitype/StillImage" />
        <dc:title>SSPO 3HP template</dc:title>
        <dc:identifier>SSPO 3HP template</dc:identifier>
      </cc:Work>
    </rdf:RDF>
  </metadata>
  <g
     style="display:inline"
     transform="translate(-6.6477068,-63.816955)"
     id="layer1"
     inkscape:groupmode="layer"
     inkscape:label="Layer 1">
    <path
       inkscape:export-ydpi="100.2962"
       inkscape:export-xdpi="100.2962"
       inkscape:export-filename="/home/vortico/src/cpp/VCV/Rack/plugins/Fundamental/res/Delay.png"
       inkscape:connector-curvature="0"
       id="path25061"
       d="M 6.6477068,63.816955 H 21.877034 V 192.30567 H 6.6477068 Z m 0,0"
       style="fill:url(#linearGradient5502);fill-opacity:1;fill-rule:nonzero;stroke:none;stroke-width:0.182863" />
    <rect
       y="190.64796"
       x="6.6477017"
       height="1.6670943"
       width="15.237206"
       id="rect5276"
       style="fill:#cdde87;fill-opacity:1;stroke-width:0.178723" />
    <g
       aria-label="Studio Six Plus One"
       style="font-style:normal;font-variant:normal;font-weight:bold;font-stretch:normal;font-size:12.7807px;line-height:1.25;font-family:sans-serif;-inkscape-font-specification:'sans-serif Bold';letter-spacing:0px;word-spacing:0px;fill:#000000;fill-opacity:1;stroke:none;stroke-width:0.844236"
       id="text5967-7-1-3"
       transform="matrix(0,-0.27602379,0.3524041,0,-123.86376,-70.222618)">
      <path
         d="m -938.94801,379.11774 q 0,0.32576 -0.15352,0.64403 -0.14977,0.31827 -0.42311,0.53918 -0.29955,0.23964 -0.70019,0.37444 -0.39691,0.13479 -0.95856,0.13479 -0.60284,0 -1.08586,-0.11233 -0.47927,-0.11233 -0.97727,-0.33324 v -0.9286 h 0.0524 q 0.42311,0.35197 0.97727,0.54293 0.55417,0.19096 1.04093,0.19096 0.68896,0 1.07088,-0.25836 0.38567,-0.25836 0.38567,-0.68896 0,-0.37069 -0.18347,-0.54667 -0.17973,-0.17599 -0.55042,-0.27334 -0.28083,-0.0749 -0.61033,-0.12356 -0.32576,-0.0487 -0.6927,-0.12357 -0.74138,-0.15726 -1.10084,-0.53544 -0.35571,-0.38192 -0.35571,-0.99225 0,-0.70019 0.5916,-1.14577 0.59161,-0.44932 1.50149,-0.44932 0.58786,0 1.07837,0.11233 0.49051,0.11233 0.86869,0.27708 v 0.87618 h -0.0524 q -0.31827,-0.2696 -0.83874,-0.44558 -0.51672,-0.17973 -1.05965,-0.17973 -0.59535,0 -0.95855,0.24713 -0.35946,0.24712 -0.35946,0.63654 0,0.34822 0.17973,0.54667 0.17973,0.19845 0.6328,0.30329 0.23963,0.0524 0.68147,0.12731 0.44183,0.0749 0.74887,0.15352 0.62156,0.16475 0.93608,0.498 0.31453,0.33324 0.31453,0.93234 z"
         style="font-style:normal;font-variant:normal;font-weight:normal;font-stretch:normal;font-size:7.66842px;font-family:sans-serif;-inkscape-font-specification:sans-serif;stroke-width:0.844236"
         id="path6170"
         inkscape:connector-curvature="0" />
      <path
         d="m -935.64175,380.67164 q -0.19845,0.0524 -0.43435,0.0861 -0.23215,0.0337 -0.41562,0.0337 -0.64028,0 -0.97353,-0.34448 -0.33325,-0.34448 -0.33325,-1.10458 v -2.22414 h -0.47553 v -0.59161 h 0.47553 v -1.20193 h 0.70394 v 1.20193 h 1.45281 v 0.59161 h -1.45281 v 1.90587 q 0,0.3295 0.015,0.51672 0.015,0.18347 0.10484,0.34448 0.0824,0.14977 0.22466,0.22092 0.14603,0.0674 0.44183,0.0674 0.17224,0 0.35946,-0.0487 0.18722,-0.0524 0.26959,-0.0861 h 0.0375 z"
         style="font-style:normal;font-variant:normal;font-weight:normal;font-stretch:normal;font-size:7.66842px;font-family:sans-serif;-inkscape-font-specification:sans-serif;stroke-width:0.844236"
         id="path6172"
         inkscape:connector-curvature="0" />
      <path
         d="m -931.32078,380.70909 h -0.70394 v -0.4643 q -0.35571,0.28082 -0.68147,0.4306 -0.32575,0.14977 -0.71891,0.14977 -0.65901,0 -1.02595,-0.40064 -0.36695,-0.40439 -0.36695,-1.18322 v -2.71465 h 0.70394 v 2.38141 q 0,0.31826 0.0299,0.54667 0.03,0.22466 0.12731,0.38567 0.1011,0.16475 0.26211,0.23964 0.161,0.0749 0.46804,0.0749 0.27334,0 0.59535,-0.14228 0.32576,-0.14229 0.60658,-0.3632 v -3.12279 h 0.70394 z"
         style="font-style:normal;font-variant:normal;font-weight:normal;font-stretch:normal;font-size:7.66842px;font-family:sans-serif;-inkscape-font-specification:sans-serif;stroke-width:0.844236"
         id="path6174"
         inkscape:connector-curvature="0" />
      <path
         d="m -926.54299,380.70909 h -0.70394 V 380.271 q -0.30329,0.2621 -0.63279,0.40813 -0.32951,0.14603 -0.71517,0.14603 -0.74887,0 -1.19071,-0.57663 -0.43809,-0.57663 -0.43809,-1.59883 0,-0.5317 0.14978,-0.94732 0.15352,-0.41563 0.41188,-0.70769 0.25461,-0.28457 0.5916,-0.43434 0.34074,-0.14977 0.70394,-0.14977 0.3295,0 0.58412,0.0711 0.25461,0.0674 0.53544,0.21343 v -1.81227 h 0.70394 z m -0.70394,-1.0297 v -2.40013 q -0.28457,-0.1273 -0.50923,-0.17598 -0.22466,-0.0487 -0.49051,-0.0487 -0.59161,0 -0.92111,0.41188 -0.3295,0.41188 -0.3295,1.16824 0,0.74512 0.25461,1.13454 0.25462,0.38566 0.81627,0.38566 0.29955,0 0.60658,-0.13105 0.30704,-0.1348 0.57289,-0.34448 z"
         style="font-style:normal;font-variant:normal;font-weight:normal;font-stretch:normal;font-size:7.66842px;font-family:sans-serif;-inkscape-font-specification:sans-serif;stroke-width:0.844236"
         id="path6176"
         inkscape:connector-curvature="0" />
      <path
         d="m -924.40123,375.82646 h -0.7938 v -0.73015 h 0.7938 z m -0.0449,4.88263 h -0.70394 v -4.18244 h 0.70394 z"
         style="font-style:normal;font-variant:normal;font-weight:normal;font-stretch:normal;font-size:7.66842px;font-family:sans-serif;-inkscape-font-specification:sans-serif;stroke-width:0.844236"
         id="path6178"
         inkscape:connector-curvature="0" />
      <path
         d="m -919.48116,378.61974 q 0,1.02221 -0.5242,1.61381 -0.52421,0.59161 -1.40413,0.59161 -0.88741,0 -1.41162,-0.59161 -0.52047,-0.5916 -0.52047,-1.61381 0,-1.02221 0.52047,-1.61381 0.52421,-0.59535 1.41162,-0.59535 0.87992,0 1.40413,0.59535 0.5242,0.5916 0.5242,1.61381 z m -0.7264,0 q 0,-0.81252 -0.31827,-1.20568 -0.31827,-0.3969 -0.88366,-0.3969 -0.57289,0 -0.89116,0.3969 -0.31452,0.39316 -0.31452,1.20568 0,0.78631 0.31827,1.19445 0.31826,0.40439 0.88741,0.40439 0.56165,0 0.87992,-0.40065 0.32201,-0.40439 0.32201,-1.19819 z"
         style="font-style:normal;font-variant:normal;font-weight:normal;font-stretch:normal;font-size:7.66842px;font-family:sans-serif;-inkscape-font-specification:sans-serif;stroke-width:0.844236"
         id="path6180"
         inkscape:connector-curvature="0" />
      <path
         d="m -938.90682,389.6158 q 0,0.32576 -0.15352,0.64403 -0.14977,0.31827 -0.42311,0.53918 -0.29955,0.23964 -0.70019,0.37444 -0.3969,0.13479 -0.95855,0.13479 -0.60284,0 -1.08586,-0.11233 -0.47928,-0.11233 -0.97728,-0.33324 v -0.9286 h 0.0524 q 0.42311,0.35197 0.97728,0.54293 0.55416,0.19096 1.04093,0.19096 0.68895,0 1.07088,-0.25836 0.38567,-0.25836 0.38567,-0.68896 0,-0.37069 -0.18348,-0.54667 -0.17973,-0.17599 -0.55042,-0.27334 -0.28082,-0.0749 -0.61032,-0.12356 -0.32576,-0.0487 -0.69271,-0.12357 -0.74138,-0.15726 -1.10084,-0.53544 -0.35571,-0.38192 -0.35571,-0.99225 0,-0.70019 0.59161,-1.14577 0.5916,-0.44932 1.50148,-0.44932 0.58786,0 1.07837,0.11233 0.49051,0.11233 0.86869,0.27708 v 0.87618 h -0.0524 q -0.31827,-0.2696 -0.83873,-0.44558 -0.51672,-0.17973 -1.05965,-0.17973 -0.59536,0 -0.95856,0.24713 -0.35945,0.24712 -0.35945,0.63654 0,0.34822 0.17972,0.54667 0.17973,0.19845 0.6328,0.30329 0.23964,0.0524 0.68147,0.12731 0.44183,0.0749 0.74887,0.15352 0.62156,0.16475 0.93609,0.498 0.31452,0.33324 0.31452,0.93234 z"
         style="font-style:normal;font-variant:normal;font-weight:normal;font-stretch:normal;font-size:7.66842px;font-family:sans-serif;-inkscape-font-specification:sans-serif;stroke-width:0.844236"
         id="path6182"
         inkscape:connector-curvature="0" />
      <path
         d="m -937.01593,386.32452 h -0.7938 v -0.73015 h 0.7938 z m -0.0449,4.88263 h -0.70394 v -4.18244 h 0.70394 z"
         style="font-style:normal;font-variant:normal;font-weight:normal;font-stretch:normal;font-size:7.66842px;font-family:sans-serif;-inkscape-font-specification:sans-serif;stroke-width:0.844236"
         id="path6184"
         inkscape:connector-curvature="0" />
      <path
         d="m -932.03969,391.20715 h -0.88741 l -1.18696,-1.60633 -1.19444,1.60633 h -0.82001 l 1.63253,-2.0856 -1.61756,-2.09684 h 0.88741 l 1.17947,1.58012 1.18322,-1.58012 h 0.82375 l -1.64377,2.05939 z"
         style="font-style:normal;font-variant:normal;font-weight:normal;font-stretch:normal;font-size:7.66842px;font-family:sans-serif;-inkscape-font-specification:sans-serif;stroke-width:0.844236"
         id="path6186"
         inkscape:connector-curvature="0" />
      <path
         d="m -939.91312,398.65275 q 0,0.37069 -0.13105,0.68896 -0.12731,0.31453 -0.35945,0.54667 -0.28832,0.28832 -0.68148,0.43435 -0.39315,0.14228 -0.99225,0.14228 h -0.74138 v 2.07812 h -0.74138 v -5.57534 h 1.51272 q 0.50174,0 0.84996,0.0861 0.34823,0.0824 0.61782,0.26211 0.31827,0.21343 0.49051,0.5317 0.17598,0.31827 0.17598,0.80503 z m -0.77133,0.0187 q 0,-0.28831 -0.1011,-0.50174 -0.1011,-0.21343 -0.30703,-0.34822 -0.17973,-0.11608 -0.41188,-0.16476 -0.22841,-0.0524 -0.58038,-0.0524 h -0.73389 v 2.22789 h 0.62531 q 0.44932,0 0.73015,-0.0786 0.28082,-0.0824 0.45681,-0.25836 0.17598,-0.17973 0.24712,-0.37818 0.0749,-0.19845 0.0749,-0.44558 z"
         style="font-style:normal;font-variant:normal;font-weight:normal;font-stretch:normal;font-size:7.66842px;font-family:sans-serif;-inkscape-font-specification:sans-serif;stroke-width:0.844236"
         id="path6188"
         inkscape:connector-curvature="0" />
      <path
         d="m -938.27683,402.54313 h -0.70394 v -5.82621 h 0.70394 z"
         style="font-style:normal;font-variant:normal;font-weight:normal;font-stretch:normal;font-size:7.66842px;font-family:sans-serif;-inkscape-font-specification:sans-serif;stroke-width:0.844236"
         id="path6190"
         inkscape:connector-curvature="0" />
      <path
         d="m -933.40919,402.54313 h -0.70393 v -0.4643 q -0.35572,0.28082 -0.68148,0.4306 -0.32575,0.14977 -0.71891,0.14977 -0.659,0 -1.02595,-0.40064 -0.36695,-0.40439 -0.36695,-1.18322 v -2.71465 h 0.70394 v 2.38141 q 0,0.31826 0.03,0.54667 0.03,0.22466 0.1273,0.38567 0.1011,0.16475 0.26211,0.23964 0.161,0.0749 0.46804,0.0749 0.27334,0 0.59535,-0.14228 0.32576,-0.14229 0.60659,-0.3632 v -3.12279 h 0.70393 z"
         style="font-style:normal;font-variant:normal;font-weight:normal;font-stretch:normal;font-size:7.66842px;font-family:sans-serif;-inkscape-font-specification:sans-serif;stroke-width:0.844236"
         id="path6192"
         inkscape:connector-curvature="0" />
      <path
         d="m -929.03579,401.33745 q 0,0.57288 -0.47553,0.93983 -0.47179,0.36694 -1.2918,0.36694 -0.4643,0 -0.85371,-0.10858 -0.38567,-0.11233 -0.64778,-0.24339 v -0.79005 h 0.0374 q 0.33325,0.25087 0.74138,0.40064 0.40813,0.14603 0.78257,0.14603 0.4643,0 0.7264,-0.14977 0.2621,-0.14978 0.2621,-0.47179 0,-0.24713 -0.14228,-0.37443 -0.14229,-0.12731 -0.54668,-0.21718 -0.14977,-0.0337 -0.39315,-0.0786 -0.23964,-0.0449 -0.43809,-0.0974 -0.55042,-0.14603 -0.78257,-0.42686 -0.2284,-0.28457 -0.2284,-0.69644 0,-0.25836 0.10484,-0.48677 0.10858,-0.2284 0.32576,-0.40813 0.20968,-0.17599 0.53169,-0.27708 0.32576,-0.10485 0.72641,-0.10485 0.37443,0 0.75635,0.0936 0.38567,0.0899 0.64029,0.22092 v 0.75261 h -0.0375 q -0.26959,-0.19845 -0.65526,-0.33324 -0.38566,-0.13855 -0.75635,-0.13855 -0.38567,0 -0.65152,0.14978 -0.26585,0.14603 -0.26585,0.43809 0,0.25836 0.16101,0.38941 0.15726,0.13105 0.50923,0.21343 0.19471,0.0449 0.43434,0.0899 0.24339,0.0449 0.40439,0.0824 0.49051,0.11233 0.75636,0.38566 0.26585,0.27709 0.26585,0.7339 z"
         style="font-style:normal;font-variant:normal;font-weight:normal;font-stretch:normal;font-size:7.66842px;font-family:sans-serif;-inkscape-font-specification:sans-serif;stroke-width:0.844236"
         id="path6194"
         inkscape:connector-curvature="0" />
      <path
         d="m -939.25612,406.73596 q 0.34074,0.37443 0.52047,0.91736 0.18347,0.54293 0.18347,1.23189 0,0.68896 -0.18722,1.23564 -0.18347,0.54293 -0.51672,0.90613 -0.34448,0.37818 -0.81626,0.56914 -0.46805,0.19096 -1.07089,0.19096 -0.58786,0 -1.07088,-0.19471 -0.47928,-0.1947 -0.81627,-0.56539 -0.33699,-0.37069 -0.52046,-0.90988 -0.17973,-0.53918 -0.17973,-1.23189 0,-0.68147 0.17973,-1.22065 0.17973,-0.54293 0.52421,-0.9286 0.3295,-0.36695 0.81626,-0.56165 0.49051,-0.19471 1.06714,-0.19471 0.5991,0 1.07463,0.19845 0.47928,0.19471 0.81252,0.55791 z m -0.0674,2.14925 q 0,-1.08586 -0.48677,-1.67372 -0.48676,-0.59161 -1.32924,-0.59161 -0.84997,0 -1.33673,0.59161 -0.48303,0.58786 -0.48303,1.67372 0,1.0971 0.49426,1.68121 0.49425,0.58038 1.3255,0.58038 0.83124,0 1.32175,-0.58038 0.49426,-0.58411 0.49426,-1.68121 z"
         style="font-style:normal;font-variant:normal;font-weight:normal;font-stretch:normal;font-size:7.66842px;font-family:sans-serif;-inkscape-font-specification:sans-serif;stroke-width:0.844236"
         id="path6196"
         inkscape:connector-curvature="0" />
      <path
         d="m -933.9354,411.67101 h -0.70394 v -2.38141 q 0,-0.28831 -0.0337,-0.53918 -0.0337,-0.25462 -0.12357,-0.3969 -0.0936,-0.15727 -0.26959,-0.23215 -0.17599,-0.0786 -0.45681,-0.0786 -0.28832,0 -0.60284,0.14229 -0.31453,0.14228 -0.60284,0.3632 v 3.12279 h -0.70394 v -4.18244 h 0.70394 v 0.4643 q 0.3295,-0.27334 0.68147,-0.42686 0.35197,-0.15351 0.72266,-0.15351 0.67773,0 1.03344,0.40813 0.35571,0.40813 0.35571,1.17572 z"
         style="font-style:normal;font-variant:normal;font-weight:normal;font-stretch:normal;font-size:7.66842px;font-family:sans-serif;-inkscape-font-specification:sans-serif;stroke-width:0.844236"
         id="path6198"
         inkscape:connector-curvature="0" />
      <path
         d="m -929.07899,409.6528 h -3.08159 q 0,0.38567 0.11607,0.67399 0.11608,0.28457 0.31827,0.46804 0.19471,0.17973 0.46056,0.26959 0.26959,0.0899 0.5916,0.0899 0.42686,0 0.85746,-0.1685 0.43434,-0.17224 0.61782,-0.33699 h 0.0374 v 0.76759 q -0.35571,0.14977 -0.7264,0.25087 -0.37069,0.1011 -0.77883,0.1011 -1.04093,0 -1.62504,-0.56165 -0.58412,-0.5654 -0.58412,-1.60258 0,-1.02595 0.55791,-1.62879 0.56165,-0.60284 1.47527,-0.60284 0.84622,0 1.30303,0.49425 0.46055,0.49425 0.46055,1.40413 z m -0.68521,-0.53918 q -0.004,-0.55417 -0.28083,-0.85746 -0.27333,-0.30329 -0.83499,-0.30329 -0.56539,0 -0.90238,0.33325 -0.33325,0.33324 -0.37818,0.8275 z"
         style="font-style:normal;font-variant:normal;font-weight:normal;font-stretch:normal;font-size:7.66842px;font-family:sans-serif;-inkscape-font-specification:sans-serif;stroke-width:0.844236"
         id="path6200"
         inkscape:connector-curvature="0" />
    </g>
    <flowRoot
       xml:space="preserve"
       id="flowRoot4937"
       style="font-style:normal;font-weight:normal;font-size:10.6667px;line-height:1.25;font-family:sans-serif;letter-spacing:0px;word-spacing:0px;fill:#000000;fill-opacity:1;stroke:none;stroke-width:0.88074"
       transform="matrix(0.26458333,0,0,0.26458333,6.6477061,63.816955)"><flowRegion
         id="flowRegion4939"><rect
           id="rect4941"
           width="31.062191"
           height="10.859139"
           x="98.237335"
           y="242.7276" /></flowRegion><flowPara
         id="flowPara4943">color</flowPara></flowRoot>
    <g
       style="font-size:4.9389px;line-height:1.25;font-family:sans-serif;letter-spacing:0px;word-spacing:0px;stroke-width:0.264583"
       id="text1024"
       aria-label="poly
shift">
      <path
         id="path1293"
         style="stroke-width:0.264583"
         d="m 9.6168193,69.122482 v 1.432474 H 9.1706784 v -3.728291 h 0.4461409 v 0.409967 q 0.1398712,-0.241157 0.3520896,-0.356912 0.2146301,-0.118167 0.5112531,-0.118167 0.491961,0 0.798231,0.390674 0.308681,0.390675 0.308681,1.02733 0,0.636655 -0.308681,1.02733 -0.30627,0.390675 -0.798231,0.390675 -0.296623,0 -0.5112531,-0.115756 -0.2122184,-0.118167 -0.3520896,-0.359324 z m 1.5096447,-0.942925 q 0,-0.489549 -0.202573,-0.76688 -0.20016,-0.279742 -0.55225,-0.279742 -0.352089,0 -0.5546612,0.279742 -0.2001605,0.277331 -0.2001605,0.76688 0,0.489549 0.2001605,0.769292 0.2025722,0.277331 0.5546612,0.277331 0.35209,0 0.55225,-0.277331 0.202573,-0.279743 0.202573,-0.769292 z" />
      <path
         id="path1295"
         style="stroke-width:0.264583"
         d="m 13.369226,67.137758 q -0.356913,0 -0.564308,0.279742 -0.207395,0.277331 -0.207395,0.762057 0,0.484726 0.204983,0.764469 0.207395,0.27733 0.56672,0.27733 0.354501,0 0.561896,-0.279742 0.207395,-0.279742 0.207395,-0.762057 0,-0.479903 -0.207395,-0.759645 -0.207395,-0.282154 -0.561896,-0.282154 z m 0,-0.376205 q 0.578777,0 0.909162,0.376205 0.330386,0.376205 0.330386,1.041799 0,0.663183 -0.330386,1.041799 -0.330385,0.376206 -0.909162,0.376206 -0.581189,0 -0.911575,-0.376206 -0.327973,-0.378616 -0.327973,-1.041799 0,-0.665594 0.327973,-1.041799 0.330386,-0.376205 0.911575,-0.376205 z" />
      <path
         id="path1297"
         style="stroke-width:0.264583"
         d="m 15.341892,65.77522 h 0.443729 v 3.752406 h -0.443729 z" />
      <path
         id="path1299"
         style="stroke-width:0.264583"
         d="m 17.835458,69.77843 q -0.188103,0.482314 -0.366559,0.62942 -0.178457,0.147106 -0.477492,0.147106 h -0.354501 v -0.371382 h 0.26045 q 0.18328,0 0.284566,-0.08682 0.101286,-0.08682 0.224276,-0.409967 l 0.07958,-0.202572 -1.092443,-2.657553 h 0.470257 l 0.84405,2.112537 0.844051,-2.112537 h 0.470256 z" />
      <path
         id="path1301"
         style="stroke-width:0.264583"
         d="m 10.909422,73.079872 v 0.419614 q -0.188103,-0.09646 -0.390675,-0.144695 -0.202572,-0.04823 -0.419613,-0.04823 -0.3303856,0 -0.4967841,0.101286 -0.1639869,0.101286 -0.1639869,0.303858 0,0.154341 0.118167,0.243569 0.1181671,0.08682 0.47508,0.166398 l 0.151929,0.03376 q 0.472668,0.101286 0.670417,0.286977 0.20016,0.18328 0.20016,0.513665 0,0.376205 -0.299035,0.595659 -0.296623,0.219453 -0.8175226,0.219453 -0.2170415,0 -0.4533756,-0.04341 -0.2339225,-0.041 -0.4943723,-0.125401 v -0.458199 q 0.2459804,0.127813 0.4847261,0.192926 0.2387456,0.0627 0.4726681,0.0627 0.3135043,0 0.4823143,-0.106109 0.16881,-0.10852 0.16881,-0.303858 0,-0.180868 -0.12299,-0.277331 -0.120579,-0.09646 -0.5329574,-0.185691 L 9.7880409,74.490642 Q 9.3756621,74.403825 9.1923826,74.225369 9.0091031,74.044501 9.0091031,73.730996 q 0,-0.381028 0.2700961,-0.588423 0.2700961,-0.207395 0.7668798,-0.207395 0.245981,0 0.463022,0.03617 0.217042,0.03617 0.400321,0.108521 z" />
      <path
         id="path1303"
         style="stroke-width:0.264583"
         d="m 14.008292,74.071028 v 1.630223 h -0.443729 v -1.615753 q 0,-0.38344 -0.149517,-0.573955 -0.149518,-0.190514 -0.448553,-0.190514 -0.359324,0 -0.566719,0.2291 -0.207396,0.229099 -0.207396,0.624597 v 1.526525 h -0.44614 v -3.752406 h 0.44614 v 1.471059 q 0.159164,-0.243569 0.373794,-0.364148 0.217042,-0.120578 0.499196,-0.120578 0.465433,0 0.704179,0.289388 0.238745,0.286977 0.238745,0.846462 z" />
      <path
         id="path1305"
         style="stroke-width:0.264583"
         d="m 14.898162,73.00029 h 0.44373 v 2.700961 h -0.44373 z m 0,-1.051445 h 0.44373 v 0.561896 h -0.44373 z" />
      <path
         id="path1307"
         style="stroke-width:0.264583"
         d="m 17.635297,71.948845 v 0.36897 H 17.21086 q -0.238745,0 -0.332797,0.09646 -0.09164,0.09646 -0.09164,0.347266 v 0.238746 h 0.730706 v 0.344855 h -0.730706 v 2.356106 H 16.340283 V 73.345145 H 15.915846 V 73.00029 h 0.424437 v -0.188103 q 0,-0.450964 0.209807,-0.655947 0.209806,-0.207395 0.665594,-0.207395 z" />
      <path
         id="path1309"
         style="stroke-width:0.264583"
         d="m 18.356357,72.23341 v 0.76688 h 0.913986 v 0.344855 h -0.913986 v 1.466236 q 0,0.330385 0.08923,0.424437 0.09164,0.09405 0.36897,0.09405 h 0.455787 v 0.371382 h -0.455787 q -0.513665,0 -0.709002,-0.190514 -0.195337,-0.192926 -0.195337,-0.699356 V 73.345145 H 17.584654 V 73.00029 h 0.325563 v -0.76688 z" />
    </g>
    <rect
       y="159.57755"
       x="9.4644518"
       height="10.535396"
       width="10.583327"
       id="rect5287-3"
       style="fill:url(#linearGradient1231);fill-opacity:1;stroke-width:0.321107" />
    <g
       transform="matrix(0.27602377,0,0,0.35240409,281.8326,-6.9965317)"
       id="text5967-7-1-6"
       style="font-style:normal;font-variant:normal;font-weight:bold;font-stretch:normal;font-size:12.7807px;line-height:1.25;font-family:sans-serif;-inkscape-font-specification:'sans-serif Bold';letter-spacing:0px;word-spacing:0px;fill:#000000;fill-opacity:1;stroke:none;stroke-width:0.844236"
       aria-label="in">
      <path
         inkscape:connector-curvature="0"
         id="path6210-0"
         style="font-style:normal;font-variant:normal;font-weight:normal;font-stretch:normal;font-size:7.66842px;font-family:sans-serif;-inkscape-font-specification:sans-serif;stroke-width:0.844236"
         d="m -969.61441,435.80155 h -0.79381 v -0.73015 h 0.79381 z m -0.0449,4.88262 h -0.70393 v -4.18243 h 0.70393 z" />
      <path
         inkscape:connector-curvature="0"
         id="path6212-6"
         style="font-style:normal;font-variant:normal;font-weight:normal;font-stretch:normal;font-size:7.66842px;font-family:sans-serif;-inkscape-font-specification:sans-serif;stroke-width:0.844236"
         d="m -964.76174,440.68417 h -0.70394 v -2.3814 q 0,-0.28832 -0.0337,-0.53919 -0.0337,-0.25461 -0.12356,-0.3969 -0.0936,-0.15726 -0.26959,-0.23215 -0.17599,-0.0786 -0.45681,-0.0786 -0.28832,0 -0.60284,0.14229 -0.31453,0.14228 -0.60284,0.3632 v 3.12278 h -0.70394 v -4.18243 h 0.70394 v 0.4643 q 0.3295,-0.27334 0.68147,-0.42686 0.35197,-0.15352 0.72266,-0.15352 0.67772,0 1.03344,0.40814 0.35571,0.40813 0.35571,1.17572 z" />
    </g>
    <g
       id="text4973-2"
       style="font-style:normal;font-weight:normal;font-size:10.2246px;line-height:1.25;font-family:sans-serif;letter-spacing:0px;word-spacing:0px;fill:#000000;fill-opacity:1;stroke:none;stroke-width:0.844236"
       aria-label="out"
       transform="matrix(0.27602378,0,0,0.27602378,259.59973,41.766873)">
      <path
         inkscape:connector-curvature="0"
         id="path4975-6"
         style="stroke-width:0.844236"
         d="m -892.44242,419.37275 q -0.73888,0 -1.16824,0.57913 -0.42935,0.57413 -0.42935,1.57762 0,1.00348 0.42436,1.58261 0.42935,0.57413 1.17323,0.57413 0.73389,0 1.16324,-0.57913 0.42936,-0.57912 0.42936,-1.57761 0,-0.9935 -0.42936,-1.57263 -0.42935,-0.58412 -1.16324,-0.58412 z m 0,-0.77882 q 1.19819,0 1.88216,0.77882 0.68397,0.77883 0.68397,2.15675 0,1.37292 -0.68397,2.15674 -0.68397,0.77882 -1.88216,0.77882 -1.20318,0 -1.88715,-0.77882 -0.67897,-0.78382 -0.67897,-2.15674 0,-1.37792 0.67897,-2.15675 0.68397,-0.77882 1.88715,-0.77882 z" />
      <path
         inkscape:connector-curvature="0"
         id="path4977-1"
         style="stroke-width:0.844236"
         d="m -888.45344,422.11361 v -3.38489 h 0.91861 v 3.34995 q 0,0.7938 0.30953,1.1932 0.30954,0.3944 0.9286,0.3944 0.74388,0 1.17323,-0.47428 0.43434,-0.47429 0.43434,-1.29305 v -3.17022 h 0.91862 v 5.59156 h -0.91862 v -0.8587 q -0.33449,0.50923 -0.77882,0.75885 -0.43934,0.24463 -1.02345,0.24463 -0.96355,0 -1.4628,-0.59909 -0.49924,-0.5991 -0.49924,-1.75236 z m 2.31151,-3.51968 z" />
      <path
         inkscape:connector-curvature="0"
         id="path4979-8"
         style="stroke-width:0.844236"
         d="m -880.95976,417.14112 v 1.5876 h 1.89215 v 0.71393 h -1.89215 v 3.03541 q 0,0.68397 0.18472,0.87868 0.18972,0.1947 0.76385,0.1947 h 0.94358 v 0.76884 h -0.94358 q -1.06339,0 -1.46778,-0.3944 -0.40439,-0.3994 -0.40439,-1.44782 v -3.03541 h -0.67398 v -0.71393 h 0.67398 v -1.5876 z" />
    </g>
    <g
       style="font-size:2.82223px;line-height:1.25;font-family:sans-serif;letter-spacing:0px;word-spacing:0px;stroke-width:0.264583"
       id="text1097-0"
       aria-label="trigger">
      <path
         id="path1344"
         style="stroke-width:0.264583"
         d="m 10.65713,134.09415 v 0.43822 h 0.522278 v 0.19706 H 10.65713 v 0.83785 q 0,0.18879 0.05099,0.24253 0.05237,0.0538 0.21084,0.0538 h 0.26045 v 0.21222 h -0.26045 q -0.293523,0 -0.405144,-0.10887 -0.111621,-0.11024 -0.111621,-0.39963 v -0.83785 h -0.186036 v -0.19706 h 0.186036 v -0.43822 z" />
      <path
         id="path1346"
         style="stroke-width:0.264583"
         d="m 12.408622,134.76939 q -0.04272,-0.0248 -0.09371,-0.0358 -0.04961,-0.0124 -0.110243,-0.0124 -0.214975,0 -0.33073,0.14056 -0.114378,0.13918 -0.114378,0.40101 v 0.81305 h -0.254938 v -1.54341 h 0.254938 v 0.23978 q 0.07993,-0.14056 0.208084,-0.20809 0.128158,-0.0689 0.311438,-0.0689 0.02618,0 0.05788,0.004 0.03169,0.003 0.07028,0.01 z" />
      <path
         id="path1348"
         style="stroke-width:0.264583"
         d="m 12.67734,134.53237 h 0.25356 v 1.54341 h -0.25356 z m 0,-0.60083 h 0.25356 v 0.32109 h -0.25356 z" />
      <path
         id="path1350"
         style="stroke-width:0.264583"
         d="m 14.475685,135.28616 q 0,-0.27561 -0.114378,-0.4272 -0.112999,-0.15158 -0.318327,-0.15158 -0.20395,0 -0.318328,0.15158 -0.112999,0.15159 -0.112999,0.4272 0,0.27423 0.112999,0.42581 0.114378,0.15159 0.318328,0.15159 0.205328,0 0.318327,-0.15159 0.114378,-0.15158 0.114378,-0.42581 z m 0.25356,0.59807 q 0,0.39412 -0.175012,0.58567 -0.175011,0.19292 -0.536058,0.19292 -0.13367,0 -0.252182,-0.0207 -0.118511,-0.0193 -0.230133,-0.0606 v -0.24667 q 0.111622,0.0606 0.220487,0.0896 0.108865,0.0289 0.221865,0.0289 0.249425,0 0.373449,-0.13092 0.124024,-0.12953 0.124024,-0.39274 v -0.1254 q -0.07855,0.13643 -0.201194,0.20395 -0.122646,0.0675 -0.293523,0.0675 -0.283877,0 -0.45751,-0.21636 -0.173633,-0.21635 -0.173633,-0.57326 0,-0.35829 0.173633,-0.57465 0.173633,-0.21635 0.45751,-0.21635 0.170877,0 0.293523,0.0675 0.122646,0.0675 0.201194,0.20396 v -0.23427 h 0.25356 z" />
      <path
         id="path1352"
         style="stroke-width:0.264583"
         d="m 16.26714,135.28616 q 0,-0.27561 -0.114378,-0.4272 -0.112999,-0.15158 -0.318328,-0.15158 -0.20395,0 -0.318327,0.15158 -0.113,0.15159 -0.113,0.4272 0,0.27423 0.113,0.42581 0.114377,0.15159 0.318327,0.15159 0.205329,0 0.318328,-0.15159 0.114378,-0.15158 0.114378,-0.42581 z m 0.253559,0.59807 q 0,0.39412 -0.175011,0.58567 -0.175011,0.19292 -0.536058,0.19292 -0.133671,0 -0.252182,-0.0207 -0.118512,-0.0193 -0.230133,-0.0606 v -0.24667 q 0.111621,0.0606 0.220487,0.0896 0.108865,0.0289 0.221864,0.0289 0.249426,0 0.37345,-0.13092 0.124024,-0.12953 0.124024,-0.39274 v -0.1254 q -0.07855,0.13643 -0.201195,0.20395 -0.122645,0.0675 -0.293523,0.0675 -0.283876,0 -0.45751,-0.21636 -0.173633,-0.21635 -0.173633,-0.57326 0,-0.35829 0.173633,-0.57465 0.173634,-0.21635 0.45751,-0.21635 0.170878,0 0.293523,0.0675 0.122646,0.0675 0.201195,0.20396 v -0.23427 h 0.253559 z" />
      <path
         id="path1354"
         style="stroke-width:0.264583"
         d="m 18.363142,135.24068 v 0.12403 h -1.165824 q 0.01654,0.26182 0.157097,0.39963 0.141938,0.13642 0.39412,0.13642 0.146072,0 0.282498,-0.0358 0.137805,-0.0358 0.272853,-0.10748 v 0.23978 q -0.136426,0.0579 -0.279743,0.0882 -0.143316,0.0303 -0.290767,0.0303 -0.369315,0 -0.585667,-0.21498 -0.214975,-0.21497 -0.214975,-0.58153 0,-0.37896 0.20395,-0.60083 0.205328,-0.22324 0.552595,-0.22324 0.311438,0 0.491961,0.2012 0.181902,0.19981 0.181902,0.54432 z m -0.25356,-0.0744 q -0.0028,-0.20809 -0.117134,-0.33211 -0.112999,-0.12402 -0.300413,-0.12402 -0.212218,0 -0.340376,0.11989 -0.12678,0.11988 -0.146073,0.33762 z" />
      <path
         id="path1356"
         style="stroke-width:0.264583"
         d="m 19.67366,134.76939 q -0.04272,-0.0248 -0.09371,-0.0358 -0.04961,-0.0124 -0.110243,-0.0124 -0.214975,0 -0.33073,0.14056 -0.114378,0.13918 -0.114378,0.40101 v 0.81305 h -0.254938 v -1.54341 h 0.254938 v 0.23978 q 0.07993,-0.14056 0.208085,-0.20809 0.128157,-0.0689 0.311437,-0.0689 0.02618,0 0.05788,0.004 0.0317,0.003 0.07028,0.01 z" />
    </g>
    <g
       style="font-size:2.82223px;line-height:1.25;font-family:sans-serif;letter-spacing:0px;word-spacing:0px;stroke-width:0.264583"
       id="text1101-3"
       aria-label="channels">
      <path
         id="path1359"
         style="stroke-width:0.264583"
         d="m 9.6283892,171.21156 v 0.23702 q -0.1074873,-0.0592 -0.2163526,-0.0882 -0.1074873,-0.0303 -0.2177306,-0.0303 -0.2466696,0 -0.3830957,0.1571 -0.1364262,0.15572 -0.1364262,0.43821 0,0.2825 0.1364262,0.4396 0.1364261,0.15572 0.3830957,0.15572 0.1102433,0 0.2177306,-0.0289 0.1088653,-0.0303 0.2163526,-0.0896 v 0.23426 q -0.1061092,0.0496 -0.2204867,0.0744 -0.1129995,0.0248 -0.2411574,0.0248 -0.3486446,0 -0.5539729,-0.21911 -0.2053283,-0.2191 -0.2053283,-0.59118 0,-0.37758 0.2067064,-0.59393 0.2080843,-0.21635 0.5691313,-0.21635 0.1171336,0 0.228755,0.0248 0.1116214,0.0234 0.2163526,0.0717 z" />
      <path
         id="path1361"
         style="stroke-width:0.264583"
         d="m 11.355076,171.76415 v 0.93156 h -0.25356 v -0.92329 q 0,-0.21911 -0.08544,-0.32797 -0.08544,-0.10887 -0.256316,-0.10887 -0.205329,0 -0.32384,0.13092 -0.118512,0.13091 -0.118512,0.35691 v 0.8723 h -0.254938 v -2.14423 h 0.254938 v 0.8406 q 0.09095,-0.13918 0.213597,-0.20808 0.124024,-0.0689 0.285254,-0.0689 0.265963,0 0.402389,0.16536 0.136426,0.16399 0.136426,0.48369 z" />
      <path
         id="path1363"
         style="stroke-width:0.264583"
         d="m 12.564997,171.91987 q -0.307303,0 -0.425815,0.0703 -0.118512,0.0703 -0.118512,0.23978 0,0.13505 0.08819,0.21498 0.08957,0.0785 0.242535,0.0785 0.210841,0 0.337621,-0.14882 0.128158,-0.15021 0.128158,-0.39826 v -0.0565 z m 0.505741,-0.10473 v 0.88057 h -0.253559 v -0.23427 q -0.08682,0.14056 -0.216353,0.20809 -0.129536,0.0661 -0.31695,0.0661 -0.237023,0 -0.377583,-0.13229 -0.139182,-0.13367 -0.139182,-0.35691 0,-0.26045 0.173633,-0.39274 0.175011,-0.1323 0.5209,-0.1323 h 0.355535 v -0.0248 q 0,-0.17501 -0.115756,-0.2701 -0.114377,-0.0965 -0.322462,-0.0965 -0.132292,0 -0.257694,0.0317 -0.125401,0.0317 -0.241157,0.0951 v -0.23427 q 0.139182,-0.0537 0.270096,-0.0799 0.130914,-0.0276 0.254938,-0.0276 0.334864,0 0.500229,0.17363 0.165365,0.17363 0.165365,0.52641 z" />
      <path
         id="path1365"
         style="stroke-width:0.264583"
         d="m 14.877351,171.76415 v 0.93156 h -0.253559 v -0.92329 q 0,-0.21911 -0.08544,-0.32797 -0.08544,-0.10887 -0.256316,-0.10887 -0.205328,0 -0.32384,0.13092 -0.118511,0.13091 -0.118511,0.35691 v 0.8723 h -0.254938 v -1.54341 h 0.254938 v 0.23978 q 0.09095,-0.13918 0.213596,-0.20808 0.124024,-0.0689 0.285255,-0.0689 0.265962,0 0.402388,0.16536 0.136426,0.16399 0.136426,0.48369 z" />
      <path
         id="path1367"
         style="stroke-width:0.264583"
         d="m 16.668806,171.76415 v 0.93156 h -0.25356 v -0.92329 q 0,-0.21911 -0.08544,-0.32797 -0.08544,-0.10887 -0.256316,-0.10887 -0.205328,0 -0.32384,0.13092 -0.118512,0.13091 -0.118512,0.35691 v 0.8723 h -0.254937 v -1.54341 h 0.254937 v 0.23978 q 0.09095,-0.13918 0.213597,-0.20808 0.124024,-0.0689 0.285255,-0.0689 0.265962,0 0.402388,0.16536 0.136426,0.16399 0.136426,0.48369 z" />
      <path
         id="path1369"
         style="stroke-width:0.264583"
         d="m 18.497468,171.86062 v 0.12402 h -1.165824 q 0.01654,0.26183 0.157097,0.39963 0.141939,0.13643 0.39412,0.13643 0.146073,0 0.282499,-0.0358 0.137804,-0.0358 0.272852,-0.10749 v 0.23978 q -0.136426,0.0579 -0.279742,0.0882 -0.143317,0.0303 -0.290767,0.0303 -0.369315,0 -0.585668,-0.21497 -0.214975,-0.21498 -0.214975,-0.58154 0,-0.37896 0.203951,-0.60082 0.205328,-0.22324 0.552594,-0.22324 0.311438,0 0.491962,0.20119 0.181901,0.19982 0.181901,0.54433 z m -0.25356,-0.0744 q -0.0028,-0.20808 -0.117133,-0.33211 -0.113,-0.12402 -0.300413,-0.12402 -0.212219,0 -0.340377,0.11989 -0.12678,0.11989 -0.146072,0.33762 z" />
      <path
         id="path1371"
         style="stroke-width:0.264583"
         d="m 18.913637,170.55148 h 0.253559 v 2.14423 h -0.253559 z" />
      <path
         id="path1373"
         style="stroke-width:0.264583"
         d="m 20.680287,171.19778 v 0.23978 q -0.107487,-0.0551 -0.223243,-0.0827 -0.115755,-0.0276 -0.239779,-0.0276 -0.188792,0 -0.283877,0.0579 -0.09371,0.0579 -0.09371,0.17363 0,0.0882 0.06752,0.13919 0.06752,0.0496 0.271475,0.0951 l 0.08682,0.0193 q 0.270096,0.0579 0.383096,0.16399 0.114377,0.10473 0.114377,0.29352 0,0.21498 -0.170877,0.34038 -0.169499,0.1254 -0.467156,0.1254 -0.124024,0 -0.259072,-0.0248 -0.13367,-0.0234 -0.282499,-0.0717 v -0.26183 q 0.140561,0.073 0.276987,0.11024 0.136426,0.0358 0.270096,0.0358 0.179146,0 0.275609,-0.0606 0.09646,-0.062 0.09646,-0.17363 0,-0.10336 -0.07028,-0.15848 -0.0689,-0.0551 -0.304547,-0.10611 l -0.08819,-0.0207 q -0.235645,-0.0496 -0.340376,-0.15158 -0.104731,-0.10336 -0.104731,-0.2825 0,-0.21773 0.15434,-0.33624 0.154341,-0.11851 0.438218,-0.11851 0.14056,0 0.264584,0.0207 0.124024,0.0207 0.228755,0.062 z" />
    </g>
    <rect
       style="display:inline;fill:url(#linearGradient5496);fill-opacity:1;stroke-width:1.16333"
       id="rect5287"
       width="38.342083"
       height="38.168434"
       x="-1082.1008"
       y="186.45662"
       transform="matrix(0.27602378,0,0,0.27602378,307.9791,52.061968)" />
    <g
       aria-label="in"
       style="font-style:normal;font-variant:normal;font-weight:bold;font-stretch:normal;font-size:12.7807px;line-height:1.25;font-family:sans-serif;-inkscape-font-specification:'sans-serif Bold';letter-spacing:0px;word-spacing:0px;display:inline;fill:#000000;fill-opacity:1;stroke:none;stroke-width:0.844236"
       id="text5967-7-1"
       transform="matrix(0.27602378,0,0,0.3524041,281.66168,-63.045657)">
      <path
         d="m -969.61441,435.80155 h -0.79381 v -0.73015 h 0.79381 z m -0.0449,4.88262 h -0.70393 v -4.18243 h 0.70393 z"
         style="font-style:normal;font-variant:normal;font-weight:normal;font-stretch:normal;font-size:7.66842px;font-family:sans-serif;-inkscape-font-specification:sans-serif;stroke-width:0.844236"
         id="path6210"
         inkscape:connector-curvature="0" />
      <path
         d="m -964.76174,440.68417 h -0.70394 v -2.3814 q 0,-0.28832 -0.0337,-0.53919 -0.0337,-0.25461 -0.12356,-0.3969 -0.0936,-0.15726 -0.26959,-0.23215 -0.17599,-0.0786 -0.45681,-0.0786 -0.28832,0 -0.60284,0.14229 -0.31453,0.14228 -0.60284,0.3632 v 3.12278 h -0.70394 v -4.18243 h 0.70394 v 0.4643 q 0.3295,-0.27334 0.68147,-0.42686 0.35197,-0.15352 0.72266,-0.15352 0.67772,0 1.03344,0.40814 0.35571,0.40813 0.35571,1.17572 z"
         style="font-style:normal;font-variant:normal;font-weight:normal;font-stretch:normal;font-size:7.66842px;font-family:sans-serif;-inkscape-font-specification:sans-serif;stroke-width:0.844236"
         id="path6212"
         inkscape:connector-curvature="0" />
    </g>
    <g
       transform="matrix(0.27602378,0,0,0.27602378,259.42882,-14.282251)"
       aria-label="out"
       style="font-style:normal;font-weight:normal;font-size:10.2246px;line-height:1.25;font-family:sans-serif;letter-spacing:0px;word-spacing:0px;display:inline;fill:#000000;fill-opacity:1;stroke:none;stroke-width:0.844236"
       id="text4973">
      <path
         d="m -892.44242,419.37275 q -0.73888,0 -1.16824,0.57913 -0.42935,0.57413 -0.42935,1.57762 0,1.00348 0.42436,1.58261 0.42935,0.57413 1.17323,0.57413 0.73389,0 1.16324,-0.57913 0.42936,-0.57912 0.42936,-1.57761 0,-0.9935 -0.42936,-1.57263 -0.42935,-0.58412 -1.16324,-0.58412 z m 0,-0.77882 q 1.19819,0 1.88216,0.77882 0.68397,0.77883 0.68397,2.15675 0,1.37292 -0.68397,2.15674 -0.68397,0.77882 -1.88216,0.77882 -1.20318,0 -1.88715,-0.77882 -0.67897,-0.78382 -0.67897,-2.15674 0,-1.37792 0.67897,-2.15675 0.68397,-0.77882 1.88715,-0.77882 z"
         style="stroke-width:0.844236"
         id="path4975"
         inkscape:connector-curvature="0" />
      <path
         d="m -888.45344,422.11361 v -3.38489 h 0.91861 v 3.34995 q 0,0.7938 0.30953,1.1932 0.30954,0.3944 0.9286,0.3944 0.74388,0 1.17323,-0.47428 0.43434,-0.47429 0.43434,-1.29305 v -3.17022 h 0.91862 v 5.59156 h -0.91862 v -0.8587 q -0.33449,0.50923 -0.77882,0.75885 -0.43934,0.24463 -1.02345,0.24463 -0.96355,0 -1.4628,-0.59909 -0.49924,-0.5991 -0.49924,-1.75236 z m 2.31151,-3.51968 z"
         style="stroke-width:0.844236"
         id="path4977"
         inkscape:connector-curvature="0" />
      <path
         d="m -880.95976,417.14112 v 1.5876 h 1.89215 v 0.71393 h -1.89215 v 3.03541 q 0,0.68397 0.18472,0.87868 0.18972,0.1947 0.76385,0.1947 h 0.94358 v 0.76884 h -0.94358 q -1.06339,0 -1.46778,-0.3944 -0.40439,-0.3994 -0.40439,-1.44782 v -3.03541 h -0.67398 v -0.71393 h 0.67398 v -1.5876 z"
         style="stroke-width:0.844236"
         id="path4979"
         inkscape:connector-curvature="0" />
    </g>
    <g
       style="font-size:10.2246px;line-height:1.25;font-family:sans-serif;letter-spacing:0px;word-spacing:0px;display:inline;stroke-width:0.958551"
       id="text1097"
       transform="matrix(0.27602378,0,0,0.27602378,307.9791,52.061968)"
       aria-label="trigger">
      <path
         id="path1312"
         style="stroke-width:0.958551"
         d="m -1077.7799,94.133389 v 1.587609 h 1.8921 v 0.713925 h -1.8921 v 3.035428 q 0,0.683969 0.1847,0.878679 0.1897,0.1947 0.7639,0.1947 h 0.9435 v 0.76885 h -0.9435 q -1.0634,0 -1.4678,-0.39441 -0.4044,-0.3994 -0.4044,-1.447819 v -3.035428 h -0.674 v -0.713925 h 0.674 v -1.587609 z" />
      <path
         id="path1314"
         style="stroke-width:0.958551"
         d="m -1071.4345,96.579705 q -0.1547,-0.08987 -0.3395,-0.129805 -0.1797,-0.04493 -0.3994,-0.04493 -0.7788,0 -1.1982,0.509233 -0.4143,0.504241 -0.4143,1.452812 v 2.945567 h -0.9236 v -5.591582 h 0.9236 v 0.868692 q 0.2895,-0.509233 0.7538,-0.753865 0.4643,-0.249624 1.1283,-0.249624 0.095,0 0.2097,0.01498 0.1148,0.01 0.2546,0.03495 z" />
      <path
         id="path1316"
         style="stroke-width:0.958551"
         d="m -1070.4609,95.720998 h 0.9186 v 5.591582 h -0.9186 z m 0,-2.176721 h 0.9186 v 1.163248 h -0.9186 z" />
      <path
         id="path1318"
         style="stroke-width:0.958551"
         d="m -1063.9458,98.451885 q 0,-0.998496 -0.4143,-1.547669 -0.4094,-0.549173 -1.1533,-0.549173 -0.7389,0 -1.1533,0.549173 -0.4093,0.549173 -0.4093,1.547669 0,0.993504 0.4093,1.542676 0.4144,0.549169 1.1533,0.549169 0.7439,0 1.1533,-0.549169 0.4143,-0.549172 0.4143,-1.542676 z m 0.9187,2.166735 q 0,1.42785 -0.6341,2.12181 -0.634,0.69894 -1.9421,0.69894 -0.4842,0 -0.9136,-0.0749 -0.4293,-0.0699 -0.8337,-0.21967 v -0.89366 q 0.4044,0.21967 0.7988,0.32451 0.3944,0.10485 0.8038,0.10485 0.9036,0 1.3529,-0.47429 0.4493,-0.46929 0.4493,-1.42286 v -0.45431 q -0.2845,0.49425 -0.7289,0.73888 -0.4443,0.24464 -1.0634,0.24464 -1.0284,0 -1.6575,-0.78382 -0.629,-0.783823 -0.629,-2.076875 0,-1.298045 0.629,-2.081864 0.6291,-0.78382 1.6575,-0.78382 0.6191,0 1.0634,0.244632 0.4444,0.244631 0.7289,0.738887 v -0.848722 h 0.9187 z" />
      <path
         id="path1320"
         style="stroke-width:0.958551"
         d="m -1057.4555,98.451885 q 0,-0.998496 -0.4144,-1.547669 -0.4094,-0.549173 -1.1533,-0.549173 -0.7389,0 -1.1532,0.549173 -0.4094,0.549173 -0.4094,1.547669 0,0.993504 0.4094,1.542676 0.4143,0.549169 1.1532,0.549169 0.7439,0 1.1533,-0.549169 0.4144,-0.549172 0.4144,-1.542676 z m 0.9186,2.166735 q 0,1.42785 -0.6341,2.12181 -0.634,0.69894 -1.942,0.69894 -0.4843,0 -0.9137,-0.0749 -0.4293,-0.0699 -0.8337,-0.21967 v -0.89366 q 0.4044,0.21967 0.7988,0.32451 0.3944,0.10485 0.8038,0.10485 0.9036,0 1.3529,-0.47429 0.4494,-0.46929 0.4494,-1.42286 v -0.45431 q -0.2846,0.49425 -0.7289,0.73888 -0.4444,0.24464 -1.0634,0.24464 -1.0285,0 -1.6575,-0.78382 -0.6291,-0.783823 -0.6291,-2.076875 0,-1.298045 0.6291,-2.081864 0.629,-0.78382 1.6575,-0.78382 0.619,0 1.0634,0.244632 0.4443,0.244631 0.7289,0.738887 v -0.848722 h 0.9186 z" />
      <path
         id="path1322"
         style="stroke-width:0.958551"
         d="m -1049.862,98.287133 v 0.449323 h -4.2236 q 0.06,0.948572 0.5691,1.447824 0.5143,0.49425 1.4279,0.49425 0.5292,0 1.0234,-0.1298 0.4993,-0.12981 0.9886,-0.38942 v 0.86869 q -0.4943,0.20969 -1.0135,0.31952 -0.5192,0.10984 -1.0534,0.10984 -1.338,0 -2.1218,-0.77883 -0.7789,-0.778826 -0.7789,-2.106825 0,-1.372933 0.7389,-2.176722 0.7439,-0.808782 2.002,-0.808782 1.1283,0 1.7823,0.728902 0.659,0.72391 0.659,1.97203 z m -0.9186,-0.269594 q -0.01,-0.753864 -0.4243,-1.203188 -0.4094,-0.449323 -1.0884,-0.449323 -0.7688,0 -1.2332,0.434346 -0.4593,0.434346 -0.5292,1.223158 z" />
      <path
         id="path1324"
         style="stroke-width:0.958551"
         d="m -1045.1141,96.579705 q -0.1548,-0.08987 -0.3395,-0.129805 -0.1797,-0.04493 -0.3994,-0.04493 -0.7788,0 -1.1982,0.509233 -0.4144,0.504241 -0.4144,1.452812 v 2.945567 h -0.9236 v -5.591582 h 0.9236 v 0.868692 q 0.2896,-0.509233 0.7539,-0.753865 0.4643,-0.249624 1.1283,-0.249624 0.095,0 0.2097,0.01498 0.1148,0.01 0.2546,0.03495 z" />
    </g>
    <g
       style="font-size:10.2246px;line-height:1.25;font-family:sans-serif;letter-spacing:0px;word-spacing:0px;display:inline;stroke-width:0.958551"
       id="text1101"
       transform="matrix(0.27602378,0,0,0.27602378,307.9791,52.061968)"
       aria-label="channels">
      <path
         id="path1327"
         style="stroke-width:0.958551"
         d="m -1081.5069,228.60517 v 0.85871 q -0.3894,-0.21468 -0.7838,-0.31952 -0.3894,-0.10984 -0.7888,-0.10984 -0.8937,0 -1.3879,0.56915 -0.4943,0.56415 -0.4943,1.5876 0,1.02346 0.4943,1.59261 0.4942,0.56415 1.3879,0.56415 0.3994,0 0.7888,-0.10485 0.3944,-0.10983 0.7838,-0.32451 v 0.84872 q -0.3844,0.17973 -0.7988,0.2696 -0.4094,0.0899 -0.8737,0.0899 -1.2631,0 -2.007,-0.7938 -0.7438,-0.79381 -0.7438,-2.14178 0,-1.36794 0.7488,-2.15175 0.7539,-0.78382 2.0619,-0.78382 0.4244,0 0.8288,0.0899 0.4044,0.0849 0.7838,0.25961 z" />
      <path
         id="path1329"
         style="stroke-width:0.958551"
         d="m -1075.2513,230.60715 v 3.37492 h -0.9186 v -3.34496 q 0,-0.79381 -0.3096,-1.18821 -0.3095,-0.39441 -0.9286,-0.39441 -0.7439,0 -1.1732,0.47429 -0.4294,0.47428 -0.4294,1.29305 v 3.16024 h -0.9236 v -7.7683 h 0.9236 v 3.04541 q 0.3295,-0.50424 0.7739,-0.75386 0.4493,-0.24962 1.0334,-0.24962 0.9636,0 1.4578,0.59909 0.4943,0.59411 0.4943,1.75236 z" />
      <path
         id="path1331"
         style="stroke-width:0.958551"
         d="m -1070.8679,231.1713 q -1.1133,0 -1.5427,0.25462 -0.4294,0.25462 -0.4294,0.86869 0,0.48927 0.3196,0.77883 0.3245,0.28457 0.8786,0.28457 0.7639,0 1.2232,-0.53919 0.4643,-0.54418 0.4643,-1.44282 v -0.2047 z m 1.8322,-0.37942 v 3.19019 h -0.9186 v -0.84872 q -0.3145,0.50923 -0.7838,0.75386 -0.4693,0.23964 -1.1483,0.23964 -0.8587,0 -1.3679,-0.47928 -0.5043,-0.48427 -0.5043,-1.29305 0,-0.94358 0.6291,-1.42285 0.634,-0.47928 1.8871,-0.47928 h 1.2881 v -0.0899 q 0,-0.63404 -0.4194,-0.97852 -0.4143,-0.34948 -1.1682,-0.34948 -0.4793,0 -0.9336,0.11483 -0.4543,0.11483 -0.8737,0.34448 v -0.84872 q 0.5043,-0.19471 0.9785,-0.28956 0.4743,-0.0999 0.9237,-0.0999 1.2131,0 1.8122,0.62905 0.5991,0.62905 0.5991,1.90713 z" />
      <path
         id="path1333"
         style="stroke-width:0.958551"
         d="m -1062.4905,230.60715 v 3.37492 h -0.9187 v -3.34496 q 0,-0.79381 -0.3095,-1.18821 -0.3095,-0.39441 -0.9286,-0.39441 -0.7439,0 -1.1732,0.47429 -0.4294,0.47428 -0.4294,1.29305 v 3.16024 h -0.9236 v -5.59158 h 0.9236 v 0.86869 q 0.3295,-0.50424 0.7739,-0.75386 0.4493,-0.24962 1.0334,-0.24962 0.9635,0 1.4578,0.59909 0.4943,0.59411 0.4943,1.75236 z" />
      <path
         id="path1335"
         style="stroke-width:0.958551"
         d="m -1056.0003,230.60715 v 3.37492 h -0.9186 v -3.34496 q 0,-0.79381 -0.3096,-1.18821 -0.3095,-0.39441 -0.9286,-0.39441 -0.7438,0 -1.1732,0.47429 -0.4294,0.47428 -0.4294,1.29305 v 3.16024 h -0.9236 v -5.59158 h 0.9236 v 0.86869 q 0.3296,-0.50424 0.7739,-0.75386 0.4493,-0.24962 1.0334,-0.24962 0.9636,0 1.4578,0.59909 0.4943,0.59411 0.4943,1.75236 z" />
      <path
         id="path1337"
         style="stroke-width:0.958551"
         d="m -1049.3753,230.95663 v 0.44932 h -4.2236 q 0.06,0.94857 0.5691,1.44782 0.5142,0.49426 1.4279,0.49426 0.5292,0 1.0234,-0.12981 0.4993,-0.1298 0.9885,-0.38941 v 0.86869 q -0.4942,0.20968 -1.0134,0.31952 -0.5193,0.10983 -1.0535,0.10983 -1.3379,0 -2.1218,-0.77882 -0.7788,-0.77883 -0.7788,-2.10683 0,-1.37293 0.7389,-2.17672 0.7439,-0.80878 2.002,-0.80878 1.1283,0 1.7823,0.7289 0.659,0.72391 0.659,1.97203 z m -0.9186,-0.2696 q -0.01,-0.75386 -0.4244,-1.20318 -0.4094,-0.44933 -1.0883,-0.44933 -0.7689,0 -1.2332,0.43435 -0.4593,0.43434 -0.5292,1.22316 z" />
      <path
         id="path1339"
         style="stroke-width:0.958551"
         d="m -1047.8676,226.21377 h 0.9187 v 7.7683 h -0.9187 z" />
      <path
         id="path1341"
         style="stroke-width:0.958551"
         d="m -1041.4672,228.55524 v 0.8687 q -0.3894,-0.1997 -0.8088,-0.29955 -0.4194,-0.0999 -0.8687,-0.0999 -0.6839,0 -1.0284,0.20968 -0.3395,0.20969 -0.3395,0.62905 0,0.31952 0.2446,0.50425 0.2446,0.17972 0.9835,0.34448 l 0.3146,0.0699 q 0.9785,0.20969 1.3879,0.59411 0.4143,0.37942 0.4143,1.06339 0,0.77883 -0.619,1.23315 -0.6141,0.45431 -1.6925,0.45431 -0.4493,0 -0.9386,-0.0899 -0.4842,-0.0849 -1.0234,-0.25961 v -0.94857 q 0.5092,0.2646 1.0035,0.3994 0.4942,0.1298 0.9785,0.1298 0.649,0 0.9985,-0.21967 0.3495,-0.22466 0.3495,-0.62905 0,-0.37444 -0.2547,-0.57414 -0.2496,-0.1997 -1.1033,-0.38442 l -0.3195,-0.0749 q -0.8537,-0.17973 -1.2332,-0.54918 -0.3794,-0.37443 -0.3794,-1.02346 0,-0.78881 0.5592,-1.21816 0.5591,-0.42935 1.5876,-0.42935 0.5092,0 0.9585,0.0749 0.4494,0.0749 0.8288,0.22466 z" />
    </g>
  </g>
  <g
     style="display:inline;opacity:0.989"
     inkscape:label="components"
     id="layer3"
     inkscape:groupmode="layer">
    <circle
       inkscape:label="IN2"
       r="3.9687498"
       cy="89.12204"
       cx="8.1084127"
       id="path1587-8-2-7-7"
       style="display:inline;fill:#00ff00;fill-opacity:1;stroke-width:0.264583" />
    <circle
       inkscape:label="OUT2"
       r="3.9687498"
       cy="101.02829"
       cx="8.1084127"
       id="path1389-5-9"
       style="display:inline;fill:#0000ff;fill-opacity:1;stroke-width:0.264583" />
    <circle
       inkscape:label="CHANNELS2"
       r="3.9687498"
       cy="112.93454"
       cx="8.1084127"
       id="path1587-8-0-3-9-2"
       style="display:inline;fill:#ff0000;fill-opacity:1;stroke-width:0.264583" />
    <circle
       style="display:inline;fill:#00ff00;fill-opacity:1;stroke-width:0.264583"
       id="path1587-8-2-5"
       cx="8.0357647"
       cy="77.168991"
       r="3.9687498"
       inkscape:label="TRIGGER2" />
    <circle
       style="display:inline;fill:#00ff00;fill-opacity:1;stroke-width:0.264583"
       id="path1587-8-2-7"
       cx="7.9374862"
       cy="33.072914"
       r="3.9687498"
       inkscape:label="IN1" />
    <circle
       style="display:inline;fill:#0000ff;fill-opacity:1;stroke-width:0.264583"
       id="path1389-5"
       cx="7.9374862"
       cy="44.979168"
       r="3.9687498"
       inkscape:label="OUT1" />
    <circle
       style="display:inline;fill:#ff0000;fill-opacity:1;stroke-width:0.264583"
       id="path1587-8-0-3-9"
       cx="7.9374862"
       cy="56.885418"
       r="3.9687498"
       inkscape:label="CHANNELS1" />
    <circle
       inkscape:label="TRIGGER1"
       r="3.9687498"
       cy="21.119864"
       cx="7.864841"
       id="path1587-8-2"
       style="display:inline;fill:#00ff00;fill-opacity:1;stroke-width:0.264583" />
  </g>
</svg>
