<?xml version="1.0" encoding="UTF-8" standalone="no"?>
<svg xmlns:dc="http://purl.org/dc/elements/1.1/" xmlns:cc="http://creativecommons.org/ns#"
     xmlns:rdf="http://www.w3.org/1999/02/22-rdf-syntax-ns#" xmlns:svg="http://www.w3.org/2000/svg"
     xmlns="http://www.w3.org/2000/svg" xmlns:sodipodi="http://sodipodi.sourceforge.net/DTD/sodipodi-0.dtd"
     xmlns:inkscape="http://www.inkscape.org/namespaces/inkscape" inkscape:version="1.0 (4035a4f, 2020-05-01)"
     sodipodi:docname="knob.svg" id="svg6151" version="1.1" viewBox="0 0 28.346455 28.346455" height="7.5mm"
     width="7.5mm">
    <metadata id="metadata6157">
        <rdf:RDF>
            <cc:Work rdf:about="">
                <dc:format>image/svg+xml</dc:format>
                <dc:type rdf:resource="http://purl.org/dc/dcmitype/StillImage"/>
                <dc:title></dc:title>
            </cc:Work>
        </rdf:RDF>
    </metadata>
    <defs id="defs6155"/>
    <sodipodi:namedview inkscape:current-layer="svg6151" inkscape:window-maximized="0" inkscape:window-y="23"
                        inkscape:window-x="0" inkscape:cy="10.63" inkscape:cx="10.63" inkscape:zoom="27.225903"
                        units="mm" inkscape:document-units="mm" showgrid="false" id="namedview6153"
                        inkscape:window-height="1229" inkscape:window-width="1850" inkscape:pageshadow="2"
                        inkscape:pageopacity="0" guidetolerance="10" gridtolerance="10" objecttolerance="10"
                        borderopacity="1" bordercolor="#666666" pagecolor="#ffffff"/>
    <g transform="matrix(1.3333234,0,0,1.3333234,0,0.00130647)" data-name="Layer 2" id="Layer_2">
        <g id="Knobs">
            <g id="layer1">
                <g id="g10272">
                    <g style="opacity:0.998;isolation:isolate" id="path9482">
                        <circle id="circle6140" style="fill:#a8b2a8" r="9.8800001" cy="10.63" cx="10.63"/>
                        <path id="path6142"
                              d="M 10.63,1.5 A 9.13,9.13 0 1 1 1.5,10.63 9.15,9.15 0 0 1 10.63,1.5 m 0,-1.5 A 10.63,10.63 0 1 0 21.26,10.63 10.63,10.63 0 0 0 10.63,0 Z"/>
                    </g>
                    <rect style="opacity:0.998;isolation:isolate;stroke:#1d1d1b;stroke-width:0.507839px;stroke-miterlimit:7.13232;stroke-opacity:0.12549"
                          rx="0.60000002" height="9.2399998" width="2.3699999" y="0.25" x="9.4499998" id="rect10232"/>
                </g>
                <path style="opacity:0.998;isolation:isolate;fill:#a8b2a8;stroke:#ebedeb;stroke-width:0.269112px;stroke-miterlimit:11.3386"
                      d="m 10.62,1.75 v 0 a 0.44,0.44 0 0 1 0.44,0.44 v 6.23 a 0.45,0.45 0 0 1 -0.44,0.45 v 0 A 0.45,0.45 0 0 1 10.17,8.42 V 2.19 a 0.44,0.44 0 0 1 0.45,-0.44 z"
                      id="rect2023"/>
            </g>
        </g>
    </g>
</svg>
