<?xml version="1.0" encoding="UTF-8" standalone="no"?>
<svg xmlns:dc="http://purl.org/dc/elements/1.1/" xmlns:cc="http://creativecommons.org/ns#"
     xmlns:rdf="http://www.w3.org/1999/02/22-rdf-syntax-ns#" xmlns:svg="http://www.w3.org/2000/svg"
     xmlns="http://www.w3.org/2000/svg" xmlns:sodipodi="http://sodipodi.sourceforge.net/DTD/sodipodi-0.dtd"
     xmlns:inkscape="http://www.inkscape.org/namespaces/inkscape" inkscape:version="1.0 (4035a4f, 2020-05-01)"
     sodipodi:docname="jack.svg" id="svg5571" version="1.1" viewBox="0 0 28.346455 28.346455" height="7.5mm"
     width="7.5mm">
    <metadata id="metadata5577">
        <rdf:RDF>
            <cc:Work rdf:about="">
                <dc:format>image/svg+xml</dc:format>
                <dc:type rdf:resource="http://purl.org/dc/dcmitype/StillImage"/>
                <dc:title></dc:title>
            </cc:Work>
        </rdf:RDF>
    </metadata>
    <defs id="defs5575"/>
    <sodipodi:namedview inkscape:current-layer="svg5571" inkscape:window-maximized="0" inkscape:window-y="23"
                        inkscape:window-x="0" inkscape:cy="10.685" inkscape:cx="10.63" inkscape:zoom="12.642597"
                        units="mm" inkscape:document-units="mm" showgrid="false" id="namedview5573"
                        inkscape:window-height="1088" inkscape:window-width="1858" inkscape:pageshadow="2"
                        inkscape:pageopacity="0" guidetolerance="10" gridtolerance="10" objecttolerance="10"
                        borderopacity="1" bordercolor="#666666" pagecolor="#ffffff"/>
    <g transform="matrix(1.3258372,0,0,1.3258372,0.03910046,5.4865438e-5)" data-name="Layer 2" id="Layer_2">
        <g id="Jacks">
            <g id="g5567">
                <g id="g5562">
                    <ellipse id="ellipse5558" style="fill:#e6e5e5" ry="10.35" rx="10.3" cy="10.69" cx="10.63"/>
                    <path id="path5560" style="fill:#636764"
                          d="m 10.63,0.67 a 10,10 0 1 1 -10,10 10,10 0 0 1 10,-10 M 10.63,0 A 10.69,10.69 0 1 0 21.26,10.69 10.66,10.66 0 0 0 10.63,0 Z"/>
                </g>
                <g id="layer1">
                    <path style="fill:#e6e5e5;stroke:#a8b2a8;stroke-width:1.5px;stroke-miterlimit:11.3386"
                          d="m 10.63,18.48 a 7.8,7.8 0 1 1 7.8,-7.79 7.79,7.79 0 0 1 -7.8,7.79" id="path7261"/>
                    <path style="fill:#3c3c3b" d="m 15.73,10.69 a 5.1,5.1 0 1 1 -5.1,-5.1 5.1,5.1 0 0 1 5.1,5.1"
                          id="path7265"/>
                </g>
            </g>
        </g>
    </g>
</svg>
